<svg xmlns="http://www.w3.org/2000/svg" id="Layer_1" viewBox="11.99 386.07 1000 251.87"><defs><style>.cls-1{fill:#fff}</style></defs><path d="M311.91 472.78c11.12.04 29.17 4.95 29.1 16.68l-.05 6.43-7.38-.05.04-4.29c.07-7.32-12.6-11.45-21.55-11.45-17.36-.1-30.75 13.36-30.87 32.24-.1 18.62 13.03 33.71 30.81 33.79 16.1.11 25.6-10.81 25.6-10.81l4.39 5.64s-10.79 12.65-30.17 12.52c-22.83-.16-38.84-18.49-38.75-41.19.17-22.56 16.85-39.66 38.82-39.52M355.7 483.33c0-1.54-.88-2.43-2.4-2.43h-4.68v-6.6l7.93.1c4.81 0 6.73 1.97 6.73 6.73l-.4 62.31c0 1.65.92 2.46 2.52 2.46l4.6.03-.03 6.57-7.82-.04c-4.88-.04-6.8-2.05-6.75-6.81l.31-62.33ZM382.62 505.7c.03-1.58-.81-2.4-2.37-2.45h-4.63l.02-6.56 7.87.04c4.77.05 6.74 2.07 6.74 6.6l-.2 26.92c0 8.81 1.41 16.64 12.13 16.64 12.69.12 20.59-11.07 20.69-23.13l.2-26.79 7.52.04-.23 46.86c0 1.65.88 2.42 2.4 2.52h4.67l-.08 6.47h-7.61c-4.75-.05-6.77-2.01-6.74-6.25v-2.56c.02-2.26.26-4.03.26-4.03h-.24c-2.33 5.46-9.58 14.08-21.87 13.99-13.25-.03-18.7-7.18-18.63-21.77zM474.37 547.81c9.9.02 18.06-8.22 18.19-22.45.03-13.61-7.28-22.46-17.54-22.5-9.38-.09-18.2 6.55-18.27 22.4 0 11.25 5.66 22.45 17.62 22.55m-24.71-63.91c0-1.54-.88-2.4-2.45-2.4l-4.56-.04.02-6.58 7.83.05c4.78.05 6.75 2.04 6.73 6.8l-.07 20.21c0 2.61-.27 4.54-.27 4.54h.25s4.63-10.59 18.96-10.5c15.08.08 24.26 12.12 24.18 29.45-.08 17.61-10.72 29.12-25.36 29.03-13.35-.08-18.33-10.93-18.33-10.93h-.1s.1 1.93.1 4.63v4.88l-7.35-.08.41-69.08ZM507.95 541h3.33c1.63.05 2.38-.83 2.51-2.41l5.5-64.01 15.13.07 15.96 37.65c1.86 4.58 3.85 10.55 3.85 10.55h.2s2.08-5.97 4.01-10.5l16.29-37.42 15.16.09 4.77 64.04c.01 1.59.87 2.48 2.4 2.48l3.5.06-.17 12.28-12.48-.1c-5.22 0-6.99-2.22-7.4-7.55l-2.48-35.07c-.45-5.27-.07-12.25-.07-12.25h-.19s-2.42 7.74-4.41 12.19l-13.22 28.99-11.84-.07-12.91-29.2c-1.93-4.44-4.3-12.25-4.3-12.25h-.19s.33 7.05-.14 12.25l-2.85 35.1c-.48 5.33-2.37 7.53-7.54 7.48l-12.55-.07.12-12.32ZM629.99 544.46c7.59.01 12.9-7.96 12.97-14.79v-1.37h-2.44c-7.3-.09-19.06.91-19.06 8.72 0 3.82 2.7 7.44 8.53 7.44m11.03-25.85h1.77v-.42c.07-8.07-3.18-11.15-10.37-11.15-2.58 0-7.57.63-7.62 3.75v2.93h-13.1l.04-6.05c.04-10.5 15-11.53 20.87-11.53 18.86.09 24.3 10.06 24.3 22.65l-.2 21.12c0 1.51.92 2.43 2.48 2.43l4.42.04-.04 11.89-12.67-.07c-5.23-.04-7.16-2.88-7.16-6.29 0-1.38.1-2.4.1-2.4h-.28s-4.3 9.94-17.1 9.88c-10.06-.06-19.3-6.4-19.2-17.78.1-17.73 24.48-19.06 33.75-19ZM673.83 489.94c0-1.65-.84-2.41-2.45-2.45l-4.44-.05.04-11.95 13.45.07c5.21.03 7.57 2.36 7.57 7.46l-.19 19.87c0 2.8-.25 4.77-.25 4.77h.25c2.69-5.4 9.76-11.14 19.5-11.06 12.66.04 19.79 6.68 19.64 21.63l-.09 22.09c0 1.53.84 2.49 2.36 2.49h4.47l-.03 11.93-13.49-.13c-5.22-.02-7.41-2.27-7.38-7.56l.17-26c.04-6.87-1.83-11.56-8.94-11.56-7.48-.08-13.27 4.77-15.37 11.68-.65 2.19-.95 4.63-.95 7.27l-.15 25.98-14.16-.09.43-64.41ZM746.53 476.01l12.16.03-.06 12.98-12.16-.08zm-.88 36.61c0-1.71-.84-2.47-2.44-2.5h-4.42l.08-12.01 13.41.1c5.21.05 7.43 2.4 7.43 7.61l-.19 34.75c0 1.53.78 2.45 2.36 2.45h4.55l-.21 11.88-13.4-.07c-5.18 0-7.41-2.26-7.41-7.59l.22-34.62ZM778.4 512.81c0-1.65-.86-2.45-2.36-2.48h-4.47l.05-12.02 13.02.13c4.98 0 7.39 2.34 7.31 6.34v1.62c0 1.26-.21 2.49-.21 2.49h.21c2.54-4.79 8.73-11.74 20.13-11.66 12.56.08 19.69 6.68 19.6 21.65l-.11 22.06c0 1.6.83 2.44 2.4 2.44l4.47.09-.1 11.89-13.4-.13c-5.29-.04-7.52-2.29-7.52-7.57l.16-25.95c.03-6.87-1.72-11.61-8.8-11.61-7.58-.04-13.28 4.65-15.28 11.45-.82 2.3-1.14 4.86-1.14 7.55l-.19 25.97-13.97-.13.2-42.14ZM886.61 527.22c.11-8.76-4.44-17.45-13.89-17.49-7.74-.07-14.21 6.19-14.28 17.49-.1 10.73 5.56 17.77 13.89 17.77 7.31.04 14.23-5.23 14.28-17.77m-16.56-29.66c12.26.11 16.24 7.04 16.24 7.04h.26s-.17-1.46-.07-3.36l.07-10c0-1.62-.93-2.45-2.47-2.45l-4.45-.03.04-11.93 13.44.13c5.22 0 7.53 2.32 7.53 7.5l-.31 56.95c0 1.58.86 2.47 2.45 2.48h4.37l-.12 11.93-13.07-.11c-5.05-.04-6.9-2.52-6.9-5.8v-2.13h-.19s-4.76 9.16-17.71 9.1c-15.34-.07-25.1-12.23-25.07-29.81.13-17.98 10.9-29.58 25.97-29.51ZM918.92 513.72c.07-1.73-.85-2.53-2.41-2.53h-4.39v-12.02l12.88.13c5.03 0 7.56 2.09 7.5 6.89v3.32c0 2.1-.26 3.55-.26 3.55h.26c2.61-8.1 9.41-14.5 18.06-14.46 1.25 0 2.53.29 2.53.29l-.07 13.83s-1.42-.21-3.45-.25c-6-.05-12.91 3.35-15.48 11.81-.81 2.77-1.23 5.89-1.26 9.25l-.14 22.35-14.01-.03.24-42.14ZM978.36 546.53c7.56.07 13.02-7.9 13.02-14.76v-1.35l-2.5-.05c-7.31-.03-18.99.92-18.99 8.78 0 3.82 2.71 7.38 8.47 7.38m11.04-25.79h1.77l.03-.48c.07-8.05-3.15-11.01-10.34-11.08-2.56 0-7.62.59-7.62 3.7v2.96l-13.1-.03.04-6.04c.03-10.46 14.94-11.56 20.85-11.5 18.83.18 24.34 9.99 24.28 22.68l-.12 21.13c-.04 1.54.91 2.44 2.37 2.48h4.43v11.92l-12.71-.15c-5.17 0-7.18-2.93-7.18-6.23.05-1.43.2-2.45.2-2.45h-.27s-4.4 9.95-17.17 9.92c-10.12-.12-19.27-6.47-19.2-17.79.17-17.79 24.52-19.06 33.73-19.02Z" class="cls-1"/><path d="M108.52 507.28c2.03-17.38-17.8-44.35-36.55-51.36-8.09-3.02-18.24-4.48-24.95 2.65-5.84 6.18-2.81 14.58.69 21.5 2.93 5.9.71 8.42-4.69 10.6-5.38 2.19-10.67 4.87-15.7 7.92-9.74 5.98-17.87 15.26-14.59 26.43 14.06 47.61 94.84-9.77 95.78-17.75" style="fill:#fd9c1b"/><path d="M128.62 427.54c-2.58-5.87-9.27-30.84-21.77-27.24-10.88 3.13-19.06 38.86 11.02 89.22 6.46 10.82 14.95 10.19 21.81-.42 13.03-20.14 34.61-81.77 21.99-100.77-8.18-12.42-27.58 30.02-33.06 39.21" style="fill:#129bd9"/><path d="M102.08 577.58c-8.65 10.23-31.43 43.23-41.43 27.7-25.08-39.06 60.23-96.36 66.72-86.18 25.19 36.86 10.11 107.08-9.91 117.13-24.36 12.29-17.31-45.17-15.38-58.64" style="fill:#c2d400"/><path d="M147.07 496.14c-8.54 5.54-10.77 12.96-7.04 22.59 2.4 6.31 25.81 58.94 58.19 34.77 18.06-13.52-2.66-28.41-4.12-29.4-4.96-3.22-4.96-5.22.69-8.21 10.69-5.75 44.66-29.39 21.12-42.21-15.63-8.58-58.69 15.9-68.84 22.46" style="fill:#fdc645"/></svg>