<svg width="200" height="42" viewBox="0 0 200 42" xmlns="http://www.w3.org/2000/svg" xmlns:xlink="http://www.w3.org/1999/xlink"><defs><path id="a" d="M49.83 27.375H0V0h99.66v27.375H49.83z"/></defs><g fill="none" fill-rule="evenodd"><g transform="translate(0 7)"><mask id="b" fill="#fff"><use xlink:href="#a"/></mask><path fill="#BE143B" mask="url(#b)" d="M99 27.375h.947V0H99zM43.007 15.873l2.19-4.822 2.146 4.822h-4.336zM38.8 21.06h1.861l1.46-3.222h6.092l1.433 3.222h1.996L45.202 7 38.8 21.06zm-7.717-9.5v-.01c-.01-3.019-2.079-4.14-5.7-4.14h-4.16v13.65h1.91V9.085h2.17c2.786 0 3.837.503 3.844 2.464v.01c-.007 1.96-1.058 2.465-3.844 2.465H24.01l5.708 7.034h2.407s-4.708-5.51-4.672-5.515c2.328-.399 3.623-1.598 3.63-3.983zM0 14.234c0 4.091 2.84 6.824 7.28 6.824h4.939v-7.056h-1.91v5.378H7.416c-3.733 0-5.465-2.085-5.465-5.146 0-3.034 1.732-5.145 5.465-5.145h4.804v-1.68H7.28C2.841 7.408 0 10.143 0 14.233zm67.663 2.658l-9.056-9.87v13.97h1.785v-9.397l9.056 9.873V7.477h-1.785v9.414zm14.091 2.488h-2.101V9.088h2.101c3.73 0 5.462 2.11 5.462 5.145 0 3.061-1.732 5.146-5.462 5.146zm.134-11.971h-4.156v13.65h4.156c4.437 0 7.276-2.734 7.276-6.825 0-4.09-2.839-6.825-7.276-6.825z"/></g><path d="M149.769 22.197l2.536-5.072 2.484 5.072h-5.02zm-4.402 5.042h1.883l1.54-3.076h6.958l1.504 3.076h2.02L152.308 13l-6.94 14.239zm-10.702-6.746l-4.51-7.003H128l5.637 8.984v4.767h1.938v-4.82l5.526-8.931h-2.072l-4.364 7.003zm47.65-7.001v1.69h5.029v12.057h1.937V15.181h5.079v-1.69h-12.045zm-18.24 1.69h4.988v12.057h1.939V15.181h4.855v-1.69h-11.782v1.69zm-45.249 4.726h-7.274v-6.344h-1.936v13.751h1.936V21.6h7.274v5.715h1.94V13.564h-1.94v6.344m78.102-3.963c-.625-.003-1.062-.445-1.058-1.075.002-.647.433-1.079 1.068-1.076.648.002 1.082.44 1.08 1.087-.005.63-.452 1.068-1.09 1.064zm.011-2.381c-.749-.004-1.32.555-1.323 1.3-.004.74.56 1.301 1.312 1.305.75.003 1.339-.565 1.342-1.294.003-.732-.58-1.309-1.331-1.311z" fill="#BE143B"/><path d="M198.145 15.415c-.12-.141-.415-.487-.472-.558.247-.046.367-.184.367-.42 0-.299-.192-.437-.6-.437H197v1.432h.218v-1.24h.215c.296 0 .386.058.387.246-.001.189-.091.245-.387.245h-.157l.605.743.003.006h.275l-.014-.017" fill="#BE143B"/></g></svg>