<?xml version="1.0" encoding="utf-8"?>
<!-- Generator: Adobe Illustrator 16.0.0, SVG Export Plug-In . SVG Version: 6.00 Build 0)  -->
<!DOCTYPE svg PUBLIC "-//W3C//DTD SVG 1.1//EN" "http://www.w3.org/Graphics/SVG/1.1/DTD/svg11.dtd">
<svg version="1.1" id="Layer_1" xmlns="http://www.w3.org/2000/svg" xmlns:xlink="http://www.w3.org/1999/xlink" x="0px" y="0px"
	 width="310px" height="121px" viewBox="0 0 310 121" enable-background="new 0 0 310 121" xml:space="preserve">
<g>
	<path fill-rule="evenodd" clip-rule="evenodd" fill="#FFFFFF" d="M152.247,7.716c-0.992,5.215-3.564,15.169-9.082,17.813
		l1.914,2.735c4.937-2.799,7.783-9.668,9.345-15.238c1.56,5.57,4.407,12.449,9.34,15.238l1.911-2.735
		c-5.515-2.648-8.09-12.6-9.08-17.813c1.054-0.705,1.751-1.907,1.751-3.274c0-2.168-1.763-3.929-3.922-3.929
		c-2.14,0-3.882,1.706-3.935,3.828v0.201C150.523,5.868,151.211,7.03,152.247,7.716 M110.468,23.964
		c0.41-0.009,0.762-0.022,1.018-0.032c9.207-0.48,20.683-1.074,25.727,6.362c2.247,3.311,6.962,10.008,9.698,13.88
		c-3.997,0.286-6.627,0.311-9.803-3.809c-0.525-0.673-1.052-1.441-1.598-2.228c-2.607-3.773-5.502-7.956-10.855-8.122h-0.002
		c-5.511-0.175-8.087,0-8.098,0l-3.424,0.265l10.537,14.25l2.797,3.696h5.012l-10.982-14.269c1.09,0.002,2.433,0.018,4.045,0.068
		v0.005c3.32,0.101,5.602,3.407,7.665,6.393c0.571,0.833,1.136,1.647,1.72,2.393c4.641,6.009,8.179,5.749,13.771,5.334
		c0.995-0.066,2.051-0.146,3-0.185l3.723-0.142l-2.152-3.033c-0.022-0.032-8.616-12.169-11.732-16.751
		c-4.789-7.062-13.266-8.388-21.536-8.388c-2.636,0-5.252,0.133-7.72,0.261l-0.905,0.039c-0.695-1.104-1.928-1.841-3.332-1.841
		c-2.141,0-3.876,1.707-3.931,3.826v0.204c0.053,2.089,1.736,3.773,3.831,3.828h0.201C108.57,25.931,109.81,25.135,110.468,23.964z
		 M168.307,28.04c-3.109,4.583-11.705,16.719-11.73,16.751l-2.152,3.033l3.721,0.142c0.951,0.038,2.006,0.118,3.003,0.185
		c5.581,0.415,9.128,0.674,13.77-5.334c0.574-0.746,1.141-1.56,1.718-2.393c2.064-2.986,4.347-6.292,7.666-6.393v-0.005
		c1.608-0.05,2.955-0.066,4.05-0.068l-10.989,14.269h5.016l2.801-3.696l10.532-14.25l-3.425-0.265c-0.011,0-2.582-0.175-8.103,0
		h-0.008c-5.341,0.166-8.235,4.349-10.84,8.122c-0.549,0.787-1.082,1.555-1.598,2.228c-3.187,4.12-5.811,4.095-9.804,3.809
		c2.73-3.872,7.443-10.569,9.695-13.88c5.042-7.436,16.519-6.842,25.725-6.362c0.257,0.01,0.608,0.023,1.022,0.032
		c0.658,1.171,1.895,1.966,3.324,2.003h0.204c2.119-0.055,3.82-1.792,3.82-3.929c0-2.168-1.756-3.929-3.922-3.929
		c-1.404,0-2.636,0.736-3.331,1.841l-0.912-0.039c-2.465-0.127-5.082-0.261-7.72-0.261C181.572,19.651,173.095,20.978,168.307,28.04
		z"/>
	<path fill-rule="evenodd" clip-rule="evenodd" fill="#FFFFFF" d="M193.307,67.813c-0.542,0-1.03,0.062-1.475,0.188
		c-0.433,0.122-0.654,0.359-0.654,0.718c0.144,1.196,0.222,2.401,0.203,3.617c-0.011,1.229-0.083,2.433-0.203,3.603
		c0,0.127,0.068,0.232,0.203,0.325c0.144,0.097,0.297,0.146,0.467,0.164c0.168,0.018,0.338-0.006,0.522-0.067
		c0.173-0.07,0.277-0.189,0.312-0.377c0.259-1.261,0.521-2.29,0.821-3.075c0.309-0.797,0.709-1.423,1.194-1.889
		c0.504-0.466,1.129-0.778,1.884-0.957c0.761-0.168,1.726-0.251,2.908-0.251c1.39,0,2.373,0.15,2.977,0.447
		c0.589,0.307,0.877,1.028,0.877,2.201v21.131c0,1.039-0.058,1.847-0.175,2.434c-0.113,0.594-0.34,1.051-0.67,1.362
		c-0.338,0.315-0.795,0.55-1.373,0.7c-0.582,0.142-1.359,0.265-2.355,0.352c-0.188,0.032-0.323,0.138-0.424,0.308
		c-0.092,0.173-0.133,0.347-0.133,0.543c0,0.191,0.041,0.37,0.133,0.522c0.101,0.15,0.235,0.229,0.424,0.229
		c1.054,0,2.222-0.06,3.505-0.185c1.283-0.119,2.529-0.187,3.739-0.187c1.125,0,2.276,0.067,3.434,0.187
		c1.164,0.125,2.383,0.185,3.645,0.185c0.223,0,0.383-0.079,0.493-0.229c0.1-0.152,0.157-0.331,0.157-0.522
		c0-0.196-0.058-0.37-0.157-0.543c-0.11-0.17-0.264-0.275-0.442-0.308c-1.026-0.087-1.834-0.21-2.444-0.352
		c-0.602-0.15-1.07-0.385-1.401-0.7c-0.337-0.312-0.547-0.769-0.633-1.362c-0.101-0.587-0.144-1.395-0.144-2.434V72.46
		c0-1.173,0.319-1.895,0.942-2.201c0.641-0.297,1.664-0.447,3.099-0.447c1.059,0,1.956,0.083,2.717,0.251
		c0.762,0.179,1.401,0.491,1.928,0.957c0.521,0.466,0.953,1.097,1.267,1.905c0.316,0.802,0.57,1.844,0.754,3.109
		c0.033,0.192,0.137,0.315,0.305,0.375c0.172,0.078,0.346,0.097,0.542,0.078c0.194-0.027,0.371-0.091,0.53-0.201
		c0.145-0.105,0.223-0.221,0.223-0.348c-0.057-0.636-0.114-1.298-0.165-1.997c-0.044-0.691-0.058-1.375-0.058-2.041
		c0-0.66,0.014-1.275,0.058-1.838c0.051-0.555,0.108-1.024,0.165-1.395c0-0.354-0.195-0.584-0.595-0.686
		c-0.392-0.114-0.884-0.17-1.496-0.17H193.307z M29.177,67.918c-0.087,0.153-0.128,0.339-0.128,0.535
		c0,0.191,0.031,0.361,0.121,0.499c0.085,0.15,0.222,0.229,0.396,0.229c0.35,0.031,0.711,0.071,1.098,0.136
		c0.395,0.06,0.754,0.142,1.097,0.257c0.572,0.146,1.01,0.433,1.34,0.832c0.324,0.398,0.578,0.881,0.743,1.439
		c0.179,0.56,0.281,1.172,0.32,1.848c0.055,0.673,0.076,1.357,0.076,2.053v18.306c0,0.773-0.085,1.42-0.254,1.937
		c-0.174,0.518-0.435,0.945-0.789,1.28c-0.361,0.333-0.813,0.585-1.354,0.768c-0.559,0.178-1.199,0.315-1.948,0.402
		c-0.211,0.032-0.367,0.127-0.451,0.279c-0.087,0.155-0.128,0.32-0.128,0.494c0,0.21,0.058,0.402,0.158,0.576
		c0.117,0.169,0.276,0.253,0.474,0.253c0.926-0.06,1.971-0.125,3.124-0.181c1.155-0.063,2.328-0.095,3.535-0.095h17.25
		c0.231,0,0.421-0.024,0.571-0.082c0.146-0.056,0.256-0.115,0.341-0.188c0.071-0.064,0.124-0.142,0.146-0.224
		c0.025-0.068,0.028-0.138,0.028-0.179c-0.021-1.207,0.032-2.387,0.153-3.53c0.137-1.148,0.276-2.386,0.437-3.736
		c0.032-0.165-0.045-0.307-0.241-0.397c-0.178-0.098-0.384-0.139-0.622-0.139c-0.212,0-0.414,0.038-0.587,0.11
		c-0.184,0.087-0.289,0.21-0.321,0.371c-0.127,0.951-0.285,1.733-0.494,2.35c-0.194,0.623-0.453,1.13-0.779,1.532
		c-0.323,0.402-0.723,0.736-1.185,0.998c-0.464,0.269-1.002,0.512-1.624,0.744c-0.34,0.13-0.839,0.211-1.497,0.275
		c-0.656,0.067-1.388,0.096-2.168,0.096c-1.479,0-2.648-0.055-3.523-0.179c-0.869-0.109-1.534-0.383-1.994-0.805
		c-0.451-0.426-0.76-1.062-0.883-1.893c-0.134-0.839-0.201-1.985-0.201-3.439v-6.247c0-0.343,0.083-0.563,0.233-0.683
		c0.158-0.118,0.309-0.172,0.464-0.172c1.473,0,2.627,0.054,3.46,0.172c0.844,0.12,1.466,0.33,1.891,0.655
		c0.43,0.328,0.713,0.781,0.864,1.349c0.142,0.581,0.265,1.325,0.356,2.26c0.032,0.15,0.132,0.27,0.298,0.346
		c0.158,0.074,0.341,0.116,0.535,0.116s0.361-0.042,0.517-0.116c0.151-0.076,0.231-0.195,0.231-0.346
		c0-0.559-0.012-1.08-0.035-1.547c-0.018-0.47-0.061-0.905-0.126-1.293c-0.093-0.761-0.143-1.625-0.143-2.599
		c0-0.553,0.022-1.051,0.05-1.486c0.032-0.434,0.062-0.84,0.103-1.234c0.037-0.398,0.071-0.801,0.105-1.192
		c0.034-0.391,0.045-0.848,0.045-1.354c0-0.178-0.071-0.303-0.203-0.379c-0.143-0.088-0.304-0.139-0.495-0.139
		c-0.196,0-0.384,0.051-0.562,0.139c-0.181,0.076-0.289,0.201-0.321,0.379c-0.091,0.832-0.214,1.531-0.356,2.077
		c-0.151,0.548-0.435,0.986-0.864,1.312c-0.425,0.324-1.047,0.553-1.891,0.682c-0.833,0.137-1.987,0.2-3.46,0.2
		c-0.155,0-0.306-0.054-0.464-0.169c-0.151-0.101-0.233-0.381-0.233-0.832V73.04c0-0.805,0.03-1.437,0.101-1.875
		c0.064-0.432,0.223-0.759,0.474-0.957c0.251-0.209,0.638-0.313,1.146-0.352c0.512-0.031,1.223-0.045,2.131-0.045h2.858
		c1.114,0.032,2.013,0.089,2.687,0.184c0.667,0.091,1.214,0.323,1.631,0.685c0.4,0.366,0.725,0.897,0.954,1.607
		c0.233,0.705,0.462,1.662,0.677,2.889c0.032,0.136,0.115,0.241,0.263,0.301c0.146,0.068,0.304,0.096,0.482,0.096
		c0.19,0,0.361-0.036,0.521-0.114c0.164-0.06,0.247-0.166,0.247-0.282c0-0.646-0.025-1.308-0.071-1.966
		c-0.052-0.659-0.07-1.327-0.07-2.027V70.41c0-0.324,0-0.636,0.006-0.923c0.007-0.294,0.04-0.572,0.085-0.819
		c0.064-0.435-0.033-0.686-0.274-0.77c-0.211-0.053-0.444-0.086-0.725-0.086H35.469c-1.162,0-2.159-0.021-3.016-0.07
		c-0.864-0.044-1.829-0.071-2.888-0.071C29.405,67.671,29.272,67.748,29.177,67.918z M101.404,67.717
		c-1.063,0.031-2.111,0.074-3.142,0.124c-1.024,0.033-1.925,0.096-2.695,0.181c-0.78,0.075-1.177,0.171-1.205,0.299l-9.525,22.688
		c-0.063,0.096-0.136,0.137-0.214,0.137c-0.073,0-0.145-0.041-0.208-0.137L74.763,68.32c-0.033-0.128-0.272-0.224-0.716-0.299
		c-0.432-0.085-0.974-0.147-1.607-0.181c-0.636-0.05-1.347-0.083-2.126-0.099c-0.782-0.016-1.532-0.035-2.266-0.044
		c-0.726-0.025-1.384-0.027-1.97-0.027h-1.301c-0.185,0-0.342,0.077-0.457,0.228c-0.117,0.156-0.176,0.335-0.176,0.522
		c0,0.188,0.06,0.375,0.176,0.55c0.115,0.168,0.272,0.256,0.457,0.256c0.813,0.058,1.494,0.15,2.041,0.269
		c0.537,0.11,0.98,0.32,1.31,0.627c0.332,0.3,0.571,0.718,0.717,1.251c0.136,0.527,0.208,1.288,0.208,2.24v19.832
		c0,1.139-0.073,2.012-0.208,2.651c-0.146,0.632-0.385,1.108-0.717,1.429c-0.33,0.317-0.773,0.533-1.332,0.644
		c-0.553,0.119-1.246,0.221-2.069,0.32c-0.199,0.031-0.345,0.123-0.442,0.277c-0.089,0.161-0.134,0.335-0.111,0.522
		c0.014,0.191,0.071,0.37,0.171,0.522c0.096,0.15,0.236,0.229,0.382,0.229c0.634,0,1.42-0.06,2.355-0.181
		c0.944-0.123,2.01-0.19,3.195-0.19c1.146,0,2.137,0.067,2.977,0.19c0.855,0.121,1.624,0.181,2.321,0.181
		c0.178,0,0.309-0.079,0.391-0.229c0.076-0.152,0.111-0.331,0.111-0.522c0-0.188-0.036-0.361-0.111-0.522
		c-0.083-0.154-0.199-0.246-0.346-0.277c-0.729-0.1-1.365-0.201-1.911-0.32c-0.537-0.11-0.995-0.326-1.358-0.644
		c-0.364-0.32-0.636-0.797-0.833-1.429c-0.191-0.64-0.29-1.513-0.29-2.651V75.752c0-0.256,0.099-0.376,0.318-0.345
		c0.201,0.029,0.341,0.138,0.402,0.302L82.425,99.67c0.021,0.096,0.115,0.159,0.25,0.205c0.144,0.045,0.292,0.072,0.45,0.072
		c0.167,0,0.323-0.027,0.462-0.072c0.135-0.046,0.217-0.109,0.249-0.205c0.446-1.331,0.908-2.657,1.358-3.972
		c0.462-1.32,0.929-2.521,1.409-3.649l6.854-16.11c0.05-0.187,0.21-0.284,0.473-0.301c0.254-0.015,0.38,0.081,0.38,0.301v17.652
		c0,1.039-0.055,1.847-0.172,2.434c-0.119,0.594-0.345,1.051-0.674,1.362c-0.334,0.315-0.796,0.55-1.37,0.7
		c-0.583,0.142-1.367,0.265-2.353,0.352c-0.192,0.032-0.336,0.138-0.437,0.308c-0.098,0.173-0.146,0.347-0.146,0.543
		c0,0.191,0.048,0.37,0.146,0.522c0.101,0.15,0.245,0.229,0.437,0.229c1.054,0,2.216-0.06,3.492-0.181
		c1.271-0.123,2.526-0.19,3.722-0.19c1.146,0,2.303,0.067,3.457,0.19c1.169,0.121,2.375,0.181,3.621,0.181
		c0.243,0,0.407-0.079,0.521-0.229c0.107-0.152,0.158-0.331,0.158-0.522c0-0.196-0.05-0.37-0.158-0.543
		c-0.115-0.17-0.266-0.275-0.446-0.308c-0.958-0.087-1.745-0.21-2.348-0.352c-0.6-0.15-1.065-0.385-1.401-0.7
		c-0.332-0.312-0.561-0.781-0.689-1.362c-0.119-0.587-0.178-1.405-0.178-2.434V76.029c0-1.517,0.027-2.692,0.097-3.516
		c0.059-0.832,0.233-1.454,0.514-1.889c0.288-0.417,0.732-0.725,1.337-0.873c0.6-0.169,1.439-0.343,2.511-0.525
		c0.169-0.033,0.3-0.13,0.389-0.274c0.094-0.165,0.14-0.343,0.14-0.531c0-0.188-0.04-0.366-0.11-0.522
		c-0.087-0.15-0.221-0.228-0.418-0.228C103.309,67.671,102.461,67.686,101.404,67.717z M153.128,82.904
		c-0.452-0.142-0.673-0.618-0.673-1.441v-9.379c0-0.992,0.188-1.632,0.577-1.926c0.389-0.321,1.21-0.488,2.466-0.488
		c1.135,0,2.101,0.104,2.897,0.329c0.798,0.227,1.439,0.595,1.93,1.116c0.479,0.503,0.841,1.18,1.056,2.008
		c0.236,0.836,0.346,1.872,0.346,3.091c0,1.266-0.099,2.336-0.313,3.22c-0.208,0.868-0.563,1.587-1.065,2.134
		c-0.503,0.549-1.18,0.943-2.017,1.185c-0.834,0.233-1.875,0.357-3.108,0.357C154.294,83.109,153.59,83.04,153.128,82.904z
		 M186.92,67.717c-0.57,0.031-1.139,0.064-1.688,0.09c-0.549,0.034-1.119,0.062-1.705,0.092c-0.588,0.033-1.22,0.053-1.879,0.053
		c-1.153,0-2.367-0.053-3.671-0.145c-1.301-0.09-2.448-0.136-3.457-0.136c-0.186,0-0.329,0.077-0.435,0.228
		c-0.091,0.156-0.151,0.335-0.151,0.522c0,0.188,0.061,0.375,0.151,0.55c0.105,0.168,0.249,0.256,0.435,0.256
		c0.972,0.058,1.752,0.214,2.349,0.452c0.588,0.236,1.033,0.577,1.358,1.021c0.315,0.441,0.525,1.014,0.628,1.705
		c0.112,0.694,0.169,1.544,0.169,2.535v18.65c0,1.028-0.057,1.847-0.169,2.434c-0.103,0.581-0.324,1.051-0.655,1.362
		c-0.33,0.315-0.792,0.55-1.383,0.7c-0.587,0.142-1.371,0.265-2.341,0.352c-0.21,0.032-0.352,0.138-0.445,0.308
		c-0.097,0.173-0.133,0.347-0.133,0.543c0,0.191,0.036,0.37,0.133,0.522c0.094,0.15,0.235,0.229,0.445,0.229
		c1.038,0,2.192-0.06,3.474-0.181c1.292-0.123,2.538-0.19,3.743-0.19c1.144,0,2.292,0.067,3.453,0.19
		c1.15,0.121,2.356,0.181,3.627,0.181c0.24,0,0.406-0.079,0.519-0.229c0.096-0.152,0.155-0.331,0.155-0.522
		c0-0.196-0.06-0.37-0.155-0.543c-0.112-0.17-0.272-0.275-0.47-0.308c-0.941-0.087-1.722-0.21-2.328-0.352
		c-0.596-0.15-1.064-0.385-1.395-0.7c-0.339-0.312-0.563-0.781-0.696-1.362c-0.112-0.587-0.179-1.405-0.179-2.434V74.94
		c0-1.087,0.046-1.973,0.143-2.674c0.089-0.697,0.292-1.257,0.606-1.692c0.319-0.416,0.781-0.73,1.392-0.945
		c0.603-0.206,1.385-0.345,2.357-0.402c0.164,0,0.291-0.088,0.394-0.256c0.099-0.175,0.162-0.361,0.176-0.55
		c0.012-0.188-0.014-0.366-0.097-0.522c-0.079-0.15-0.219-0.228-0.422-0.228C188.111,67.671,187.488,67.686,186.92,67.717z
		 M116.972,86.499c-0.116-0.134-0.108-0.412,0.048-0.802l4.34-11.125c0.062-0.173,0.194-0.258,0.379-0.258
		c0.178,0,0.311,0.085,0.369,0.258l4.152,11.125c0.164,0.375,0.151,0.627-0.007,0.768c-0.165,0.151-0.457,0.229-0.894,0.229h-7.665
		C117.34,86.694,117.102,86.621,116.972,86.499z M-0.015,99.275v0.009v0.074v0.009c0.01,0.188,0.068,0.348,0.183,0.493
		c0.107,0.146,0.27,0.229,0.496,0.229c1.109-0.06,2.234-0.133,3.366-0.205c1.127-0.079,2.312-0.119,3.579-0.119h17.25
		c0.231,0,0.417-0.024,0.567-0.082c0.151-0.056,0.261-0.115,0.341-0.188c0.068-0.064,0.128-0.142,0.151-0.224
		c0.022-0.068,0.032-0.138,0.032-0.179c-0.032-1.207,0.014-2.516,0.148-3.916c0.137-1.394,0.279-2.773,0.43-4.124
		c0.032-0.169-0.051-0.292-0.227-0.38c-0.192-0.086-0.405-0.127-0.633-0.127c-0.22,0-0.415,0.03-0.588,0.104
		c-0.177,0.067-0.291,0.192-0.313,0.357c-0.341,1.361-0.728,2.478-1.164,3.36c-0.443,0.868-0.954,1.561-1.552,2.067
		c-0.606,0.498-1.318,0.854-2.144,1.043c-0.818,0.192-1.786,0.288-2.897,0.288c-0.608,0-1.184-0.023-1.73-0.069
		c-0.553-0.05-1.057-0.109-1.504-0.21c-0.68-0.168-1.228-0.389-1.669-0.664c-0.434-0.269-0.775-0.625-1.029-1.079
		c-0.261-0.442-0.435-1.015-0.525-1.699c-0.092-0.696-0.14-1.542-0.14-2.549V74.94c0-1.072,0.048-1.96,0.151-2.664
		c0.107-0.707,0.311-1.267,0.62-1.706c0.306-0.435,0.759-0.755,1.354-0.956c0.592-0.204,1.39-0.33,2.375-0.388
		c0.177,0,0.312-0.088,0.417-0.274c0.096-0.17,0.148-0.371,0.148-0.587c0-0.173-0.034-0.333-0.121-0.475
		c-0.075-0.148-0.203-0.22-0.395-0.22c-0.645,0-1.255,0.015-1.832,0.046c-0.572,0.031-1.134,0.064-1.697,0.09
		c-0.553,0.034-1.129,0.062-1.715,0.092c-0.585,0.033-1.212,0.053-1.878,0.053c-1.151,0-2.37-0.053-3.675-0.139
		c-1.296-0.096-2.447-0.142-3.453-0.142c-0.206,0-0.35,0.077-0.441,0.247c-0.098,0.153-0.142,0.339-0.142,0.535
		c0,0.206,0.044,0.384,0.142,0.539c0.091,0.156,0.236,0.234,0.441,0.234c0.972,0.058,1.751,0.201,2.346,0.443
		c0.585,0.225,1.042,0.571,1.356,1.03c0.32,0.46,0.531,1.028,0.638,1.717c0.107,0.691,0.162,1.532,0.162,2.523v0.046v18.649
		c0,1.026-0.055,1.821-0.162,2.41c-0.107,0.596-0.33,1.049-0.651,1.369c-0.33,0.315-0.788,0.538-1.379,0.677
		c-0.6,0.142-1.377,0.269-2.356,0.397c-0.226,0.031-0.388,0.123-0.496,0.288C0.054,98.928-0.005,99.098-0.015,99.275z
		 M166.701,100.619h0.022h0.025h0.023h0.029h0.027c0.581-0.004,1.169-0.091,1.765-0.255c0.609-0.169,1.175-0.444,1.67-0.813
		c0.508-0.377,0.927-0.852,1.276-1.418c0.348-0.572,0.571-1.254,0.667-2.044c0.03-0.184-0.057-0.356-0.263-0.507
		c-0.197-0.161-0.411-0.24-0.646-0.24c-0.151,0-0.297,0.033-0.412,0.115c-0.13,0.082-0.217,0.229-0.261,0.448
		c-0.188,0.649-0.45,1.124-0.801,1.431c-0.35,0.312-0.715,0.477-1.108,0.477c-0.368,0-0.742-0.17-1.102-0.493
		c-0.381-0.326-0.638-0.856-0.796-1.602c-0.16-0.637-0.296-1.289-0.421-1.952c-0.119-0.668-0.272-1.322-0.453-1.976
		c-0.171-0.65-0.401-1.295-0.672-1.922c-0.27-0.644-0.634-1.253-1.098-1.856c-0.455-0.604-1.02-1.185-1.702-1.748
		c-0.686-0.553-1.516-1.079-2.506-1.577c-0.229-0.122-0.324-0.256-0.324-0.402c0-0.155,0.096-0.256,0.324-0.32
		c1.024-0.21,1.967-0.524,2.831-0.909c0.869-0.394,1.626-0.905,2.266-1.547c0.647-0.634,1.142-1.391,1.507-2.286
		c0.361-0.893,0.55-1.938,0.55-3.151c0-1.525-0.297-2.829-0.881-3.884c-0.594-1.061-1.372-1.928-2.337-2.599
		c-0.972-0.673-2.072-1.167-3.302-1.465c-1.226-0.302-2.487-0.452-3.771-0.452c-1.155,0-2.344,0.027-3.602,0.071
		c-0.626,0.031-1.324,0.057-2.106,0.07c-0.786,0.015-1.657,0.033-2.618,0.046c-0.569,0-1.108-0.005-1.61-0.018
		c-0.507-0.02-0.974-0.042-1.411-0.073c-0.425-0.032-0.877-0.061-1.354-0.069c-0.48-0.025-0.987-0.027-1.522-0.027
		c-0.195,0-0.343,0.077-0.439,0.247c-0.09,0.153-0.138,0.33-0.138,0.517s0.048,0.353,0.138,0.518
		c0.096,0.145,0.244,0.229,0.439,0.229c0.342,0.031,0.707,0.071,1.092,0.136c0.389,0.06,0.755,0.142,1.098,0.257
		c0.567,0.146,1.016,0.433,1.34,0.848c0.322,0.409,0.576,0.9,0.739,1.473c0.18,0.572,0.283,1.196,0.329,1.872
		c0.048,0.679,0.069,1.339,0.069,2.026v17.835c0,0.937-0.058,1.693-0.173,2.286c-0.121,0.581-0.331,1.048-0.653,1.386
		c-0.311,0.343-0.757,0.594-1.32,0.759c-0.569,0.161-1.303,0.293-2.194,0.38c-0.218,0.032-0.364,0.127-0.449,0.279
		c-0.093,0.155-0.13,0.329-0.13,0.512c0,0.22,0.049,0.406,0.152,0.567c0.101,0.165,0.242,0.244,0.428,0.244
		c1.12,0,2.257-0.06,3.42-0.181c1.174-0.123,2.367-0.19,3.567-0.19c0.577,0,1.155,0.026,1.731,0.06
		c0.578,0.036,1.181,0.082,1.799,0.131c0.62,0.042,1.277,0.087,1.962,0.13c0.683,0.04,1.429,0.051,2.215,0.051
		c0.223,0,0.38-0.079,0.494-0.244c0.101-0.161,0.158-0.343,0.158-0.544s-0.058-0.39-0.153-0.558
		c-0.094-0.165-0.245-0.257-0.455-0.257c-0.844-0.06-1.599-0.165-2.252-0.324c-0.645-0.161-1.189-0.417-1.639-0.787
		c-0.433-0.379-0.769-0.887-0.998-1.55c-0.224-0.663-0.33-1.51-0.33-2.589V86.78c0-0.663,0.188-1.11,0.567-1.339
		c0.384-0.223,0.842-0.333,1.376-0.333c1.629,0,2.87,0.452,3.769,1.349c0.908,0.874,1.64,2.341,2.236,4.362
		c0.119,0.499,0.262,1.052,0.4,1.66c0.153,0.608,0.309,1.25,0.469,1.898c0.161,0.648,0.337,1.295,0.511,1.924
		c0.183,0.632,0.373,1.219,0.569,1.74c0.142,0.424,0.358,0.786,0.646,1.101c0.281,0.321,0.623,0.595,1.022,0.819
		c0.392,0.225,0.826,0.393,1.278,0.493C165.75,100.56,166.212,100.615,166.701,100.619z M122.507,66.958l-10.756,27.044
		c-0.344,0.838-0.67,1.515-0.974,2.042c-0.313,0.511-0.643,0.923-0.977,1.225c-0.341,0.302-0.695,0.525-1.082,0.681
		c-0.382,0.16-0.809,0.284-1.289,0.402l-0.723,0.087c-0.199,0.032-0.339,0.123-0.432,0.257c-0.083,0.146-0.122,0.292-0.122,0.471
		c0,0.215,0.055,0.412,0.162,0.6c0.108,0.182,0.256,0.275,0.444,0.275c0.88,0,1.701-0.06,2.466-0.181
		c0.769-0.123,1.562-0.19,2.385-0.19c0.432,0,0.89,0.026,1.361,0.06c0.487,0.036,0.965,0.082,1.441,0.131
		c0.469,0.042,0.926,0.087,1.378,0.13c0.455,0.04,0.86,0.051,1.228,0.051c0.231,0,0.401-0.084,0.492-0.253
		c0.085-0.174,0.133-0.357,0.133-0.559c0-0.183-0.048-0.366-0.133-0.534c-0.091-0.165-0.261-0.257-0.492-0.257
		c-0.455-0.027-0.919-0.083-1.369-0.174c-0.444-0.087-0.846-0.21-1.198-0.379c-0.343-0.174-0.624-0.398-0.833-0.677
		c-0.206-0.275-0.322-0.612-0.322-1.015c0-0.229,0.093-0.592,0.269-1.094l2.134-5.599c0.155-0.352,0.329-0.608,0.515-0.749
		c0.198-0.138,0.512-0.205,0.942-0.205h8.391c0.604,0,1.037,0.054,1.309,0.159c0.267,0.11,0.486,0.375,0.642,0.795
		c0.474,1.185,0.869,2.168,1.149,2.946c0.285,0.777,0.512,1.408,0.66,1.898c0.156,0.507,0.251,0.89,0.3,1.174
		c0.047,0.293,0.073,0.545,0.073,0.755c0,0.809-0.254,1.331-0.768,1.578c-0.495,0.256-1.291,0.443-2.367,0.585
		c-0.235,0.032-0.394,0.115-0.489,0.257c-0.097,0.146-0.142,0.301-0.142,0.488c0,0.234,0.06,0.431,0.173,0.604
		c0.122,0.169,0.288,0.253,0.497,0.253c1.086,0,2.213-0.06,3.37-0.181c1.166-0.123,2.421-0.19,3.764-0.19
		c0.585,0,1.147,0.014,1.676,0.045c0.521,0.031,1.022,0.082,1.479,0.146c0.484,0.056,0.968,0.102,1.454,0.133
		c0.49,0.037,0.979,0.048,1.468,0.048c0.183,0,0.309-0.079,0.38-0.229c0.075-0.152,0.114-0.331,0.114-0.54
		c0-0.179-0.039-0.353-0.121-0.525c-0.094-0.17-0.224-0.275-0.407-0.308c-0.437-0.087-0.846-0.179-1.237-0.273
		c-0.381-0.097-0.761-0.271-1.132-0.545c-0.368-0.256-0.736-0.641-1.095-1.148c-0.357-0.493-0.721-1.201-1.095-2.125
		c-0.867-2.095-1.777-4.328-2.721-6.697c-0.954-2.351-1.9-4.728-2.852-7.125c-0.944-2.391-1.871-4.741-2.773-7.062
		c-0.9-2.303-1.747-4.477-2.545-6.505c-0.263-0.266-0.61-0.393-1.043-0.393C122.857,66.565,122.595,66.692,122.507,66.958z"/>
	<path fill-rule="evenodd" clip-rule="evenodd" fill="#FFFFFF" d="M284.401,100.041h0.018c0.926-0.06,1.973-0.125,3.123-0.181
		c1.158-0.063,2.328-0.095,3.543-0.095h17.248c0.229,0,0.422-0.024,0.572-0.082c0.142-0.056,0.253-0.115,0.331-0.188
		c0.083-0.064,0.126-0.142,0.151-0.224c0.026-0.068,0.034-0.138,0.034-0.179c-0.027-1.207,0.021-2.387,0.146-3.53
		c0.142-1.148,0.277-2.386,0.441-3.736c0.026-0.165-0.05-0.307-0.24-0.397c-0.185-0.098-0.39-0.139-0.628-0.139
		c-0.212,0-0.413,0.038-0.588,0.11c-0.182,0.087-0.285,0.21-0.315,0.371c-0.127,0.951-0.287,1.733-0.487,2.35
		c-0.2,0.623-0.462,1.13-0.788,1.532c-0.325,0.402-0.724,0.736-1.18,0.998c-0.468,0.269-1.009,0.512-1.633,0.744
		c-0.331,0.13-0.837,0.211-1.492,0.275c-0.66,0.067-1.386,0.096-2.172,0.096c-1.474,0-2.646-0.055-3.517-0.179
		c-0.875-0.109-1.542-0.383-1.999-0.805c-0.451-0.426-0.757-1.062-0.883-1.893c-0.134-0.839-0.201-1.985-0.201-3.439v-6.247
		c0-0.343,0.086-0.563,0.236-0.683c0.156-0.118,0.308-0.172,0.466-0.172c1.473,0,2.622,0.054,3.46,0.172
		c0.838,0.12,1.462,0.33,1.888,0.655c0.425,0.328,0.715,0.781,0.864,1.349c0.144,0.581,0.263,1.325,0.354,2.26
		c0.038,0.15,0.134,0.27,0.299,0.346c0.158,0.074,0.343,0.116,0.539,0.116c0.19,0,0.354-0.042,0.514-0.116
		c0.152-0.076,0.229-0.195,0.229-0.346c0-0.559-0.007-1.08-0.031-1.547c-0.02-0.47-0.059-0.905-0.126-1.293
		c-0.098-0.761-0.141-1.625-0.141-2.599c0-0.553,0.016-1.051,0.043-1.486c0.03-0.434,0.065-0.84,0.105-1.234
		c0.039-0.398,0.072-0.801,0.104-1.192c0.035-0.391,0.046-0.848,0.046-1.354c0-0.178-0.066-0.303-0.203-0.379
		c-0.147-0.088-0.3-0.139-0.495-0.139c-0.194,0-0.391,0.051-0.56,0.139c-0.179,0.076-0.285,0.201-0.323,0.379
		c-0.091,0.832-0.21,1.531-0.354,2.077c-0.149,0.548-0.439,0.986-0.864,1.312c-0.426,0.324-1.05,0.553-1.888,0.682
		c-0.838,0.137-1.987,0.2-3.46,0.2c-0.158,0-0.31-0.054-0.466-0.169c-0.15-0.101-0.236-0.381-0.236-0.832V73.04
		c0-0.805,0.034-1.437,0.101-1.875c0.064-0.432,0.216-0.759,0.475-0.957c0.254-0.209,0.641-0.313,1.148-0.352
		c0.511-0.031,1.221-0.045,2.134-0.045h2.853c1.116,0.032,2.018,0.089,2.686,0.184c0.672,0.091,1.219,0.323,1.627,0.685
		c0.406,0.366,0.728,0.897,0.96,1.607c0.231,0.705,0.458,1.662,0.676,2.889c0.03,0.136,0.113,0.241,0.267,0.301
		c0.146,0.068,0.301,0.096,0.478,0.096c0.193,0,0.365-0.036,0.523-0.114c0.165-0.06,0.244-0.166,0.244-0.282
		c0-0.646-0.021-1.308-0.071-1.966c-0.05-0.659-0.071-1.327-0.071-2.027V70.41c0-0.324,0-0.636,0.008-0.923
		c0.006-0.294,0.043-0.572,0.082-0.819c0.068-0.435-0.026-0.686-0.269-0.77c-0.212-0.053-0.446-0.086-0.727-0.086h-17.064
		c-1.16,0-2.167-0.021-3.021-0.07c-0.865-0.044-1.819-0.071-2.878-0.071c-0.166,0-0.296,0.077-0.395,0.247
		c-0.088,0.153-0.137,0.339-0.137,0.535c0,0.191,0.041,0.361,0.129,0.499c0.089,0.15,0.221,0.229,0.402,0.229
		c0.347,0.031,0.703,0.071,1.092,0.136c0.394,0.06,0.756,0.142,1.097,0.257c0.575,0.146,1.015,0.433,1.342,0.832
		c0.322,0.398,0.576,0.881,0.745,1.439c0.174,0.56,0.276,1.172,0.32,1.848c0.045,0.673,0.071,1.357,0.071,2.053v18.306
		c0,0.773-0.086,1.42-0.249,1.937c-0.177,0.518-0.435,0.945-0.793,1.28c-0.356,0.333-0.809,0.585-1.354,0.768
		c-0.557,0.178-1.204,0.315-1.947,0.402c-0.209,0.032-0.36,0.127-0.453,0.279c-0.081,0.155-0.124,0.32-0.124,0.494
		c0,0.21,0.057,0.402,0.158,0.576C284.06,99.952,284.213,100.035,284.401,100.041 M241.042,100.041h0.013h0.093
		c0.62-0.006,1.374-0.065,2.268-0.181c0.94-0.123,2.003-0.19,3.19-0.19c1.147,0,2.143,0.067,2.981,0.19
		c0.81,0.115,1.547,0.175,2.218,0.181h0.1h0.016c0.175-0.006,0.305-0.084,0.376-0.229c0.071-0.152,0.115-0.331,0.115-0.522
		c0-0.188-0.044-0.361-0.115-0.522c-0.075-0.154-0.193-0.246-0.347-0.277c-0.729-0.1-1.358-0.201-1.911-0.32
		c-0.54-0.11-0.991-0.326-1.356-0.644c-0.363-0.32-0.636-0.797-0.827-1.429c-0.201-0.64-0.294-1.513-0.294-2.651V75.752
		c0-0.256,0.104-0.376,0.313-0.345c0.208,0.029,0.343,0.138,0.4,0.302l10.479,23.961c0.033,0.096,0.117,0.159,0.255,0.205
		c0.141,0.045,0.292,0.072,0.45,0.072c0.163,0,0.317-0.027,0.459-0.072c0.137-0.046,0.222-0.109,0.254-0.205
		c0.438-1.331,0.9-2.657,1.354-3.972c0.462-1.32,0.932-2.521,1.406-3.649l6.853-16.11c0.058-0.187,0.216-0.284,0.477-0.301
		c0.252-0.015,0.383,0.081,0.383,0.301v17.652c0,1.039-0.056,1.847-0.176,2.434c-0.12,0.594-0.341,1.051-0.672,1.362
		c-0.336,0.315-0.794,0.55-1.376,0.7c-0.579,0.142-1.361,0.265-2.355,0.352c-0.19,0.032-0.326,0.138-0.427,0.308
		c-0.101,0.173-0.146,0.347-0.146,0.543c0,0.191,0.046,0.37,0.146,0.522c0.095,0.146,0.229,0.224,0.41,0.229h0.017h0.151
		c1.018-0.006,2.129-0.065,3.344-0.181c1.281-0.123,2.523-0.19,3.729-0.19c1.142,0,2.296,0.067,3.46,0.19
		c1.105,0.115,2.253,0.175,3.444,0.181h0.178h0.022c0.216-0.006,0.386-0.084,0.488-0.229c0.103-0.152,0.157-0.331,0.157-0.522
		c0-0.196-0.055-0.37-0.157-0.543c-0.107-0.17-0.257-0.275-0.443-0.308c-0.956-0.087-1.741-0.21-2.349-0.352
		c-0.599-0.15-1.063-0.385-1.404-0.7c-0.329-0.312-0.56-0.781-0.681-1.362c-0.12-0.587-0.186-1.405-0.186-2.434V76.029
		c0-1.517,0.03-2.692,0.097-3.516c0.06-0.832,0.237-1.454,0.525-1.889c0.281-0.417,0.725-0.725,1.328-0.873
		c0.604-0.169,1.44-0.343,2.516-0.525c0.165-0.033,0.297-0.13,0.382-0.274c0.096-0.165,0.144-0.343,0.144-0.531
		c0-0.188-0.036-0.366-0.109-0.522c-0.081-0.15-0.227-0.228-0.416-0.228c-0.644,0-1.493,0.015-2.552,0.046
		c-1.055,0.031-2.108,0.074-3.14,0.124c-1.027,0.033-1.923,0.096-2.704,0.181c-0.771,0.075-1.162,0.171-1.199,0.299l-9.517,22.688
		c-0.064,0.096-0.138,0.137-0.216,0.137c-0.075,0-0.141-0.041-0.211-0.137l-9.651-22.688c-0.035-0.128-0.276-0.224-0.71-0.299
		c-0.439-0.085-0.981-0.147-1.61-0.181c-0.636-0.05-1.346-0.083-2.126-0.099c-0.787-0.016-1.54-0.035-2.269-0.044
		c-0.729-0.025-1.384-0.027-1.974-0.027h-1.302c-0.182,0-0.337,0.077-0.449,0.228c-0.122,0.156-0.175,0.335-0.175,0.522
		c0,0.188,0.053,0.375,0.175,0.55c0.112,0.168,0.268,0.256,0.449,0.256c0.818,0.058,1.498,0.15,2.049,0.269
		c0.536,0.11,0.972,0.32,1.304,0.627c0.334,0.3,0.569,0.718,0.717,1.251c0.134,0.527,0.206,1.288,0.206,2.24v19.832
		c0,1.139-0.072,2.012-0.206,2.651c-0.147,0.632-0.383,1.108-0.717,1.429c-0.332,0.317-0.772,0.533-1.329,0.644
		c-0.556,0.119-1.243,0.221-2.074,0.32c-0.195,0.031-0.344,0.123-0.438,0.277c-0.094,0.161-0.123,0.335-0.108,0.522
		c0.008,0.191,0.069,0.37,0.168,0.522C240.774,99.957,240.902,100.035,241.042,100.041z M223.108,100.041h0.018h0.148
		c1.004-0.006,2.111-0.065,3.332-0.181c1.285-0.123,2.54-0.19,3.75-0.19c1.132,0,2.284,0.067,3.439,0.19
		c1.1,0.115,2.252,0.175,3.46,0.181h0.178h0.021c0.219-0.006,0.381-0.084,0.493-0.229c0.098-0.152,0.153-0.331,0.153-0.522
		c0-0.196-0.056-0.37-0.153-0.543c-0.114-0.17-0.271-0.275-0.476-0.308c-0.939-0.087-1.718-0.21-2.321-0.352
		c-0.597-0.15-1.063-0.385-1.403-0.7c-0.333-0.312-0.559-0.781-0.69-1.362c-0.112-0.587-0.18-1.405-0.18-2.434V74.94
		c0-1.087,0.052-1.973,0.145-2.674c0.089-0.697,0.293-1.257,0.615-1.692c0.312-0.416,0.769-0.73,1.379-0.945
		c0.604-0.206,1.391-0.345,2.365-0.402c0.157,0,0.283-0.088,0.383-0.256c0.102-0.175,0.161-0.361,0.184-0.55
		c0.009-0.188-0.022-0.366-0.099-0.522c-0.085-0.15-0.217-0.228-0.416-0.228c-0.672,0-1.287,0.015-1.859,0.046
		c-0.568,0.031-1.136,0.064-1.683,0.09c-0.555,0.034-1.123,0.062-1.713,0.092c-0.584,0.033-1.207,0.053-1.879,0.053
		c-1.147,0-2.363-0.053-3.668-0.145c-1.297-0.09-2.454-0.136-3.45-0.136c-0.197,0-0.341,0.077-0.444,0.228
		c-0.094,0.156-0.15,0.335-0.15,0.522c0,0.188,0.057,0.375,0.15,0.55c0.104,0.168,0.247,0.256,0.444,0.256
		c0.972,0.058,1.746,0.214,2.343,0.452c0.584,0.236,1.041,0.577,1.354,1.021c0.312,0.441,0.529,1.014,0.633,1.705
		c0.113,0.694,0.165,1.544,0.165,2.535v18.65c0,1.028-0.052,1.847-0.165,2.434c-0.104,0.581-0.329,1.051-0.658,1.362
		c-0.336,0.315-0.794,0.55-1.379,0.7c-0.594,0.142-1.372,0.265-2.349,0.352c-0.205,0.032-0.345,0.138-0.439,0.308
		c-0.1,0.173-0.144,0.347-0.144,0.543c0,0.191,0.044,0.37,0.144,0.522C222.776,99.957,222.911,100.035,223.108,100.041z"/>
	<path fill-rule="evenodd" clip-rule="evenodd" fill="#FFFFFF" d="M176.131,110.175c-0.189,0.014-0.363,0.021-0.539,0.025
		c-0.176,0.015-0.357,0.023-0.535,0.038c-0.189,0.008-0.392,0.008-0.598,0.008c-0.367,0-0.759-0.008-1.168-0.046
		c-0.409-0.025-0.773-0.036-1.092-0.036c-0.07,0-0.118,0.024-0.144,0.074c-0.033,0.051-0.045,0.101-0.045,0.163
		c0,0.056,0.012,0.115,0.045,0.175c0.025,0.05,0.073,0.077,0.144,0.077c0.311,0.023,0.553,0.064,0.742,0.143
		s0.332,0.188,0.428,0.324c0.101,0.146,0.171,0.324,0.198,0.545c0.037,0.218,0.061,0.489,0.061,0.8v2.048
		c0,0.125-0.037,0.207-0.083,0.248c-0.058,0.037-0.146,0.055-0.27,0.055h-4.488c-0.225,0-0.339-0.096-0.339-0.303v-2.048
		c0-0.343,0.018-0.627,0.053-0.851c0.022-0.215,0.089-0.394,0.196-0.526c0.097-0.136,0.245-0.236,0.435-0.306
		c0.188-0.069,0.439-0.105,0.745-0.129c0.056,0,0.095-0.027,0.122-0.077c0.036-0.06,0.054-0.119,0.059-0.175
		c0.01-0.063-0.005-0.112-0.029-0.163c-0.029-0.05-0.064-0.074-0.133-0.074c-0.21,0-0.411,0.005-0.581,0.011
		c-0.183,0.014-0.359,0.021-0.537,0.025c-0.171,0.015-0.361,0.023-0.546,0.038c-0.188,0.008-0.387,0.008-0.595,0.008
		c-0.364,0-0.755-0.008-1.169-0.046c-0.407-0.025-0.769-0.036-1.088-0.036c-0.066,0-0.107,0.024-0.14,0.074
		c-0.034,0.051-0.049,0.101-0.049,0.163c0,0.056,0.015,0.115,0.049,0.175c0.032,0.05,0.073,0.077,0.14,0.077
		c0.302,0.023,0.548,0.064,0.743,0.143c0.181,0.078,0.326,0.188,0.423,0.324c0.107,0.146,0.17,0.324,0.201,0.545
		c0.036,0.218,0.062,0.489,0.062,0.8v5.918c0,0.328-0.025,0.585-0.062,0.77c-0.031,0.19-0.103,0.337-0.208,0.442
		c-0.103,0.105-0.245,0.178-0.439,0.225c-0.185,0.045-0.428,0.087-0.738,0.118c-0.063,0.009-0.107,0.041-0.133,0.083
		c-0.037,0.051-0.053,0.112-0.053,0.174c0,0.055,0.016,0.114,0.053,0.164c0.025,0.041,0.069,0.069,0.133,0.069
		c0.329,0,0.695-0.023,1.1-0.06c0.412-0.036,0.808-0.06,1.187-0.06c0.366,0,0.729,0.023,1.099,0.06
		c0.367,0.036,0.75,0.06,1.149,0.06c0.076,0,0.126-0.028,0.162-0.069c0.035-0.05,0.053-0.109,0.053-0.164
		c0-0.062-0.018-0.123-0.053-0.174c-0.036-0.042-0.084-0.074-0.148-0.083c-0.297-0.031-0.539-0.073-0.736-0.118
		c-0.192-0.047-0.338-0.119-0.446-0.225c-0.103-0.105-0.176-0.252-0.216-0.435c-0.037-0.192-0.063-0.449-0.063-0.777v-2.588
		c0-0.206,0.114-0.308,0.339-0.308h4.504c0.218,0,0.337,0.134,0.337,0.388v2.508c0,0.328-0.023,0.585-0.061,0.777
		c-0.027,0.183-0.103,0.329-0.205,0.435s-0.249,0.178-0.438,0.225c-0.188,0.045-0.434,0.087-0.745,0.118
		c-0.063,0.009-0.106,0.041-0.137,0.083c-0.032,0.051-0.048,0.112-0.048,0.174c0,0.055,0.016,0.114,0.048,0.164
		c0.03,0.041,0.073,0.069,0.137,0.069c0.332,0,0.702-0.023,1.107-0.06c0.404-0.036,0.8-0.06,1.18-0.06
		c0.363,0,0.732,0.023,1.098,0.06c0.368,0.036,0.745,0.06,1.149,0.06c0.071,0,0.127-0.028,0.16-0.069
		c0.039-0.05,0.055-0.109,0.055-0.164c0-0.062-0.016-0.123-0.055-0.174c-0.033-0.042-0.084-0.074-0.146-0.083
		c-0.295-0.031-0.541-0.073-0.73-0.118c-0.19-0.047-0.344-0.119-0.448-0.225c-0.105-0.105-0.182-0.252-0.22-0.442
		c-0.044-0.185-0.063-0.441-0.063-0.77v-5.918c0-0.343,0.012-0.627,0.051-0.851c0.032-0.215,0.094-0.394,0.196-0.526
		c0.099-0.136,0.242-0.236,0.428-0.306c0.192-0.069,0.45-0.105,0.762-0.129c0.048,0,0.087-0.027,0.113-0.077
		c0.033-0.06,0.052-0.119,0.056-0.175c0.002-0.063-0.004-0.112-0.029-0.163c-0.026-0.05-0.066-0.074-0.129-0.074
		C176.504,110.164,176.307,110.169,176.131,110.175 M185.013,110.175c-0.175,0.014-0.354,0.021-0.533,0.025
		c-0.171,0.015-0.345,0.023-0.539,0.038c-0.186,0.008-0.383,0.008-0.593,0.008c-0.367,0-0.756-0.008-1.169-0.046
		c-0.411-0.025-0.776-0.036-1.09-0.036c-0.069,0-0.109,0.024-0.142,0.074c-0.034,0.051-0.049,0.101-0.049,0.163
		c0,0.056,0.015,0.115,0.049,0.175c0.032,0.05,0.072,0.077,0.142,0.077c0.305,0.023,0.548,0.064,0.738,0.143
		c0.188,0.078,0.327,0.188,0.428,0.324c0.107,0.146,0.174,0.324,0.206,0.545c0.037,0.218,0.05,0.489,0.05,0.8v5.918
		c0,0.324-0.013,0.585-0.05,0.77c-0.032,0.19-0.099,0.337-0.206,0.434c-0.107,0.1-0.258,0.174-0.441,0.225
		c-0.189,0.04-0.435,0.081-0.745,0.109c-0.066,0.013-0.108,0.046-0.14,0.097c-0.03,0.055-0.041,0.114-0.041,0.178
		c0,0.055,0.011,0.114,0.041,0.164c0.031,0.041,0.073,0.069,0.14,0.069c0.331,0,0.697-0.023,1.106-0.06
		c0.405-0.036,0.806-0.06,1.188-0.06c0.36,0,0.723,0.023,1.092,0.06c0.36,0.036,0.747,0.06,1.149,0.06
		c0.077,0,0.131-0.028,0.164-0.069c0.037-0.05,0.049-0.109,0.049-0.164c0-0.063-0.012-0.123-0.049-0.178
		c-0.033-0.051-0.082-0.084-0.152-0.097c-0.295-0.028-0.542-0.069-0.736-0.109c-0.186-0.051-0.336-0.125-0.444-0.225
		c-0.102-0.097-0.178-0.243-0.216-0.434c-0.037-0.185-0.057-0.445-0.057-0.77v-5.918c0-0.343,0.012-0.627,0.047-0.851
		c0.022-0.215,0.091-0.394,0.192-0.526c0.097-0.136,0.247-0.236,0.443-0.306c0.19-0.069,0.435-0.105,0.741-0.129
		c0.055,0,0.095-0.027,0.135-0.077c0.024-0.06,0.04-0.119,0.047-0.175c0.006-0.063-0.007-0.112-0.031-0.163
		c-0.016-0.05-0.07-0.074-0.133-0.074C185.395,110.164,185.198,110.169,185.013,110.175z M140.814,119.463
		c-0.409-0.261-0.739-0.61-0.974-1.034c-0.243-0.421-0.412-0.914-0.51-1.477c-0.106-0.563-0.156-1.148-0.156-1.748
		c0-0.57,0.065-1.143,0.187-1.7c0.122-0.553,0.306-1.058,0.554-1.501c0.254-0.438,0.578-0.787,0.974-1.061
		c0.391-0.266,0.867-0.402,1.409-0.402c0.581,0,1.085,0.133,1.483,0.397c0.405,0.266,0.727,0.612,0.965,1.056
		c0.243,0.437,0.411,0.943,0.521,1.501c0.103,0.567,0.156,1.144,0.156,1.718c0,0.61-0.069,1.19-0.201,1.744
		c-0.14,0.559-0.336,1.052-0.602,1.473c-0.265,0.424-0.574,0.773-0.954,1.034c-0.379,0.259-0.812,0.388-1.303,0.388
		C141.731,119.851,141.217,119.722,140.814,119.463z M123.396,120.181v0.014v0.009c0,0.055,0.018,0.105,0.041,0.155
		c0.035,0.041,0.076,0.069,0.144,0.069c0.328,0,0.698-0.023,1.105-0.06c0.404-0.036,0.8-0.06,1.187-0.06
		c0.18,0,0.344,0.005,0.504,0.023c0.156,0.017,0.314,0.026,0.462,0.045c0.158,0.013,0.318,0.022,0.482,0.036
		c0.167,0.015,0.35,0.015,0.556,0.015c0.071,0,0.121-0.028,0.146-0.069c0.033-0.05,0.045-0.109,0.039-0.164
		c0-0.062-0.018-0.123-0.045-0.174c-0.035-0.042-0.068-0.074-0.124-0.083c-0.274-0.031-0.492-0.067-0.656-0.11
		c-0.163-0.036-0.286-0.108-0.368-0.218c-0.083-0.11-0.138-0.252-0.158-0.445c-0.021-0.192-0.039-0.453-0.039-0.781v-1.897
		c0-0.147,0.036-0.279,0.107-0.404c0.06-0.127,0.215-0.191,0.444-0.191c0.19,0,0.341,0.033,0.439,0.092
		c0.098,0.06,0.199,0.129,0.306,0.21c0.229,0.22,0.438,0.436,0.618,0.632c0.181,0.201,0.347,0.411,0.494,0.622
		c0.157,0.215,0.297,0.443,0.438,0.689c0.138,0.254,0.298,0.545,0.467,0.879c0.091,0.184,0.135,0.335,0.123,0.449
		c-0.006,0.112-0.048,0.209-0.116,0.278c-0.076,0.063-0.165,0.109-0.283,0.137c-0.11,0.028-0.229,0.05-0.344,0.06
		c-0.063,0-0.121,0.028-0.153,0.079c-0.031,0.055-0.045,0.116-0.043,0.178c0.005,0.055,0.025,0.114,0.067,0.164
		c0.025,0.041,0.073,0.069,0.129,0.069c0.204,0,0.384,0,0.547-0.015c0.163-0.014,0.323-0.023,0.476-0.036
		c0.157-0.019,0.311-0.028,0.473-0.045c0.165-0.019,0.343-0.023,0.533-0.023c0.197,0,0.371,0.005,0.545,0.023
		c0.168,0.017,0.333,0.026,0.501,0.045c0.168,0.013,0.335,0.022,0.514,0.036c0.188,0.015,0.386,0.015,0.609,0.015
		c0.068,0,0.108-0.028,0.139-0.069c0.025-0.05,0.044-0.109,0.044-0.164c0-0.062-0.019-0.123-0.044-0.174
		c-0.031-0.042-0.07-0.074-0.139-0.083c-0.419-0.042-0.755-0.156-1.011-0.338c-0.253-0.187-0.482-0.458-0.69-0.814
		c-0.224-0.36-0.457-0.727-0.7-1.094c-0.247-0.355-0.505-0.718-0.766-1.06c-0.261-0.344-0.523-0.654-0.786-0.952
		c-0.256-0.292-0.51-0.544-0.75-0.769c-0.091-0.082-0.144-0.16-0.167-0.242c-0.018-0.077-0.007-0.146,0.043-0.196
		c0.19-0.206,0.396-0.426,0.604-0.663c0.21-0.242,0.42-0.494,0.629-0.746c0.208-0.257,0.404-0.512,0.597-0.78
		c0.199-0.262,0.387-0.508,0.558-0.757c0.116-0.167,0.224-0.306,0.32-0.411c0.094-0.109,0.195-0.192,0.309-0.247
		c0.11-0.06,0.235-0.104,0.375-0.136c0.133-0.032,0.304-0.056,0.51-0.079c0.048-0.008,0.075-0.04,0.105-0.087
		c0.025-0.055,0.034-0.109,0.034-0.165c0-0.063-0.008-0.112-0.034-0.163c-0.03-0.05-0.057-0.074-0.105-0.074
		c-0.318,0-0.583,0.011-0.793,0.047c-0.215,0.035-0.453,0.05-0.721,0.05c-0.309,0-0.595-0.015-0.864-0.05
		c-0.279-0.036-0.597-0.047-0.949-0.047c-0.06,0-0.101,0.024-0.128,0.074c-0.025,0.051-0.042,0.101-0.042,0.163
		c0,0.056,0.021,0.11,0.042,0.165c0.037,0.047,0.089,0.079,0.158,0.087c0.185,0.023,0.343,0.047,0.478,0.079
		c0.133,0.031,0.233,0.082,0.297,0.159c0.069,0.068,0.089,0.173,0.082,0.298c-0.018,0.124-0.087,0.292-0.21,0.503
		c-0.261,0.447-0.641,0.983-1.134,1.601c-0.501,0.612-1.119,1.294-1.85,2.021c-0.062,0.06-0.132,0.083-0.208,0.068
		c-0.082-0.009-0.121-0.06-0.121-0.136v-2.781c0-0.343,0.018-0.627,0.031-0.851c0.025-0.215,0.076-0.394,0.166-0.526
		c0.084-0.136,0.226-0.236,0.399-0.306c0.172-0.069,0.414-0.105,0.73-0.129c0.05,0,0.089-0.027,0.119-0.077
		c0.03-0.06,0.044-0.119,0.044-0.175c0-0.063-0.014-0.112-0.044-0.163c-0.03-0.05-0.073-0.074-0.135-0.074
		c-0.21,0-0.402,0.005-0.569,0.011c-0.167,0.014-0.328,0.025-0.492,0.036c-0.153,0.013-0.318,0.027-0.492,0.035
		c-0.171,0.01-0.361,0.015-0.575,0.015c-0.365,0-0.751-0.015-1.163-0.05c-0.414-0.036-0.775-0.047-1.1-0.047
		c-0.057,0-0.105,0.024-0.137,0.074c-0.028,0.051-0.043,0.101-0.043,0.163c0,0.056,0.016,0.115,0.043,0.175
		c0.032,0.05,0.08,0.077,0.137,0.077c0.314,0.023,0.561,0.064,0.75,0.143c0.185,0.078,0.329,0.188,0.43,0.324
		c0.096,0.146,0.162,0.324,0.199,0.545c0.035,0.218,0.053,0.489,0.053,0.8v5.918c0,0.328-0.018,0.585-0.053,0.77
		c-0.037,0.19-0.103,0.337-0.208,0.442c-0.108,0.105-0.254,0.178-0.442,0.225c-0.187,0.045-0.434,0.087-0.741,0.118
		c-0.068,0.009-0.109,0.041-0.144,0.083C123.414,120.065,123.396,120.126,123.396,120.181z M156.864,120.487h0.278h0.063
		c0.201,0,0.397-0.015,0.578-0.028c0.227-0.019,0.456-0.055,0.663-0.101c0.211-0.05,0.419-0.115,0.629-0.206
		c0.204-0.087,0.414-0.187,0.639-0.306c0.13-0.074,0.251-0.105,0.354-0.105c0.108,0,0.201,0.023,0.279,0.078
		c0.082,0.059,0.146,0.127,0.197,0.214c0.05,0.088,0.084,0.174,0.103,0.261c0.016,0.051,0.043,0.093,0.096,0.11
		c0.048,0.028,0.105,0.036,0.158,0.032c0.05-0.004,0.105-0.019,0.144-0.047c0.034-0.031,0.063-0.076,0.063-0.132
		c-0.028-0.397-0.053-0.769-0.078-1.134c-0.021-0.352-0.034-0.705-0.034-1.043c0-0.201,0.002-0.402,0.014-0.6
		c0.007-0.187,0.031-0.394,0.062-0.594c0.009-0.038-0.005-0.078-0.058-0.124c-0.05-0.036-0.106-0.067-0.176-0.082
		c-0.053-0.014-0.113-0.014-0.169,0.01c-0.053,0.017-0.087,0.067-0.096,0.132c-0.078,0.513-0.213,0.979-0.403,1.381
		c-0.189,0.407-0.448,0.755-0.774,1.056c-0.266,0.229-0.579,0.39-0.968,0.472c-0.379,0.084-0.81,0.119-1.289,0.119
		c-0.624,0-1.162-0.146-1.597-0.421c-0.432-0.288-0.791-0.653-1.061-1.11c-0.276-0.447-0.468-0.965-0.588-1.527
		c-0.119-0.555-0.18-1.126-0.18-1.685c0-0.513,0.05-1.037,0.149-1.572c0.098-0.539,0.279-1.029,0.532-1.468
		c0.258-0.431,0.604-0.791,1.036-1.074c0.437-0.285,0.986-0.422,1.649-0.422c0.854,0,1.562,0.211,2.119,0.632
		c0.567,0.438,0.972,1.097,1.222,2.003c0.011,0.051,0.048,0.092,0.104,0.109c0.066,0.023,0.124,0.027,0.197,0.023
		c0.066-0.011,0.116-0.023,0.167-0.046c0.039-0.032,0.063-0.06,0.063-0.101c-0.039-0.303-0.082-0.596-0.119-0.879
		c-0.041-0.278-0.063-0.553-0.063-0.837c0-0.188,0.016-0.361,0.027-0.534c0.017-0.165,0.041-0.329,0.08-0.495
		c0.012-0.046-0.007-0.067-0.044-0.091c-0.041-0.022-0.084-0.031-0.142-0.036c-0.058-0.01-0.118,0-0.171,0.019
		c-0.053,0.018-0.09,0.051-0.101,0.091c-0.047,0.188-0.157,0.283-0.317,0.283c-0.061,0-0.151-0.017-0.243-0.067
		c-0.097-0.032-0.203-0.092-0.311-0.134c-0.364-0.182-0.75-0.328-1.135-0.438c-0.377-0.114-0.796-0.17-1.253-0.17
		c-0.772,0-1.491,0.115-2.147,0.348c-0.659,0.233-1.226,0.572-1.699,1.034c-0.479,0.452-0.851,1.023-1.125,1.701
		c-0.273,0.682-0.412,1.467-0.412,2.347c0,1.655,0.429,2.936,1.294,3.827C153.906,120.021,155.166,120.459,156.864,120.487z
		 M142.151,120.487h0.245h0.033c0.646-0.015,1.259-0.134,1.829-0.354c0.613-0.231,1.155-0.574,1.612-1.031
		c0.464-0.458,0.826-1.024,1.091-1.697c0.256-0.668,0.391-1.44,0.391-2.314c0-0.782-0.124-1.486-0.368-2.135
		c-0.245-0.642-0.585-1.18-1.031-1.634c-0.437-0.453-0.962-0.805-1.584-1.047c-0.611-0.246-1.291-0.371-2.026-0.371
		c-0.75,0-1.437,0.13-2.059,0.386c-0.621,0.257-1.161,0.617-1.612,1.078c-0.446,0.462-0.796,1.016-1.05,1.66
		c-0.247,0.641-0.372,1.346-0.372,2.108c0,1.778,0.448,3.119,1.344,4.012C139.456,120.011,140.645,120.459,142.151,120.487z"/>
</g>
</svg>
