<?xml version="1.0" encoding="UTF-8" standalone="no"?>
<!DOCTYPE svg PUBLIC "-//W3C//DTD SVG 1.1//EN" "http://www.w3.org/Graphics/SVG/1.1/DTD/svg11.dtd">
<svg xmlns="http://www.w3.org/2000/svg" version="1.1" viewBox="0.00 0.00 1000.00 1000.00">
<path fill="#71bf48" d="
  M 0.00 0.00
  L 1000.00 0.00
  L 1000.00 487.75
  Q 999.52 486.28 999.12 485.88
  C 975.91 462.03 953.10 437.80 929.89 413.95
  Q 869.18 351.56 809.21 288.46
  C 807.20 286.35 804.00 284.29 802.51 282.50
  Q 799.16 278.45 797.06 277.14
  Q 790.27 267.58 783.62 259.63
  Q 761.97 233.80 737.07 212.53
  C 689.05 171.52 630.92 142.91 568.55 131.16
  Q 503.84 118.96 437.96 129.82
  Q 368.55 141.27 308.50 178.24
  Q 263.06 206.21 228.60 243.88
  Q 186.37 290.05 160.77 346.76
  C 126.50 422.67 119.40 508.99 138.77 590.47
  C 154.80 657.91 190.61 720.89 239.84 769.86
  Q 284.32 814.12 340.24 841.98
  C 343.28 843.49 346.45 844.73 349.46 846.30
  Q 348.22 846.80 349.95 848.09
  Q 350.81 848.73 351.26 849.22
  Q 358.76 857.29 366.25 864.92
  Q 373.83 873.12 381.37 880.88
  Q 438.99 940.22 497.14 999.04
  C 497.76 999.67 498.37 999.71 499.16 1000.00
  L 0.00 1000.00
  L 0.00 0.00
  Z"
/>
<path fill="#f5f6f4" d="
  M 797.06 277.14
  L 814.95 303.45
  Q 851.69 363.39 863.84 431.99
  Q 876.26 502.11 863.13 572.79
  Q 861.75 572.97 861.46 572.33
  Q 861.29 571.95 860.98 572.21
  Q 860.22 572.85 859.74 573.68
  Q 859.51 574.10 859.05 574.20
  Q 858.17 574.40 857.61 575.08
  Q 855.70 577.37 853.46 579.19
  Q 851.37 580.89 849.50 583.03
  Q 847.62 585.16 845.07 587.06
  Q 843.17 588.47 841.03 590.51
  Q 839.26 592.21 836.76 593.64
  Q 831.51 596.64 826.32 600.52
  Q 824.22 602.09 822.08 603.64
  Q 821.57 604.01 821.30 603.44
  Q 820.90 602.62 820.15 602.53
  L 822.40 594.73
  Q 840.97 529.76 833.78 464.25
  Q 824.08 375.92 772.52 301.78
  Q 741.80 257.62 697.69 224.44
  Q 645.82 185.43 581.79 168.56
  Q 572.25 166.04 562.29 164.17
  Q 478.38 148.38 398.36 173.68
  Q 349.11 189.25 305.13 220.97
  Q 297.71 226.32 289.49 233.11
  Q 277.74 242.83 271.71 248.54
  Q 235.64 282.72 210.66 325.24
  Q 199.07 344.96 189.94 366.01
  Q 170.87 409.94 165.25 459.03
  Q 153.84 558.80 196.51 650.28
  Q 198.72 654.69 201.52 660.01
  Q 227.72 709.88 267.15 749.17
  Q 274.31 756.31 281.82 762.78
  Q 341.52 814.24 416.77 834.53
  Q 431.36 838.47 450.72 841.62
  L 468.89 844.15
  Q 468.66 845.20 470.80 844.79
  Q 471.88 844.58 470.89 845.05
  C 468.79 846.04 466.56 844.75 464.41 844.89
  Q 462.49 845.02 460.51 845.03
  Q 460.06 845.03 459.79 845.39
  L 453.83 853.58
  Q 453.55 853.97 453.10 854.15
  Q 450.80 855.06 449.11 856.90
  Q 446.12 860.14 442.23 863.35
  Q 440.01 865.18 439.10 866.16
  Q 438.77 866.53 438.30 866.67
  Q 435.90 867.41 435.10 869.23
  Q 433.92 871.92 432.75 873.06
  Q 389.38 864.81 349.46 846.30
  C 346.45 844.73 343.28 843.49 340.24 841.98
  Q 284.32 814.12 239.84 769.86
  C 190.61 720.89 154.80 657.91 138.77 590.47
  C 119.40 508.99 126.50 422.67 160.77 346.76
  Q 186.37 290.05 228.60 243.88
  Q 263.06 206.21 308.50 178.24
  Q 368.55 141.27 437.96 129.82
  Q 503.84 118.96 568.55 131.16
  C 630.92 142.91 689.05 171.52 737.07 212.53
  Q 761.97 233.80 783.62 259.63
  Q 790.27 267.58 797.06 277.14
  Z"
/>
<path fill="#78ca4f" d="
  M 822.40 594.73
  Q 821.55 594.59 821.22 595.20
  Q 821.03 595.56 820.67 595.75
  Q 820.23 595.98 819.81 595.77
  A 0.61 0.61 0.0 0 0 818.94 596.22
  Q 818.85 596.82 818.28 597.08
  Q 817.75 597.31 817.38 597.75
  Q 812.61 603.34 806.48 607.66
  Q 806.17 607.88 806.37 607.56
  Q 806.43 607.45 806.28 607.32
  Q 806.14 607.19 805.98 607.28
  Q 805.70 607.44 805.68 607.74
  Q 805.66 608.22 805.31 608.54
  Q 803.55 610.24 801.49 611.73
  C 798.71 613.74 796.98 616.38 793.92 618.22
  Q 791.79 619.49 789.89 621.19
  Q 786.71 624.04 783.42 626.36
  Q 781.61 627.63 779.88 629.03
  Q 778.14 630.43 776.20 631.74
  Q 774.99 632.55 774.25 633.77
  Q 774.02 634.14 774.12 633.72
  Q 774.15 633.59 774.08 633.46
  Q 773.97 633.26 773.74 633.31
  Q 771.31 633.94 769.46 635.59
  Q 769.09 635.92 768.67 636.20
  Q 767.97 636.67 768.25 637.33
  Q 768.50 637.92 767.90 637.70
  Q 767.03 637.38 766.52 638.04
  L 654.75 597.64
  A 1.26 1.25 -73.2 0 1 653.96 596.15
  Q 654.30 594.76 652.92 594.17
  Q 625.65 582.48 598.08 570.14
  Q 592.45 566.38 586.30 565.65
  Q 585.30 559.59 585.91 552.80
  Q 586.45 550.88 587.01 549.12
  Q 587.27 548.29 587.29 547.40
  Q 587.31 546.26 588.40 545.64
  Q 588.68 545.48 588.83 545.19
  Q 589.68 543.58 589.99 541.84
  Q 590.28 540.21 591.31 538.67
  Q 592.74 536.54 594.35 534.62
  Q 596.40 532.18 598.45 529.70
  Q 598.91 529.15 599.14 528.45
  Q 599.32 527.92 599.81 527.64
  A 1.56 1.55 -8.9 0 0 600.54 526.65
  Q 601.22 523.71 603.57 521.69
  Q 603.96 521.35 603.87 520.84
  Q 603.84 520.68 603.89 520.52
  Q 604.02 520.10 604.44 519.95
  Q 605.36 519.60 605.60 518.63
  Q 605.69 518.28 606.03 518.17
  Q 606.33 518.07 606.49 517.78
  Q 607.65 515.69 608.98 513.66
  Q 609.25 513.24 609.28 512.75
  Q 609.43 510.71 611.03 509.54
  A 0.78 0.77 -20.6 0 0 611.35 508.84
  Q 611.28 507.88 612.02 507.22
  Q 612.47 506.82 612.40 506.23
  Q 612.22 504.76 613.18 504.33
  Q 613.62 504.14 613.73 503.67
  Q 614.17 501.67 615.85 500.52
  Q 616.26 500.23 616.39 499.74
  Q 617.33 496.07 619.32 492.07
  Q 619.91 490.90 619.82 489.07
  Q 619.74 487.28 620.36 485.74
  Q 621.42 483.06 620.54 479.93
  Q 620.41 479.49 620.67 479.11
  L 620.88 478.80
  A 1.50 1.45 59.2 0 0 621.13 477.75
  Q 620.49 473.57 622.86 469.46
  Q 625.10 465.57 628.40 462.47
  Q 628.71 462.18 629.11 462.05
  Q 630.36 461.65 631.24 460.59
  Q 632.59 458.95 634.12 458.10
  C 636.65 456.70 638.75 454.03 640.74 451.95
  Q 641.09 451.58 641.01 451.07
  Q 640.92 450.56 641.48 450.47
  Q 641.96 450.39 642.21 449.97
  L 644.85 445.67
  Q 644.91 445.56 645.04 445.59
  Q 645.19 445.63 645.26 445.47
  C 645.90 444.08 645.98 442.69 646.66 441.30
  Q 647.97 438.64 648.57 435.55
  Q 648.93 433.73 650.07 432.17
  A 1.84 1.83 -33.4 0 0 650.37 430.72
  Q 650.14 429.66 650.83 428.93
  Q 651.22 428.51 651.18 427.93
  Q 650.82 422.99 651.02 418.02
  Q 651.06 416.99 650.57 416.15
  Q 650.32 415.73 650.28 415.24
  Q 650.11 413.63 649.23 412.42
  Q 648.94 412.01 648.85 411.52
  C 648.58 409.95 647.35 408.94 647.05 407.38
  C 646.53 404.57 644.62 401.84 642.54 399.93
  Q 642.15 399.57 642.03 399.05
  Q 641.75 397.90 640.75 397.69
  Q 639.68 397.46 640.33 398.34
  Q 643.60 402.76 645.63 407.57
  Q 646.24 409.00 646.37 410.56
  Q 646.99 418.01 646.21 425.18
  C 646.07 426.42 645.61 427.53 645.33 428.74
  Q 645.21 429.24 644.60 430.64
  Q 644.17 431.64 644.30 432.74
  Q 641.12 439.73 635.82 445.09
  Q 627.79 451.96 617.74 451.58
  Q 617.23 451.56 617.15 452.06
  Q 616.94 453.37 617.17 454.73
  L 616.59 474.65
  L 615.27 480.70
  Q 612.31 490.51 607.84 499.44
  Q 599.16 515.92 585.92 528.62
  Q 573.51 540.53 560.24 548.26
  Q 541.81 558.99 519.71 566.16
  Q 505.35 570.83 489.46 568.83
  Q 488.29 567.78 485.50 568.08
  Q 474.60 565.37 464.19 561.04
  Q 439.11 550.61 418.28 533.41
  L 413.29 529.28
  Q 399.71 516.48 390.76 499.95
  L 389.15 496.05
  L 384.16 482.62
  Q 384.07 482.53 384.00 482.24
  Q 384.18 480.52 383.81 479.51
  Q 382.49 475.95 382.50 472.45
  Q 382.50 470.22 382.12 468.11
  Q 381.73 465.89 381.77 463.75
  Q 381.88 458.30 381.78 452.75
  Q 382.13 452.21 381.29 451.56
  L 376.03 451.53
  Q 372.26 451.24 371.38 450.61
  Q 370.47 449.96 369.43 449.62
  C 363.27 447.60 357.89 440.51 355.50 434.73
  Q 355.56 432.58 354.48 432.28
  Q 350.37 420.89 352.72 409.72
  Q 355.29 406.60 356.05 402.78
  Q 356.14 402.30 356.47 401.93
  Q 357.04 401.27 357.91 399.78
  Q 359.38 397.26 365.17 394.37
  Q 365.62 394.14 365.19 393.88
  Q 365.06 393.79 364.92 393.84
  Q 364.16 394.14 364.57 393.45
  Q 365.24 392.33 366.31 392.13
  Q 366.95 392.01 367.24 391.42
  Q 367.34 391.22 367.53 391.10
  Q 367.96 390.81 368.47 390.84
  Q 369.16 390.88 369.81 390.66
  A 1.34 1.33 -84.1 0 0 370.58 390.03
  Q 372.12 387.33 372.29 384.25
  Q 372.48 380.75 372.39 376.96
  C 372.35 375.14 371.46 373.99 370.81 372.43
  Q 370.74 372.25 370.60 372.16
  Q 370.45 372.05 370.27 372.15
  A 0.29 0.28 -25.8 0 1 369.87 372.02
  C 368.87 369.72 369.72 367.44 369.48 365.29
  Q 369.02 361.03 369.08 356.71
  Q 369.08 356.22 369.39 355.85
  Q 369.74 355.43 369.39 355.01
  Q 369.28 350.24 369.52 345.28
  Q 369.66 342.43 369.14 339.53
  Q 368.65 336.77 368.82 334.00
  Q 369.17 328.22 368.27 322.60
  Q 367.86 320.05 368.50 317.46
  Q 368.92 315.70 368.87 313.81
  Q 368.77 310.61 369.42 306.91
  C 370.04 303.32 370.04 299.72 370.37 296.12
  Q 370.40 295.80 370.72 295.86
  Q 370.86 295.89 370.94 295.77
  Q 371.14 295.47 371.12 295.10
  Q 371.06 293.87 372.07 293.22
  Q 372.54 292.92 372.35 292.40
  Q 372.10 291.72 371.93 290.94
  Q 371.79 290.31 372.43 290.38
  Q 372.54 290.40 372.63 290.32
  Q 373.01 290.01 373.25 289.58
  Q 374.14 287.95 375.27 286.47
  Q 372.01 299.59 372.38 315.00
  Q 373.05 342.96 374.11 359.52
  Q 372.27 361.70 373.67 363.86
  Q 373.93 364.28 373.95 364.77
  L 374.03 367.09
  Q 372.88 367.24 373.20 368.74
  Q 373.38 369.54 372.74 370.19
  A 0.52 0.52 0.0 0 0 372.64 370.78
  Q 372.80 371.10 372.51 371.40
  Q 372.06 371.87 372.02 371.22
  Q 371.57 362.68 371.63 354.60
  Q 371.65 351.05 371.32 347.28
  Q 371.02 343.77 370.62 339.84
  Q 370.08 334.39 370.13 328.98
  Q 370.23 317.17 370.89 305.36
  Q 370.90 305.21 370.75 305.21
  L 370.50 305.19
  Q 370.31 305.18 370.29 305.37
  Q 368.99 319.67 369.45 335.17
  Q 369.49 336.58 369.68 337.77
  Q 369.89 339.05 369.65 340.17
  A 1.46 1.44 33.7 0 0 369.89 341.33
  Q 370.53 342.23 370.36 343.28
  Q 369.86 346.39 370.12 349.92
  Q 370.36 353.20 370.36 356.60
  Q 370.37 363.56 370.96 370.43
  A 2.68 2.65 -62.3 0 0 371.28 371.48
  Q 372.58 373.82 372.93 373.17
  Q 373.33 372.46 373.42 373.27
  Q 373.80 376.78 373.77 380.25
  Q 373.76 382.56 374.60 381.17
  Q 374.11 392.15 377.74 402.45
  A 0.92 0.91 -22.1 0 0 378.99 402.97
  Q 379.21 402.87 379.38 402.69
  Q 384.93 396.50 389.06 390.59
  Q 393.19 384.69 394.23 375.46
  Q 396.28 357.39 399.14 338.53
  C 400.55 329.27 405.23 321.67 410.68 313.27
  C 416.96 303.59 427.37 293.74 438.98 293.21
  Q 443.10 293.03 448.59 295.06
  C 455.13 297.48 461.97 299.89 468.73 300.81
  Q 479.76 302.33 496.36 302.02
  Q 534.73 301.32 570.04 300.73
  Q 573.57 300.67 575.66 301.77
  Q 594.39 311.63 598.58 332.87
  Q 603.05 355.52 608.38 379.51
  Q 611.35 392.88 619.92 402.79
  A 0.70 0.70 0.0 0 0 621.13 402.52
  L 624.33 391.02
  Q 628.22 393.22 632.29 392.83
  Q 632.93 392.76 632.68 392.16
  Q 632.10 390.76 631.84 388.94
  Q 631.58 387.10 631.98 385.06
  Q 633.53 377.18 634.10 369.02
  Q 634.14 368.49 634.85 362.08
  Q 635.22 358.76 635.10 355.04
  Q 635.10 354.98 635.10 354.98
  L 635.32 354.76
  Q 635.64 354.44 635.50 354.00
  Q 635.17 352.93 635.49 351.77
  Q 635.63 351.26 635.51 350.74
  Q 634.03 344.63 634.41 338.26
  Q 634.44 337.77 634.19 337.34
  C 633.38 335.95 633.86 332.90 633.91 331.32
  Q 633.94 330.61 634.34 329.50
  Q 634.64 328.65 634.68 327.63
  Q 634.74 325.49 634.86 324.89
  Q 635.58 321.38 636.11 317.82
  Q 636.14 317.68 636.03 317.58
  Q 635.92 317.48 635.86 317.36
  Q 635.66 316.95 635.78 316.41
  Q 636.43 313.68 635.82 309.94
  Q 635.40 307.36 634.57 305.29
  Q 634.14 304.20 633.83 303.11
  Q 632.91 299.90 631.92 297.31
  Q 630.95 294.78 629.96 291.54
  Q 628.44 286.56 626.10 282.62
  Q 624.78 280.42 623.93 277.97
  Q 623.06 275.49 621.58 273.20
  Q 617.00 266.16 613.24 261.40
  Q 612.15 260.02 610.20 259.06
  Q 609.71 258.83 609.22 259.05
  L 607.85 259.69
  Q 607.42 259.88 607.19 259.48
  Q 606.73 258.70 605.44 258.74
  Q 592.62 244.01 575.49 234.23
  Q 555.33 222.71 533.58 217.31
  Q 509.28 211.27 478.95 208.51
  C 457.18 206.52 437.03 207.23 416.46 213.36
  C 402.69 217.46 391.56 224.04 381.65 234.40
  Q 379.42 236.74 377.93 239.62
  Q 376.47 242.04 378.09 243.63
  Q 380.35 245.86 381.85 247.76
  Q 382.63 248.74 382.86 250.24
  Q 383.23 252.62 385.20 254.01
  Q 388.47 256.31 386.29 259.79
  C 384.97 261.89 382.71 262.51 380.98 264.18
  Q 376.27 268.73 374.02 274.85
  A 1.28 1.22 -9.1 0 1 373.57 275.44
  Q 372.98 275.86 372.86 276.59
  Q 372.70 277.48 372.32 278.31
  Q 371.18 280.75 370.14 283.43
  Q 369.13 286.04 368.66 288.66
  Q 368.05 292.07 366.88 295.23
  Q 366.10 297.31 365.83 299.58
  Q 365.53 301.97 364.99 304.26
  Q 364.63 305.77 364.60 307.27
  Q 364.57 308.81 364.41 310.41
  Q 364.19 312.70 364.17 315.09
  Q 364.07 326.12 365.08 337.73
  C 365.20 339.11 364.91 340.30 365.02 341.70
  Q 365.49 347.29 365.22 353.53
  Q 365.11 355.92 365.27 358.65
  Q 365.43 361.31 365.19 363.61
  C 364.92 366.28 366.13 368.78 366.08 371.47
  Q 366.05 373.27 366.79 375.13
  Q 367.69 377.40 367.41 379.01
  Q 366.84 382.34 366.56 385.79
  Q 367.04 386.54 366.17 387.01
  Q 366.01 387.09 366.18 387.12
  Q 366.24 387.13 366.29 387.15
  Q 366.49 387.24 366.56 387.43
  Q 366.94 388.40 366.12 388.93
  Q 365.72 389.19 365.97 389.60
  Q 366.21 389.97 365.88 390.26
  Q 361.74 394.03 358.02 397.11
  Q 356.50 398.38 355.50 400.19
  Q 353.78 403.30 350.69 404.63
  Q 350.19 404.85 349.89 405.31
  Q 345.93 411.56 346.55 418.88
  Q 346.56 418.97 346.61 419.05
  Q 346.69 419.16 346.88 419.12
  Q 347.08 419.09 347.08 419.29
  Q 347.16 421.85 347.96 424.19
  Q 348.75 426.50 348.41 428.98
  Q 347.99 431.97 347.83 434.88
  Q 347.81 435.38 348.12 435.76
  Q 350.34 438.50 351.37 441.31
  Q 352.32 443.90 354.07 446.17
  Q 355.93 448.58 357.62 451.00
  Q 357.90 451.40 358.39 451.45
  Q 359.04 451.52 359.13 451.99
  Q 361.74 454.34 365.15 455.60
  Q 365.69 455.80 365.75 455.23
  Q 365.82 454.52 365.62 453.87
  Q 365.42 453.23 366.04 453.48
  Q 367.42 454.03 368.71 454.68
  Q 369.77 455.21 370.48 456.16
  Q 372.59 458.95 376.21 458.01
  A 1.90 1.90 0.0 0 1 378.57 459.65
  Q 378.83 462.17 378.47 465.23
  Q 378.26 467.00 378.15 468.69
  A 1.44 1.43 -62.2 0 0 378.44 469.64
  Q 378.97 470.31 378.41 470.91
  A 0.94 0.91 -24.3 0 0 378.16 471.54
  L 377.88 485.65
  A 3.49 3.39 36.4 0 0 378.08 486.86
  Q 378.88 489.13 379.20 491.66
  Q 379.82 496.40 382.72 503.45
  C 383.82 506.11 385.57 508.64 387.21 511.02
  Q 388.92 513.51 391.41 515.96
  Q 393.44 517.96 395.43 520.28
  Q 397.31 522.47 399.42 524.56
  Q 402.95 528.05 406.28 531.72
  Q 408.49 534.14 411.55 535.63
  Q 411.58 536.03 412.32 537.06
  L 412.70 565.66
  Q 407.03 566.78 401.95 569.68
  Q 401.58 569.90 401.43 570.19
  Q 401.23 570.59 401.25 570.95
  Q 400.46 570.80 399.85 571.07
  Q 373.51 582.81 345.90 593.93
  A 0.79 0.79 0.0 0 0 345.42 594.81
  Q 345.89 597.39 342.75 597.90
  L 196.51 650.28
  Q 153.84 558.80 165.25 459.03
  Q 170.87 409.94 189.94 366.01
  Q 199.07 344.96 210.66 325.24
  Q 235.64 282.72 271.71 248.54
  Q 277.74 242.83 289.49 233.11
  Q 297.71 226.32 305.13 220.97
  Q 349.11 189.25 398.36 173.68
  Q 478.38 148.38 562.29 164.17
  Q 572.25 166.04 581.79 168.56
  Q 645.82 185.43 697.69 224.44
  Q 741.80 257.62 772.52 301.78
  Q 824.08 375.92 833.78 464.25
  Q 840.97 529.76 822.40 594.73
  Z"
/>
<path fill="#272525" d="
  M 605.44 258.74
  C 616.67 272.65 624.55 287.03 626.97 304.72
  Q 629.03 320.43 627.86 335.96
  Q 627.26 343.95 627.25 344.04
  Q 625.94 365.41 624.69 386.79
  L 624.33 391.02
  L 621.13 402.52
  A 0.70 0.70 0.0 0 1 619.92 402.79
  Q 611.35 392.88 608.38 379.51
  Q 603.05 355.52 598.58 332.87
  Q 594.39 311.63 575.66 301.77
  Q 573.57 300.67 570.04 300.73
  Q 534.73 301.32 496.36 302.02
  Q 479.76 302.33 468.73 300.81
  C 461.97 299.89 455.13 297.48 448.59 295.06
  Q 443.10 293.03 438.98 293.21
  C 427.37 293.74 416.96 303.59 410.68 313.27
  C 405.23 321.67 400.55 329.27 399.14 338.53
  Q 396.28 357.39 394.23 375.46
  Q 393.19 384.69 389.06 390.59
  Q 384.93 396.50 379.38 402.69
  Q 379.21 402.87 378.99 402.97
  A 0.92 0.91 -22.1 0 1 377.74 402.45
  Q 374.11 392.15 374.60 381.17
  L 374.14 366.96
  L 374.11 359.52
  Q 373.05 342.96 372.38 315.00
  Q 372.01 299.59 375.27 286.47
  Q 379.22 271.83 390.55 262.81
  Q 395.92 258.53 403.23 258.87
  Q 403.92 258.91 403.60 258.29
  Q 402.18 255.55 399.98 253.49
  Q 397.72 251.39 394.92 249.43
  Q 392.26 247.57 389.60 245.76
  Q 384.18 242.09 377.93 239.62
  Q 379.42 236.74 381.65 234.40
  C 391.56 224.04 402.69 217.46 416.46 213.36
  C 437.03 207.23 457.18 206.52 478.95 208.51
  Q 509.28 211.27 533.58 217.31
  Q 555.33 222.71 575.49 234.23
  Q 592.62 244.01 605.44 258.74
  Z"
/>
<path fill="#71bf48" d="
  M 377.93 239.62
  Q 384.18 242.09 389.60 245.76
  Q 392.26 247.57 394.92 249.43
  Q 397.72 251.39 399.98 253.49
  Q 402.18 255.55 403.60 258.29
  Q 403.92 258.91 403.23 258.87
  Q 395.92 258.53 390.55 262.81
  Q 379.22 271.83 375.27 286.47
  Q 374.14 287.95 373.25 289.58
  Q 373.01 290.01 372.63 290.32
  Q 372.54 290.40 372.43 290.38
  Q 371.79 290.31 371.93 290.94
  Q 372.10 291.72 372.35 292.40
  Q 372.54 292.92 372.07 293.22
  Q 371.06 293.87 371.12 295.10
  Q 371.14 295.47 370.94 295.77
  Q 370.86 295.89 370.72 295.86
  Q 370.40 295.80 370.37 296.12
  C 370.04 299.72 370.04 303.32 369.42 306.91
  Q 368.77 310.61 368.87 313.81
  Q 368.92 315.70 368.50 317.46
  Q 367.86 320.05 368.27 322.60
  Q 369.17 328.22 368.82 334.00
  Q 368.65 336.77 369.14 339.53
  Q 369.66 342.43 369.52 345.28
  Q 369.28 350.24 369.39 355.01
  Q 369.74 355.43 369.39 355.85
  Q 369.08 356.22 369.08 356.71
  Q 369.02 361.03 369.48 365.29
  C 369.72 367.44 368.87 369.72 369.87 372.02
  A 0.29 0.28 -25.8 0 0 370.27 372.15
  Q 370.45 372.05 370.60 372.16
  Q 370.74 372.25 370.81 372.43
  C 371.46 373.99 372.35 375.14 372.39 376.96
  Q 372.48 380.75 372.29 384.25
  Q 372.12 387.33 370.58 390.03
  A 1.34 1.33 -84.1 0 1 369.81 390.66
  Q 369.16 390.88 368.47 390.84
  Q 367.96 390.81 367.53 391.10
  Q 367.34 391.22 367.24 391.42
  Q 366.95 392.01 366.31 392.13
  Q 365.24 392.33 364.57 393.45
  Q 364.16 394.14 364.92 393.84
  Q 365.06 393.79 365.19 393.88
  Q 365.62 394.14 365.17 394.37
  Q 359.38 397.26 357.91 399.78
  Q 357.04 401.27 356.47 401.93
  Q 356.14 402.30 356.05 402.78
  Q 355.29 406.60 352.72 409.72
  L 353.46 406.81
  Q 353.70 405.87 353.07 406.61
  Q 351.86 408.05 351.90 409.79
  A 1.80 1.76 59.0 0 1 351.69 410.67
  Q 351.02 411.96 350.90 413.71
  Q 349.90 427.64 355.93 438.88
  Q 356.10 439.19 356.09 439.54
  Q 356.08 439.80 356.24 440.01
  Q 358.24 442.66 360.12 445.37
  Q 362.66 449.02 369.10 451.20
  L 373.72 453.35
  Q 375.48 453.86 378.50 453.06
  Q 380.38 452.56 380.22 455.54
  Q 380.07 458.10 380.50 460.68
  Q 380.51 460.73 380.54 460.77
  Q 380.58 460.80 380.63 460.79
  Q 380.77 460.77 380.78 460.63
  Q 380.92 458.69 381.33 456.80
  Q 381.18 454.62 381.78 452.75
  Q 381.88 458.30 381.77 463.75
  Q 381.73 465.89 382.12 468.11
  Q 382.50 470.22 382.50 472.45
  Q 382.49 475.95 383.81 479.51
  Q 384.18 480.52 384.00 482.24
  L 383.40 480.57
  Q 383.24 480.12 382.79 480.24
  L 382.52 480.31
  Q 382.38 480.35 382.39 480.50
  C 382.69 483.26 383.12 485.86 384.12 488.47
  Q 384.59 489.69 385.10 491.50
  Q 386.52 496.53 389.88 502.52
  Q 393.32 508.93 396.44 513.25
  Q 399.95 518.13 408.21 528.29
  L 408.45 529.46
  Q 408.92 532.51 411.55 535.63
  Q 408.49 534.14 406.28 531.72
  Q 402.95 528.05 399.42 524.56
  Q 397.31 522.47 395.43 520.28
  Q 393.44 517.96 391.41 515.96
  Q 388.92 513.51 387.21 511.02
  C 385.57 508.64 383.82 506.11 382.72 503.45
  Q 379.82 496.40 379.20 491.66
  Q 378.88 489.13 378.08 486.86
  A 3.49 3.39 36.4 0 1 377.88 485.65
  L 378.16 471.54
  A 0.94 0.91 -24.3 0 1 378.41 470.91
  Q 378.97 470.31 378.44 469.64
  A 1.44 1.43 -62.2 0 1 378.15 468.69
  Q 378.26 467.00 378.47 465.23
  Q 378.83 462.17 378.57 459.65
  A 1.90 1.90 0.0 0 0 376.21 458.01
  Q 372.59 458.95 370.48 456.16
  Q 369.77 455.21 368.71 454.68
  Q 367.42 454.03 366.04 453.48
  Q 365.42 453.23 365.62 453.87
  Q 365.82 454.52 365.75 455.23
  Q 365.69 455.80 365.15 455.60
  Q 361.74 454.34 359.13 451.99
  Q 359.04 451.52 358.39 451.45
  Q 357.90 451.40 357.62 451.00
  Q 355.93 448.58 354.07 446.17
  Q 352.32 443.90 351.37 441.31
  Q 350.34 438.50 348.12 435.76
  Q 347.81 435.38 347.83 434.88
  Q 347.99 431.97 348.41 428.98
  Q 348.75 426.50 347.96 424.19
  Q 347.16 421.85 347.08 419.29
  Q 347.08 419.09 346.88 419.12
  Q 346.69 419.16 346.61 419.05
  Q 346.56 418.97 346.55 418.88
  Q 345.93 411.56 349.89 405.31
  Q 350.19 404.85 350.69 404.63
  Q 353.78 403.30 355.50 400.19
  Q 356.50 398.38 358.02 397.11
  Q 361.74 394.03 365.88 390.26
  Q 366.21 389.97 365.97 389.60
  Q 365.72 389.19 366.12 388.93
  Q 366.94 388.40 366.56 387.43
  Q 366.49 387.24 366.29 387.15
  Q 366.24 387.13 366.18 387.12
  Q 366.01 387.09 366.17 387.01
  Q 367.04 386.54 366.56 385.79
  Q 366.84 382.34 367.41 379.01
  Q 367.69 377.40 366.79 375.13
  Q 366.05 373.27 366.08 371.47
  C 366.13 368.78 364.92 366.28 365.19 363.61
  Q 365.43 361.31 365.27 358.65
  Q 365.11 355.92 365.22 353.53
  Q 365.49 347.29 365.02 341.70
  C 364.91 340.30 365.20 339.11 365.08 337.73
  Q 364.07 326.12 364.17 315.09
  Q 364.19 312.70 364.41 310.41
  Q 364.57 308.81 364.60 307.27
  Q 364.63 305.77 364.99 304.26
  Q 365.53 301.97 365.83 299.58
  Q 366.10 297.31 366.88 295.23
  Q 368.05 292.07 368.66 288.66
  Q 369.13 286.04 370.14 283.43
  Q 371.18 280.75 372.32 278.31
  Q 372.70 277.48 372.86 276.59
  Q 372.98 275.86 373.57 275.44
  A 1.28 1.22 -9.1 0 0 374.02 274.85
  Q 376.27 268.73 380.98 264.18
  C 382.71 262.51 384.97 261.89 386.29 259.79
  Q 388.47 256.31 385.20 254.01
  Q 383.23 252.62 382.86 250.24
  Q 382.63 248.74 381.85 247.76
  Q 380.35 245.86 378.09 243.63
  Q 376.47 242.04 377.93 239.62
  Z"
/>
<path fill="#71bf48" d="
  M 605.44 258.74
  Q 606.73 258.70 607.19 259.48
  Q 607.42 259.88 607.85 259.69
  L 609.22 259.05
  Q 609.71 258.83 610.20 259.06
  Q 612.15 260.02 613.24 261.40
  Q 617.00 266.16 621.58 273.20
  Q 623.06 275.49 623.93 277.97
  Q 624.78 280.42 626.10 282.62
  Q 628.44 286.56 629.96 291.54
  Q 630.95 294.78 631.92 297.31
  Q 632.91 299.90 633.83 303.11
  Q 634.14 304.20 634.57 305.29
  Q 635.40 307.36 635.82 309.94
  Q 636.43 313.68 635.78 316.41
  Q 635.66 316.95 635.86 317.36
  Q 635.92 317.48 636.03 317.58
  Q 636.14 317.68 636.11 317.82
  Q 635.58 321.38 634.86 324.89
  Q 634.74 325.49 634.68 327.63
  Q 634.64 328.65 634.34 329.50
  Q 633.94 330.61 633.91 331.32
  C 633.86 332.90 633.38 335.95 634.19 337.34
  Q 634.44 337.77 634.41 338.26
  Q 634.03 344.63 635.51 350.74
  Q 635.63 351.26 635.49 351.77
  Q 635.17 352.93 635.50 354.00
  Q 635.64 354.44 635.32 354.76
  L 635.10 354.98
  Q 635.10 354.98 635.10 355.04
  Q 635.22 358.76 634.85 362.08
  Q 634.14 368.49 634.10 369.02
  Q 633.53 377.18 631.98 385.06
  Q 631.58 387.10 631.84 388.94
  Q 632.10 390.76 632.68 392.16
  Q 632.93 392.76 632.29 392.83
  Q 628.22 393.22 624.33 391.02
  L 624.69 386.79
  L 624.40 390.37
  Q 624.35 390.96 624.94 391.08
  Q 625.55 391.20 626.19 391.05
  Q 626.74 390.93 626.59 390.38
  Q 626.14 388.77 626.53 387.02
  Q 626.99 384.98 627.59 382.99
  Q 628.19 380.97 628.28 378.91
  Q 628.37 376.73 628.89 374.70
  Q 629.36 372.84 629.44 370.66
  Q 629.65 364.42 629.96 358.77
  Q 630.51 348.89 630.66 338.99
  C 630.69 337.30 631.10 335.66 630.73 334.04
  C 630.48 332.92 631.00 331.59 631.09 330.46
  C 631.24 328.70 630.22 327.39 630.78 325.52
  Q 630.93 324.99 630.82 324.45
  Q 630.33 322.04 630.74 319.35
  Q 630.76 319.21 630.63 319.16
  Q 630.49 319.11 630.39 319.01
  Q 630.15 318.81 630.13 318.49
  Q 629.98 316.26 629.50 314.06
  Q 629.36 313.39 628.79 312.81
  Q 628.41 312.42 628.42 311.89
  Q 628.45 307.88 626.97 304.72
  C 624.55 287.03 616.67 272.65 605.44 258.74
  Z"
/>
<path fill="#447c32" d="
  M 1000.00 487.75
  L 1000.00 1000.00
  L 499.16 1000.00
  C 498.37 999.71 497.76 999.67 497.14 999.04
  Q 438.99 940.22 381.37 880.88
  Q 373.83 873.12 366.25 864.92
  Q 369.36 866.59 372.42 867.77
  Q 376.82 869.48 378.71 870.33
  Q 381.35 871.53 383.93 872.56
  Q 384.60 872.83 388.13 873.73
  Q 390.17 874.26 392.00 875.05
  Q 396.25 876.89 410.71 880.83
  Q 412.78 881.40 414.70 882.00
  Q 417.13 882.76 419.77 883.04
  Q 420.23 883.09 420.58 883.39
  Q 421.19 883.92 422.00 883.80
  Q 422.49 883.72 422.97 883.84
  Q 433.36 886.30 443.99 887.43
  Q 444.17 887.45 444.36 887.57
  Q 444.59 887.71 444.87 887.75
  Q 453.52 888.87 462.26 889.58
  Q 469.23 890.14 475.65 890.12
  Q 479.17 890.11 482.63 890.55
  Q 486.22 891.01 489.72 890.97
  Q 495.70 890.91 495.79 890.91
  Q 512.31 891.16 518.50 890.64
  Q 529.66 889.69 541.20 888.96
  Q 543.02 888.85 544.72 888.53
  Q 546.54 888.20 548.37 888.17
  Q 550.22 888.14 552.06 887.66
  C 553.97 887.15 555.92 886.58 557.91 886.66
  Q 559.03 886.70 560.13 886.30
  Q 560.45 886.18 560.79 886.28
  Q 561.39 886.45 562.07 886.31
  Q 566.49 885.45 571.09 884.83
  Q 576.17 884.15 582.41 882.28
  Q 586.30 881.11 590.15 880.28
  Q 594.41 879.37 598.28 877.91
  A 5.87 5.29 1.8 0 1 599.06 877.66
  Q 605.64 875.94 612.24 873.93
  Q 612.63 873.81 612.82 873.50
  Q 613.05 873.13 613.47 872.99
  Q 627.86 868.16 642.21 861.81
  Q 643.40 861.29 646.16 859.41
  Q 646.57 859.13 647.07 859.14
  Q 647.68 859.16 648.36 858.86
  Q 654.53 856.09 659.54 853.20
  Q 661.98 851.79 664.48 850.79
  Q 666.83 849.85 669.16 848.61
  Q 671.91 847.15 674.89 846.01
  Q 675.41 845.81 675.77 845.38
  Q 676.22 844.85 676.84 844.68
  Q 677.53 844.50 678.18 844.04
  Q 682.30 841.11 687.27 838.73
  Q 687.46 838.64 687.28 838.53
  Q 687.24 838.51 687.19 838.51
  Q 686.72 838.49 687.13 838.26
  Q 693.56 834.58 699.73 831.13
  Q 700.46 830.72 701.02 830.15
  Q 701.76 829.38 702.54 828.83
  Q 706.18 826.25 710.27 823.58
  C 710.96 823.13 711.31 822.69 711.78 822.02
  Q 712.20 821.41 712.91 820.97
  Q 717.70 817.97 721.80 814.24
  Q 722.23 813.85 722.82 813.83
  Q 723.19 813.82 723.44 813.55
  Q 723.62 813.36 723.83 813.21
  Q 727.29 810.78 730.30 807.82
  Q 730.79 807.34 731.39 807.12
  Q 732.04 806.89 732.38 806.35
  Q 733.29 804.90 734.67 803.98
  Q 736.15 803.00 737.18 801.95
  Q 740.82 798.25 744.11 795.25
  Q 749.76 790.12 756.53 784.26
  Q 757.60 783.34 758.67 781.98
  Q 759.68 780.69 760.96 779.79
  Q 763.26 778.17 764.13 777.26
  Q 765.55 775.76 767.08 774.37
  Q 767.21 774.24 767.22 774.05
  Q 767.22 773.99 767.16 773.99
  Q 766.75 773.96 767.02 773.66
  Q 768.62 771.88 770.30 770.17
  Q 771.99 768.44 773.46 766.58
  Q 775.82 763.58 778.39 761.01
  A 1.69 1.69 0.0 0 0 778.88 759.95
  Q 778.95 758.98 779.77 758.49
  Q 780.39 758.10 780.93 757.52
  Q 784.25 753.89 787.68 750.36
  Q 788.56 749.45 790.30 747.15
  Q 791.56 745.49 793.15 744.10
  Q 793.51 743.78 793.61 743.30
  Q 793.79 742.36 794.67 741.88
  A 2.62 2.57 1.8 0 0 795.58 741.04
  Q 798.32 736.90 801.61 732.77
  Q 802.58 731.56 803.34 730.22
  Q 804.05 728.95 805.01 727.84
  Q 808.13 724.21 809.38 722.13
  Q 810.39 720.46 811.29 719.31
  Q 812.55 717.71 813.17 716.51
  Q 815.28 712.47 817.53 708.94
  Q 818.19 707.90 818.95 707.22
  Q 819.78 706.47 820.26 705.52
  Q 821.69 702.70 823.08 699.99
  Q 824.48 697.29 826.14 694.62
  Q 828.63 690.63 830.12 687.38
  Q 830.68 686.18 831.45 685.36
  Q 832.34 684.42 832.64 683.28
  Q 833.05 681.74 833.76 680.32
  Q 837.72 672.30 841.70 663.92
  C 842.47 662.28 842.44 660.57 843.59 659.06
  C 844.21 658.26 844.03 657.09 844.45 656.14
  Q 849.67 644.23 853.87 631.44
  Q 854.57 629.31 854.87 627.21
  Q 855.22 624.83 856.75 622.29
  Q 857.61 620.87 858.07 619.21
  Q 858.54 617.51 859.18 615.60
  Q 861.67 608.15 863.27 599.25
  Q 863.54 597.76 863.62 596.25
  Q 863.69 594.79 864.00 593.39
  Q 864.46 591.33 864.62 589.27
  Q 864.72 587.93 865.49 586.60
  Q 866.12 585.50 866.37 584.21
  Q 867.29 579.49 868.28 574.92
  Q 868.57 573.57 868.55 572.12
  Q 868.53 570.80 869.04 569.49
  Q 870.23 566.41 869.51 563.14
  C 869.22 561.82 870.26 560.55 870.37 559.12
  Q 870.76 553.74 871.01 548.44
  Q 871.08 546.81 871.46 545.09
  Q 871.88 543.21 872.06 541.43
  Q 872.68 535.36 873.25 528.79
  C 873.32 527.96 872.96 527.33 873.15 526.47
  Q 873.54 524.77 873.38 522.85
  Q 873.23 520.91 873.52 519.28
  Q 874.35 514.72 873.94 509.16
  Q 873.93 509.05 873.85 508.98
  Q 873.75 508.90 873.60 508.92
  Q 873.51 508.93 873.53 508.84
  Q 873.84 507.58 873.58 506.26
  C 873.16 504.18 873.59 502.14 873.87 500.01
  Q 873.99 499.05 873.62 498.29
  Q 873.42 497.87 873.44 497.40
  Q 874.02 486.91 873.63 476.70
  C 873.60 476.01 873.20 475.32 873.13 474.55
  Q 872.78 470.19 872.29 465.78
  C 872.00 463.21 872.20 460.71 871.34 458.26
  Q 870.80 456.74 870.79 455.12
  Q 870.78 453.52 870.76 452.06
  Q 870.75 451.55 870.26 451.42
  Q 869.94 451.34 869.83 451.01
  Q 868.47 446.77 867.48 442.60
  C 867.29 441.80 867.64 441.16 867.42 440.23
  Q 867.18 439.26 867.15 438.40
  Q 866.83 429.62 865.70 426.36
  Q 865.09 424.62 864.92 422.98
  Q 864.86 422.45 864.54 422.03
  Q 863.57 420.80 863.49 419.40
  Q 863.39 417.70 862.79 416.11
  Q 861.83 413.58 861.70 410.77
  Q 861.68 410.27 861.38 409.87
  Q 860.80 409.09 860.78 408.09
  Q 860.73 403.97 858.86 399.99
  C 858.19 398.57 857.99 397.30 857.56 395.82
  Q 857.16 394.46 857.02 392.61
  Q 856.86 390.56 855.92 388.95
  Q 855.18 387.67 854.33 386.55
  Q 853.95 386.04 854.11 385.43
  Q 854.23 384.99 853.87 384.78
  Q 853.39 384.50 853.50 383.95
  Q 853.82 382.26 852.51 381.42
  Q 852.13 381.18 852.11 380.74
  Q 852.02 378.34 851.20 376.22
  Q 850.54 374.53 850.28 372.79
  Q 849.86 369.91 847.68 367.53
  A 1.22 1.22 0.0 0 1 847.36 366.68
  Q 847.39 365.32 846.55 364.44
  Q 846.37 364.23 846.40 363.96
  Q 846.54 362.65 845.72 361.55
  A 0.99 0.99 0.0 0 1 845.70 360.38
  Q 846.04 359.90 845.61 359.74
  Q 845.10 359.55 844.91 359.06
  L 843.36 355.10
  Q 843.18 354.64 843.17 354.15
  Q 843.16 353.54 842.78 353.05
  Q 842.56 352.76 842.66 352.41
  Q 843.12 350.86 842.37 349.40
  Q 839.70 344.23 836.78 338.69
  Q 835.70 336.63 835.12 334.55
  Q 834.28 331.52 831.81 329.08
  C 830.99 328.27 830.96 327.42 830.78 326.36
  A 2.00 1.92 21.2 0 0 830.36 325.46
  Q 829.33 324.20 828.39 323.01
  Q 827.53 321.91 826.78 320.36
  Q 825.00 316.67 822.68 313.52
  Q 822.20 312.86 821.96 312.06
  Q 821.67 311.12 820.91 310.48
  Q 819.99 309.70 819.39 308.61
  Q 818.00 306.10 816.23 303.53
  Q 815.97 303.17 815.53 303.11
  Q 815.06 303.04 814.95 303.45
  L 797.06 277.14
  Q 799.16 278.45 802.51 282.50
  C 804.00 284.29 807.20 286.35 809.21 288.46
  Q 869.18 351.56 929.89 413.95
  C 953.10 437.80 975.91 462.03 999.12 485.88
  Q 999.52 486.28 1000.00 487.75
  Z"
/>
<path fill="#39692a" d="
  M 366.25 864.92
  Q 358.76 857.29 351.26 849.22
  Q 350.81 848.73 349.95 848.09
  Q 348.22 846.80 349.46 846.30
  Q 389.38 864.81 432.75 873.06
  Q 436.60 873.92 440.60 874.56
  Q 465.98 878.66 491.02 879.47
  Q 501.26 879.80 511.53 879.37
  C 572.42 876.85 633.36 857.96 686.03 825.91
  Q 711.24 810.57 729.11 795.97
  Q 808.78 730.91 845.75 634.39
  Q 854.94 610.39 861.04 582.74
  Q 862.12 577.81 863.13 572.79
  Q 876.26 502.11 863.84 431.99
  Q 851.69 363.39 814.95 303.45
  Q 815.06 303.04 815.53 303.11
  Q 815.97 303.17 816.23 303.53
  Q 818.00 306.10 819.39 308.61
  Q 819.99 309.70 820.91 310.48
  Q 821.67 311.12 821.96 312.06
  Q 822.20 312.86 822.68 313.52
  Q 825.00 316.67 826.78 320.36
  Q 827.53 321.91 828.39 323.01
  Q 829.33 324.20 830.36 325.46
  A 2.00 1.92 21.2 0 1 830.78 326.36
  C 830.96 327.42 830.99 328.27 831.81 329.08
  Q 834.28 331.52 835.12 334.55
  Q 835.70 336.63 836.78 338.69
  Q 839.70 344.23 842.37 349.40
  Q 843.12 350.86 842.66 352.41
  Q 842.56 352.76 842.78 353.05
  Q 843.16 353.54 843.17 354.15
  Q 843.18 354.64 843.36 355.10
  L 844.91 359.06
  Q 845.10 359.55 845.61 359.74
  Q 846.04 359.90 845.70 360.38
  A 0.99 0.99 0.0 0 0 845.72 361.55
  Q 846.54 362.65 846.40 363.96
  Q 846.37 364.23 846.55 364.44
  Q 847.39 365.32 847.36 366.68
  A 1.22 1.22 0.0 0 0 847.68 367.53
  Q 849.86 369.91 850.28 372.79
  Q 850.54 374.53 851.20 376.22
  Q 852.02 378.34 852.11 380.74
  Q 852.13 381.18 852.51 381.42
  Q 853.82 382.26 853.50 383.95
  Q 853.39 384.50 853.87 384.78
  Q 854.23 384.99 854.11 385.43
  Q 853.95 386.04 854.33 386.55
  Q 855.18 387.67 855.92 388.95
  Q 856.86 390.56 857.02 392.61
  Q 857.16 394.46 857.56 395.82
  C 857.99 397.30 858.19 398.57 858.86 399.99
  Q 860.73 403.97 860.78 408.09
  Q 860.80 409.09 861.38 409.87
  Q 861.68 410.27 861.70 410.77
  Q 861.83 413.58 862.79 416.11
  Q 863.39 417.70 863.49 419.40
  Q 863.57 420.80 864.54 422.03
  Q 864.86 422.45 864.92 422.98
  Q 865.09 424.62 865.70 426.36
  Q 866.83 429.62 867.15 438.40
  Q 867.18 439.26 867.42 440.23
  C 867.64 441.16 867.29 441.80 867.48 442.60
  Q 868.47 446.77 869.83 451.01
  Q 869.94 451.34 870.26 451.42
  Q 870.75 451.55 870.76 452.06
  Q 870.78 453.52 870.79 455.12
  Q 870.80 456.74 871.34 458.26
  C 872.20 460.71 872.00 463.21 872.29 465.78
  Q 872.78 470.19 873.13 474.55
  C 873.20 475.32 873.60 476.01 873.63 476.70
  Q 874.02 486.91 873.44 497.40
  Q 873.42 497.87 873.62 498.29
  Q 873.99 499.05 873.87 500.01
  C 873.59 502.14 873.16 504.18 873.58 506.26
  Q 873.84 507.58 873.53 508.84
  Q 873.51 508.93 873.60 508.92
  Q 873.75 508.90 873.85 508.98
  Q 873.93 509.05 873.94 509.16
  Q 874.35 514.72 873.52 519.28
  Q 873.23 520.91 873.38 522.85
  Q 873.54 524.77 873.15 526.47
  C 872.96 527.33 873.32 527.96 873.25 528.79
  Q 872.68 535.36 872.06 541.43
  Q 871.88 543.21 871.46 545.09
  Q 871.08 546.81 871.01 548.44
  Q 870.76 553.74 870.37 559.12
  C 870.26 560.55 869.22 561.82 869.51 563.14
  Q 870.23 566.41 869.04 569.49
  Q 868.53 570.80 868.55 572.12
  Q 868.57 573.57 868.28 574.92
  Q 867.29 579.49 866.37 584.21
  Q 866.12 585.50 865.49 586.60
  Q 864.72 587.93 864.62 589.27
  Q 864.46 591.33 864.00 593.39
  Q 863.69 594.79 863.62 596.25
  Q 863.54 597.76 863.27 599.25
  Q 861.67 608.15 859.18 615.60
  Q 858.54 617.51 858.07 619.21
  Q 857.61 620.87 856.75 622.29
  Q 855.22 624.83 854.87 627.21
  Q 854.57 629.31 853.87 631.44
  Q 849.67 644.23 844.45 656.14
  C 844.03 657.09 844.21 658.26 843.59 659.06
  C 842.44 660.57 842.47 662.28 841.70 663.92
  Q 837.72 672.30 833.76 680.32
  Q 833.05 681.74 832.64 683.28
  Q 832.34 684.42 831.45 685.36
  Q 830.68 686.18 830.12 687.38
  Q 828.63 690.63 826.14 694.62
  Q 824.48 697.29 823.08 699.99
  Q 821.69 702.70 820.26 705.52
  Q 819.78 706.47 818.95 707.22
  Q 818.19 707.90 817.53 708.94
  Q 815.28 712.47 813.17 716.51
  Q 812.55 717.71 811.29 719.31
  Q 810.39 720.46 809.38 722.13
  Q 808.13 724.21 805.01 727.84
  Q 804.05 728.95 803.34 730.22
  Q 802.58 731.56 801.61 732.77
  Q 798.32 736.90 795.58 741.04
  A 2.62 2.57 1.8 0 1 794.67 741.88
  Q 793.79 742.36 793.61 743.30
  Q 793.51 743.78 793.15 744.10
  Q 791.56 745.49 790.30 747.15
  Q 788.56 749.45 787.68 750.36
  Q 784.25 753.89 780.93 757.52
  Q 780.39 758.10 779.77 758.49
  Q 778.95 758.98 778.88 759.95
  A 1.69 1.69 0.0 0 1 778.39 761.01
  Q 775.82 763.58 773.46 766.58
  Q 771.99 768.44 770.30 770.17
  Q 768.62 771.88 767.02 773.66
  Q 766.75 773.96 767.16 773.99
  Q 767.22 773.99 767.22 774.05
  Q 767.21 774.24 767.08 774.37
  Q 765.55 775.76 764.13 777.26
  Q 763.26 778.17 760.96 779.79
  Q 759.68 780.69 758.67 781.98
  Q 757.60 783.34 756.53 784.26
  Q 749.76 790.12 744.11 795.25
  Q 740.82 798.25 737.18 801.95
  Q 736.15 803.00 734.67 803.98
  Q 733.29 804.90 732.38 806.35
  Q 732.04 806.89 731.39 807.12
  Q 730.79 807.34 730.30 807.82
  Q 727.29 810.78 723.83 813.21
  Q 723.62 813.36 723.44 813.55
  Q 723.19 813.82 722.82 813.83
  Q 722.23 813.85 721.80 814.24
  Q 717.70 817.97 712.91 820.97
  Q 712.20 821.41 711.78 822.02
  C 711.31 822.69 710.96 823.13 710.27 823.58
  Q 706.18 826.25 702.54 828.83
  Q 701.76 829.38 701.02 830.15
  Q 700.46 830.72 699.73 831.13
  Q 693.56 834.58 687.13 838.26
  Q 686.72 838.49 687.19 838.51
  Q 687.24 838.51 687.28 838.53
  Q 687.46 838.64 687.27 838.73
  Q 682.30 841.11 678.18 844.04
  Q 677.53 844.50 676.84 844.68
  Q 676.22 844.85 675.77 845.38
  Q 675.41 845.81 674.89 846.01
  Q 671.91 847.15 669.16 848.61
  Q 666.83 849.85 664.48 850.79
  Q 661.98 851.79 659.54 853.20
  Q 654.53 856.09 648.36 858.86
  Q 647.68 859.16 647.07 859.14
  Q 646.57 859.13 646.16 859.41
  Q 643.40 861.29 642.21 861.81
  Q 627.86 868.16 613.47 872.99
  Q 613.05 873.13 612.82 873.50
  Q 612.63 873.81 612.24 873.93
  Q 605.64 875.94 599.06 877.66
  A 5.87 5.29 1.8 0 0 598.28 877.91
  Q 594.41 879.37 590.15 880.28
  Q 586.30 881.11 582.41 882.28
  Q 576.17 884.15 571.09 884.83
  Q 566.49 885.45 562.07 886.31
  Q 561.39 886.45 560.79 886.28
  Q 560.45 886.18 560.13 886.30
  Q 559.03 886.70 557.91 886.66
  C 555.92 886.58 553.97 887.15 552.06 887.66
  Q 550.22 888.14 548.37 888.17
  Q 546.54 888.20 544.72 888.53
  Q 543.02 888.85 541.20 888.96
  Q 529.66 889.69 518.50 890.64
  Q 512.31 891.16 495.79 890.91
  Q 495.70 890.91 489.72 890.97
  Q 486.22 891.01 482.63 890.55
  Q 479.17 890.11 475.65 890.12
  Q 469.23 890.14 462.26 889.58
  Q 453.52 888.87 444.87 887.75
  Q 444.59 887.71 444.36 887.57
  Q 444.17 887.45 443.99 887.43
  Q 433.36 886.30 422.97 883.84
  Q 422.49 883.72 422.00 883.80
  Q 421.19 883.92 420.58 883.39
  Q 420.23 883.09 419.77 883.04
  Q 417.13 882.76 414.70 882.00
  Q 412.78 881.40 410.71 880.83
  Q 396.25 876.89 392.00 875.05
  Q 390.17 874.26 388.13 873.73
  Q 384.60 872.83 383.93 872.56
  Q 381.35 871.53 378.71 870.33
  Q 376.82 869.48 372.42 867.77
  Q 369.36 866.59 366.25 864.92
  Z"
/>
<path fill="#519733" d="
  M 626.97 304.72
  Q 628.45 307.88 628.42 311.89
  Q 628.41 312.42 628.79 312.81
  Q 629.36 313.39 629.50 314.06
  Q 629.98 316.26 630.13 318.49
  Q 630.15 318.81 630.39 319.01
  Q 630.49 319.11 630.63 319.16
  Q 630.76 319.21 630.74 319.35
  Q 630.33 322.04 630.82 324.45
  Q 630.93 324.99 630.78 325.52
  C 630.22 327.39 631.24 328.70 631.09 330.46
  C 631.00 331.59 630.48 332.92 630.73 334.04
  C 631.10 335.66 630.69 337.30 630.66 338.99
  Q 630.51 348.89 629.96 358.77
  Q 629.65 364.42 629.44 370.66
  Q 629.36 372.84 628.89 374.70
  Q 628.37 376.73 628.28 378.91
  Q 628.19 380.97 627.59 382.99
  Q 626.99 384.98 626.53 387.02
  Q 626.14 388.77 626.59 390.38
  Q 626.74 390.93 626.19 391.05
  Q 625.55 391.20 624.94 391.08
  Q 624.35 390.96 624.40 390.37
  L 624.69 386.79
  Q 625.94 365.41 627.25 344.04
  Q 627.26 343.95 627.86 335.96
  Q 629.03 320.43 626.97 304.72
  Z"
/>
<path fill="#71bf48" d="
  M 374.03 367.09
  Q 374.09 367.02 374.14 366.96
  L 374.60 381.17
  Q 373.76 382.56 373.77 380.25
  Q 373.80 376.78 373.42 373.27
  Q 373.33 372.46 372.93 373.17
  Q 372.58 373.82 371.28 371.48
  A 2.68 2.65 -62.3 0 1 370.96 370.43
  Q 370.37 363.56 370.36 356.60
  Q 370.36 353.20 370.12 349.92
  Q 369.86 346.39 370.36 343.28
  Q 370.53 342.23 369.89 341.33
  A 1.46 1.44 33.7 0 1 369.65 340.17
  Q 369.89 339.05 369.68 337.77
  Q 369.49 336.58 369.45 335.17
  Q 368.99 319.67 370.29 305.37
  Q 370.31 305.18 370.50 305.19
  L 370.75 305.21
  Q 370.90 305.21 370.89 305.36
  Q 370.23 317.17 370.13 328.98
  Q 370.08 334.39 370.62 339.84
  Q 371.02 343.77 371.32 347.28
  Q 371.65 351.05 371.63 354.60
  Q 371.57 362.68 372.02 371.22
  Q 372.06 371.87 372.51 371.40
  Q 372.80 371.10 372.64 370.78
  A 0.52 0.52 0.0 0 1 372.74 370.19
  Q 373.38 369.54 373.20 368.74
  Q 372.88 367.24 374.03 367.09
  Z"
/>
<path fill="#519733" d="
  M 374.11 359.52
  L 374.14 366.96
  Q 374.09 367.02 374.03 367.09
  L 373.95 364.77
  Q 373.93 364.28 373.67 363.86
  Q 372.27 361.70 374.11 359.52
  Z"
/>
<path fill="#71bf48" d="
  M 585.91 552.80
  Q 586.14 547.65 586.27 542.59
  Q 586.35 539.35 587.32 537.33
  Q 588.54 534.79 589.77 532.27
  Q 590.66 530.43 592.02 529.07
  Q 593.79 527.31 595.19 525.37
  C 595.75 524.59 595.74 523.85 596.38 523.11
  Q 597.06 522.32 597.69 521.36
  Q 598.92 519.49 600.29 518.15
  Q 601.91 516.58 602.69 514.60
  Q 603.48 512.63 604.71 510.63
  Q 607.42 506.25 608.67 501.20
  Q 613.09 493.35 615.51 485.25
  Q 615.57 483.02 616.04 482.50
  Q 617.60 480.74 615.67 480.47
  Q 615.47 480.59 615.27 480.70
  L 616.59 474.65
  L 617.15 466.81
  Q 617.18 466.38 617.49 466.69
  Q 617.83 467.05 617.59 467.47
  Q 617.44 467.73 617.72 467.87
  Q 617.86 467.93 618.00 467.93
  Q 618.37 467.93 618.41 467.56
  L 618.56 466.11
  Q 620.07 463.93 620.29 461.27
  Q 620.49 458.97 620.72 458.26
  Q 621.30 456.45 622.15 455.52
  A 3.38 3.38 0.0 0 1 626.48 454.94
  Q 627.67 455.70 629.22 454.57
  Q 629.67 454.24 630.18 454.05
  Q 630.72 453.85 631.26 453.83
  A 1.20 1.17 20.3 0 0 632.11 453.45
  Q 633.64 451.85 635.27 450.39
  Q 637.34 448.54 638.33 447.28
  Q 642.23 442.32 644.17 436.60
  L 645.32 432.70
  Q 645.69 431.43 644.57 432.14
  Q 644.56 432.15 644.30 432.74
  Q 644.17 431.64 644.60 430.64
  Q 645.21 429.24 645.33 428.74
  C 645.61 427.53 646.07 426.42 646.21 425.18
  Q 646.99 418.01 646.37 410.56
  Q 646.24 409.00 645.63 407.57
  Q 643.60 402.76 640.33 398.34
  Q 639.68 397.46 640.75 397.69
  Q 641.75 397.90 642.03 399.05
  Q 642.15 399.57 642.54 399.93
  C 644.62 401.84 646.53 404.57 647.05 407.38
  C 647.35 408.94 648.58 409.95 648.85 411.52
  Q 648.94 412.01 649.23 412.42
  Q 650.11 413.63 650.28 415.24
  Q 650.32 415.73 650.57 416.15
  Q 651.06 416.99 651.02 418.02
  Q 650.82 422.99 651.18 427.93
  Q 651.22 428.51 650.83 428.93
  Q 650.14 429.66 650.37 430.72
  A 1.84 1.83 -33.4 0 1 650.07 432.17
  Q 648.93 433.73 648.57 435.55
  Q 647.97 438.64 646.66 441.30
  C 645.98 442.69 645.90 444.08 645.26 445.47
  Q 645.19 445.63 645.04 445.59
  Q 644.91 445.56 644.85 445.67
  L 642.21 449.97
  Q 641.96 450.39 641.48 450.47
  Q 640.92 450.56 641.01 451.07
  Q 641.09 451.58 640.74 451.95
  C 638.75 454.03 636.65 456.70 634.12 458.10
  Q 632.59 458.95 631.24 460.59
  Q 630.36 461.65 629.11 462.05
  Q 628.71 462.18 628.40 462.47
  Q 625.10 465.57 622.86 469.46
  Q 620.49 473.57 621.13 477.75
  A 1.50 1.45 59.2 0 1 620.88 478.80
  L 620.67 479.11
  Q 620.41 479.49 620.54 479.93
  Q 621.42 483.06 620.36 485.74
  Q 619.74 487.28 619.82 489.07
  Q 619.91 490.90 619.32 492.07
  Q 617.33 496.07 616.39 499.74
  Q 616.26 500.23 615.85 500.52
  Q 614.17 501.67 613.73 503.67
  Q 613.62 504.14 613.18 504.33
  Q 612.22 504.76 612.40 506.23
  Q 612.47 506.82 612.02 507.22
  Q 611.28 507.88 611.35 508.84
  A 0.78 0.77 -20.6 0 1 611.03 509.54
  Q 609.43 510.71 609.28 512.75
  Q 609.25 513.24 608.98 513.66
  Q 607.65 515.69 606.49 517.78
  Q 606.33 518.07 606.03 518.17
  Q 605.69 518.28 605.60 518.63
  Q 605.36 519.60 604.44 519.95
  Q 604.02 520.10 603.89 520.52
  Q 603.84 520.68 603.87 520.84
  Q 603.96 521.35 603.57 521.69
  Q 601.22 523.71 600.54 526.65
  A 1.56 1.55 -8.9 0 1 599.81 527.64
  Q 599.32 527.92 599.14 528.45
  Q 598.91 529.15 598.45 529.70
  Q 596.40 532.18 594.35 534.62
  Q 592.74 536.54 591.31 538.67
  Q 590.28 540.21 589.99 541.84
  Q 589.68 543.58 588.83 545.19
  Q 588.68 545.48 588.40 545.64
  Q 587.31 546.26 587.29 547.40
  Q 587.27 548.29 587.01 549.12
  Q 586.45 550.88 585.91 552.80
  Z"
/>
<path fill="#447c32" d="
  M 352.72 409.72
  Q 350.37 420.89 354.48 432.28
  Q 354.73 433.62 355.50 434.73
  C 357.89 440.51 363.27 447.60 369.43 449.62
  Q 370.47 449.96 371.38 450.61
  Q 372.26 451.24 376.03 451.53
  Q 378.58 452.36 381.29 451.56
  Q 382.13 452.21 381.78 452.75
  Q 381.18 454.62 381.33 456.80
  Q 380.52 457.07 380.22 455.54
  Q 380.38 452.56 378.50 453.06
  Q 375.48 453.86 373.72 453.35
  Q 375.56 452.76 377.89 452.90
  Q 380.23 451.86 375.86 452.25
  Q 375.57 452.28 375.76 452.50
  L 375.97 452.74
  Q 375.34 452.64 374.70 452.76
  A 1.84 1.78 -40.6 0 1 373.84 452.71
  L 369.10 451.20
  Q 362.66 449.02 360.12 445.37
  Q 358.24 442.66 356.24 440.01
  Q 356.08 439.80 356.09 439.54
  Q 356.10 439.19 355.93 438.88
  Q 349.90 427.64 350.90 413.71
  Q 351.02 411.96 351.69 410.67
  A 1.80 1.76 59.0 0 0 351.90 409.79
  Q 351.86 408.05 353.07 406.61
  Q 353.70 405.87 353.46 406.81
  L 352.72 409.72
  Z"
/>
<path fill="#447c32" d="
  M 644.17 436.60
  Q 642.83 438.14 642.22 440.71
  A 0.77 0.74 75.0 0 1 642.02 441.07
  Q 641.02 442.09 641.26 441.20
  A 0.05 0.05 0.0 0 0 641.18 441.16
  Q 640.01 442.31 639.53 443.72
  Q 639.16 444.80 638.35 445.69
  Q 636.71 447.49 632.77 450.00
  Q 627.31 453.49 622.77 453.68
  L 621.24 453.84
  Q 622.22 452.75 623.38 453.05
  A 2.07 2.05 -45.3 0 0 624.38 453.04
  Q 631.67 451.13 637.03 445.70
  Q 637.17 445.55 637.15 445.34
  Q 637.12 445.15 637.03 445.04
  Q 636.87 444.82 636.63 444.94
  Q 636.16 445.18 635.82 445.09
  Q 641.12 439.73 644.30 432.74
  Q 644.56 432.15 644.57 432.14
  Q 645.69 431.43 645.32 432.70
  L 644.17 436.60
  Z"
/>
<path fill="#71bf48" d="
  M 354.48 432.28
  Q 355.56 432.58 355.50 434.73
  Q 354.73 433.62 354.48 432.28
  Z"
/>
<path fill="#519733" d="
  M 644.17 436.60
  Q 642.23 442.32 638.33 447.28
  Q 637.34 448.54 635.27 450.39
  Q 633.64 451.85 632.11 453.45
  A 1.20 1.17 20.3 0 1 631.26 453.83
  Q 630.72 453.85 630.18 454.05
  Q 629.67 454.24 629.22 454.57
  Q 627.67 455.70 626.48 454.94
  A 3.38 3.38 0.0 0 0 622.15 455.52
  Q 621.30 456.45 620.72 458.26
  Q 620.49 458.97 620.29 461.27
  Q 620.07 463.93 618.56 466.11
  L 620.49 454.87
  Q 620.57 454.39 621.03 454.24
  L 622.77 453.68
  Q 627.31 453.49 632.77 450.00
  Q 636.71 447.49 638.35 445.69
  Q 639.16 444.80 639.53 443.72
  Q 640.01 442.31 641.18 441.16
  A 0.05 0.05 0.0 0 1 641.26 441.20
  Q 641.02 442.09 642.02 441.07
  A 0.77 0.74 75.0 0 0 642.22 440.71
  Q 642.83 438.14 644.17 436.60
  Z"
/>
<path fill="#39692a" d="
  M 621.24 453.84
  L 618.39 453.36
  Q 617.48 453.20 618.00 454.05
  Q 618.11 454.23 618.13 454.45
  Q 618.15 454.77 618.38 454.54
  Q 618.48 454.44 618.52 454.29
  A 0.18 0.18 0.0 0 1 618.85 454.26
  Q 619.34 455.19 618.87 456.20
  Q 618.61 456.77 618.17 456.33
  Q 617.54 455.70 617.17 454.73
  Q 616.94 453.37 617.15 452.06
  Q 617.23 451.56 617.74 451.58
  Q 627.79 451.96 635.82 445.09
  Q 636.16 445.18 636.63 444.94
  Q 636.87 444.82 637.03 445.04
  Q 637.12 445.15 637.15 445.34
  Q 637.17 445.55 637.03 445.70
  Q 631.67 451.13 624.38 453.04
  A 2.07 2.05 -45.3 0 1 623.38 453.05
  Q 622.22 452.75 621.24 453.84
  Z"
/>
<path fill="#519733" d="
  M 369.10 451.20
  L 373.84 452.71
  A 1.84 1.78 -40.6 0 0 374.70 452.76
  Q 375.34 452.64 375.97 452.74
  L 377.89 452.90
  Q 375.56 452.76 373.72 453.35
  L 369.10 451.20
  Z"
/>
<path fill="#71bf48" d="
  M 376.03 451.53
  L 381.29 451.56
  Q 378.58 452.36 376.03 451.53
  Z"
/>
<path fill="#39692a" d="
  M 377.89 452.90
  L 375.97 452.74
  L 375.76 452.50
  Q 375.57 452.28 375.86 452.25
  Q 380.23 451.86 377.89 452.90
  Z"
/>
<path fill="#447c32" d="
  M 621.24 453.84
  L 622.77 453.68
  L 621.03 454.24
  Q 620.57 454.39 620.49 454.87
  L 618.56 466.11
  L 618.41 467.56
  Q 618.37 467.93 618.00 467.93
  Q 617.86 467.93 617.72 467.87
  Q 617.44 467.73 617.59 467.47
  Q 617.83 467.05 617.49 466.69
  Q 617.18 466.38 617.15 466.81
  L 616.59 474.65
  L 617.17 454.73
  Q 617.54 455.70 618.17 456.33
  Q 618.61 456.77 618.87 456.20
  Q 619.34 455.19 618.85 454.26
  A 0.18 0.18 0.0 0 0 618.52 454.29
  Q 618.48 454.44 618.38 454.54
  Q 618.15 454.77 618.13 454.45
  Q 618.11 454.23 618.00 454.05
  Q 617.48 453.20 618.39 453.36
  L 621.24 453.84
  Z"
/>
<path fill="#519733" d="
  M 380.22 455.54
  Q 380.52 457.07 381.33 456.80
  Q 380.92 458.69 380.78 460.63
  Q 380.77 460.77 380.63 460.79
  Q 380.58 460.80 380.54 460.77
  Q 380.51 460.73 380.50 460.68
  Q 380.07 458.10 380.22 455.54
  Z"
/>
<path fill="#447c32" d="
  M 384.00 482.24
  Q 384.07 482.53 384.16 482.62
  Q 385.89 489.63 389.15 496.05
  L 390.76 499.95
  Q 389.96 499.43 389.75 498.29
  Q 389.70 498.05 389.47 498.11
  L 389.00 498.23
  Q 388.71 498.31 388.83 498.58
  Q 389.71 500.57 389.88 502.52
  Q 386.52 496.53 385.10 491.50
  Q 384.59 489.69 384.12 488.47
  C 383.12 485.86 382.69 483.26 382.39 480.50
  Q 382.38 480.35 382.52 480.31
  L 382.79 480.24
  Q 383.24 480.12 383.40 480.57
  L 384.00 482.24
  Z"
/>
<path fill="#519733" d="
  M 615.51 485.25
  L 615.67 480.47
  Q 617.60 480.74 616.04 482.50
  Q 615.57 483.02 615.51 485.25
  Z"
/>
<path fill="#447c32" d="
  M 615.27 480.70
  Q 615.47 480.59 615.67 480.47
  L 615.51 485.25
  Q 613.09 493.35 608.67 501.20
  Q 608.30 502.02 607.77 502.59
  Q 608.53 500.68 608.69 499.08
  Q 608.72 498.78 608.59 499.04
  Q 608.54 499.14 608.52 499.29
  Q 608.49 499.54 608.24 499.53
  Q 608.03 499.52 607.84 499.44
  Q 612.31 490.51 615.27 480.70
  Z
  M 612.35 490.14
  Q 611.79 490.70 611.93 491.47
  Q 612.02 491.95 612.37 491.61
  Q 613.20 490.79 612.75 489.70
  Q 612.66 489.49 612.56 489.69
  Q 612.53 489.75 612.52 489.81
  Q 612.49 490.00 612.35 490.14
  Z"
/>
<path fill="#71bf48" d="
  M 384.16 482.62
  L 389.15 496.05
  Q 385.89 489.63 384.16 482.62
  Z"
/>
<path fill="#39692a" d="
  M 612.52 489.81
  Q 612.53 489.75 612.56 489.69
  Q 612.66 489.49 612.75 489.70
  Q 613.20 490.79 612.37 491.61
  Q 612.02 491.95 611.93 491.47
  Q 611.79 490.70 612.35 490.14
  Q 612.49 490.00 612.52 489.81
  Z"
/>
<path fill="#39692a" d="
  M 390.76 499.95
  Q 399.71 516.48 413.29 529.28
  Q 415.07 531.57 411.14 530.69
  Q 410.56 530.23 409.96 530.04
  Q 409.46 528.78 408.21 528.29
  Q 399.95 518.13 396.44 513.25
  Q 393.32 508.93 389.88 502.52
  Q 389.71 500.57 388.83 498.58
  Q 388.71 498.31 389.00 498.23
  L 389.47 498.11
  Q 389.70 498.05 389.75 498.29
  Q 389.96 499.43 390.76 499.95
  Z"
/>
<path fill="#39692a" d="
  M 607.77 502.59
  Q 603.20 511.61 597.22 519.97
  Q 596.81 520.53 596.34 520.92
  Q 595.76 521.39 595.46 521.99
  Q 595.07 522.75 594.50 523.35
  Q 592.82 525.12 591.77 527.03
  Q 591.54 527.45 591.12 527.65
  Q 590.77 527.82 590.72 528.19
  Q 590.65 528.67 590.30 529.01
  Q 589.94 529.34 589.39 529.51
  Q 589.99 529.15 590.19 528.79
  Q 590.70 527.89 589.94 528.59
  Q 587.09 531.21 584.54 533.97
  Q 582.85 535.79 580.98 537.05
  Q 579.07 538.35 577.57 539.93
  C 576.85 540.70 575.97 540.68 575.40 541.67
  Q 575.22 541.99 574.88 542.15
  Q 573.05 543.04 571.91 544.74
  A 0.87 0.87 0.0 0 1 571.19 545.12
  L 570.71 545.12
  A 1.96 1.93 -64.3 0 0 569.48 545.56
  Q 567.39 547.27 564.98 548.29
  Q 562.75 549.24 561.00 550.70
  Q 559.18 552.21 557.52 553.38
  Q 556.51 554.09 555.26 554.31
  Q 554.28 554.48 553.41 555.10
  Q 551.87 556.20 550.07 556.87
  Q 548.74 557.36 547.50 558.23
  Q 546.26 559.10 544.68 559.25
  A 1.49 1.44 22.4 0 0 543.90 559.56
  Q 542.58 560.61 540.95 560.61
  Q 540.47 560.61 540.06 560.87
  Q 539.33 561.35 538.46 561.36
  Q 538.07 561.36 537.72 561.53
  Q 534.68 562.99 530.97 563.86
  A 1.53 1.52 -77.0 0 0 530.13 564.39
  Q 529.59 565.05 528.76 565.10
  Q 528.26 565.13 527.80 565.32
  Q 526.44 565.89 524.93 566.55
  Q 523.31 567.26 521.85 567.38
  Q 520.22 567.51 518.65 568.22
  Q 517.43 568.78 515.64 568.91
  Q 513.09 569.11 510.56 570.01
  Q 507.88 570.97 505.43 571.06
  Q 497.05 571.39 489.49 570.71
  Q 489.02 570.67 488.69 570.33
  Q 488.30 569.94 487.74 570.08
  Q 486.41 570.42 485.46 569.68
  Q 485.01 569.33 484.43 569.29
  Q 480.69 569.05 477.17 567.72
  Q 476.48 567.46 475.79 567.41
  Q 475.05 567.36 474.41 566.94
  Q 473.55 566.39 472.48 566.08
  Q 467.95 564.77 463.41 563.47
  Q 461.35 562.87 459.51 561.86
  Q 457.63 560.82 455.49 560.54
  Q 455.02 560.49 454.68 560.15
  Q 453.65 559.14 452.07 558.74
  Q 451.66 558.63 451.50 558.25
  Q 451.30 557.75 450.76 557.89
  Q 448.77 556.84 446.71 555.95
  Q 446.25 555.75 446.01 555.32
  Q 445.46 554.37 444.46 554.13
  C 443.36 553.87 442.51 553.20 441.44 552.84
  Q 440.85 552.65 440.92 552.04
  Q 440.98 551.56 440.50 551.62
  Q 439.72 551.70 439.37 551.04
  Q 439.07 550.49 438.52 550.20
  Q 436.04 548.91 433.75 547.59
  Q 432.20 546.71 430.96 545.73
  Q 429.75 544.77 428.34 544.46
  Q 427.74 544.33 427.35 543.86
  Q 424.95 540.92 421.79 539.20
  Q 420.81 538.67 420.23 537.66
  Q 420.01 537.26 419.65 536.98
  L 417.09 534.93
  A 0.90 0.90 0.0 0 1 417.78 533.34
  L 418.28 533.41
  Q 439.11 550.61 464.19 561.04
  Q 474.60 565.37 485.50 568.08
  L 489.46 568.83
  Q 505.35 570.83 519.71 566.16
  Q 541.81 558.99 560.24 548.26
  Q 573.51 540.53 585.92 528.62
  Q 599.16 515.92 607.84 499.44
  Q 608.03 499.52 608.24 499.53
  Q 608.49 499.54 608.52 499.29
  Q 608.54 499.14 608.59 499.04
  Q 608.72 498.78 608.69 499.08
  Q 608.53 500.68 607.77 502.59
  Z"
/>
<path fill="#519733" d="
  M 608.67 501.20
  Q 607.42 506.25 604.71 510.63
  Q 603.48 512.63 602.69 514.60
  Q 601.91 516.58 600.29 518.15
  Q 598.92 519.49 597.69 521.36
  Q 597.06 522.32 596.38 523.11
  C 595.74 523.85 595.75 524.59 595.19 525.37
  Q 593.79 527.31 592.02 529.07
  Q 590.66 530.43 589.77 532.27
  Q 588.54 534.79 587.32 537.33
  Q 586.35 539.35 586.27 542.59
  Q 586.14 547.65 585.91 552.80
  Q 585.30 559.59 586.30 565.65
  C 579.16 570.80 572.11 576.12 565.14 580.97
  Q 546.03 594.26 527.13 607.83
  C 518.40 614.09 509.35 620.05 500.36 626.24
  A 1.73 1.72 45.1 0 1 498.38 626.23
  L 412.70 565.66
  L 412.32 537.06
  Q 413.33 535.81 413.75 534.26
  Q 413.88 533.77 413.51 533.42
  L 409.96 530.04
  Q 410.56 530.23 411.14 530.69
  Q 412.52 531.91 413.89 533.11
  Q 415.75 534.75 414.50 536.74
  Q 414.22 537.17 414.45 537.62
  L 417.38 543.65
  Q 417.65 544.20 418.23 544.41
  Q 418.97 544.68 419.07 545.40
  A 1.02 0.98 -73.5 0 0 419.38 546.00
  Q 426.63 552.65 435.98 557.89
  Q 439.05 559.61 442.35 560.69
  A 0.76 0.76 0.0 0 1 442.82 561.16
  Q 442.93 561.50 443.24 561.64
  Q 445.41 562.65 447.88 563.45
  Q 450.34 564.26 452.69 565.43
  Q 461.07 569.63 469.30 572.06
  Q 471.26 572.64 472.92 573.36
  Q 474.81 574.17 476.64 574.63
  Q 482.09 575.98 488.22 576.96
  Q 489.25 577.13 490.23 577.44
  Q 491.42 577.83 492.76 577.59
  Q 493.01 577.54 493.17 577.77
  Q 493.34 578.01 493.64 578.03
  C 498.12 578.32 502.22 578.03 507.43 577.90
  Q 511.93 577.79 515.58 577.27
  Q 516.81 577.09 517.85 576.65
  A 2.54 2.44 -56.8 0 1 518.72 576.45
  Q 520.83 576.33 523.00 575.38
  Q 524.72 574.64 526.57 574.31
  Q 528.63 573.94 530.33 572.77
  Q 530.95 572.34 531.70 572.00
  Q 532.53 571.64 533.39 571.59
  Q 534.84 571.50 535.91 570.61
  Q 536.21 570.36 536.60 570.31
  Q 537.49 570.20 538.33 570.10
  Q 539.46 569.96 540.70 569.08
  Q 541.82 568.29 543.23 567.96
  Q 543.53 567.89 543.76 567.70
  C 544.21 567.33 544.34 567.05 544.92 566.84
  Q 548.05 565.70 550.99 564.68
  Q 552.90 564.01 554.71 562.66
  Q 555.12 562.35 555.60 562.20
  Q 556.22 562.00 556.84 561.73
  A 11.97 11.94 15.8 0 0 559.12 560.46
  Q 560.78 559.27 562.69 558.39
  Q 564.47 557.57 566.15 556.46
  Q 567.84 555.35 569.54 554.40
  Q 570.00 554.14 570.52 554.14
  Q 571.01 554.14 571.38 553.81
  C 572.75 552.58 573.85 551.52 575.58 550.52
  Q 577.17 549.59 578.13 548.63
  A 0.92 0.89 -62.6 0 1 578.91 548.37
  Q 579.35 548.43 579.57 548.06
  Q 580.33 546.84 581.51 546.13
  Q 583.57 544.86 584.28 542.71
  Q 584.81 541.08 585.58 539.45
  Q 586.51 537.45 586.82 535.21
  Q 586.89 534.71 587.27 534.37
  Q 587.85 533.86 587.85 533.11
  A 1.14 1.03 -35.9 0 1 587.94 532.68
  L 589.39 529.51
  Q 589.94 529.34 590.30 529.01
  Q 590.65 528.67 590.72 528.19
  Q 590.77 527.82 591.12 527.65
  Q 591.54 527.45 591.77 527.03
  Q 592.82 525.12 594.50 523.35
  Q 595.07 522.75 595.46 521.99
  Q 595.76 521.39 596.34 520.92
  Q 596.81 520.53 597.22 519.97
  Q 603.20 511.61 607.77 502.59
  Q 608.30 502.02 608.67 501.20
  Z"
/>
<path fill="#447c32" d="
  M 408.21 528.29
  Q 409.46 528.78 409.96 530.04
  L 413.51 533.42
  Q 413.88 533.77 413.75 534.26
  Q 413.33 535.81 412.32 537.06
  Q 412.18 536.14 412.42 535.39
  Q 412.57 534.92 412.41 534.46
  Q 411.41 531.54 408.45 529.46
  L 408.21 528.29
  Z"
/>
<path fill="#447c32" d="
  M 589.39 529.51
  L 587.94 532.68
  A 1.14 1.03 -35.9 0 0 587.85 533.11
  Q 587.85 533.86 587.27 534.37
  Q 586.89 534.71 586.82 535.21
  Q 586.51 537.45 585.58 539.45
  Q 584.81 541.08 584.28 542.71
  Q 583.57 544.86 581.51 546.13
  Q 580.33 546.84 579.57 548.06
  Q 579.35 548.43 578.91 548.37
  A 0.92 0.89 -62.6 0 0 578.13 548.63
  Q 577.17 549.59 575.58 550.52
  C 573.85 551.52 572.75 552.58 571.38 553.81
  Q 571.01 554.14 570.52 554.14
  Q 570.00 554.14 569.54 554.40
  Q 567.84 555.35 566.15 556.46
  Q 564.47 557.57 562.69 558.39
  Q 560.78 559.27 559.12 560.46
  A 11.97 11.94 15.8 0 1 556.84 561.73
  Q 556.22 562.00 555.60 562.20
  Q 555.12 562.35 554.71 562.66
  Q 552.90 564.01 550.99 564.68
  Q 548.05 565.70 544.92 566.84
  C 544.34 567.05 544.21 567.33 543.76 567.70
  Q 543.53 567.89 543.23 567.96
  Q 541.82 568.29 540.70 569.08
  Q 539.46 569.96 538.33 570.10
  Q 537.49 570.20 536.60 570.31
  Q 536.21 570.36 535.91 570.61
  Q 534.84 571.50 533.39 571.59
  Q 532.53 571.64 531.70 572.00
  Q 530.95 572.34 530.33 572.77
  Q 528.63 573.94 526.57 574.31
  Q 524.72 574.64 523.00 575.38
  Q 520.83 576.33 518.72 576.45
  A 2.54 2.44 -56.8 0 0 517.85 576.65
  Q 516.81 577.09 515.58 577.27
  Q 511.93 577.79 507.43 577.90
  C 502.22 578.03 498.12 578.32 493.64 578.03
  Q 493.34 578.01 493.17 577.77
  Q 493.01 577.54 492.76 577.59
  Q 491.42 577.83 490.23 577.44
  Q 489.25 577.13 488.22 576.96
  Q 482.09 575.98 476.64 574.63
  Q 474.81 574.17 472.92 573.36
  Q 471.26 572.64 469.30 572.06
  Q 461.07 569.63 452.69 565.43
  Q 450.34 564.26 447.88 563.45
  Q 445.41 562.65 443.24 561.64
  Q 442.93 561.50 442.82 561.16
  A 0.76 0.76 0.0 0 0 442.35 560.69
  Q 439.05 559.61 435.98 557.89
  Q 426.63 552.65 419.38 546.00
  A 1.02 0.98 -73.5 0 1 419.07 545.40
  Q 418.97 544.68 418.23 544.41
  Q 417.65 544.20 417.38 543.65
  L 414.45 537.62
  Q 414.22 537.17 414.50 536.74
  Q 415.75 534.75 413.89 533.11
  Q 412.52 531.91 411.14 530.69
  Q 415.07 531.57 413.29 529.28
  L 418.28 533.41
  L 417.78 533.34
  A 0.90 0.90 0.0 0 0 417.09 534.93
  L 419.65 536.98
  Q 420.01 537.26 420.23 537.66
  Q 420.81 538.67 421.79 539.20
  Q 424.95 540.92 427.35 543.86
  Q 427.74 544.33 428.34 544.46
  Q 429.75 544.77 430.96 545.73
  Q 432.20 546.71 433.75 547.59
  Q 436.04 548.91 438.52 550.20
  Q 439.07 550.49 439.37 551.04
  Q 439.72 551.70 440.50 551.62
  Q 440.98 551.56 440.92 552.04
  Q 440.85 552.65 441.44 552.84
  C 442.51 553.20 443.36 553.87 444.46 554.13
  Q 445.46 554.37 446.01 555.32
  Q 446.25 555.75 446.71 555.95
  Q 448.77 556.84 450.76 557.89
  Q 451.30 557.75 451.50 558.25
  Q 451.66 558.63 452.07 558.74
  Q 453.65 559.14 454.68 560.15
  Q 455.02 560.49 455.49 560.54
  Q 457.63 560.82 459.51 561.86
  Q 461.35 562.87 463.41 563.47
  Q 467.95 564.77 472.48 566.08
  Q 473.55 566.39 474.41 566.94
  Q 475.05 567.36 475.79 567.41
  Q 476.48 567.46 477.17 567.72
  Q 480.69 569.05 484.43 569.29
  Q 485.01 569.33 485.46 569.68
  Q 486.41 570.42 487.74 570.08
  Q 488.30 569.94 488.69 570.33
  Q 489.02 570.67 489.49 570.71
  Q 497.05 571.39 505.43 571.06
  Q 507.88 570.97 510.56 570.01
  Q 513.09 569.11 515.64 568.91
  Q 517.43 568.78 518.65 568.22
  Q 520.22 567.51 521.85 567.38
  Q 523.31 567.26 524.93 566.55
  Q 526.44 565.89 527.80 565.32
  Q 528.26 565.13 528.76 565.10
  Q 529.59 565.05 530.13 564.39
  A 1.53 1.52 -77.0 0 1 530.97 563.86
  Q 534.68 562.99 537.72 561.53
  Q 538.07 561.36 538.46 561.36
  Q 539.33 561.35 540.06 560.87
  Q 540.47 560.61 540.95 560.61
  Q 542.58 560.61 543.90 559.56
  A 1.49 1.44 22.4 0 1 544.68 559.25
  Q 546.26 559.10 547.50 558.23
  Q 548.74 557.36 550.07 556.87
  Q 551.87 556.20 553.41 555.10
  Q 554.28 554.48 555.26 554.31
  Q 556.51 554.09 557.52 553.38
  Q 559.18 552.21 561.00 550.70
  Q 562.75 549.24 564.98 548.29
  Q 567.39 547.27 569.48 545.56
  A 1.96 1.93 -64.3 0 1 570.71 545.12
  L 571.19 545.12
  A 0.87 0.87 0.0 0 0 571.91 544.74
  Q 573.05 543.04 574.88 542.15
  Q 575.22 541.99 575.40 541.67
  C 575.97 540.68 576.85 540.70 577.57 539.93
  Q 579.07 538.35 580.98 537.05
  Q 582.85 535.79 584.54 533.97
  Q 587.09 531.21 589.94 528.59
  Q 590.70 527.89 590.19 528.79
  Q 589.99 529.15 589.39 529.51
  Z"
/>
<path fill="#519733" d="
  M 408.45 529.46
  Q 411.41 531.54 412.41 534.46
  Q 412.57 534.92 412.42 535.39
  Q 412.18 536.14 412.32 537.06
  Q 411.58 536.03 411.55 535.63
  Q 408.92 532.51 408.45 529.46
  Z"
/>
<path fill="#f5f6f4" d="
  M 598.08 570.14
  L 586.63 614.48
  L 558.30 723.85
  L 551.98 749.01
  Q 550.79 749.30 550.56 750.34
  Q 550.45 750.82 549.96 750.72
  Q 549.75 750.68 549.53 750.75
  Q 549.23 750.85 549.54 750.89
  Q 549.72 750.92 549.81 751.07
  Q 550.03 751.43 549.62 751.49
  Q 549.29 751.54 549.18 751.84
  Q 548.57 753.47 547.93 754.90
  Q 547.33 756.25 547.10 757.69
  Q 545.88 765.27 543.57 772.45
  Q 542.45 775.91 541.52 779.63
  Q 540.50 783.73 539.34 786.92
  Q 538.56 789.06 538.37 790.98
  Q 538.13 793.47 537.08 796.03
  Q 536.44 797.57 536.27 799.20
  Q 536.07 801.16 535.23 802.81
  Q 534.61 804.03 534.45 805.28
  Q 534.36 806.01 534.14 806.70
  C 533.51 808.72 532.84 810.65 532.77 812.78
  Q 532.65 816.29 531.26 819.16
  Q 531.01 819.66 531.13 820.21
  Q 531.26 820.84 531.02 821.44
  Q 530.76 822.09 530.40 821.49
  Q 529.54 820.06 529.64 818.68
  A 0.96 0.94 -69.5 0 0 529.27 817.85
  Q 528.57 817.32 528.52 816.55
  L 516.03 688.83
  Q 515.88 687.35 516.63 686.06
  L 537.16 650.46
  Q 538.30 649.57 538.16 649.13
  A 2.67 2.66 13.6 0 0 537.48 648.02
  Q 528.11 638.89 518.99 630.26
  Q 516.37 627.78 513.83 628.43
  Q 507.91 629.38 502.01 630.20
  C 498.47 630.69 496.23 630.26 492.95 629.67
  Q 488.44 628.85 483.00 628.17
  A 2.46 2.45 -61.5 0 0 481.12 628.73
  Q 476.18 632.93 471.65 637.40
  Q 465.59 643.38 459.88 649.66
  L 442.45 667.39
  A 1.38 1.37 -54.9 0 1 440.88 667.67
  Q 439.67 667.10 439.64 665.90
  Q 439.63 665.47 439.34 665.15
  Q 434.42 659.75 430.67 654.58
  Q 429.61 653.12 428.92 651.39
  Q 425.94 643.94 421.45 637.33
  Q 419.62 634.64 420.50 637.77
  Q 421.91 642.78 423.26 647.32
  Q 424.03 649.94 425.50 652.60
  Q 426.81 654.97 428.08 657.47
  Q 429.26 659.80 431.19 661.99
  Q 435.46 666.82 439.65 671.28
  A 0.75 0.75 0.0 0 0 440.85 671.14
  Q 441.51 669.99 442.36 669.07
  Q 446.13 665.01 450.87 660.85
  Q 453.45 658.59 455.94 655.95
  Q 458.34 653.40 460.88 650.88
  L 481.77 686.00
  Q 482.49 687.20 482.35 688.60
  Q 477.37 741.66 472.68 793.77
  Q 470.45 818.56 469.70 832.50
  Q 469.54 835.61 470.78 840.73
  Q 470.66 840.85 470.63 840.99
  Q 470.62 841.08 470.54 841.03
  Q 470.39 840.90 470.08 841.00
  L 468.40 834.99
  Q 467.44 830.67 466.34 826.28
  Q 459.16 797.72 451.81 767.70
  Q 449.41 757.90 446.91 748.31
  Q 433.98 698.79 421.50 649.52
  Q 416.29 628.90 410.85 608.39
  L 401.25 570.95
  Q 401.23 570.59 401.43 570.19
  Q 401.58 569.90 401.95 569.68
  Q 407.03 566.78 412.70 565.66
  L 498.38 626.23
  A 1.73 1.72 45.1 0 0 500.36 626.24
  C 509.35 620.05 518.40 614.09 527.13 607.83
  Q 546.03 594.26 565.14 580.97
  C 572.11 576.12 579.16 570.80 586.30 565.65
  Q 592.45 566.38 598.08 570.14
  Z
  M 558.55 666.02
  Q 557.63 667.87 556.19 666.39
  Q 548.55 658.50 539.46 650.60
  A 0.33 0.33 0.0 0 0 538.91 650.84
  L 538.90 651.27
  A 1.55 1.54 22.1 0 0 539.41 652.46
  Q 549.58 661.65 558.65 671.07
  Q 559.11 671.55 559.54 671.03
  C 563.38 666.33 568.34 662.59 571.40 657.39
  Q 575.56 650.32 577.15 643.26
  Q 578.09 639.06 579.15 634.84
  Q 579.24 634.47 578.89 634.35
  L 578.65 634.26
  Q 578.49 634.21 578.43 634.36
  Q 577.29 637.06 576.02 639.12
  C 573.26 643.60 571.40 648.47 568.95 653.15
  Q 566.78 657.29 560.12 663.56
  C 559.49 664.15 558.94 665.24 558.55 666.02
  Z"
/>
<path fill="#71bf48" d="
  M 485.50 568.08
  Q 488.29 567.78 489.46 568.83
  L 485.50 568.08
  Z"
/>
<path fill="#272525" d="
  M 598.08 570.14
  Q 625.65 582.48 652.92 594.17
  Q 654.30 594.76 653.96 596.15
  A 1.26 1.25 -73.2 0 0 654.75 597.64
  L 766.52 638.04
  L 800.37 650.08
  Q 800.77 650.22 800.84 650.64
  Q 800.86 650.78 800.83 650.93
  Q 759.86 735.16 684.21 787.19
  Q 614.83 834.90 529.20 844.03
  Q 528.45 844.21 528.14 843.91
  Q 527.90 843.67 528.07 843.07
  Q 528.27 842.37 528.44 841.79
  L 551.98 749.01
  L 558.30 723.85
  Q 560.12 722.69 558.99 726.94
  Q 557.70 731.80 556.62 736.71
  Q 555.28 742.81 554.32 746.47
  Q 552.60 753.03 551.02 759.18
  C 550.81 759.99 551.06 760.80 550.69 761.50
  Q 550.41 762.04 550.18 762.66
  Q 548.96 766.01 549.07 769.73
  Q 549.08 770.26 548.80 770.72
  Q 548.05 771.96 548.12 773.42
  Q 548.15 774.02 548.64 773.69
  Q 549.61 773.06 550.14 772.06
  C 551.04 770.40 551.84 768.48 553.54 767.57
  Q 555.29 766.63 556.97 765.34
  C 558.90 763.86 560.01 761.77 561.95 760.31
  Q 563.44 759.19 564.78 757.90
  Q 566.15 756.59 567.62 755.52
  Q 571.52 752.68 575.30 749.79
  Q 581.55 745.02 588.17 739.74
  Q 593.05 735.85 598.70 731.73
  Q 603.28 728.40 609.32 723.85
  Q 616.33 718.56 623.63 713.34
  Q 624.68 712.59 625.74 711.77
  Q 632.24 706.71 639.31 701.95
  C 641.58 700.42 643.42 698.31 645.76 696.75
  Q 648.32 695.03 650.47 692.80
  C 651.90 691.30 653.56 690.99 655.44 690.40
  A 0.66 0.66 0.0 0 0 655.59 689.21
  Q 639.93 679.63 623.84 671.91
  C 622.04 671.05 620.12 670.48 618.31 669.58
  Q 617.94 669.40 617.82 669.03
  A 0.52 0.52 0.0 0 1 618.09 668.39
  L 663.96 645.90
  A 2.06 2.04 70.3 0 0 665.05 643.57
  Q 661.55 629.04 658.20 613.96
  Q 656.66 607.04 654.69 600.50
  C 654.21 598.90 653.06 597.30 652.11 595.88
  Q 650.98 594.17 649.37 593.67
  Q 646.57 592.79 646.47 592.75
  Q 627.14 584.41 614.25 579.13
  Q 611.63 578.05 609.44 576.77
  C 607.26 575.49 604.73 575.66 602.83 573.97
  Q 601.74 573.00 600.04 572.90
  Q 599.33 572.86 599.13 573.55
  Q 597.23 580.12 595.73 586.26
  Q 594.76 590.24 593.69 594.39
  Q 593.31 595.86 593.07 597.28
  Q 592.83 598.78 592.30 600.06
  Q 591.48 602.02 591.19 604.11
  Q 590.88 606.32 590.22 608.27
  Q 589.02 611.85 588.05 615.31
  Q 587.96 615.63 587.72 615.86
  Q 587.61 615.97 587.49 616.04
  Q 586.92 616.36 586.82 615.72
  L 586.63 614.48
  L 598.08 570.14
  Z"
/>
<path fill="#393738" d="
  M 401.25 570.95
  L 410.85 608.39
  Q 409.05 606.92 408.91 608.78
  A 0.97 0.82 -54.1 0 0 408.93 609.05
  Q 412.55 624.35 416.77 637.52
  Q 417.34 639.29 417.45 641.18
  Q 417.55 642.97 418.19 644.78
  C 419.06 647.22 419.72 649.76 420.15 652.31
  Q 420.93 656.94 422.65 662.18
  Q 423.95 666.14 426.28 676.07
  C 426.75 678.10 426.84 680.28 427.58 682.18
  Q 428.51 684.54 428.97 686.78
  Q 431.61 699.43 435.77 712.99
  Q 437.26 717.86 438.11 722.12
  Q 439.06 726.92 440.42 731.25
  Q 442.50 737.87 444.04 744.04
  Q 445.66 750.50 447.36 756.96
  Q 447.88 758.96 447.88 760.78
  A 2.25 2.25 0.0 0 0 448.10 761.75
  Q 449.21 764.00 449.61 766.43
  Q 450.01 768.79 450.73 770.88
  Q 452.70 776.55 453.67 782.11
  C 453.97 783.82 454.79 785.03 454.94 786.71
  Q 455.09 788.46 455.58 790.23
  Q 460.28 807.23 463.44 821.22
  Q 463.67 822.21 463.88 823.17
  Q 465.33 829.76 467.28 836.44
  A 0.49 0.48 -23.1 0 0 467.99 836.72
  Q 468.51 836.43 468.40 834.99
  L 470.08 841.00
  L 470.80 843.52
  Q 470.96 844.08 470.38 844.10
  L 468.89 844.15
  L 450.72 841.62
  L 452.93 841.51
  Q 453.47 841.49 453.24 840.99
  Q 453.14 840.78 452.86 840.66
  Q 449.55 839.35 446.42 839.01
  Q 442.93 838.64 440.15 837.92
  Q 435.76 836.78 430.64 836.06
  Q 429.67 835.93 427.74 835.23
  Q 426.34 834.72 424.70 834.69
  Q 424.19 834.68 423.78 834.38
  Q 423.25 834.00 422.64 833.82
  A 1.77 1.74 79.1 0 1 421.78 833.23
  C 419.84 830.70 418.54 827.53 416.20 825.21
  Q 414.97 823.99 413.82 822.14
  Q 411.21 817.91 408.27 814.00
  Q 407.68 813.23 407.08 812.38
  Q 402.97 806.60 399.19 801.07
  Q 387.16 783.43 376.24 767.92
  Q 370.19 759.32 364.87 751.46
  Q 350.10 729.61 335.57 709.04
  C 333.24 705.74 331.19 701.83 329.18 698.21
  Q 328.34 696.69 329.87 695.86
  Q 350.14 684.98 370.90 673.06
  Q 371.86 672.51 372.81 671.95
  Q 373.79 671.38 374.84 671.09
  Q 377.76 670.30 380.61 669.19
  Q 381.64 668.78 380.62 668.34
  Q 371.30 664.31 362.60 659.69
  Q 359.16 657.86 355.24 656.18
  Q 351.48 654.57 347.88 652.67
  C 344.01 650.61 339.83 648.95 335.90 646.75
  Q 333.88 645.62 334.37 643.36
  Q 337.88 626.99 342.24 608.99
  Q 342.97 605.99 343.99 603.99
  Q 344.61 602.76 344.82 601.39
  Q 345.03 600.00 345.29 598.62
  Q 345.38 598.14 344.89 598.09
  L 342.75 597.90
  Q 345.89 597.39 345.42 594.81
  A 0.79 0.79 0.0 0 1 345.90 593.93
  Q 373.51 582.81 399.85 571.07
  Q 400.46 570.80 401.25 570.95
  Z"
/>
<path fill="#cdccca" d="
  M 863.13 572.79
  Q 862.12 577.81 861.04 582.74
  Q 854.94 610.39 845.75 634.39
  Q 808.78 730.91 729.11 795.97
  Q 711.24 810.57 686.03 825.91
  C 633.36 857.96 572.42 876.85 511.53 879.37
  Q 501.26 879.80 491.02 879.47
  Q 465.98 878.66 440.60 874.56
  Q 436.60 873.92 432.75 873.06
  Q 433.92 871.92 435.10 869.23
  Q 435.90 867.41 438.30 866.67
  Q 438.77 866.53 439.10 866.16
  Q 440.01 865.18 442.23 863.35
  Q 446.12 860.14 449.11 856.90
  Q 450.80 855.06 453.10 854.15
  Q 453.55 853.97 453.83 853.58
  L 459.79 845.39
  Q 460.06 845.03 460.51 845.03
  Q 462.49 845.02 464.41 844.89
  C 466.56 844.75 468.79 846.04 470.89 845.05
  Q 471.88 844.58 470.80 844.79
  Q 468.66 845.20 468.89 844.15
  L 470.38 844.10
  Q 470.96 844.08 470.80 843.52
  L 470.08 841.00
  Q 470.39 840.90 470.54 841.03
  Q 470.62 841.08 470.63 840.99
  Q 470.66 840.85 470.78 840.73
  L 471.70 843.49
  A 1.56 1.55 -6.6 0 0 473.04 844.55
  Q 498.17 846.90 523.00 844.94
  Q 526.12 844.70 529.20 844.03
  Q 614.83 834.90 684.21 787.19
  Q 759.86 735.16 800.83 650.93
  Q 803.04 646.95 804.93 642.64
  Q 813.54 622.92 820.15 602.53
  Q 820.90 602.62 821.30 603.44
  Q 821.57 604.01 822.08 603.64
  Q 824.22 602.09 826.32 600.52
  Q 831.51 596.64 836.76 593.64
  Q 839.26 592.21 841.03 590.51
  Q 843.17 588.47 845.07 587.06
  Q 847.62 585.16 849.50 583.03
  Q 851.37 580.89 853.46 579.19
  Q 855.70 577.37 857.61 575.08
  Q 858.17 574.40 859.05 574.20
  Q 859.51 574.10 859.74 573.68
  Q 860.22 572.85 860.98 572.21
  Q 861.29 571.95 861.46 572.33
  Q 861.75 572.97 863.13 572.79
  Z"
/>
<path fill="#393738" d="
  M 558.30 723.85
  L 586.63 614.48
  L 586.82 615.72
  Q 586.92 616.36 587.49 616.04
  Q 587.61 615.97 587.72 615.86
  Q 587.96 615.63 588.05 615.31
  Q 589.02 611.85 590.22 608.27
  Q 590.88 606.32 591.19 604.11
  Q 591.48 602.02 592.30 600.06
  Q 592.83 598.78 593.07 597.28
  Q 593.31 595.86 593.69 594.39
  Q 594.76 590.24 595.73 586.26
  Q 597.23 580.12 599.13 573.55
  Q 599.33 572.86 600.04 572.90
  Q 601.74 573.00 602.83 573.97
  C 604.73 575.66 607.26 575.49 609.44 576.77
  Q 611.63 578.05 614.25 579.13
  Q 627.14 584.41 646.47 592.75
  Q 646.57 592.79 649.37 593.67
  Q 650.98 594.17 652.11 595.88
  C 653.06 597.30 654.21 598.90 654.69 600.50
  Q 656.66 607.04 658.20 613.96
  Q 661.55 629.04 665.05 643.57
  A 2.06 2.04 70.3 0 1 663.96 645.90
  L 618.09 668.39
  A 0.52 0.52 0.0 0 0 617.82 669.03
  Q 617.94 669.40 618.31 669.58
  C 620.12 670.48 622.04 671.05 623.84 671.91
  Q 639.93 679.63 655.59 689.21
  A 0.66 0.66 0.0 0 1 655.44 690.40
  C 653.56 690.99 651.90 691.30 650.47 692.80
  Q 648.32 695.03 645.76 696.75
  C 643.42 698.31 641.58 700.42 639.31 701.95
  Q 632.24 706.71 625.74 711.77
  Q 624.68 712.59 623.63 713.34
  Q 616.33 718.56 609.32 723.85
  Q 603.28 728.40 598.70 731.73
  Q 593.05 735.85 588.17 739.74
  Q 581.55 745.02 575.30 749.79
  Q 571.52 752.68 567.62 755.52
  Q 566.15 756.59 564.78 757.90
  Q 563.44 759.19 561.95 760.31
  C 560.01 761.77 558.90 763.86 556.97 765.34
  Q 555.29 766.63 553.54 767.57
  C 551.84 768.48 551.04 770.40 550.14 772.06
  Q 549.61 773.06 548.64 773.69
  Q 548.15 774.02 548.12 773.42
  Q 548.05 771.96 548.80 770.72
  Q 549.08 770.26 549.07 769.73
  Q 548.96 766.01 550.18 762.66
  Q 550.41 762.04 550.69 761.50
  C 551.06 760.80 550.81 759.99 551.02 759.18
  Q 552.60 753.03 554.32 746.47
  Q 555.28 742.81 556.62 736.71
  Q 557.70 731.80 558.99 726.94
  Q 560.12 722.69 558.30 723.85
  Z"
/>
<path fill="#71bf48" d="
  M 822.40 594.73
  L 820.15 602.53
  Q 813.54 622.92 804.93 642.64
  Q 803.04 646.95 800.83 650.93
  Q 800.86 650.78 800.84 650.64
  Q 800.77 650.22 800.37 650.08
  L 766.52 638.04
  Q 767.03 637.38 767.90 637.70
  Q 768.50 637.92 768.25 637.33
  Q 767.97 636.67 768.67 636.20
  Q 769.09 635.92 769.46 635.59
  Q 771.31 633.94 773.74 633.31
  Q 773.97 633.26 774.08 633.46
  Q 774.15 633.59 774.12 633.72
  Q 774.02 634.14 774.25 633.77
  Q 774.99 632.55 776.20 631.74
  Q 778.14 630.43 779.88 629.03
  Q 781.61 627.63 783.42 626.36
  Q 786.71 624.04 789.89 621.19
  Q 791.79 619.49 793.92 618.22
  C 796.98 616.38 798.71 613.74 801.49 611.73
  Q 803.55 610.24 805.31 608.54
  Q 805.66 608.22 805.68 607.74
  Q 805.70 607.44 805.98 607.28
  Q 806.14 607.19 806.28 607.32
  Q 806.43 607.45 806.37 607.56
  Q 806.17 607.88 806.48 607.66
  Q 812.61 603.34 817.38 597.75
  Q 817.75 597.31 818.28 597.08
  Q 818.85 596.82 818.94 596.22
  A 0.61 0.61 0.0 0 1 819.81 595.77
  Q 820.23 595.98 820.67 595.75
  Q 821.03 595.56 821.22 595.20
  Q 821.55 594.59 822.40 594.73
  Z"
/>
<path fill="#272525" d="
  M 342.75 597.90
  L 344.89 598.09
  Q 345.38 598.14 345.29 598.62
  Q 345.03 600.00 344.82 601.39
  Q 344.61 602.76 343.99 603.99
  Q 342.97 605.99 342.24 608.99
  Q 337.88 626.99 334.37 643.36
  Q 333.88 645.62 335.90 646.75
  C 339.83 648.95 344.01 650.61 347.88 652.67
  Q 351.48 654.57 355.24 656.18
  Q 359.16 657.86 362.60 659.69
  Q 371.30 664.31 380.62 668.34
  Q 381.64 668.78 380.61 669.19
  Q 377.76 670.30 374.84 671.09
  Q 373.79 671.38 372.81 671.95
  Q 371.86 672.51 370.90 673.06
  Q 350.14 684.98 329.87 695.86
  Q 328.34 696.69 329.18 698.21
  C 331.19 701.83 333.24 705.74 335.57 709.04
  Q 350.10 729.61 364.87 751.46
  Q 370.19 759.32 376.24 767.92
  Q 387.16 783.43 399.19 801.07
  Q 402.97 806.60 407.08 812.38
  Q 407.68 813.23 408.27 814.00
  Q 411.21 817.91 413.82 822.14
  Q 414.97 823.99 416.20 825.21
  C 418.54 827.53 419.84 830.70 421.78 833.23
  A 1.77 1.74 79.1 0 0 422.64 833.82
  Q 423.25 834.00 423.78 834.38
  Q 424.19 834.68 424.70 834.69
  Q 426.34 834.72 427.74 835.23
  Q 429.67 835.93 430.64 836.06
  Q 435.76 836.78 440.15 837.92
  Q 442.93 838.64 446.42 839.01
  Q 449.55 839.35 452.86 840.66
  Q 453.14 840.78 453.24 840.99
  Q 453.47 841.49 452.93 841.51
  L 450.72 841.62
  Q 431.36 838.47 416.77 834.53
  Q 341.52 814.24 281.82 762.78
  Q 274.31 756.31 267.15 749.17
  Q 227.72 709.88 201.52 660.01
  Q 198.72 654.69 196.51 650.28
  L 342.75 597.90
  Z"
/>
<path fill="#272525" d="
  M 410.85 608.39
  Q 416.29 628.90 421.50 649.52
  Q 433.98 698.79 446.91 748.31
  Q 449.41 757.90 451.81 767.70
  Q 459.16 797.72 466.34 826.28
  Q 467.44 830.67 468.40 834.99
  Q 468.51 836.43 467.99 836.72
  A 0.49 0.48 -23.1 0 1 467.28 836.44
  Q 465.33 829.76 463.88 823.17
  Q 463.67 822.21 463.44 821.22
  Q 460.28 807.23 455.58 790.23
  Q 455.09 788.46 454.94 786.71
  C 454.79 785.03 453.97 783.82 453.67 782.11
  Q 452.70 776.55 450.73 770.88
  Q 450.01 768.79 449.61 766.43
  Q 449.21 764.00 448.10 761.75
  A 2.25 2.25 0.0 0 1 447.88 760.78
  Q 447.88 758.96 447.36 756.96
  Q 445.66 750.50 444.04 744.04
  Q 442.50 737.87 440.42 731.25
  Q 439.06 726.92 438.11 722.12
  Q 437.26 717.86 435.77 712.99
  Q 431.61 699.43 428.97 686.78
  Q 428.51 684.54 427.58 682.18
  C 426.84 680.28 426.75 678.10 426.28 676.07
  Q 423.95 666.14 422.65 662.18
  Q 420.93 656.94 420.15 652.31
  C 419.72 649.76 419.06 647.22 418.19 644.78
  Q 417.55 642.97 417.45 641.18
  Q 417.34 639.29 416.77 637.52
  Q 412.55 624.35 408.93 609.05
  A 0.97 0.82 -54.1 0 1 408.91 608.78
  Q 409.05 606.92 410.85 608.39
  Z"
/>
<path fill="#78ca4f" d="
  M 513.83 628.43
  Q 514.10 628.30 514.36 628.42
  Q 514.53 628.49 514.47 628.68
  Q 514.46 628.72 514.44 628.77
  Q 514.17 629.28 514.73 629.14
  Q 514.96 629.09 515.18 629.11
  Q 515.53 629.14 515.78 629.37
  Q 516.89 630.37 517.96 631.28
  Q 519.03 632.20 519.94 633.18
  Q 525.89 639.61 531.80 645.89
  Q 532.93 647.10 534.45 648.20
  Q 535.84 649.22 537.16 650.46
  L 516.63 686.06
  Q 515.88 687.35 516.03 688.83
  L 528.52 816.55
  Q 528.80 820.32 529.35 824.09
  C 529.68 826.37 529.63 828.54 529.60 830.76
  Q 529.58 832.54 528.93 835.68
  Q 528.30 838.72 528.44 841.79
  Q 528.27 842.37 528.07 843.07
  Q 527.90 843.67 528.14 843.91
  Q 528.45 844.21 529.20 844.03
  Q 526.12 844.70 523.00 844.94
  Q 498.17 846.90 473.04 844.55
  A 1.56 1.55 -6.6 0 1 471.70 843.49
  L 470.78 840.73
  Q 469.54 835.61 469.70 832.50
  Q 470.45 818.56 472.68 793.77
  Q 477.37 741.66 482.35 688.60
  Q 482.49 687.20 481.77 686.00
  L 460.88 650.88
  Q 459.87 650.56 459.88 649.66
  Q 465.59 643.38 471.65 637.40
  Q 476.18 632.93 481.12 628.73
  A 2.46 2.45 -61.5 0 1 483.00 628.17
  Q 488.44 628.85 492.95 629.67
  C 496.23 630.26 498.47 630.69 502.01 630.20
  Q 507.91 629.38 513.83 628.43
  Z"
/>
<path fill="#519733" d="
  M 537.16 650.46
  Q 535.84 649.22 534.45 648.20
  Q 532.93 647.10 531.80 645.89
  Q 525.89 639.61 519.94 633.18
  Q 519.03 632.20 517.96 631.28
  Q 516.89 630.37 515.78 629.37
  Q 515.53 629.14 515.18 629.11
  Q 514.96 629.09 514.73 629.14
  Q 514.17 629.28 514.44 628.77
  Q 514.46 628.72 514.47 628.68
  Q 514.53 628.49 514.36 628.42
  Q 514.10 628.30 513.83 628.43
  Q 516.37 627.78 518.99 630.26
  Q 528.11 638.89 537.48 648.02
  A 2.67 2.66 13.6 0 1 538.16 649.13
  Q 538.30 649.57 537.16 650.46
  Z"
/>
<path fill="#cdccca" d="
  M 558.55 666.02
  C 558.94 665.24 559.49 664.15 560.12 663.56
  Q 566.78 657.29 568.95 653.15
  C 571.40 648.47 573.26 643.60 576.02 639.12
  Q 577.29 637.06 578.43 634.36
  Q 578.49 634.21 578.65 634.26
  L 578.89 634.35
  Q 579.24 634.47 579.15 634.84
  Q 578.09 639.06 577.15 643.26
  Q 575.56 650.32 571.40 657.39
  C 568.34 662.59 563.38 666.33 559.54 671.03
  Q 559.11 671.55 558.65 671.07
  Q 549.58 661.65 539.41 652.46
  A 1.55 1.54 22.1 0 1 538.90 651.27
  L 538.91 650.84
  A 0.33 0.33 0.0 0 1 539.46 650.60
  Q 548.55 658.50 556.19 666.39
  Q 557.63 667.87 558.55 666.02
  Z"
/>
<path fill="#cdccca" d="
  M 459.88 649.66
  Q 459.87 650.56 460.88 650.88
  Q 458.34 653.40 455.94 655.95
  Q 453.45 658.59 450.87 660.85
  Q 446.13 665.01 442.36 669.07
  Q 441.51 669.99 440.85 671.14
  A 0.75 0.75 0.0 0 1 439.65 671.28
  Q 435.46 666.82 431.19 661.99
  Q 429.26 659.80 428.08 657.47
  Q 426.81 654.97 425.50 652.60
  Q 424.03 649.94 423.26 647.32
  Q 421.91 642.78 420.50 637.77
  Q 419.62 634.64 421.45 637.33
  Q 425.94 643.94 428.92 651.39
  Q 429.61 653.12 430.67 654.58
  Q 434.42 659.75 439.34 665.15
  Q 439.63 665.47 439.64 665.90
  Q 439.67 667.10 440.88 667.67
  A 1.38 1.37 -54.9 0 0 442.45 667.39
  L 459.88 649.66
  Z"
/>
<path fill="#cdccca" d="
  M 551.98 749.01
  L 528.44 841.79
  Q 528.30 838.72 528.93 835.68
  Q 529.58 832.54 529.60 830.76
  C 529.63 828.54 529.68 826.37 529.35 824.09
  Q 528.80 820.32 528.52 816.55
  Q 528.57 817.32 529.27 817.85
  A 0.96 0.94 -69.5 0 1 529.64 818.68
  Q 529.54 820.06 530.40 821.49
  Q 530.76 822.09 531.02 821.44
  Q 531.26 820.84 531.13 820.21
  Q 531.01 819.66 531.26 819.16
  Q 532.65 816.29 532.77 812.78
  C 532.84 810.65 533.51 808.72 534.14 806.70
  Q 534.36 806.01 534.45 805.28
  Q 534.61 804.03 535.23 802.81
  Q 536.07 801.16 536.27 799.20
  Q 536.44 797.57 537.08 796.03
  Q 538.13 793.47 538.37 790.98
  Q 538.56 789.06 539.34 786.92
  Q 540.50 783.73 541.52 779.63
  Q 542.45 775.91 543.57 772.45
  Q 545.88 765.27 547.10 757.69
  Q 547.33 756.25 547.93 754.90
  Q 548.57 753.47 549.18 751.84
  Q 549.29 751.54 549.62 751.49
  Q 550.03 751.43 549.81 751.07
  Q 549.72 750.92 549.54 750.89
  Q 549.23 750.85 549.53 750.75
  Q 549.75 750.68 549.96 750.72
  Q 550.45 750.82 550.56 750.34
  Q 550.79 749.30 551.98 749.01
  Z"
/>
</svg>
