<?xml version="1.0" encoding="UTF-8" standalone="no"?>
<!DOCTYPE svg PUBLIC "-//W3C//DTD SVG 1.1//EN" "http://www.w3.org/Graphics/SVG/1.1/DTD/svg11.dtd">
<svg xmlns="http://www.w3.org/2000/svg" version="1.1" viewBox="0.00 0.00 100.00 100.00">
<circle fill="#fbcd59" cx="82.99" cy="14.99" r="3.95"/>
<circle fill="#fbcd59" cx="77.00" cy="13.01" r="0.93"/>
<path fill="#e4e4f9" d="
  M 70.36 81.37
  Q 70.07 75.24 69.76 70.51
  Q 69.53 66.91 67.03 65.95
  Q 61.65 63.86 56.14 61.81
  A 1.90 1.89 -51.1 0 1 55.78 58.44
  Q 59.03 56.35 60.10 52.93
  Q 60.26 52.42 60.69 52.10
  Q 63.88 49.76 63.96 44.67
  Q 63.97 43.96 63.44 43.48
  Q 62.67 42.78 61.63 42.57
  A 0.63 0.61 -78.0 0 1 61.15 41.81
  Q 61.65 39.80 61.48 37.83
  Q 61.43 37.33 61.87 37.07
  Q 62.93 36.46 63.70 35.43
  A 0.45 0.45 0.0 0 0 63.49 34.74
  L 62.56 34.40
  Q 62.01 34.19 61.62 33.75
  C 59.73 31.63 58.41 29.09 56.07 27.41
  C 51.40 24.07 46.05 24.33 41.48 27.60
  Q 39.35 29.12 38.08 30.74
  Q 34.14 35.75 36.15 42.19
  A 0.38 0.37 78.7 0 1 35.83 42.68
  Q 33.64 42.88 33.68 44.98
  Q 33.77 49.75 36.81 51.99
  Q 37.34 52.38 37.54 53.02
  Q 38.52 56.02 41.43 58.10
  Q 43.20 59.37 42.09 61.20
  Q 41.74 61.76 41.12 61.96
  Q 37.09 63.27 33.09 64.89
  Q 28.26 66.84 28.00 70.74
  Q 27.72 74.94 27.47 79.37
  L 23.28 75.54
  Q 25.65 68.87 18.54 69.03
  Q 17.20 67.44 16.31 65.40
  C 3.77 36.48 29.72 5.60 60.48 14.58
  C 79.87 20.23 91.08 40.72 85.51 60.11
  Q 81.97 72.41 70.36 81.37
  Z"
/>
<circle fill="#8889b9" cx="87.00" cy="24.00" r="1.95"/>
<path fill="#5e2e2e" d="
  M 70.36 81.37
  Q 58.49 89.03 42.52 86.41
  Q 35.17 85.20 28.62 80.86
  Q 27.52 80.13 27.47 79.37
  Q 27.72 74.94 28.00 70.74
  Q 28.26 66.84 33.09 64.89
  Q 37.09 63.27 41.12 61.96
  Q 41.74 61.76 42.09 61.20
  Q 43.20 59.37 41.43 58.10
  Q 38.52 56.02 37.54 53.02
  Q 37.34 52.38 36.81 51.99
  Q 33.77 49.75 33.68 44.98
  Q 33.64 42.88 35.83 42.68
  A 0.38 0.37 78.7 0 0 36.15 42.19
  Q 34.14 35.75 38.08 30.74
  Q 39.35 29.12 41.48 27.60
  C 46.05 24.33 51.40 24.07 56.07 27.41
  C 58.41 29.09 59.73 31.63 61.62 33.75
  Q 62.01 34.19 62.56 34.40
  L 63.49 34.74
  A 0.45 0.45 0.0 0 1 63.70 35.43
  Q 62.93 36.46 61.87 37.07
  Q 61.43 37.33 61.48 37.83
  Q 61.65 39.80 61.15 41.81
  A 0.63 0.61 -78.0 0 0 61.63 42.57
  Q 62.67 42.78 63.44 43.48
  Q 63.97 43.96 63.96 44.67
  Q 63.88 49.76 60.69 52.10
  Q 60.26 52.42 60.10 52.93
  Q 59.03 56.35 55.78 58.44
  A 1.90 1.89 -51.1 0 0 56.14 61.81
  Q 61.65 63.86 67.03 65.95
  Q 69.53 66.91 69.76 70.51
  Q 70.07 75.24 70.36 81.37
  Z
  M 59.51 49.87
  Q 59.58 45.01 58.65 39.76
  Q 58.46 38.73 57.42 38.62
  Q 55.42 38.40 53.71 37.30
  A 0.41 0.40 -75.6 0 0 53.09 37.67
  C 53.18 39.27 54.88 39.41 56.09 39.60
  A 0.24 0.24 0.0 0 1 56.28 39.90
  L 56.21 40.18
  Q 56.10 40.58 55.70 40.47
  Q 53.69 39.89 51.57 40.75
  Q 51.34 40.85 51.18 40.66
  Q 50.96 40.40 51.18 40.04
  Q 51.42 39.65 51.84 39.83
  Q 52.06 39.92 52.27 39.77
  Q 52.70 39.46 52.22 39.24
  Q 49.47 38.01 47.89 36.09
  Q 47.46 35.56 47.40 36.24
  L 47.31 37.19
  A 0.40 0.39 11.2 0 1 46.79 37.53
  Q 42.99 36.34 41.72 33.39
  Q 41.46 32.80 41.19 33.38
  C 38.76 38.56 38.25 43.96 38.07 49.98
  Q 38.02 51.88 38.81 53.49
  C 40.53 56.98 45.25 59.90 48.59 61.13
  A 1.45 1.45 0.0 0 0 49.71 61.08
  C 53.81 59.19 58.48 55.96 59.33 51.99
  A 1.22 1.19 82.7 0 1 59.95 51.17
  Q 62.79 49.70 62.97 45.43
  Q 63.01 44.41 62.16 43.85
  Q 61.34 43.32 60.46 44.01
  A 1.33 1.31 -19.0 0 0 59.96 45.02
  Q 59.90 47.47 59.63 49.88
  Q 59.49 51.07 59.51 49.87
  Z
  M 36.64 46.62
  Q 36.45 46.53 36.38 46.34
  A 1.20 1.14 63.3 0 1 36.80 44.94
  Q 37.00 44.81 37.26 44.86
  A 0.24 0.24 0.0 0 0 37.51 44.48
  Q 37.29 44.18 36.97 43.97
  A 1.44 1.43 -75.2 0 0 34.74 45.27
  Q 34.92 47.74 35.86 49.42
  Q 37.67 52.64 37.73 48.94
  Q 37.75 47.73 37.93 46.54
  A 0.59 0.55 35.0 0 0 37.85 46.16
  Q 37.59 45.76 37.19 45.89
  Q 36.99 45.95 36.91 46.13
  Q 36.85 46.27 36.88 46.42
  Q 36.97 46.77 36.64 46.62
  Z
  M 43.32 61.85
  Q 42.59 62.37 42.85 62.47
  L 40.30 63.42
  Q 34.29 65.37 32.68 66.16
  Q 29.60 67.68 29.16 70.84
  Q 28.62 74.67 28.61 78.99
  A 1.10 1.09 18.1 0 0 29.07 79.88
  Q 34.07 83.44 39.68 84.74
  Q 54.40 88.15 68.49 81.72
  A 1.32 1.30 -13.7 0 0 69.26 80.47
  L 68.85 70.50
  A 4.20 4.20 0.0 0 0 66.17 66.77
  L 57.19 63.30
  L 54.98 62.51
  Q 54.83 62.15 54.51 61.99
  L 53.85 60.19
  Q 53.63 59.58 53.09 59.94
  Q 51.63 60.92 49.99 61.60
  C 48.30 62.30 45.68 60.57 44.25 59.72
  Q 43.66 59.38 43.57 60.05
  L 43.32 61.85
  Z"
/>
<path fill="#db9e71" d="
  M 59.63 49.88
  Q 59.90 47.47 59.96 45.02
  A 1.33 1.31 -19.0 0 1 60.46 44.01
  Q 61.34 43.32 62.16 43.85
  Q 63.01 44.41 62.97 45.43
  Q 62.79 49.70 59.95 51.17
  A 1.22 1.19 82.7 0 0 59.33 51.99
  C 58.48 55.96 53.81 59.19 49.71 61.08
  A 1.45 1.45 0.0 0 1 48.59 61.13
  C 45.25 59.90 40.53 56.98 38.81 53.49
  Q 38.02 51.88 38.07 49.98
  C 38.25 43.96 38.76 38.56 41.19 33.38
  Q 41.46 32.80 41.72 33.39
  Q 42.99 36.34 46.79 37.53
  A 0.40 0.39 11.2 0 0 47.31 37.19
  L 47.40 36.24
  Q 47.46 35.56 47.89 36.09
  Q 49.47 38.01 52.22 39.24
  Q 52.70 39.46 52.27 39.77
  Q 52.06 39.92 51.84 39.83
  Q 51.42 39.65 51.18 40.04
  Q 50.96 40.40 51.18 40.66
  Q 51.34 40.85 51.57 40.75
  Q 53.69 39.89 55.70 40.47
  Q 56.10 40.58 56.21 40.18
  L 56.28 39.90
  A 0.24 0.24 0.0 0 0 56.09 39.60
  C 54.88 39.41 53.18 39.27 53.09 37.67
  A 0.41 0.40 -75.6 0 1 53.71 37.30
  Q 55.42 38.40 57.42 38.62
  Q 58.46 38.73 58.65 39.76
  Q 59.58 45.01 59.51 49.87
  Q 59.49 51.07 59.63 49.88
  Z
  M 46.8968 39.7088
  A 0.37 0.37 0.0 0 0 46.5185 39.3473
  L 41.8597 39.4530
  A 0.37 0.37 0.0 0 0 41.4982 39.8313
  L 41.5032 40.0512
  A 0.37 0.37 0.0 0 0 41.8815 40.4127
  L 46.5403 40.3070
  A 0.37 0.37 0.0 0 0 46.9018 39.9287
  L 46.8968 39.7088
  Z
  M 43.46 43.90
  L 43.22 44.10
  Q 42.72 44.52 43.28 44.85
  Q 44.06 45.30 44.89 44.36
  A 1.35 1.33 65.8 0 0 45.23 43.44
  Q 45.19 41.97 43.94 41.78
  Q 43.21 41.67 43.27 42.41
  Q 43.31 42.87 43.56 43.26
  A 0.50 0.49 54.5 0 1 43.46 43.90
  Z
  M 53.43 43.65
  Q 53.23 43.63 53.05 43.54
  A 0.29 0.29 0.0 0 0 52.64 43.85
  Q 52.73 44.51 53.24 44.80
  A 1.12 1.12 0.0 0 0 54.80 44.32
  Q 55.53 42.83 54.19 41.84
  Q 53.58 41.39 53.46 42.13
  Q 53.35 42.76 53.64 43.34
  Q 53.82 43.69 53.43 43.65
  Z
  M 61.49 46.35
  Q 61.47 46.70 61.62 46.99
  Q 61.83 47.40 61.96 46.96
  Q 62.32 45.82 61.31 45.25
  Q 60.96 45.04 60.91 45.45
  Q 60.86 45.79 61.18 45.90
  A 0.43 0.43 0.0 0 1 61.49 46.35
  Z
  M 44.46 52.16
  Q 44.13 52.00 43.78 51.96
  Q 43.33 51.90 43.72 52.13
  Q 48.65 54.97 52.94 52.66
  Q 52.99 52.64 53.00 52.59
  Q 53.02 52.54 52.99 52.49
  Q 52.93 52.35 52.79 52.41
  Q 48.67 54.24 44.46 52.16
  Z"
/>
<rect fill="#5e2e2e" x="-2.70" y="-0.48" transform="translate(44.20,39.88) rotate(-1.3)" width="5.40" height="0.96" rx="0.37"/>
<path fill="#5e2e2e" d="
  M 43.56 43.26
  Q 43.31 42.87 43.27 42.41
  Q 43.21 41.67 43.94 41.78
  Q 45.19 41.97 45.23 43.44
  A 1.35 1.33 65.8 0 1 44.89 44.36
  Q 44.06 45.30 43.28 44.85
  Q 42.72 44.52 43.22 44.10
  L 43.46 43.90
  A 0.50 0.49 54.5 0 0 43.56 43.26
  Z"
/>
<path fill="#5e2e2e" d="
  M 53.64 43.34
  Q 53.35 42.76 53.46 42.13
  Q 53.58 41.39 54.19 41.84
  Q 55.53 42.83 54.80 44.32
  A 1.12 1.12 0.0 0 1 53.24 44.80
  Q 52.73 44.51 52.64 43.85
  A 0.29 0.29 0.0 0 1 53.05 43.54
  Q 53.23 43.63 53.43 43.65
  Q 53.82 43.69 53.64 43.34
  Z"
/>
<path fill="#db9e71" d="
  M 36.88 46.42
  Q 36.85 46.27 36.91 46.13
  Q 36.99 45.95 37.19 45.89
  Q 37.59 45.76 37.85 46.16
  A 0.59 0.55 35.0 0 1 37.93 46.54
  Q 37.75 47.73 37.73 48.94
  Q 37.67 52.64 35.86 49.42
  Q 34.92 47.74 34.74 45.27
  A 1.44 1.43 -75.2 0 1 36.97 43.97
  Q 37.29 44.18 37.51 44.48
  A 0.24 0.24 0.0 0 1 37.26 44.86
  Q 37.00 44.81 36.80 44.94
  A 1.20 1.14 63.3 0 0 36.38 46.34
  Q 36.45 46.53 36.64 46.62
  Q 36.97 46.77 36.88 46.42
  Z"
/>
<path fill="#5e2e2e" d="
  M 61.18 45.90
  Q 60.86 45.79 60.91 45.45
  Q 60.96 45.04 61.31 45.25
  Q 62.32 45.82 61.96 46.96
  Q 61.83 47.40 61.62 46.99
  Q 61.47 46.70 61.49 46.35
  A 0.43 0.43 0.0 0 0 61.18 45.90
  Z"
/>
<path fill="#5e2e2e" d="
  M 44.46 52.16
  Q 48.67 54.24 52.79 52.41
  Q 52.93 52.35 52.99 52.49
  Q 53.02 52.54 53.00 52.59
  Q 52.99 52.64 52.94 52.66
  Q 48.65 54.97 43.72 52.13
  Q 43.33 51.90 43.78 51.96
  Q 44.13 52.00 44.46 52.16
  Z"
/>
<path fill="#db9e71" d="
  M 54.51 61.99
  Q 52.80 62.98 50.90 63.53
  Q 49.03 64.08 47.11 63.48
  Q 45.14 62.88 43.32 61.85
  L 43.57 60.05
  Q 43.66 59.38 44.25 59.72
  C 45.68 60.57 48.30 62.30 49.99 61.60
  Q 51.63 60.92 53.09 59.94
  Q 53.63 59.58 53.85 60.19
  L 54.51 61.99
  Z"
/>
<path fill="#c8ede6" d="
  M 43.32 61.85
  Q 45.14 62.88 47.11 63.48
  Q 49.03 64.08 50.90 63.53
  Q 52.80 62.98 54.51 61.99
  Q 54.83 62.15 54.98 62.51
  L 51.77 75.83
  C 51.24 73.61 51.83 70.75 49.71 69.39
  Q 50.66 69.09 51.08 68.34
  Q 51.36 67.82 51.01 67.34
  L 49.63 65.45
  Q 49.21 64.88 48.65 65.33
  Q 45.70 67.70 47.89 69.65
  Q 46.84 70.56 46.77 71.75
  Q 46.62 74.31 46.00 77.09
  L 42.85 62.47
  Q 42.59 62.37 43.32 61.85
  Z"
/>
<path fill="#568bc1" d="
  M 42.85 62.47
  L 46.00 77.09
  L 47.27 82.54
  Q 47.19 83.14 46.92 83.56
  A 0.28 0.27 -43.3 0 1 46.45 83.55
  L 40.49 72.96
  Q 40.22 72.47 40.61 72.06
  L 42.32 70.33
  A 0.77 0.77 0.0 0 0 42.02 69.06
  L 39.37 68.15
  Q 38.79 67.95 38.99 67.37
  L 40.30 63.42
  L 42.85 62.47
  Z"
/>
<path fill="#568bc1" d="
  M 54.98 62.51
  L 57.19 63.30
  Q 57.40 65.11 58.50 66.74
  A 1.03 1.03 0.0 0 1 57.99 68.28
  L 55.42 69.18
  A 0.58 0.58 0.0 0 0 55.18 70.11
  L 56.95 72.08
  Q 57.35 72.52 57.06 73.04
  L 51.65 82.47
  Q 51.22 83.21 51.07 82.37
  L 50.76 80.69
  L 51.77 75.83
  L 54.98 62.51
  Z"
/>
<path fill="#78a0cf" d="
  M 57.19 63.30
  L 66.17 66.77
  A 4.20 4.20 0.0 0 1 68.85 70.50
  L 69.26 80.47
  A 1.32 1.30 -13.7 0 1 68.49 81.72
  Q 54.40 88.15 39.68 84.74
  Q 34.07 83.44 29.07 79.88
  A 1.10 1.09 18.1 0 1 28.61 78.99
  Q 28.62 74.67 29.16 70.84
  Q 29.60 67.68 32.68 66.16
  Q 34.29 65.37 40.30 63.42
  L 38.99 67.37
  Q 38.79 67.95 39.37 68.15
  L 42.02 69.06
  A 0.77 0.77 0.0 0 1 42.32 70.33
  L 40.61 72.06
  Q 40.22 72.47 40.49 72.96
  L 46.45 83.55
  A 0.28 0.27 -43.3 0 0 46.92 83.56
  Q 47.19 83.14 47.27 82.54
  Q 47.82 83.41 47.67 84.29
  A 0.86 0.86 0.0 0 0 48.88 85.22
  Q 49.66 84.86 50.29 83.98
  Q 50.57 83.58 50.39 83.13
  Q 49.88 81.92 50.76 80.69
  L 51.07 82.37
  Q 51.22 83.21 51.65 82.47
  L 57.06 73.04
  Q 57.35 72.52 56.95 72.08
  L 55.18 70.11
  A 0.58 0.58 0.0 0 1 55.42 69.18
  L 57.99 68.28
  A 1.03 1.03 0.0 0 0 58.50 66.74
  Q 57.40 65.11 57.19 63.30
  Z"
/>
<path fill="#78a0cf" d="
  M 49.71 69.39
  Q 48.77 69.68 47.89 69.65
  Q 45.70 67.70 48.65 65.33
  Q 49.21 64.88 49.63 65.45
  L 51.01 67.34
  Q 51.36 67.82 51.08 68.34
  Q 50.66 69.09 49.71 69.39
  Z"
/>
<path fill="#fbcd59" d="
  M 18.54 69.03
  Q 25.65 68.87 23.28 75.54
  Q 20.33 78.00 18.41 76.67
  Q 13.44 73.22 18.54 69.03
  Z"
/>
<path fill="#66798f" d="
  M 49.71 69.39
  C 51.83 70.75 51.24 73.61 51.77 75.83
  L 50.76 80.69
  Q 49.88 81.92 50.39 83.13
  Q 50.57 83.58 50.29 83.98
  Q 49.66 84.86 48.88 85.22
  A 0.86 0.86 0.0 0 1 47.67 84.29
  Q 47.82 83.41 47.27 82.54
  L 46.00 77.09
  Q 46.62 74.31 46.77 71.75
  Q 46.84 70.56 47.89 69.65
  Q 48.77 69.68 49.71 69.39
  Z"
/>
<circle fill="#fbcd59" cx="81.00" cy="76.01" r="1.95"/>
<circle fill="#8889b9" cx="25.00" cy="87.00" r="1.96"/>
</svg>
