<?xml version="1.0" encoding="UTF-8" standalone="no"?>
<!DOCTYPE svg PUBLIC "-//W3C//DTD SVG 1.1//EN" "http://www.w3.org/Graphics/SVG/1.1/DTD/svg11.dtd">
<svg xmlns="http://www.w3.org/2000/svg" version="1.1" viewBox="0.00 0.00 100.00 100.00">
<circle fill="#fbcd59" cx="82.99" cy="14.99" r="3.95"/>
<circle fill="#fbcd59" cx="77.00" cy="13.01" r="0.93"/>
<path fill="#e6edb7" d="
  M 69.14 81.95
  Q 68.97 76.80 68.77 72.26
  C 68.62 69.01 67.65 67.05 64.62 65.99
  Q 59.62 64.24 55.50 62.61
  Q 53.84 61.95 54.22 60.18
  Q 54.32 59.69 54.75 59.43
  Q 58.07 57.37 59.22 53.79
  Q 59.36 53.37 59.73 53.12
  Q 62.45 51.28 62.92 46.86
  Q 63.19 44.23 60.56 43.88
  A 0.54 0.54 0.0 0 1 60.12 43.19
  Q 60.69 41.33 60.46 39.54
  A 0.91 0.88 -26.0 0 1 60.74 38.77
  L 62.65 37.00
  Q 63.13 36.55 62.50 36.35
  C 60.73 35.78 58.85 34.06 58.96 32.01
  Q 59.03 30.50 59.00 29.08
  Q 58.99 28.50 59.55 28.32
  L 67.79 25.71
  Q 69.10 25.29 67.79 24.87
  L 48.80 18.88
  Q 48.23 18.70 47.66 18.88
  Q 38.24 21.86 28.28 25.03
  Q 27.45 25.30 28.24 25.66
  Q 28.29 25.68 28.35 25.68
  Q 29.04 25.69 29.03 26.40
  Q 28.97 30.58 29.01 34.29
  Q 29.02 34.85 28.48 34.99
  C 24.97 35.95 28.08 40.64 28.92 42.26
  A 0.44 0.43 47.0 0 0 29.68 42.29
  C 30.64 40.69 33.38 36.54 30.68 35.13
  Q 30.00 34.77 30.00 34.00
  L 30.00 27.03
  Q 30.00 26.17 30.83 26.42
  L 36.30 28.12
  Q 36.94 28.32 36.98 28.98
  C 37.10 31.31 37.15 33.21 36.16 35.42
  Q 34.36 39.41 35.96 43.39
  A 0.46 0.46 0.0 0 1 35.55 44.02
  Q 33.59 44.07 33.55 45.99
  Q 33.45 50.69 36.61 53.05
  A 1.87 1.84 9.8 0 1 37.23 53.91
  Q 38.37 57.24 41.33 59.13
  A 1.60 1.58 -81.3 0 1 42.00 60.05
  Q 42.49 62.00 40.66 62.67
  Q 37.04 63.99 33.13 65.41
  Q 28.03 67.25 27.86 72.75
  Q 27.75 76.04 27.47 79.32
  Q 20.72 73.97 17.06 66.70
  Q 22.12 60.33 14.11 58.78
  C 8.51 34.46 27.28 11.31 52.77 13.17
  C 85.70 15.57 99.11 57.22 73.59 78.35
  Q 71.48 80.10 69.14 81.95
  Z
  M 81.03 33.49
  A 1.51 1.51 0.0 0 0 79.52 31.98
  A 1.51 1.51 0.0 0 0 78.01 33.49
  A 1.51 1.51 0.0 0 0 79.52 35.00
  A 1.51 1.51 0.0 0 0 81.03 33.49
  Z
  M 20.99 51.50
  A 2.48 2.48 0.0 0 0 18.51 49.02
  A 2.48 2.48 0.0 0 0 16.03 51.50
  A 2.48 2.48 0.0 0 0 18.51 53.98
  A 2.48 2.48 0.0 0 0 20.99 51.50
  Z"
/>
<path fill="#5c2e2e" d="
  M 69.14 81.95
  Q 59.63 87.52 46.75 86.98
  Q 36.17 86.55 28.06 80.67
  Q 27.40 80.19 27.47 79.32
  Q 27.75 76.04 27.86 72.75
  Q 28.03 67.25 33.13 65.41
  Q 37.04 63.99 40.66 62.67
  Q 42.49 62.00 42.00 60.05
  A 1.60 1.58 -81.3 0 0 41.33 59.13
  Q 38.37 57.24 37.23 53.91
  A 1.87 1.84 9.8 0 0 36.61 53.05
  Q 33.45 50.69 33.55 45.99
  Q 33.59 44.07 35.55 44.02
  A 0.46 0.46 0.0 0 0 35.96 43.39
  Q 34.36 39.41 36.16 35.42
  C 37.15 33.21 37.10 31.31 36.98 28.98
  Q 36.94 28.32 36.30 28.12
  L 30.83 26.42
  Q 30.00 26.17 30.00 27.03
  L 30.00 34.00
  Q 30.00 34.77 30.68 35.13
  C 33.38 36.54 30.64 40.69 29.68 42.29
  A 0.44 0.43 47.0 0 1 28.92 42.26
  C 28.08 40.64 24.97 35.95 28.48 34.99
  Q 29.02 34.85 29.01 34.29
  Q 28.97 30.58 29.03 26.40
  Q 29.04 25.69 28.35 25.68
  Q 28.29 25.68 28.24 25.66
  Q 27.45 25.30 28.28 25.03
  Q 38.24 21.86 47.66 18.88
  Q 48.23 18.70 48.80 18.88
  L 67.79 24.87
  Q 69.10 25.29 67.79 25.71
  L 59.55 28.32
  Q 58.99 28.50 59.00 29.08
  Q 59.03 30.50 58.96 32.01
  C 58.85 34.06 60.73 35.78 62.50 36.35
  Q 63.13 36.55 62.65 37.00
  L 60.74 38.77
  A 0.91 0.88 -26.0 0 0 60.46 39.54
  Q 60.69 41.33 60.12 43.19
  A 0.54 0.54 0.0 0 0 60.56 43.88
  Q 63.19 44.23 62.92 46.86
  Q 62.45 51.28 59.73 53.12
  Q 59.36 53.37 59.22 53.79
  Q 58.07 57.37 54.75 59.43
  Q 54.32 59.69 54.22 60.18
  Q 53.84 61.95 55.50 62.61
  Q 59.62 64.24 64.62 65.99
  C 67.65 67.05 68.62 69.01 68.77 72.26
  Q 68.97 76.80 69.14 81.95
  Z
  M 48.42 19.79
  A 0.33 0.33 0.0 0 0 48.22 19.79
  L 31.53 25.00
  A 0.33 0.33 0.0 0 0 31.53 25.63
  L 48.13 30.81
  A 0.33 0.33 0.0 0 0 48.33 30.81
  L 64.84 25.64
  A 0.33 0.33 0.0 0 0 64.84 25.01
  L 48.42 19.79
  Z
  M 57.43 28.99
  L 48.58 31.78
  A 1.44 1.43 45.3 0 1 47.72 31.77
  L 38.92 28.93
  Q 38.00 28.63 38.00 29.59
  L 38.01 32.28
  Q 38.01 33.43 39.12 33.74
  Q 47.98 36.27 57.24 33.68
  A 1.04 1.02 -7.8 0 0 58.00 32.69
  L 58.01 29.42
  Q 58.01 28.80 57.43 28.99
  Z
  M 27.71 37.59
  L 28.94 40.31
  Q 29.28 41.06 29.65 40.33
  L 30.86 37.92
  A 1.52 1.52 0.0 0 0 30.17 35.87
  Q 28.57 35.08 27.73 36.71
  A 1.03 1.01 -44.3 0 0 27.71 37.59
  Z
  M 58.73 50.87
  Q 58.55 46.14 57.82 41.24
  A 1.43 1.42 88.2 0 0 56.54 40.03
  Q 54.70 39.87 53.09 38.85
  Q 52.42 38.43 52.47 39.22
  L 52.51 39.84
  Q 52.54 40.40 53.09 40.53
  L 55.37 41.09
  Q 55.49 41.12 55.47 41.24
  L 55.42 41.49
  Q 55.36 41.81 55.04 41.75
  Q 52.78 41.32 50.57 41.96
  Q 50.34 42.03 50.30 41.78
  L 50.26 41.49
  Q 50.22 41.18 50.53 41.14
  Q 51.07 41.08 51.53 40.77
  A 0.29 0.29 0.0 0 0 51.42 40.24
  Q 48.84 39.77 47.72 37.77
  Q 47.49 37.36 47.15 37.68
  Q 46.91 37.91 46.92 38.24
  A 0.70 0.70 0.0 0 1 45.98 38.92
  Q 43.23 37.89 41.47 35.68
  A 0.66 0.65 35.8 0 0 40.34 35.86
  Q 38.40 41.17 37.51 47.56
  C 37.33 48.86 37.66 50.14 37.78 51.43
  Q 37.79 51.55 37.66 51.56
  L 37.41 51.56
  Q 37.35 51.56 37.34 51.51
  Q 36.46 48.87 36.74 45.57
  Q 36.81 44.75 36.01 44.96
  L 35.32 45.15
  A 1.15 1.14 -11.3 0 0 34.48 46.40
  Q 34.88 49.55 36.21 51.61
  Q 36.41 51.92 36.78 51.91
  L 37.12 51.89
  Q 37.69 51.87 37.82 52.42
  C 38.88 56.91 42.76 59.33 46.56 61.36
  Q 48.05 62.15 49.50 61.52
  Q 56.83 58.34 58.70 52.51
  A 0.94 0.94 0.0 0 1 59.44 51.88
  Q 60.07 51.77 60.41 51.21
  Q 61.71 49.11 61.96 46.90
  Q 62.14 45.29 60.57 44.90
  Q 59.95 44.74 59.36 45.35
  A 1.04 1.04 0.0 0 0 59.06 46.19
  Q 59.29 48.56 58.96 50.88
  Q 58.78 52.21 58.73 50.87
  Z
  M 42.81 62.75
  L 39.86 64.14
  Q 36.46 65.19 33.45 66.40
  C 31.00 67.39 29.34 68.76 29.08 71.46
  Q 28.75 74.93 28.58 78.85
  Q 28.55 79.47 29.00 79.93
  Q 29.56 80.50 30.29 80.93
  Q 38.64 85.87 47.98 85.90
  Q 48.49 85.96 49.06 85.76
  Q 49.89 86.11 51.02 86.02
  Q 59.41 85.30 67.64 81.79
  Q 68.10 81.59 68.08 81.10
  L 67.64 70.66
  A 3.59 3.57 9.5 0 0 65.36 67.48
  L 57.30 64.33
  L 53.53 62.58
  Q 53.96 59.78 48.69 62.29
  Q 48.27 62.49 47.82 62.37
  Q 45.56 61.77 43.86 60.29
  Q 43.31 59.81 43.19 60.53
  L 42.81 62.75
  Z"
/>
<path fill="#97aec7" d="
  M 48.42 19.79
  L 64.84 25.01
  A 0.33 0.33 0.0 0 1 64.84 25.64
  L 48.33 30.81
  A 0.33 0.33 0.0 0 1 48.13 30.81
  L 31.53 25.63
  A 0.33 0.33 0.0 0 1 31.53 25.00
  L 48.22 19.79
  A 0.33 0.33 0.0 0 1 48.42 19.79
  Z"
/>
<circle fill="#89ae45" cx="87.00" cy="24.01" r="1.96"/>
<path fill="#b0c1d4" d="
  M 57.43 28.99
  Q 58.01 28.80 58.01 29.42
  L 58.00 32.69
  A 1.04 1.02 -7.8 0 1 57.24 33.68
  Q 47.98 36.27 39.12 33.74
  Q 38.01 33.43 38.01 32.28
  L 38.00 29.59
  Q 38.00 28.63 38.92 28.93
  L 47.72 31.77
  A 1.44 1.43 45.3 0 0 48.58 31.78
  L 57.43 28.99
  Z"
/>
<circle fill="#fdfcef" cx="79.52" cy="33.49" r="1.51"/>
<path fill="#db9e71" d="
  M 27.71 37.59
  A 1.03 1.01 -44.3 0 1 27.73 36.71
  Q 28.57 35.08 30.17 35.87
  A 1.52 1.52 0.0 0 1 30.86 37.92
  L 29.65 40.33
  Q 29.28 41.06 28.94 40.31
  L 27.71 37.59
  Z"
/>
<path fill="#db9e71" d="
  M 58.96 50.88
  Q 59.29 48.56 59.06 46.19
  A 1.04 1.04 0.0 0 1 59.36 45.35
  Q 59.95 44.74 60.57 44.90
  Q 62.14 45.29 61.96 46.90
  Q 61.71 49.11 60.41 51.21
  Q 60.07 51.77 59.44 51.88
  A 0.94 0.94 0.0 0 0 58.70 52.51
  Q 56.83 58.34 49.50 61.52
  Q 48.05 62.15 46.56 61.36
  C 42.76 59.33 38.88 56.91 37.82 52.42
  Q 37.69 51.87 37.12 51.89
  L 36.78 51.91
  Q 36.41 51.92 36.21 51.61
  Q 34.88 49.55 34.48 46.40
  A 1.15 1.14 -11.3 0 1 35.32 45.15
  L 36.01 44.96
  Q 36.81 44.75 36.74 45.57
  Q 36.46 48.87 37.34 51.51
  Q 37.35 51.56 37.41 51.56
  L 37.66 51.56
  Q 37.79 51.55 37.78 51.43
  C 37.66 50.14 37.33 48.86 37.51 47.56
  Q 38.40 41.17 40.34 35.86
  A 0.66 0.65 35.8 0 1 41.47 35.68
  Q 43.23 37.89 45.98 38.92
  A 0.70 0.70 0.0 0 0 46.92 38.24
  Q 46.91 37.91 47.15 37.68
  Q 47.49 37.36 47.72 37.77
  Q 48.84 39.77 51.42 40.24
  A 0.29 0.29 0.0 0 1 51.53 40.77
  Q 51.07 41.08 50.53 41.14
  Q 50.22 41.18 50.26 41.49
  L 50.30 41.78
  Q 50.34 42.03 50.57 41.96
  Q 52.78 41.32 55.04 41.75
  Q 55.36 41.81 55.42 41.49
  L 55.47 41.24
  Q 55.49 41.12 55.37 41.09
  L 53.09 40.53
  Q 52.54 40.40 52.51 39.84
  L 52.47 39.22
  Q 52.42 38.43 53.09 38.85
  Q 54.70 39.87 56.54 40.03
  A 1.43 1.42 88.2 0 1 57.82 41.24
  Q 58.55 46.14 58.73 50.87
  Q 58.78 52.21 58.96 50.88
  Z
  M 46.27 41.62
  L 46.39 41.35
  Q 46.53 41.03 46.19 40.96
  Q 43.50 40.37 41.21 41.15
  Q 41.00 41.22 41.05 41.43
  L 41.11 41.69
  Q 41.18 42.00 41.49 41.93
  Q 43.69 41.47 46.00 41.77
  A 0.27 0.26 15.4 0 0 46.27 41.62
  Z
  M 42.90 45.09
  L 42.71 45.25
  Q 42.14 45.73 42.80 46.08
  Q 43.62 46.51 44.36 45.61
  A 1.50 1.50 0.0 0 0 44.62 44.19
  Q 44.18 42.83 43.02 43.09
  A 0.40 0.40 0.0 0 0 42.77 43.70
  L 43.05 44.13
  A 0.74 0.73 -36.5 0 1 42.90 45.09
  Z
  M 52.40 45.16
  Q 52.22 45.20 52.14 45.36
  Q 51.86 45.97 52.53 46.09
  C 54.54 46.45 54.98 43.58 53.09 43.08
  A 0.46 0.46 0.0 0 0 52.65 43.85
  Q 52.92 44.12 52.92 44.49
  Q 52.93 45.04 52.40 45.16
  Z
  M 60.40 47.89
  Q 60.42 48.02 60.44 48.15
  Q 60.57 49.08 60.87 48.19
  Q 61.21 47.17 60.54 46.51
  Q 60.11 46.08 60.11 46.69
  Q 60.11 47.04 60.25 47.37
  Q 60.35 47.62 60.40 47.89
  Z
  M 49.20 54.23
  C 47.28 54.48 45.32 53.83 43.60 53.03
  Q 43.52 52.99 43.48 53.07
  L 43.47 53.07
  Q 43.40 53.20 43.53 53.27
  Q 46.22 54.84 49.09 54.68
  Q 49.24 54.68 49.24 54.53
  L 49.25 54.28
  Q 49.25 54.22 49.20 54.23
  Z"
/>
<path fill="#5c2e2e" d="
  M 46.00 41.77
  Q 43.69 41.47 41.49 41.93
  Q 41.18 42.00 41.11 41.69
  L 41.05 41.43
  Q 41.00 41.22 41.21 41.15
  Q 43.50 40.37 46.19 40.96
  Q 46.53 41.03 46.39 41.35
  L 46.27 41.62
  A 0.27 0.26 15.4 0 1 46.00 41.77
  Z"
/>
<path fill="#5c2e2e" d="
  M 43.05 44.13
  L 42.77 43.70
  A 0.40 0.40 0.0 0 1 43.02 43.09
  Q 44.18 42.83 44.62 44.19
  A 1.50 1.50 0.0 0 1 44.36 45.61
  Q 43.62 46.51 42.80 46.08
  Q 42.14 45.73 42.71 45.25
  L 42.90 45.09
  A 0.74 0.73 -36.5 0 0 43.05 44.13
  Z"
/>
<path fill="#5c2e2e" d="
  M 52.92 44.49
  Q 52.92 44.12 52.65 43.85
  A 0.46 0.46 0.0 0 1 53.09 43.08
  C 54.98 43.58 54.54 46.45 52.53 46.09
  Q 51.86 45.97 52.14 45.36
  Q 52.22 45.20 52.40 45.16
  Q 52.93 45.04 52.92 44.49
  Z"
/>
<path fill="#5c2e2e" d="
  M 60.25 47.37
  Q 60.11 47.04 60.11 46.69
  Q 60.11 46.08 60.54 46.51
  Q 61.21 47.17 60.87 48.19
  Q 60.57 49.08 60.44 48.15
  Q 60.42 48.02 60.40 47.89
  Q 60.35 47.62 60.25 47.37
  Z"
/>
<circle fill="#fdfcef" cx="18.51" cy="51.50" r="2.48"/>
<path fill="#5c2e2e" d="
  M 43.60 53.03
  C 45.32 53.83 47.28 54.48 49.20 54.23
  Q 49.25 54.22 49.25 54.28
  L 49.24 54.53
  Q 49.24 54.68 49.09 54.68
  Q 46.22 54.84 43.53 53.27
  Q 43.40 53.20 43.47 53.07
  L 43.48 53.07
  Q 43.52 52.99 43.60 53.03
  Z"
/>
<path fill="#fbcd59" d="
  M 14.11 58.78
  Q 22.12 60.33 17.06 66.70
  Q 13.82 67.53 12.32 65.96
  Q 8.67 62.16 14.11 58.78
  Z"
/>
<path fill="#db9e71" d="
  M 53.53 62.58
  Q 53.62 63.25 53.45 63.95
  Q 52.67 64.06 51.35 64.87
  C 48.58 66.55 46.10 65.36 43.30 63.37
  L 42.81 62.75
  L 43.19 60.53
  Q 43.31 59.81 43.86 60.29
  Q 45.56 61.77 47.82 62.37
  Q 48.27 62.49 48.69 62.29
  Q 53.96 59.78 53.53 62.58
  Z"
/>
<path fill="#568bc1" d="
  M 42.81 62.75
  L 43.30 63.37
  Q 42.88 63.63 42.94 64.00
  Q 44.43 73.94 47.03 84.63
  L 40.33 73.85
  A 1.23 1.21 44.5 0 1 40.31 72.59
  Q 40.61 72.07 41.09 71.65
  Q 43.23 69.80 40.48 69.16
  Q 39.75 69.00 39.04 68.67
  Q 38.53 68.44 38.70 67.91
  L 39.86 64.14
  L 42.81 62.75
  Z"
/>
<path fill="#568bc1" d="
  M 53.53 62.58
  L 57.30 64.33
  Q 56.81 65.80 57.49 68.09
  Q 57.65 68.64 57.11 68.83
  L 54.71 69.68
  A 0.68 0.68 0.0 0 0 54.47 70.80
  L 56.05 72.35
  Q 56.56 72.85 56.20 73.47
  Q 53.62 77.95 50.83 82.58
  Q 50.26 83.53 49.47 83.30
  L 53.45 63.95
  Q 53.62 63.25 53.53 62.58
  Z"
/>
<path fill="#fdfcef" d="
  M 43.30 63.37
  C 46.10 65.36 48.58 66.55 51.35 64.87
  Q 52.67 64.06 53.45 63.95
  L 49.47 83.30
  Q 49.06 84.34 49.06 85.76
  Q 48.49 85.96 47.98 85.90
  Q 47.27 85.86 47.03 84.63
  Q 44.43 73.94 42.94 64.00
  Q 42.88 63.63 43.30 63.37
  Z"
/>
<path fill="#78a0cf" d="
  M 39.86 64.14
  L 38.70 67.91
  Q 38.53 68.44 39.04 68.67
  Q 39.75 69.00 40.48 69.16
  Q 43.23 69.80 41.09 71.65
  Q 40.61 72.07 40.31 72.59
  A 1.23 1.21 44.5 0 0 40.33 73.85
  L 47.03 84.63
  Q 47.27 85.86 47.98 85.90
  Q 38.64 85.87 30.29 80.93
  Q 29.56 80.50 29.00 79.93
  Q 28.55 79.47 28.58 78.85
  Q 28.75 74.93 29.08 71.46
  C 29.34 68.76 31.00 67.39 33.45 66.40
  Q 36.46 65.19 39.86 64.14
  Z"
/>
<path fill="#78a0cf" d="
  M 57.30 64.33
  L 65.36 67.48
  A 3.59 3.57 9.5 0 1 67.64 70.66
  L 68.08 81.10
  Q 68.10 81.59 67.64 81.79
  Q 59.41 85.30 51.02 86.02
  Q 49.89 86.11 49.06 85.76
  Q 49.06 84.34 49.47 83.30
  Q 50.26 83.53 50.83 82.58
  Q 53.62 77.95 56.20 73.47
  Q 56.56 72.85 56.05 72.35
  L 54.47 70.80
  A 0.68 0.68 0.0 0 1 54.71 69.68
  L 57.11 68.83
  Q 57.65 68.64 57.49 68.09
  Q 56.81 65.80 57.30 64.33
  Z"
/>
<circle fill="#fbcd59" cx="81.00" cy="76.01" r="1.95"/>
<circle fill="#89ae45" cx="25.00" cy="87.01" r="1.96"/>
</svg>
