<?xml version="1.0" encoding="UTF-8" standalone="no"?>
<!DOCTYPE svg PUBLIC "-//W3C//DTD SVG 1.1//EN" "http://www.w3.org/Graphics/SVG/1.1/DTD/svg11.dtd">
<svg xmlns="http://www.w3.org/2000/svg" version="1.1" viewBox="0.00 0.00 499.00 498.00">
<path fill="#8bc050" d="
  M 0.00 0.00
  L 324.27 0.00
  L 349.40 1.25
  A 1.54 1.54 0.0 0 1 350.41 3.87
  L 269.39 85.21
  C 242.83 76.01 213.13 80.34 194.40 102.20
  Q 193.95 102.71 193.28 102.80
  C 173.43 105.33 159.21 126.48 151.12 143.10
  C 136.93 172.28 129.08 205.14 125.79 237.46
  Q 124.78 237.34 125.22 238.26
  Q 125.54 238.96 124.87 238.59
  Q 124.72 238.50 124.62 238.36
  A 0.40 0.39 50.2 0 0 124.02 238.30
  L 0.00 362.30
  L 0.00 0.00
  Z"
/>
<path fill="#84b64e" d="
  M 324.27 0.00
  L 499.00 0.00
  L 499.00 45.52
  Q 497.14 44.26 495.93 45.65
  Q 494.82 46.91 494.72 47.00
  Q 489.04 51.94 483.44 57.56
  Q 473.40 67.65 463.38 77.76
  Q 444.08 97.23 423.74 117.61
  Q 399.14 142.26 374.42 166.80
  Q 371.70 169.49 368.66 172.31
  L 321.64 125.39
  Q 319.17 122.85 310.45 113.05
  Q 293.92 94.49 269.39 85.21
  L 350.41 3.87
  A 1.54 1.54 0.0 0 0 349.40 1.25
  L 324.27 0.00
  Z"
/>
<path fill="#79a648" d="
  M 499.00 45.52
  L 499.00 303.62
  Q 498.65 302.95 498.67 301.99
  Q 498.69 301.10 497.92 301.14
  Q 497.46 301.16 497.14 300.84
  L 368.66 172.31
  Q 371.70 169.49 374.42 166.80
  Q 399.14 142.26 423.74 117.61
  Q 444.08 97.23 463.38 77.76
  Q 473.40 67.65 483.44 57.56
  Q 489.04 51.94 494.72 47.00
  Q 494.82 46.91 495.93 45.65
  Q 497.14 44.26 499.00 45.52
  Z"
/>
<path fill="#454545" d="
  M 269.39 85.21
  Q 293.92 94.49 310.45 113.05
  Q 319.17 122.85 321.64 125.39
  Q 321.47 126.29 321.80 126.75
  C 332.15 141.36 340.04 157.10 345.45 174.00
  Q 359.28 217.15 355.01 262.71
  C 353.56 278.08 349.81 295.43 341.08 308.45
  Q 338.25 312.67 334.07 314.96
  Q 331.10 316.59 325.13 317.34
  Q 309.76 319.30 294.38 321.14
  Q 293.93 321.19 293.94 321.54
  Q 293.47 321.78 292.90 321.75
  Q 291.74 320.79 290.92 319.56
  Q 290.43 318.84 289.46 318.87
  Q 288.68 318.08 288.31 317.00
  Q 284.15 304.98 284.57 292.59
  Q 284.58 292.08 284.88 291.67
  Q 302.58 266.80 310.45 237.11
  Q 310.59 236.56 311.15 236.44
  C 315.51 235.49 318.82 231.28 320.93 227.56
  Q 328.78 213.69 327.95 197.60
  C 327.73 193.41 326.15 186.82 321.18 186.04
  Q 320.62 185.95 320.34 186.46
  L 314.52 197.28
  Q 313.95 198.34 313.81 197.15
  C 312.63 187.15 303.89 181.61 295.21 178.31
  C 281.42 173.06 267.49 169.49 253.49 164.99
  C 234.92 159.01 216.82 148.80 204.27 133.93
  A 1.41 1.41 0.0 0 0 203.15 133.43
  Q 201.17 133.52 199.13 134.06
  C 176.68 140.02 169.80 166.83 168.63 186.86
  Q 168.35 191.73 168.19 196.46
  Q 168.16 197.44 167.77 196.54
  C 166.14 192.86 163.76 189.70 160.35 187.63
  A 0.82 0.81 -55.3 0 0 159.28 187.83
  C 156.24 191.72 155.67 197.41 155.87 202.12
  Q 156.49 216.91 163.70 228.70
  C 165.59 231.80 168.91 235.72 172.72 236.40
  Q 173.29 236.50 173.44 237.05
  Q 181.27 266.13 198.08 290.29
  Q 198.37 290.71 198.39 291.23
  Q 198.98 304.54 196.75 317.35
  L 193.61 321.40
  Q 176.05 320.47 158.74 319.32
  Q 154.16 319.02 151.30 317.73
  Q 146.77 315.70 142.65 310.97
  Q 126.34 292.30 124.75 267.50
  Q 124.03 256.30 125.79 237.46
  C 129.08 205.14 136.93 172.28 151.12 143.10
  C 159.21 126.48 173.43 105.33 193.28 102.80
  Q 193.95 102.71 194.40 102.20
  C 213.13 80.34 242.83 76.01 269.39 85.21
  Z"
/>
<path fill="#587d38" d="
  M 321.64 125.39
  L 368.66 172.31
  L 497.14 300.84
  Q 497.46 301.16 497.92 301.14
  Q 498.69 301.10 498.67 301.99
  Q 498.65 302.95 499.00 303.62
  L 499.00 498.00
  L 435.22 498.00
  Q 422.87 456.75 410.24 415.48
  Q 404.15 395.58 396.09 377.70
  C 391.32 367.13 385.47 356.45 377.32 348.51
  Q 372.91 344.20 367.76 343.27
  Q 354.36 340.84 341.48 338.38
  Q 330.73 336.33 317.51 332.53
  Q 304.31 328.74 293.94 321.54
  Q 293.93 321.19 294.38 321.14
  Q 309.76 319.30 325.13 317.34
  Q 331.10 316.59 334.07 314.96
  Q 338.25 312.67 341.08 308.45
  C 349.81 295.43 353.56 278.08 355.01 262.71
  Q 359.28 217.15 345.45 174.00
  C 340.04 157.10 332.15 141.36 321.80 126.75
  Q 321.47 126.29 321.64 125.39
  Z"
/>
<path fill="#fdd2a8" d="
  M 289.46 318.87
  Q 289.68 319.24 289.56 319.69
  Q 289.38 320.35 289.64 320.99
  Q 291.79 326.27 289.27 332.12
  C 284.67 342.79 275.90 351.39 266.56 358.86
  Q 262.62 362.01 258.90 366.89
  Q 256.25 370.37 252.59 374.18
  Q 245.87 381.17 242.07 391.76
  Q 241.31 393.85 240.56 391.77
  Q 235.62 378.02 232.21 364.28
  C 230.92 359.10 226.92 356.71 222.73 354.15
  C 214.04 348.84 203.47 339.79 198.88 330.42
  Q 197.15 326.91 197.14 325.27
  Q 197.11 321.40 196.75 317.35
  Q 198.98 304.54 198.39 291.23
  Q 198.37 290.71 198.08 290.29
  Q 181.27 266.13 173.44 237.05
  Q 173.29 236.50 172.72 236.40
  C 168.91 235.72 165.59 231.80 163.70 228.70
  Q 156.49 216.91 155.87 202.12
  C 155.67 197.41 156.24 191.72 159.28 187.83
  A 0.82 0.81 -55.3 0 1 160.35 187.63
  C 163.76 189.70 166.14 192.86 167.77 196.54
  Q 168.16 197.44 168.19 196.46
  Q 168.35 191.73 168.63 186.86
  C 169.80 166.83 176.68 140.02 199.13 134.06
  Q 201.17 133.52 203.15 133.43
  A 1.41 1.41 0.0 0 1 204.27 133.93
  C 216.82 148.80 234.92 159.01 253.49 164.99
  C 267.49 169.49 281.42 173.06 295.21 178.31
  C 303.89 181.61 312.63 187.15 313.81 197.15
  Q 313.95 198.34 314.52 197.28
  L 320.34 186.46
  Q 320.62 185.95 321.18 186.04
  C 326.15 186.82 327.73 193.41 327.95 197.60
  Q 328.78 213.69 320.93 227.56
  C 318.82 231.28 315.51 235.49 311.15 236.44
  Q 310.59 236.56 310.45 237.11
  Q 302.58 266.80 284.88 291.67
  Q 284.58 292.08 284.57 292.59
  Q 284.15 304.98 288.31 317.00
  Q 288.68 318.08 289.46 318.87
  Z"
/>
<path fill="#84b64e" d="
  M 125.79 237.46
  Q 124.03 256.30 124.75 267.50
  Q 126.34 292.30 142.65 310.97
  Q 146.77 315.70 151.30 317.73
  Q 154.16 319.02 158.74 319.32
  Q 176.05 320.47 193.61 321.40
  L 191.00 327.41
  Q 179.24 334.99 165.57 337.95
  C 150.14 341.30 135.32 343.71 118.55 346.73
  C 115.21 347.33 112.28 348.39 109.57 350.54
  Q 103.31 355.51 98.36 363.27
  C 89.52 377.13 83.58 392.91 78.83 408.77
  Q 65.58 453.10 53.93 498.00
  L 0.00 498.00
  L 0.00 362.30
  L 124.02 238.30
  A 0.40 0.39 50.2 0 1 124.62 238.36
  Q 124.72 238.50 124.87 238.59
  Q 125.54 238.96 125.22 238.26
  Q 124.78 237.34 125.79 237.46
  Z"
/>
<path fill="#f9fafb" d="
  M 196.75 317.35
  Q 197.11 321.40 197.14 325.27
  Q 197.15 326.91 198.88 330.42
  C 203.47 339.79 214.04 348.84 222.73 354.15
  C 226.92 356.71 230.92 359.10 232.21 364.28
  Q 235.62 378.02 240.56 391.77
  Q 241.31 393.85 242.07 391.76
  Q 245.87 381.17 252.59 374.18
  Q 256.25 370.37 258.90 366.89
  Q 262.62 362.01 266.56 358.86
  C 275.90 351.39 284.67 342.79 289.27 332.12
  Q 291.79 326.27 289.64 320.99
  Q 289.38 320.35 289.56 319.69
  Q 289.68 319.24 289.46 318.87
  Q 290.43 318.84 290.92 319.56
  Q 291.74 320.79 292.90 321.75
  C 299.14 332.34 301.82 344.79 303.57 356.86
  Q 305.96 373.37 306.67 393.85
  Q 306.77 396.74 307.11 399.60
  Q 307.29 401.09 306.66 399.73
  Q 305.69 397.66 304.46 395.82
  Q 298.90 387.47 290.59 378.58
  A 0.45 0.44 -64.1 0 0 289.82 378.85
  Q 286.98 413.85 278.85 448.92
  Q 273.00 474.10 263.74 498.00
  L 228.21 498.00
  C 213.69 460.00 204.16 419.94 198.62 379.71
  A 0.37 0.37 0.0 0 0 197.98 379.52
  Q 192.17 386.37 187.45 393.63
  Q 186.96 394.39 186.88 393.49
  Q 185.39 376.24 186.52 356.01
  Q 187.39 340.26 191.00 327.41
  L 193.61 321.40
  L 196.75 317.35
  Z"
/>
<path fill="#555555" d="
  M 293.94 321.54
  Q 304.31 328.74 317.51 332.53
  Q 330.73 336.33 341.48 338.38
  Q 354.36 340.84 367.76 343.27
  Q 372.91 344.20 377.32 348.51
  C 385.47 356.45 391.32 367.13 396.09 377.70
  Q 404.15 395.58 410.24 415.48
  Q 422.87 456.75 435.22 498.00
  L 263.74 498.00
  Q 273.00 474.10 278.85 448.92
  Q 286.98 413.85 289.82 378.85
  A 0.45 0.44 -64.1 0 1 290.59 378.58
  Q 298.90 387.47 304.46 395.82
  Q 305.69 397.66 306.66 399.73
  Q 307.29 401.09 307.11 399.60
  Q 306.77 396.74 306.67 393.85
  Q 305.96 373.37 303.57 356.86
  C 301.82 344.79 299.14 332.34 292.90 321.75
  Q 293.47 321.78 293.94 321.54
  Z"
/>
<path fill="#555555" d="
  M 191.00 327.41
  Q 187.39 340.26 186.52 356.01
  Q 185.39 376.24 186.88 393.49
  Q 186.96 394.39 187.45 393.63
  Q 192.17 386.37 197.98 379.52
  A 0.37 0.37 0.0 0 1 198.62 379.71
  C 204.16 419.94 213.69 460.00 228.21 498.00
  L 53.93 498.00
  Q 65.58 453.10 78.83 408.77
  C 83.58 392.91 89.52 377.13 98.36 363.27
  Q 103.31 355.51 109.57 350.54
  C 112.28 348.39 115.21 347.33 118.55 346.73
  C 135.32 343.71 150.14 341.30 165.57 337.95
  Q 179.24 334.99 191.00 327.41
  Z"
/>
</svg>
