<?xml version="1.0" encoding="UTF-8" standalone="no"?>
<!DOCTYPE svg PUBLIC "-//W3C//DTD SVG 1.1//EN" "http://www.w3.org/Graphics/SVG/1.1/DTD/svg11.dtd">
<svg xmlns="http://www.w3.org/2000/svg" version="1.1" viewBox="0.00 0.00 1939.00 480.00">
<path fill="#b6e1f6" d="
  M 445.89 296.44
  Q 426.78 298.10 407.48 297.13
  Q 405.73 297.05 404.00 296.72
  C 401.23 296.19 398.35 296.39 395.43 296.03
  Q 375.03 293.49 354.31 287.69
  Q 345.24 285.14 335.47 281.03
  Q 285.90 260.14 244.73 229.27
  Q 221.95 212.19 201.81 190.31
  C 199.81 188.13 198.02 185.81 195.93 183.71
  Q 193.64 181.42 191.48 178.87
  Q 185.41 171.72 178.89 165.21
  Q 161.83 146.83 150.16 130.82
  C 139.52 116.21 127.26 96.37 113.79 79.22
  Q 113.41 78.74 113.96 78.47
  Q 115.37 77.77 116.84 77.32
  Q 137.33 71.07 159.73 70.13
  C 215.17 67.81 268.80 85.79 316.79 113.94
  Q 324.76 118.61 333.11 125.01
  Q 368.98 152.51 398.47 180.71
  C 411.67 193.34 424.28 207.01 435.54 221.67
  Q 460.50 254.17 484.10 285.69
  Q 484.44 286.14 483.93 286.37
  Q 465.94 294.34 445.89 296.44
  Z"
/>
<path fill="#71ccf2" d="
  M 178.89 165.21
  Q 185.41 171.72 191.48 178.87
  Q 193.64 181.42 195.93 183.71
  C 198.02 185.81 199.81 188.13 201.81 190.31
  Q 221.95 212.19 244.73 229.27
  Q 285.90 260.14 335.47 281.03
  Q 345.24 285.14 354.31 287.69
  Q 375.03 293.49 395.43 296.03
  C 398.35 296.39 401.23 296.19 404.00 296.72
  Q 405.73 297.05 407.48 297.13
  Q 426.78 298.10 445.89 296.44
  L 483.47 332.55
  A 0.67 0.67 0.0 0 1 483.38 333.59
  Q 471.73 341.32 458.74 345.70
  Q 441.41 351.69 424.25 354.46
  Q 410.15 356.73 394.92 357.19
  Q 392.56 357.26 390.12 357.54
  Q 387.70 357.82 385.25 357.56
  Q 382.31 357.23 379.11 357.11
  Q 357.69 356.30 343.25 353.31
  Q 304.41 345.25 262.90 327.15
  Q 230.22 312.90 201.21 292.51
  Q 194.89 288.07 185.34 280.35
  Q 165.52 264.33 145.99 248.48
  Q 131.15 236.08 118.24 222.23
  C 106.62 209.75 95.63 197.49 83.10 186.19
  A 0.40 0.39 -38.3 0 1 83.18 185.55
  Q 90.59 181.41 98.84 178.31
  Q 119.31 170.62 141.26 167.62
  Q 159.84 165.08 178.89 165.21
  Z"
/>
<path fill="#b5b5b5" d="
  M 732.10 249.06
  C 742.60 238.05 757.49 229.72 772.92 230.79
  C 794.35 232.28 796.22 253.80 796.21 270.52
  Q 796.19 297.18 796.48 321.09
  Q 796.49 321.65 797.04 321.76
  L 811.32 324.61
  Q 811.50 324.64 811.50 324.83
  L 811.49 332.00
  Q 811.49 332.25 811.25 332.25
  L 763.75 332.25
  Q 763.25 332.25 763.25 331.75
  L 763.25 325.20
  Q 763.25 324.64 763.80 324.54
  L 778.51 321.87
  Q 779.04 321.77 779.05 321.24
  C 779.55 304.10 779.24 286.06 779.17 266.25
  C 779.14 256.82 776.51 246.86 765.62 245.66
  C 752.70 244.23 742.09 250.07 732.59 258.75
  Q 732.19 259.11 732.19 259.64
  L 732.37 320.89
  Q 732.38 321.67 733.14 321.83
  L 747.11 324.62
  Q 747.24 324.65 747.24 324.78
  L 747.25 332.00
  Q 747.25 332.25 747.00 332.25
  L 699.25 332.25
  Q 699.00 332.25 699.00 332.00
  L 699.01 324.81
  Q 699.01 324.62 699.20 324.59
  L 714.37 321.86
  Q 714.91 321.76 714.93 321.21
  Q 715.08 316.16 715.11 311.26
  Q 715.41 254.22 715.20 197.45
  Q 715.19 196.97 714.71 196.91
  L 698.57 194.96
  Q 698.00 194.89 698.00 194.32
  L 698.00 188.24
  A 1.08 1.07 -8.4 0 1 698.77 187.21
  L 728.94 178.17
  Q 729.46 178.02 729.94 178.29
  L 731.80 179.39
  Q 732.45 179.77 732.42 180.52
  Q 731.13 214.33 731.55 248.84
  Q 731.56 249.63 732.10 249.06
  Z"
/>
<path fill="#b5b5b5" d="
  M 1235.85 204.03
  C 1221.45 196.30 1194.82 199.31 1191.42 218.92
  C 1187.48 241.69 1209.21 248.18 1225.51 254.40
  Q 1238.88 259.51 1248.47 267.54
  Q 1259.14 276.47 1260.54 290.62
  Q 1262.67 312.20 1246.93 324.69
  C 1239.46 330.62 1229.35 333.87 1219.89 334.81
  Q 1194.47 337.32 1171.63 324.57
  Q 1171.19 324.32 1171.21 323.81
  L 1172.41 295.53
  Q 1172.44 294.75 1173.22 294.75
  L 1184.56 294.75
  Q 1185.13 294.75 1185.22 295.31
  L 1189.12 318.49
  A 1.64 1.63 9.3 0 0 1189.98 319.68
  Q 1200.89 325.49 1215.24 324.46
  C 1229.98 323.40 1243.13 316.36 1243.76 299.88
  C 1244.26 286.94 1234.99 280.15 1224.27 275.67
  Q 1215.46 271.98 1206.29 268.33
  C 1186.37 260.41 1171.07 245.57 1174.33 222.28
  C 1177.09 202.63 1194.19 191.94 1213.07 189.89
  Q 1236.26 187.38 1253.65 199.84
  Q 1254.62 200.53 1254.56 201.74
  Q 1253.92 214.57 1253.39 227.18
  A 0.59 0.59 0.0 0 1 1252.80 227.75
  L 1241.21 227.75
  Q 1240.65 227.75 1240.54 227.20
  L 1236.39 204.76
  A 1.08 1.08 0.0 0 0 1235.85 204.03
  Z"
/>
<path fill="#b5b5b5" d="
  M 641.26 203.25
  Q 640.36 203.25 640.35 204.15
  Q 639.80 252.57 640.04 297.70
  C 640.04 298.64 640.28 299.54 640.27 300.50
  Q 640.13 310.46 640.40 320.67
  Q 640.41 321.28 641.02 321.34
  L 661.79 323.56
  Q 662.00 323.58 662.00 323.79
  L 662.00 332.00
  Q 662.00 332.25 661.75 332.25
  L 599.50 332.25
  Q 599.25 332.25 599.25 332.00
  L 599.25 323.79
  Q 599.25 323.58 599.46 323.56
  L 620.25 321.33
  A 0.61 0.60 85.5 0 0 620.79 320.69
  C 620.60 317.39 620.93 314.11 620.94 310.86
  Q 621.08 266.39 621.01 217.91
  C 621.01 213.26 620.65 208.48 620.75 203.77
  Q 620.76 203.25 620.24 203.25
  L 589.22 203.25
  Q 588.68 203.25 588.58 203.78
  L 584.02 229.17
  Q 583.92 229.75 583.33 229.75
  L 572.64 229.75
  Q 572.03 229.75 572.06 229.14
  L 573.68 193.14
  Q 573.71 192.50 574.35 192.50
  L 686.97 192.50
  Q 687.44 192.50 687.46 192.97
  L 689.08 229.07
  Q 689.11 229.75 688.43 229.75
  L 677.74 229.74
  A 0.61 0.61 0.0 0 1 677.14 229.24
  L 672.53 203.59
  A 0.42 0.41 -4.9 0 0 672.12 203.25
  L 641.26 203.25
  Z"
/>
<path fill="#b5b5b5" d="
  M 859.90 255.61
  C 865.52 241.62 879.89 225.74 896.92 232.18
  Q 901.02 233.73 903.67 237.23
  Q 903.94 237.59 903.95 238.05
  C 904.11 244.68 901.90 251.89 894.51 252.88
  C 887.49 253.83 881.93 251.02 877.12 246.25
  Q 876.72 245.85 876.27 246.20
  C 868.58 252.33 863.68 260.27 860.19 270.11
  Q 859.23 272.81 859.23 275.56
  Q 859.20 301.00 859.58 321.02
  Q 859.59 321.47 860.04 321.56
  L 876.81 324.60
  Q 876.99 324.63 876.99 324.82
  L 877.00 332.00
  Q 877.00 332.25 876.75 332.25
  L 827.25 332.25
  Q 826.75 332.25 826.75 331.75
  L 826.75 325.20
  Q 826.75 324.63 827.30 324.53
  L 840.78 322.09
  Q 842.24 321.82 842.24 320.33
  Q 842.17 307.23 842.40 295.88
  Q 842.80 276.13 841.86 253.46
  Q 841.82 252.47 840.83 252.36
  L 825.82 250.70
  Q 825.25 250.64 825.25 250.07
  L 825.25 243.73
  Q 825.25 243.09 825.84 242.83
  L 852.07 231.25
  A 3.46 3.46 0.0 0 1 856.91 234.08
  L 858.97 255.47
  Q 859.16 257.45 859.90 255.61
  Z"
/>
<path fill="#b5b5b5" d="
  M 930.45 282.83
  C 930.59 298.76 936.87 314.82 952.60 319.65
  C 969.14 324.73 982.35 319.43 993.12 306.99
  Q 993.44 306.62 993.82 306.93
  L 997.89 310.15
  A 0.79 0.79 0.0 0 1 998.10 311.14
  C 987.93 330.35 969.13 337.74 948.41 333.87
  C 930.14 330.46 918.07 317.42 914.14 299.58
  C 910.12 281.32 912.90 260.54 925.51 246.31
  C 936.23 234.19 951.35 228.83 967.35 231.26
  C 992.23 235.04 1002.28 259.06 997.31 281.57
  A 0.87 0.86 -83.7 0 1 996.47 282.25
  L 931.01 282.25
  Q 930.44 282.25 930.45 282.83
  Z
  M 930.75 272.78
  Q 930.70 273.26 931.18 273.26
  Q 950.89 273.25 970.72 273.25
  C 976.22 273.26 981.26 270.84 981.74 264.64
  C 982.33 256.97 979.05 249.75 973.02 245.14
  C 960.97 235.96 945.28 240.33 937.35 252.68
  Q 932.15 260.77 930.75 272.78
  Z"
/>
<path fill="#b5b5b5" d="
  M 1036.42 282.85
  C 1036.61 298.65 1042.76 314.65 1058.45 319.60
  C 1074.84 324.78 1088.39 319.50 1099.10 307.00
  A 0.53 0.52 38.9 0 1 1099.82 306.93
  L 1103.89 310.15
  Q 1104.38 310.54 1104.10 311.09
  C 1096.14 326.47 1082.38 334.60 1065.29 334.80
  C 1050.35 334.98 1036.85 329.73 1028.05 317.58
  C 1018.88 304.92 1016.85 287.19 1019.49 272.02
  Q 1023.24 250.44 1040.55 238.36
  C 1052.56 229.97 1069.67 228.17 1083.27 234.25
  C 1101.57 242.43 1107.19 262.64 1103.39 281.35
  A 1.12 1.12 0.0 0 1 1102.29 282.25
  L 1037.02 282.25
  Q 1036.42 282.25 1036.42 282.85
  Z
  M 1036.75 272.83
  Q 1036.70 273.24 1037.12 273.24
  Q 1057.35 273.29 1077.05 273.21
  C 1084.53 273.18 1088.58 268.75 1087.78 261.37
  Q 1086.74 251.75 1080.60 246.38
  C 1066.80 234.30 1048.30 241.06 1040.99 256.94
  Q 1037.80 263.85 1036.75 272.83
  Z"
/>
<path fill="#b5b5b5" d="
  M 1296.43 282.85
  C 1296.61 298.68 1302.89 314.89 1318.55 319.65
  C 1335.02 324.65 1348.53 319.50 1359.11 306.98
  A 0.50 0.50 0.0 0 1 1359.80 306.91
  L 1363.79 310.07
  Q 1364.39 310.55 1364.04 311.22
  C 1356.10 326.38 1342.68 334.38 1325.89 334.80
  C 1302.68 335.38 1285.08 322.26 1280.10 299.48
  C 1276.53 283.15 1278.43 264.49 1288.08 250.75
  C 1298.17 236.39 1314.06 228.91 1331.61 230.99
  C 1357.50 234.07 1368.50 258.16 1363.31 281.56
  Q 1363.16 282.25 1362.45 282.25
  L 1297.02 282.25
  Q 1296.42 282.25 1296.43 282.85
  Z
  M 1296.73 272.97
  A 0.25 0.25 0.0 0 0 1296.98 273.25
  Q 1316.17 273.25 1335.81 273.25
  C 1341.67 273.25 1347.34 271.39 1347.77 264.47
  C 1349.06 243.97 1325.28 233.08 1309.66 245.69
  C 1301.45 252.31 1298.01 262.43 1296.73 272.97
  Z"
/>
<path fill="#b5b5b5" d="
  M 1440.47 269.91
  Q 1440.82 259.51 1439.12 252.17
  Q 1436.76 241.98 1426.60 240.60
  Q 1418.69 239.53 1410.15 241.49
  Q 1409.42 241.66 1409.22 242.38
  Q 1406.96 250.42 1404.64 257.26
  C 1403.43 260.82 1400.83 263.82 1396.98 264.54
  C 1392.07 265.46 1386.81 263.70 1385.52 258.53
  Q 1384.94 256.19 1385.82 253.78
  C 1391.10 239.32 1404.62 232.21 1419.48 230.93
  Q 1430.48 229.98 1438.55 232.31
  C 1454.05 236.78 1457.31 251.87 1457.28 265.94
  Q 1457.23 287.82 1457.24 309.89
  C 1457.24 315.35 1457.94 324.34 1465.96 323.26
  Q 1469.92 322.73 1472.83 318.75
  A 0.16 0.15 41.8 0 1 1473.07 318.74
  L 1477.08 323.18
  A 0.45 0.45 0.0 0 1 1477.13 323.71
  C 1471.78 332.23 1463.90 336.00 1454.30 333.56
  Q 1443.85 330.90 1441.01 318.98
  A 0.35 0.35 0.0 0 0 1440.42 318.81
  C 1434.99 324.30 1428.07 330.79 1421.02 333.08
  C 1400.72 339.68 1378.66 327.46 1382.93 303.69
  C 1384.79 293.27 1395.27 286.61 1404.35 282.45
  Q 1420.56 275.04 1439.90 270.60
  Q 1440.45 270.47 1440.47 269.91
  Z
  M 1400.34 306.55
  C 1400.65 315.14 1405.74 319.97 1414.16 320.93
  Q 1422.02 321.82 1428.98 317.50
  Q 1434.85 313.87 1440.10 310.00
  A 0.97 0.96 -18.1 0 0 1440.50 309.22
  L 1440.50 278.75
  A 0.27 0.27 0.0 0 0 1440.16 278.49
  C 1430.04 281.28 1418.69 284.71 1410.03 290.21
  C 1404.14 293.94 1400.08 299.09 1400.34 306.55
  Z"
/>
<path fill="#b5b5b5" d="
  M 1503.93 322.29
  Q 1514.64 326.49 1527.01 324.74
  C 1536.33 323.43 1544.26 318.19 1543.24 307.65
  C 1542.46 299.59 1534.92 295.32 1527.98 292.68
  Q 1520.00 289.65 1512.09 286.68
  C 1497.72 281.27 1486.39 270.75 1489.95 253.95
  C 1492.28 242.96 1501.46 235.12 1512.07 232.38
  Q 1533.51 226.84 1553.52 238.73
  Q 1554.21 239.14 1554.18 239.93
  L 1553.41 259.93
  Q 1553.39 260.50 1552.82 260.50
  L 1543.40 260.50
  Q 1542.80 260.50 1542.68 259.91
  L 1539.59 244.50
  A 1.43 1.43 0.0 0 0 1538.82 243.50
  Q 1528.06 238.31 1516.63 241.27
  C 1508.18 243.45 1504.10 250.04 1505.93 258.31
  C 1507.10 263.60 1511.49 266.82 1516.28 268.91
  Q 1523.48 272.04 1531.96 275.07
  C 1545.20 279.79 1559.24 288.23 1559.78 303.96
  C 1560.42 322.56 1544.30 332.38 1527.83 334.32
  Q 1507.20 336.76 1489.54 327.28
  Q 1488.66 326.81 1488.63 325.82
  L 1487.90 304.63
  Q 1487.87 304.00 1488.50 304.00
  L 1498.54 304.00
  Q 1499.11 304.00 1499.23 304.55
  L 1503.03 321.24
  Q 1503.20 322.01 1503.93 322.29
  Z"
/>
<path fill="#b5b5b5" d="
  M 1579.42 299.25
  C 1574.33 278.73 1578.60 254.05 1596.03 240.56
  C 1616.09 225.04 1645.82 227.89 1661.69 248.55
  C 1671.86 261.78 1674.40 279.88 1671.23 296.18
  C 1667.55 315.09 1654.63 329.17 1635.69 333.62
  C 1624.48 336.26 1611.20 334.52 1601.18 328.69
  Q 1584.29 318.87 1579.42 299.25
  Z
  M 1614.80 242.14
  C 1597.05 249.32 1595.71 274.21 1596.64 290.13
  C 1597.53 305.41 1603.09 321.90 1619.73 324.79
  Q 1627.58 326.16 1634.59 323.57
  C 1650.94 317.53 1653.72 296.71 1653.54 281.87
  C 1653.34 265.33 1648.94 243.93 1629.64 240.62
  Q 1621.86 239.29 1614.80 242.14
  Z"
/>
<path fill="#b5b5b5" d="
  M 1723.08 248.65
  C 1733.37 238.01 1747.56 229.93 1762.51 230.73
  C 1784.48 231.91 1786.47 253.40 1786.46 270.52
  Q 1786.45 297.12 1786.74 320.97
  Q 1786.75 321.66 1787.43 321.79
  L 1801.20 324.53
  Q 1801.75 324.64 1801.75 325.21
  L 1801.75 331.75
  Q 1801.75 332.25 1801.25 332.25
  L 1754.13 332.25
  Q 1753.50 332.25 1753.50 331.63
  L 1753.50 325.20
  Q 1753.50 324.64 1754.05 324.54
  L 1768.68 321.88
  Q 1769.21 321.78 1769.22 321.25
  Q 1769.27 317.54 1769.31 314.25
  Q 1769.58 291.94 1769.45 264.51
  Q 1769.43 261.40 1768.05 256.38
  C 1766.18 249.54 1761.70 245.88 1754.40 245.49
  C 1742.14 244.84 1733.06 250.38 1723.87 257.83
  A 1.92 1.90 70.6 0 0 1723.17 259.31
  L 1723.45 321.17
  Q 1723.46 321.64 1723.92 321.73
  L 1737.95 324.54
  Q 1738.50 324.65 1738.50 325.21
  L 1738.50 331.75
  Q 1738.49 332.25 1738.00 332.25
  L 1691.00 332.25
  A 0.50 0.50 0.0 0 1 1690.50 331.75
  L 1690.50 325.20
  Q 1690.50 324.63 1691.06 324.53
  L 1704.98 321.97
  Q 1706.25 321.73 1706.24 320.45
  Q 1706.12 307.12 1706.39 295.96
  Q 1706.83 277.51 1705.85 253.48
  Q 1705.80 252.47 1704.80 252.36
  L 1689.82 250.70
  Q 1689.25 250.64 1689.25 250.07
  L 1689.25 243.73
  Q 1689.25 243.09 1689.84 242.83
  L 1715.95 231.30
  A 3.57 3.57 0.0 0 1 1720.94 234.20
  L 1722.39 248.41
  Q 1722.47 249.28 1723.08 248.65
  Z"
/>
<path fill="#b5b5b5" d="
  M 1833.66 322.11
  Q 1846.48 327.22 1860.26 324.09
  C 1868.39 322.24 1874.09 316.53 1873.23 307.58
  C 1872.56 300.74 1866.75 296.36 1860.87 293.91
  Q 1852.85 290.58 1844.15 287.49
  C 1837.00 284.95 1828.30 280.39 1824.09 274.38
  Q 1815.60 262.28 1821.90 248.28
  C 1826.72 237.57 1838.55 231.89 1850.23 230.88
  Q 1868.60 229.30 1883.80 239.02
  Q 1884.20 239.28 1884.19 239.76
  L 1883.41 259.93
  Q 1883.39 260.50 1882.82 260.50
  L 1873.40 260.50
  Q 1872.80 260.50 1872.68 259.91
  L 1869.58 244.45
  A 1.32 1.30 -83.2 0 0 1868.87 243.53
  Q 1858.65 238.56 1847.59 241.02
  C 1838.85 242.96 1834.24 249.16 1835.81 257.72
  C 1837.04 264.43 1843.25 267.99 1849.19 270.21
  Q 1862.41 275.15 1868.45 277.76
  Q 1874.01 280.17 1879.51 284.45
  C 1891.61 293.84 1893.33 310.63 1883.39 322.26
  C 1878.29 328.22 1870.56 331.93 1862.91 333.47
  Q 1840.02 338.05 1819.58 327.33
  Q 1818.67 326.85 1818.63 325.82
  L 1817.89 304.56
  Q 1817.87 304.00 1818.43 304.00
  L 1828.54 304.00
  Q 1829.11 304.00 1829.23 304.55
  L 1833.07 321.42
  Q 1833.18 321.92 1833.66 322.11
  Z"
/>
<path fill="#00aceb" d="
  M 145.99 248.48
  Q 165.52 264.33 185.34 280.35
  Q 194.89 288.07 201.21 292.51
  Q 230.22 312.90 262.90 327.15
  Q 304.41 345.25 343.25 353.31
  Q 357.69 356.30 379.11 357.11
  Q 382.31 357.23 385.25 357.56
  Q 387.70 357.82 390.12 357.54
  Q 392.56 357.26 394.92 357.19
  Q 410.15 356.73 424.25 354.46
  Q 441.41 351.69 458.74 345.70
  L 483.82 363.00
  A 0.53 0.53 0.0 0 1 483.88 363.83
  Q 475.81 371.32 465.74 377.60
  C 440.73 393.20 410.62 401.90 380.81 405.44
  C 368.33 406.92 355.44 407.92 342.80 407.05
  Q 286.38 403.19 235.93 386.37
  Q 207.70 376.96 185.48 364.72
  Q 163.42 352.56 140.52 339.29
  C 127.52 331.75 115.10 323.63 103.24 314.62
  C 89.49 304.19 76.08 293.35 61.53 284.06
  A 0.62 0.62 0.0 0 1 61.49 283.04
  C 86.20 264.69 115.76 253.86 145.99 248.48
  Z"
/>
</svg>
