<?xml version="1.0" encoding="UTF-8" standalone="no"?>
<!DOCTYPE svg PUBLIC "-//W3C//DTD SVG 1.1//EN" "http://www.w3.org/Graphics/SVG/1.1/DTD/svg11.dtd">
<svg xmlns="http://www.w3.org/2000/svg" version="1.1" viewBox="0.00 0.00 775.00 750.00">
<path fill="#b9e4f9" d="
  M 347.32 130.49
  Q 348.59 131.27 349.93 131.51
  L 351.72 132.02
  L 354.20 133.50
  Q 354.49 133.68 354.19 133.83
  Q 353.90 133.98 353.55 133.62
  Q 353.50 133.57 353.48 133.64
  Q 353.46 133.70 353.40 133.67
  Q 353.30 133.61 353.44 133.69
  Q 355.92 135.16 358.51 136.08
  L 370.95 140.66
  Q 373.10 141.20 375.46 141.79
  Q 375.55 141.81 375.54 141.90
  Q 375.52 141.95 375.48 141.98
  Q 375.31 142.09 375.49 142.19
  Q 379.18 144.27 382.99 145.80
  L 388.10 148.00
  L 390.48 149.29
  Q 393.25 151.51 396.46 152.81
  Q 396.52 152.83 396.76 152.99
  Q 397.12 153.23 397.80 152.99
  Q 398.33 153.74 399.17 153.82
  Q 399.64 153.87 399.99 154.20
  Q 400.56 154.74 401.47 154.45
  Q 402.87 155.23 403.79 155.97
  Q 404.45 156.51 405.57 156.41
  Q 406.48 157.65 409.13 157.88
  Q 408.98 158.08 409.82 158.52
  Q 409.76 158.65 409.74 158.78
  A 0.38 0.36 24.2 0 0 409.87 159.10
  Q 412.33 161.08 415.58 161.19
  L 424.60 165.92
  Q 423.66 165.36 423.01 165.25
  Q 422.39 165.16 422.81 165.62
  Q 424.08 167.02 426.01 167.50
  Q 427.56 169.75 429.52 169.54
  Q 429.93 170.41 430.96 170.84
  Q 431.42 171.03 431.80 171.34
  Q 432.65 172.05 433.85 172.21
  Q 435.29 173.85 437.09 174.17
  Q 439.13 176.33 441.79 176.91
  Q 443.29 177.90 445.12 178.38
  Q 446.03 178.61 447.88 180.18
  L 444.00 179.36
  Q 443.53 179.26 443.16 178.95
  Q 442.57 178.47 441.80 178.57
  Q 441.11 178.65 441.64 179.10
  Q 442.84 180.11 444.52 180.27
  Q 444.95 180.31 445.25 180.61
  Q 446.56 181.94 448.56 182.06
  A 1.02 1.01 72.6 0 1 449.33 182.47
  Q 450.08 183.49 451.31 183.85
  Q 451.38 183.87 451.39 183.80
  Q 451.40 183.74 451.38 183.70
  Q 451.33 183.63 451.25 183.59
  Q 450.07 183.04 449.24 182.03
  Q 448.55 181.18 449.47 181.77
  Q 449.98 182.11 450.51 182.35
  Q 451.29 182.70 451.91 183.30
  Q 452.69 184.05 453.64 184.52
  Q 456.85 186.12 460.00 188.92
  Q 460.51 189.38 461.23 189.34
  Q 461.62 189.31 461.83 189.64
  Q 463.12 191.62 465.41 191.65
  Q 465.71 191.65 465.69 191.95
  Q 465.67 192.45 466.12 192.64
  Q 467.25 193.11 468.28 193.61
  Q 469.38 194.15 470.27 195.16
  Q 471.39 196.42 472.92 196.83
  Q 473.55 197.00 473.72 197.62
  Q 474.03 198.70 475.77 198.47
  L 478.07 200.09
  Q 478.46 200.36 478.72 200.75
  Q 479.08 201.29 479.79 201.42
  Q 480.27 201.50 480.60 201.86
  Q 481.34 202.66 482.26 203.06
  Q 484.58 205.56 487.73 206.61
  L 490.99 208.42
  Q 491.46 208.68 491.78 209.10
  C 492.37 209.89 493.35 210.01 494.16 210.71
  Q 496.84 213.03 499.46 215.05
  Q 499.97 216.11 502.33 216.94
  Q 502.50 217.18 502.82 217.34
  Q 503.28 217.55 503.35 218.05
  Q 503.51 219.11 504.41 219.74
  Q 504.71 219.95 504.71 219.58
  Q 504.72 219.44 504.91 219.42
  Q 505.37 219.36 505.55 219.78
  Q 506.00 220.82 507.16 221.13
  Q 507.66 221.27 507.87 221.74
  Q 508.13 222.29 508.75 222.34
  Q 509.24 222.37 509.59 222.73
  Q 511.05 224.28 512.10 226.15
  C 512.60 227.06 513.54 227.52 514.38 228.08
  Q 514.67 228.27 514.60 227.93
  Q 514.53 227.61 514.25 227.58
  Q 513.36 227.49 513.48 226.42
  L 515.78 227.78
  Q 516.92 229.77 518.93 230.49
  Q 519.38 232.09 521.78 232.72
  Q 521.76 232.93 521.75 233.08
  Q 521.73 233.32 521.94 233.42
  Q 523.09 234.01 523.94 235.01
  Q 525.08 236.34 526.78 237.46
  Q 527.18 237.72 527.74 237.45
  Q 528.05 238.55 529.27 239.11
  Q 531.07 239.94 533.03 241.89
  Q 533.57 242.43 533.95 243.06
  Q 534.35 243.73 535.01 244.19
  Q 535.33 244.41 535.38 244.03
  Q 535.41 243.83 535.50 243.74
  Q 535.85 243.81 536.06 244.79
  L 538.53 247.04
  Q 539.58 247.65 540.48 248.70
  Q 540.64 248.89 540.88 248.87
  Q 540.93 248.86 540.98 248.88
  Q 541.25 248.98 541.01 248.81
  Q 540.52 248.45 540.01 247.94
  A 0.25 0.25 0.0 0 1 540.01 247.58
  L 540.21 247.40
  Q 540.36 247.26 540.51 247.39
  C 541.69 248.41 542.44 249.28 544.07 249.63
  Q 545.30 249.90 546.54 251.14
  Q 546.61 251.20 546.56 251.12
  Q 546.52 251.06 546.49 251.12
  Q 546.46 251.20 546.40 251.13
  Q 546.14 250.80 545.85 250.87
  Q 545.26 251.01 545.57 251.53
  Q 546.35 252.83 547.58 253.56
  Q 547.82 253.70 547.83 253.98
  Q 547.85 254.39 548.17 254.66
  Q 549.48 255.76 550.86 256.77
  Q 552.27 257.80 553.32 259.07
  Q 554.67 260.72 555.94 262.14
  C 556.75 263.06 557.82 263.37 558.46 264.56
  Q 558.70 265.00 559.18 265.17
  L 560.03 265.47
  L 564.48 269.56
  Q 565.12 271.53 567.85 273.05
  L 571.20 275.83
  Q 571.58 276.14 571.68 276.62
  Q 571.85 277.44 572.60 277.35
  Q 574.23 278.65 575.73 280.15
  Q 575.91 280.33 575.75 280.52
  Q 575.64 280.66 575.61 280.82
  Q 575.56 281.10 575.85 281.12
  Q 576.10 281.13 576.30 281.26
  Q 576.23 281.40 576.19 281.53
  A 0.42 0.42 0.0 0 0 576.38 282.02
  L 579.15 283.64
  Q 579.38 284.16 579.77 284.98
  Q 579.87 285.19 580.07 285.29
  Q 580.76 285.63 579.90 284.96
  Q 579.79 284.87 579.77 284.75
  Q 579.55 283.73 580.35 284.47
  Q 585.76 289.40 591.40 294.08
  L 598.88 301.20
  Q 596.69 300.65 599.72 303.03
  Q 600.15 303.38 600.45 303.85
  Q 600.75 304.32 601.13 304.68
  Q 602.85 306.35 604.05 307.97
  Q 604.57 308.67 605.92 309.79
  Q 606.81 310.52 607.66 311.86
  Q 607.94 312.30 609.50 313.53
  Q 611.01 316.17 614.06 318.43
  Q 614.66 319.61 615.84 320.75
  Q 615.76 320.88 615.74 321.01
  Q 615.68 321.35 616.04 321.35
  Q 616.61 321.35 616.73 321.92
  Q 616.83 322.43 617.22 322.76
  L 623.31 328.02
  L 640.64 347.25
  Q 641.90 350.02 644.02 352.57
  Q 644.13 352.71 643.98 352.79
  Q 643.93 352.83 643.88 352.78
  Q 643.49 352.40 643.66 352.92
  Q 643.88 353.62 644.51 353.30
  Q 644.82 353.14 644.90 353.48
  Q 645.13 354.40 645.90 355.01
  Q 646.76 355.69 646.98 355.94
  Q 649.46 358.86 652.34 361.30
  L 673.27 386.20
  Q 674.33 389.47 677.29 391.27
  C 685.23 401.30 694.05 411.41 700.94 421.44
  C 710.48 435.33 719.76 449.01 729.40 462.57
  Q 736.47 472.50 742.85 482.20
  A 1.59 1.58 -21.0 0 1 741.76 484.64
  Q 735.85 485.51 729.94 487.20
  Q 714.55 491.60 694.66 495.06
  C 690.06 495.86 686.69 496.54 681.76 495.80
  Q 678.61 495.33 676.58 497.99
  Q 665.66 498.25 654.25 498.80
  Q 643.92 499.30 635.73 499.19
  Q 623.70 499.04 617.25 498.52
  Q 603.83 497.45 586.12 494.93
  C 574.02 493.21 561.98 490.75 549.80 488.67
  Q 545.26 487.89 541.03 486.75
  Q 511.06 478.66 473.68 464.89
  Q 464.78 461.61 455.39 457.12
  Q 431.25 445.57 424.29 441.88
  Q 409.55 434.06 391.79 423.45
  Q 382.62 417.98 374.85 412.78
  Q 358.67 401.96 342.94 391.40
  Q 334.81 385.93 327.27 379.64
  Q 311.62 366.56 296.26 354.32
  Q 288.49 348.12 281.04 340.92
  Q 262.23 322.72 244.33 306.10
  C 237.83 300.06 232.08 293.21 225.98 286.70
  Q 219.52 279.80 213.56 273.43
  Q 211.72 271.45 208.45 269.28
  Q 205.74 266.39 203.91 263.49
  Q 201.94 260.37 200.36 258.93
  Q 194.48 253.55 190.64 249.07
  C 182.70 239.79 175.45 229.39 167.68 219.71
  Q 148.89 196.29 140.62 184.70
  Q 120.96 157.11 99.53 126.71
  C 97.50 123.83 92.52 115.42 99.25 114.26
  Q 106.97 112.94 113.31 111.80
  Q 116.65 111.20 124.06 109.06
  Q 130.82 107.10 137.18 106.46
  Q 151.37 105.01 168.31 102.61
  Q 178.57 101.15 187.23 100.82
  Q 200.51 100.31 214.02 100.96
  Q 219.98 101.25 226.16 102.34
  C 230.53 103.11 234.85 103.18 239.19 104.10
  C 243.69 105.06 248.33 104.98 252.88 105.68
  Q 265.25 107.57 277.47 110.37
  Q 285.03 112.10 292.64 113.54
  Q 298.33 114.61 303.86 116.38
  Q 309.12 118.06 314.92 119.65
  Q 331.40 124.15 347.32 130.49
  Z
  M 421.65 164.74
  Q 419.99 163.87 418.24 163.26
  Q 417.04 162.83 418.05 163.61
  Q 420.68 165.63 421.63 165.25
  Q 422.18 165.02 421.65 164.74
  Z"
/>
<path fill="#00afee" d="
  M 349.93 131.51
  Q 348.59 131.27 347.32 130.49
  Q 348.20 130.53 349.24 130.34
  Q 350.02 130.20 349.93 131.51
  Z"
/>
<path fill="#00afee" d="
  M 351.72 132.02
  Q 355.60 133.69 359.58 134.94
  Q 360.81 135.32 363.17 136.58
  Q 364.95 137.53 367.00 137.87
  Q 368.10 138.06 369.71 139.52
  Q 365.53 138.71 363.76 137.56
  Q 360.75 135.62 357.26 134.86
  Q 357.11 134.83 357.07 134.97
  L 357.07 134.98
  Q 357.03 135.13 357.18 135.16
  Q 358.14 135.38 358.51 136.08
  Q 355.92 135.16 353.44 133.69
  Q 353.30 133.61 353.40 133.67
  Q 353.46 133.70 353.48 133.64
  Q 353.50 133.57 353.55 133.62
  Q 353.90 133.98 354.19 133.83
  Q 354.49 133.68 354.20 133.50
  L 351.72 132.02
  Z"
/>
<path fill="#71cff5" d="
  M 369.71 139.52
  L 370.95 140.66
  L 358.51 136.08
  Q 358.14 135.38 357.18 135.16
  Q 357.03 135.13 357.07 134.98
  L 357.07 134.97
  Q 357.11 134.83 357.26 134.86
  Q 360.75 135.62 363.76 137.56
  Q 365.53 138.71 369.71 139.52
  Z"
/>
<path fill="#00afee" d="
  M 369.71 139.52
  Q 371.03 139.96 372.40 140.24
  Q 373.85 140.54 375.03 141.06
  Q 378.59 142.64 382.35 144.18
  A 0.49 0.45 -89.6 0 1 382.62 144.48
  Q 382.69 144.70 382.49 144.66
  Q 382.08 144.60 382.35 144.90
  Q 382.71 145.32 382.99 145.80
  Q 379.18 144.27 375.49 142.19
  Q 375.31 142.09 375.48 141.98
  Q 375.52 141.95 375.54 141.90
  Q 375.55 141.81 375.46 141.79
  Q 373.10 141.20 370.95 140.66
  L 369.71 139.52
  Z"
/>
<path fill="#00afee" d="
  M 388.10 148.00
  Q 390.54 148.27 392.58 149.64
  L 390.48 149.29
  L 388.10 148.00
  Z"
/>
<path fill="#71cff5" d="
  M 390.48 149.29
  L 392.58 149.64
  L 395.78 151.09
  Q 395.94 151.57 396.74 151.90
  Q 396.78 151.91 396.76 151.95
  Q 396.70 152.07 396.57 152.10
  Q 396.25 152.20 396.58 152.15
  Q 397.06 152.09 397.57 152.42
  A 0.39 0.39 0.0 0 1 397.75 152.71
  Q 397.76 152.85 397.80 152.99
  Q 397.12 153.23 396.76 152.99
  Q 396.52 152.83 396.46 152.81
  Q 393.25 151.51 390.48 149.29
  Z"
/>
<path fill="#00afee" d="
  M 395.78 151.09
  L 400.65 153.44
  Q 401.12 153.66 400.61 153.76
  Q 400.44 153.80 400.21 153.82
  Q 399.01 152.66 397.80 152.99
  Q 397.76 152.85 397.75 152.71
  A 0.39 0.39 0.0 0 0 397.57 152.42
  Q 397.06 152.09 396.58 152.15
  Q 396.25 152.20 396.57 152.10
  Q 396.70 152.07 396.76 151.95
  Q 396.78 151.91 396.74 151.90
  Q 395.94 151.57 395.78 151.09
  Z"
/>
<path fill="#71cff5" d="
  M 397.80 152.99
  Q 399.01 152.66 400.21 153.82
  Q 401.06 154.10 401.47 154.45
  Q 400.56 154.74 399.99 154.20
  Q 399.64 153.87 399.17 153.82
  Q 398.33 153.74 397.80 152.99
  Z"
/>
<path fill="#00afee" d="
  M 411.24 158.59
  Q 410.04 157.86 409.82 158.52
  Q 408.98 158.08 409.13 157.88
  Q 407.78 156.58 405.78 155.83
  Q 405.90 155.19 405.21 154.73
  A 0.37 0.36 55.8 0 0 404.93 154.67
  Q 404.70 154.72 404.66 154.54
  A 0.18 0.18 0.0 0 1 404.92 154.33
  Q 408.09 155.95 411.07 157.79
  Q 411.51 158.06 411.00 157.97
  Q 410.95 157.96 410.91 157.99
  Q 410.79 158.06 410.91 158.13
  Q 411.25 158.33 411.24 158.59
  Z"
/>
<path fill="#71cff5" d="
  M 405.78 155.83
  Q 407.78 156.58 409.13 157.88
  Q 406.48 157.65 405.57 156.41
  Q 404.39 156.33 403.93 155.47
  Q 403.66 154.95 404.23 155.08
  Q 405.12 155.29 405.78 155.83
  Z"
/>
<path fill="#71cff5" d="
  M 411.24 158.59
  L 415.58 161.19
  Q 412.33 161.08 409.87 159.10
  A 0.38 0.36 24.2 0 1 409.74 158.78
  Q 409.76 158.65 409.82 158.52
  Q 410.04 157.86 411.24 158.59
  Z"
/>
<path fill="#71cff5" d="
  M 421.65 164.74
  Q 422.18 165.02 421.63 165.25
  Q 420.68 165.63 418.05 163.61
  Q 417.04 162.83 418.24 163.26
  Q 419.99 163.87 421.65 164.74
  Z"
/>
<path fill="#71cff5" d="
  M 424.60 165.92
  Q 425.60 166.14 426.01 167.50
  Q 424.08 167.02 422.81 165.62
  Q 422.39 165.16 423.01 165.25
  Q 423.66 165.36 424.60 165.92
  Z"
/>
<path fill="#71cff5" d="
  M 426.01 167.50
  L 427.50 168.07
  A 0.67 0.67 0.0 0 1 427.83 168.34
  Q 428.32 169.10 429.26 168.92
  Q 429.59 168.86 429.52 169.54
  Q 427.56 169.75 426.01 167.50
  Z"
/>
<path fill="#71cff5" d="
  M 429.52 169.54
  Q 431.92 170.26 433.85 172.21
  Q 432.65 172.05 431.80 171.34
  Q 431.42 171.03 430.96 170.84
  Q 429.93 170.41 429.52 169.54
  Z"
/>
<path fill="#00afee" d="
  M 457.20 184.36
  L 447.88 180.18
  Q 446.03 178.61 445.12 178.38
  Q 443.29 177.90 441.79 176.91
  Q 439.50 174.90 437.01 173.25
  Q 436.62 172.99 436.19 173.24
  L 434.35 171.92
  Q 433.62 171.39 434.52 171.51
  Q 436.84 171.82 438.17 173.11
  Q 439.35 174.26 440.74 174.86
  Q 442.24 175.52 443.68 176.16
  Q 444.66 176.60 445.33 177.32
  Q 445.93 177.96 446.82 178.26
  Q 447.55 178.51 448.16 178.88
  Q 452.65 181.53 457.20 184.36
  Z"
/>
<path fill="#71cff5" d="
  M 436.19 173.24
  Q 436.62 172.99 437.01 173.25
  Q 439.50 174.90 441.79 176.91
  Q 439.13 176.33 437.09 174.17
  Q 436.26 173.60 436.19 173.24
  Z"
/>
<path fill="#71cff5" d="
  M 447.88 180.18
  L 457.20 184.36
  L 465.15 189.64
  L 475.77 198.47
  Q 474.03 198.70 473.72 197.62
  Q 473.55 197.00 472.92 196.83
  Q 471.39 196.42 470.27 195.16
  Q 469.38 194.15 468.28 193.61
  Q 467.25 193.11 466.12 192.64
  Q 465.67 192.45 465.69 191.95
  Q 465.71 191.65 465.41 191.65
  Q 463.12 191.62 461.83 189.64
  Q 461.62 189.31 461.23 189.34
  Q 460.51 189.38 460.00 188.92
  Q 456.85 186.12 453.64 184.52
  Q 452.69 184.05 451.91 183.30
  Q 451.29 182.70 450.51 182.35
  Q 449.98 182.11 449.47 181.77
  Q 448.55 181.18 449.24 182.03
  Q 450.07 183.04 451.25 183.59
  Q 451.33 183.63 451.38 183.70
  Q 451.40 183.74 451.39 183.80
  Q 451.38 183.87 451.31 183.85
  Q 450.08 183.49 449.33 182.47
  A 1.02 1.01 72.6 0 0 448.56 182.06
  Q 446.56 181.94 445.25 180.61
  Q 444.95 180.31 444.52 180.27
  Q 442.84 180.11 441.64 179.10
  Q 441.11 178.65 441.80 178.57
  Q 442.57 178.47 443.16 178.95
  Q 443.53 179.26 444.00 179.36
  L 447.88 180.18
  Z
  M 463.6814 189.2978
  A 1.54 0.30 39.9 0 0 462.6924 188.0799
  A 1.54 0.30 39.9 0 0 461.3186 187.3222
  A 1.54 0.30 39.9 0 0 462.3076 188.5401
  A 1.54 0.30 39.9 0 0 463.6814 189.2978
  Z"
/>
<path fill="#00afee" d="
  M 516.05 227.26
  Q 515.64 226.58 514.92 226.31
  Q 513.93 225.94 513.67 225.72
  Q 513.10 225.23 512.64 224.65
  Q 512.49 224.47 512.34 224.41
  Q 512.18 224.35 512.04 224.36
  Q 511.51 224.42 511.72 224.91
  Q 512.31 226.27 513.48 226.42
  Q 513.36 227.49 514.25 227.58
  Q 514.53 227.61 514.60 227.93
  Q 514.67 228.27 514.38 228.08
  C 513.54 227.52 512.60 227.06 512.10 226.15
  Q 511.05 224.28 509.59 222.73
  Q 509.24 222.37 508.75 222.34
  Q 508.13 222.29 507.87 221.74
  Q 507.66 221.27 507.16 221.13
  Q 506.00 220.82 505.55 219.78
  Q 505.37 219.36 504.91 219.42
  Q 504.72 219.44 504.71 219.58
  Q 504.71 219.95 504.41 219.74
  Q 503.51 219.11 503.35 218.05
  Q 503.28 217.55 502.82 217.34
  Q 502.50 217.18 502.33 216.94
  Q 501.24 215.12 499.46 215.05
  Q 496.84 213.03 494.16 210.71
  C 493.35 210.01 492.37 209.89 491.78 209.10
  Q 491.46 208.68 490.99 208.42
  L 487.73 206.61
  L 485.42 204.53
  Q 485.04 204.18 484.52 204.19
  Q 484.07 204.20 484.05 203.71
  A 0.73 0.71 17.6 0 0 483.75 203.15
  Q 483.01 202.63 482.26 203.06
  Q 481.34 202.66 480.60 201.86
  Q 480.27 201.50 479.79 201.42
  Q 479.08 201.29 478.72 200.75
  Q 478.46 200.36 478.07 200.09
  L 475.77 198.47
  L 465.15 189.64
  Q 466.67 190.08 467.78 191.28
  Q 467.84 191.34 467.89 191.28
  L 468.08 191.08
  Q 468.35 190.80 468.03 190.57
  L 463.48 187.26
  Q 463.05 186.94 462.78 186.48
  Q 461.84 184.85 459.90 184.40
  Q 459.43 184.28 459.26 183.83
  Q 459.17 183.58 458.93 183.48
  Q 458.75 183.39 458.54 183.39
  Q 457.33 183.35 456.47 182.32
  Q 456.19 181.99 456.55 182.23
  C 457.80 183.06 459.08 183.00 460.25 183.95
  Q 461.55 185.01 462.96 185.78
  A 0.81 0.80 -80.4 0 1 463.37 186.37
  Q 463.39 186.51 463.44 186.63
  Q 463.48 186.74 463.59 186.79
  Q 464.74 187.21 465.46 188.24
  A 1.53 1.49 -6.2 0 0 466.19 188.81
  Q 467.47 189.27 468.24 190.28
  Q 468.54 190.66 469.02 190.76
  Q 470.85 191.12 471.79 192.50
  Q 471.98 192.78 472.31 192.80
  Q 474.37 192.97 475.75 194.72
  Q 479.44 199.41 483.94 202.06
  Q 486.09 203.34 488.02 204.98
  Q 490.04 206.71 492.88 207.93
  Q 493.27 208.10 493.54 208.41
  Q 494.54 209.55 495.86 209.97
  Q 496.29 210.11 496.63 210.41
  Q 497.26 211.00 497.87 211.57
  Q 498.49 212.16 499.16 212.86
  Q 499.65 213.37 500.32 213.61
  Q 500.94 213.84 501.40 214.30
  Q 503.16 216.09 505.22 217.42
  Q 507.99 219.21 510.65 221.64
  Q 511.98 222.84 513.64 224.03
  Q 515.24 225.17 516.61 226.62
  Q 517.00 227.03 516.45 227.16
  L 516.05 227.26
  Z
  M 471.26 193.54
  Q 472.11 194.74 473.58 195.46
  Q 474.41 195.87 473.93 195.09
  Q 472.94 193.48 471.26 193.54
  Q 470.95 191.83 469.50 191.74
  Q 468.93 191.70 469.23 192.18
  Q 469.95 193.34 471.26 193.54
  Z"
/>
<ellipse fill="#00afee" cx="0.00" cy="0.00" transform="translate(462.50,188.31) rotate(39.9)" rx="1.54" ry="0.30"/>
<path fill="#71cff5" d="
  M 482.26 203.06
  Q 483.01 202.63 483.75 203.15
  A 0.73 0.71 17.6 0 1 484.05 203.71
  Q 484.07 204.20 484.52 204.19
  Q 485.04 204.18 485.42 204.53
  L 487.73 206.61
  Q 484.58 205.56 482.26 203.06
  Z"
/>
<path fill="#71cff5" d="
  M 499.46 215.05
  Q 501.24 215.12 502.33 216.94
  Q 499.97 216.11 499.46 215.05
  Z"
/>
<path fill="#71cff5" d="
  M 516.05 227.26
  Q 516.62 227.50 516.64 227.85
  Q 516.67 228.37 516.28 228.02
  Q 515.99 227.76 515.78 227.78
  L 513.48 226.42
  Q 512.31 226.27 511.72 224.91
  Q 511.51 224.42 512.04 224.36
  Q 512.18 224.35 512.34 224.41
  Q 512.49 224.47 512.64 224.65
  Q 513.10 225.23 513.67 225.72
  Q 513.93 225.94 514.92 226.31
  Q 515.64 226.58 516.05 227.26
  Z"
/>
<path fill="#00afee" d="
  M 519.80 230.64
  Q 519.11 230.25 518.93 230.49
  Q 518.25 229.56 517.26 229.10
  Q 516.98 228.97 516.89 228.68
  Q 516.83 228.50 516.87 228.34
  Q 516.93 228.06 517.20 228.16
  Q 519.02 228.90 519.80 230.64
  Z"
/>
<path fill="#71cff5" d="
  M 518.93 230.49
  Q 519.11 230.25 519.80 230.64
  L 520.79 231.21
  Q 520.82 231.35 520.77 231.46
  Q 520.70 231.61 520.86 231.64
  Q 521.51 231.74 521.78 232.72
  Q 519.38 232.09 518.93 230.49
  Z"
/>
<path fill="#00afee" d="
  M 527.52 237.18
  L 521.78 232.72
  Q 521.51 231.74 520.86 231.64
  Q 520.70 231.61 520.77 231.46
  Q 520.82 231.35 520.79 231.21
  Q 520.79 231.07 520.83 230.95
  Q 520.85 230.88 520.90 230.93
  Q 521.45 231.38 522.14 231.51
  Q 522.67 231.61 523.04 232.00
  Q 524.63 233.63 526.94 235.04
  Q 527.47 235.37 527.57 235.94
  Q 527.67 236.48 527.52 237.18
  Z"
/>
<path fill="#71cff5" d="
  M 521.78 232.72
  L 527.52 237.18
  Q 527.47 236.81 527.74 237.45
  Q 527.18 237.72 526.78 237.46
  Q 525.08 236.34 523.94 235.01
  Q 523.09 234.01 521.94 233.42
  Q 521.73 233.32 521.75 233.08
  Q 521.76 232.93 521.78 232.72
  Z"
/>
<path fill="#00afee" d="
  M 537.69 245.30
  Q 537.01 244.91 536.06 244.79
  Q 535.85 243.81 535.50 243.74
  Q 534.48 243.62 534.15 243.00
  Q 533.84 242.42 534.45 242.67
  Q 536.36 243.48 537.69 245.30
  Z"
/>
<path fill="#71cff5" d="
  M 536.06 244.79
  Q 537.01 244.91 537.69 245.30
  Q 540.11 247.50 538.53 247.04
  L 536.06 244.79
  Z"
/>
<path fill="#00afee" d="
  M 557.09 261.56
  Q 555.84 260.74 555.27 259.61
  Q 555.22 259.50 555.11 259.46
  Q 555.05 259.43 555.11 259.39
  Q 555.24 259.30 555.35 259.41
  Q 557.04 261.23 559.03 262.98
  A 0.11 0.11 0.0 0 1 558.91 263.17
  Q 558.30 262.89 557.78 262.20
  A 2.77 2.75 87.7 0 0 557.09 261.56
  Z"
/>
<path fill="#00afee" d="
  M 591.40 294.08
  Q 585.76 289.40 580.35 284.47
  Q 579.55 283.73 579.77 284.75
  Q 579.79 284.87 579.90 284.96
  Q 580.76 285.63 580.07 285.29
  Q 579.87 285.19 579.77 284.98
  Q 579.38 284.16 579.15 283.64
  Q 578.48 281.47 576.30 281.26
  Q 576.10 281.13 575.85 281.12
  Q 575.56 281.10 575.61 280.82
  Q 575.64 280.66 575.75 280.52
  Q 575.91 280.33 575.73 280.15
  Q 574.23 278.65 572.60 277.35
  Q 571.85 277.44 571.68 276.62
  Q 571.58 276.14 571.20 275.83
  L 567.85 273.05
  Q 566.58 270.68 564.48 269.56
  L 560.03 265.47
  L 558.29 263.89
  A 0.05 0.04 -37.8 0 1 558.30 263.82
  L 558.49 263.66
  Q 558.74 263.46 558.91 263.73
  Q 559.12 264.10 559.53 264.13
  Q 560.01 264.17 560.35 264.50
  L 591.40 294.08
  Z"
/>
<path fill="#71cff5" d="
  M 208.45 269.28
  Q 211.72 271.45 213.56 273.43
  Q 219.52 279.80 225.98 286.70
  C 232.08 293.21 237.83 300.06 244.33 306.10
  Q 262.23 322.72 281.04 340.92
  Q 288.49 348.12 296.26 354.32
  Q 311.62 366.56 327.27 379.64
  Q 334.81 385.93 342.94 391.40
  Q 358.67 401.96 374.85 412.78
  Q 382.62 417.98 391.79 423.45
  Q 409.55 434.06 424.29 441.88
  Q 431.25 445.57 455.39 457.12
  Q 464.78 461.61 473.68 464.89
  Q 511.06 478.66 541.03 486.75
  Q 545.26 487.89 549.80 488.67
  C 561.98 490.75 574.02 493.21 586.12 494.93
  Q 603.83 497.45 617.25 498.52
  Q 623.70 499.04 635.73 499.19
  Q 643.92 499.30 654.25 498.80
  Q 665.66 498.25 676.58 497.99
  Q 680.45 500.42 683.21 503.38
  Q 685.08 505.38 686.82 507.10
  Q 696.36 516.58 705.84 526.13
  Q 720.46 540.86 736.84 556.95
  C 738.94 559.01 741.21 560.75 743.26 562.81
  A 1.08 1.07 56.0 0 1 742.92 564.56
  Q 736.50 567.23 731.16 569.98
  C 725.08 573.11 719.53 575.52 712.54 577.48
  Q 704.78 579.65 698.09 582.83
  Q 695.49 584.06 694.49 586.58
  Q 693.67 586.93 693.42 586.57
  A 2.83 2.27 -19.5 0 0 690.80 585.65
  Q 683.66 586.83 677.27 588.04
  C 669.73 589.48 661.87 591.64 654.27 592.93
  Q 633.52 596.47 615.17 598.79
  Q 611.40 599.26 608.13 599.27
  Q 593.97 599.30 574.52 599.30
  Q 565.44 599.30 555.04 598.37
  Q 531.78 596.29 507.94 593.76
  Q 501.01 593.02 494.08 591.42
  Q 486.53 589.67 479.63 588.03
  C 470.84 585.93 461.79 584.39 453.00 581.71
  C 442.57 578.53 431.83 575.87 421.08 572.24
  C 407.63 567.69 394.56 561.78 381.81 556.91
  Q 371.99 553.17 363.43 549.08
  Q 344.45 540.01 328.16 532.11
  Q 322.37 529.30 316.86 526.23
  Q 296.71 515.01 276.26 503.17
  Q 264.46 496.34 255.27 489.70
  C 242.54 480.50 229.89 472.18 217.02 463.34
  Q 211.87 459.80 206.53 455.48
  Q 201.62 451.50 196.27 447.28
  Q 172.95 428.86 150.63 410.20
  Q 142.76 402.60 134.57 395.52
  Q 123.21 385.70 119.52 382.34
  C 108.69 372.48 97.50 362.64 87.34 352.42
  Q 69.72 334.71 51.08 315.91
  C 48.66 313.47 46.18 311.11 43.56 308.95
  Q 41.97 307.63 41.19 305.79
  Q 39.58 301.92 43.77 299.55
  Q 49.47 296.32 54.60 294.24
  Q 67.67 288.92 81.17 284.41
  Q 90.35 281.35 98.12 279.73
  C 105.91 278.12 113.70 276.04 121.62 274.60
  Q 141.26 271.04 153.52 269.25
  Q 160.18 268.27 166.55 267.30
  Q 171.86 266.49 176.49 266.41
  C 183.60 266.28 190.71 266.03 197.70 267.05
  Q 199.00 267.24 202.64 268.55
  Q 205.55 269.61 208.45 269.28
  Z"
/>
<path fill="#71cff5" d="
  M 564.48 269.56
  Q 566.58 270.68 567.85 273.05
  Q 565.12 271.53 564.48 269.56
  Z"
/>
<path fill="#71cff5" d="
  M 576.30 281.26
  Q 578.48 281.47 579.15 283.64
  L 576.38 282.02
  A 0.42 0.42 0.0 0 1 576.19 281.53
  Q 576.23 281.40 576.30 281.26
  Z"
/>
<path fill="#71cff5" d="
  M 598.88 301.20
  Q 601.30 303.77 603.48 306.43
  Q 604.17 307.27 606.77 309.68
  Q 608.58 311.36 609.50 313.53
  Q 607.94 312.30 607.66 311.86
  Q 606.81 310.52 605.92 309.79
  Q 604.57 308.67 604.05 307.97
  Q 602.85 306.35 601.13 304.68
  Q 600.75 304.32 600.45 303.85
  Q 600.15 303.38 599.72 303.03
  Q 596.69 300.65 598.88 301.20
  Z"
/>
<path fill="#00afee" d="
  M 616.86 320.75
  Q 616.19 320.47 615.84 320.75
  Q 614.66 319.61 614.06 318.43
  Q 613.30 317.10 612.03 316.27
  Q 611.84 316.15 611.96 315.95
  L 611.96 315.95
  Q 612.08 315.75 612.27 315.87
  C 614.18 317.03 615.45 319.06 616.86 320.75
  Z"
/>
<path fill="#71cff5" d="
  M 615.84 320.75
  Q 616.19 320.47 616.86 320.75
  L 623.31 328.02
  L 617.22 322.76
  Q 616.83 322.43 616.73 321.92
  Q 616.61 321.35 616.04 321.35
  Q 615.68 321.35 615.74 321.01
  Q 615.76 320.88 615.84 320.75
  Z"
/>
<path fill="#71cff5" d="
  M 640.64 347.25
  L 652.34 361.30
  Q 649.46 358.86 646.98 355.94
  Q 646.76 355.69 645.90 355.01
  Q 645.13 354.40 644.90 353.48
  Q 644.82 353.14 644.51 353.30
  Q 643.88 353.62 643.66 352.92
  Q 643.49 352.40 643.88 352.78
  Q 643.93 352.83 643.98 352.79
  Q 644.13 352.71 644.02 352.57
  Q 641.90 350.02 640.64 347.25
  Z"
/>
<path fill="#71cff5" d="
  M 673.27 386.20
  L 677.29 391.27
  Q 674.33 389.47 673.27 386.20
  Z"
/>
<path fill="#00afee" d="
  M 150.63 410.20
  Q 172.95 428.86 196.27 447.28
  Q 201.62 451.50 206.53 455.48
  Q 211.87 459.80 217.02 463.34
  C 229.89 472.18 242.54 480.50 255.27 489.70
  Q 264.46 496.34 276.26 503.17
  Q 296.71 515.01 316.86 526.23
  Q 322.37 529.30 328.16 532.11
  Q 344.45 540.01 363.43 549.08
  Q 371.99 553.17 381.81 556.91
  C 394.56 561.78 407.63 567.69 421.08 572.24
  C 431.83 575.87 442.57 578.53 453.00 581.71
  C 461.79 584.39 470.84 585.93 479.63 588.03
  Q 486.53 589.67 494.08 591.42
  Q 501.01 593.02 507.94 593.76
  Q 531.78 596.29 555.04 598.37
  Q 565.44 599.30 574.52 599.30
  Q 593.97 599.30 608.13 599.27
  Q 611.40 599.26 615.17 598.79
  Q 633.52 596.47 654.27 592.93
  C 661.87 591.64 669.73 589.48 677.27 588.04
  Q 683.66 586.83 690.80 585.65
  A 2.83 2.27 -19.5 0 1 693.42 586.57
  Q 693.67 586.93 694.49 586.58
  C 696.94 587.36 699.17 588.13 701.26 589.56
  C 706.30 593.02 711.46 596.26 716.38 599.92
  Q 725.12 606.42 733.98 612.61
  Q 738.47 615.76 742.18 619.80
  A 1.79 1.79 0.0 0 1 742.12 622.28
  C 740.49 623.89 738.29 624.75 736.41 626.06
  Q 725.54 633.61 711.26 641.64
  Q 703.53 645.98 696.19 649.63
  Q 689.03 653.19 679.19 656.86
  Q 671.03 659.91 662.93 662.91
  Q 652.64 666.73 642.47 669.16
  C 637.06 670.44 632.23 671.81 627.17 672.82
  Q 614.31 675.38 600.93 678.21
  Q 590.72 680.36 581.33 681.59
  Q 562.25 684.10 545.98 685.07
  Q 537.82 685.56 511.48 685.31
  Q 502.49 685.23 494.29 684.39
  C 486.59 683.61 478.99 683.98 471.30 683.17
  Q 460.06 681.98 449.49 680.53
  C 445.99 680.05 442.48 680.05 439.09 679.44
  Q 433.32 678.40 427.21 677.64
  Q 421.71 676.96 415.17 675.38
  Q 398.30 671.28 383.52 667.89
  Q 373.46 665.57 364.94 663.11
  Q 347.02 657.93 330.20 653.20
  C 311.25 647.87 293.29 639.73 274.77 632.89
  C 263.32 628.65 252.42 623.11 241.58 617.51
  C 227.45 610.20 209.94 602.41 199.22 596.51
  Q 176.99 584.27 155.82 573.03
  C 143.61 566.54 132.40 559.44 121.15 552.04
  Q 100.04 538.15 83.18 527.31
  C 69.35 518.41 55.64 507.62 42.09 497.76
  Q 25.66 485.82 9.18 473.69
  Q 6.49 471.72 5.43 468.67
  A 1.96 1.96 0.0 0 1 6.24 466.37
  Q 12.26 462.55 18.58 458.66
  C 28.09 452.80 38.38 447.93 48.39 442.78
  C 63.02 435.26 78.14 429.30 93.74 423.99
  Q 101.86 421.23 110.44 419.21
  Q 118.53 417.31 127.36 415.27
  C 132.48 414.08 138.11 413.38 143.46 411.94
  Q 144.29 411.71 147.07 411.35
  Q 148.96 411.11 150.63 410.20
  Z"
/>
</svg>
