<svg xmlns="http://www.w3.org/2000/svg" width="20" height="11.666" viewBox="0 0 20 11.666">
  <g id="filter_11" transform="translate(0 -106.7)">
    <path id="Path_1960" data-name="Path 1960" d="M6.669,117.534A.833.833,0,0,1,7.5,116.7h5a.832.832,0,1,1,0,1.664h-5A.83.83,0,0,1,6.669,117.534Zm-3.337-5a.833.833,0,0,1,.832-.832h11.67a.832.832,0,1,1,0,1.664H4.169A.834.834,0,0,1,3.333,112.533Zm-3.333-5a.833.833,0,0,1,.832-.832H19.168a.832.832,0,1,1,0,1.664H.832A.833.833,0,0,1,0,107.532Z" fill="#195890" fill-rule="evenodd"/>
  </g>
</svg>
