<?xml version="1.0" encoding="UTF-8" standalone="no"?>
<!DOCTYPE svg PUBLIC "-//W3C//DTD SVG 1.1//EN" "http://www.w3.org/Graphics/SVG/1.1/DTD/svg11.dtd">
<svg xmlns="http://www.w3.org/2000/svg" version="1.1" viewBox="0.00 0.00 436.00 436.00">
<path fill="#b2ddf2" d="
  M 361.02 260.32
  Q 350.69 261.28 339.08 261.43
  C 333.88 261.49 328.86 260.58 323.72 260.51
  C 321.14 260.48 318.83 259.41 316.23 259.59
  C 314.30 259.72 312.54 258.98 310.61 258.70
  Q 286.39 255.16 265.16 246.00
  C 229.82 230.73 196.53 210.05 168.37 183.77
  Q 162.88 178.65 154.54 169.33
  Q 145.61 159.36 136.37 149.65
  Q 120.19 132.40 112.09 120.65
  C 102.12 106.20 92.79 91.60 82.09 77.95
  A 0.52 0.52 0.0 0 1 82.34 77.13
  Q 102.15 70.64 124.40 70.21
  Q 147.53 69.77 169.08 74.18
  C 197.47 79.99 224.34 90.98 249.61 105.35
  Q 257.93 110.08 264.82 115.32
  Q 301.32 143.05 328.99 170.97
  C 338.05 180.12 345.84 189.15 353.40 199.00
  Q 373.36 225.05 392.81 250.93
  A 0.75 0.75 0.0 0 1 392.51 252.06
  Q 378.09 258.43 361.02 260.32
  Z"
/>
<path fill="#71c8ee" d="
  M 136.37 149.65
  Q 145.61 159.36 154.54 169.33
  Q 162.88 178.65 168.37 183.77
  C 196.53 210.05 229.82 230.73 265.16 246.00
  Q 286.39 255.16 310.61 258.70
  C 312.54 258.98 314.30 259.72 316.23 259.59
  C 318.83 259.41 321.14 260.48 323.72 260.51
  C 328.86 260.58 333.88 261.49 339.08 261.43
  Q 350.69 261.28 361.02 260.32
  L 392.37 290.49
  Q 393.02 291.11 392.27 291.62
  Q 382.89 298.03 371.67 301.65
  Q 356.10 306.98 341.00 309.29
  Q 302.32 315.20 263.89 305.60
  Q 222.96 295.37 183.80 274.42
  Q 161.60 262.55 142.09 246.66
  Q 125.41 233.08 109.16 219.98
  Q 102.06 214.38 97.55 209.95
  Q 87.08 199.68 75.52 187.06
  C 69.03 179.97 62.88 173.96 56.43 167.78
  A 0.44 0.44 0.0 0 1 56.53 167.07
  C 79.83 154.54 109.17 149.85 135.75 150.24
  Q 136.17 150.25 136.37 149.65
  Z
  M 345.34 261.91
  Q 338.69 261.81 334.87 261.86
  Q 334.87 261.86 334.87 261.87
  Q 334.87 261.89 334.89 261.89
  Q 340.13 261.92 345.37 261.88
  Q 345.38 261.88 345.38 261.88
  Q 345.38 261.88 345.38 261.88
  A 0.04 0.03 -74.3 0 1 345.34 261.91
  Z"
/>
<path fill="#00a8e7" d="
  M 109.16 219.98
  Q 125.41 233.08 142.09 246.66
  Q 161.60 262.55 183.80 274.42
  Q 222.96 295.37 263.89 305.60
  Q 302.32 315.20 341.00 309.29
  Q 356.10 306.98 371.67 301.65
  L 392.73 316.16
  A 0.57 0.56 41.3 0 1 392.79 317.05
  C 365.34 341.74 324.64 351.88 288.58 353.28
  Q 279.57 353.63 270.61 352.94
  C 224.04 349.32 177.92 337.72 137.12 314.89
  Q 118.90 304.69 101.03 294.23
  C 89.71 287.61 78.76 279.99 68.15 271.77
  C 58.57 264.35 48.73 256.49 38.37 250.10
  A 0.71 0.71 0.0 0 1 38.33 248.92
  C 59.25 233.58 83.64 224.69 109.16 219.98
  Z"
/>
<path fill="#00a8e7" d="
  M 345.34 261.91
  A 0.04 0.03 -74.3 0 0 345.38 261.88
  Q 345.38 261.88 345.38 261.88
  Q 345.38 261.88 345.37 261.88
  Q 340.13 261.92 334.89 261.89
  Q 334.87 261.89 334.87 261.87
  Q 334.87 261.86 334.87 261.86
  Q 338.69 261.81 345.34 261.91
  Z"
/>
</svg>
