<?xml version="1.0" encoding="UTF-8" standalone="no"?>
<!DOCTYPE svg PUBLIC "-//W3C//DTD SVG 1.1//EN" "http://www.w3.org/Graphics/SVG/1.1/DTD/svg11.dtd">
<svg xmlns="http://www.w3.org/2000/svg" version="1.1" viewBox="0.00 0.00 1572.00 314.00">
<path fill="#b2ddf2" d="
  M 340.92 206.31
  Q 334.41 206.42 327.75 207.05
  Q 324.61 207.34 315.97 207.11
  Q 313.28 207.04 310.51 206.64
  C 306.99 206.14 303.49 206.44 299.98 205.91
  Q 297.33 205.50 294.82 205.18
  Q 281.93 203.58 267.20 199.68
  Q 257.43 197.09 248.29 193.26
  Q 199.56 172.87 160.39 140.54
  C 155.84 136.79 151.22 132.42 146.78 128.36
  Q 142.60 124.55 137.30 118.55
  Q 126.97 106.84 116.49 95.80
  Q 100.87 79.02 92.54 67.21
  C 82.42 52.88 72.93 37.47 61.86 23.71
  A 0.48 0.48 0.0 0 1 62.09 22.96
  Q 78.31 17.63 95.67 16.40
  C 143.00 13.06 189.60 28.14 230.66 51.85
  Q 238.74 56.52 247.00 62.87
  Q 277.82 86.60 302.13 110.07
  C 313.72 121.27 323.78 132.43 333.64 145.31
  Q 353.86 171.73 372.79 196.92
  A 0.53 0.53 0.0 0 1 372.58 197.72
  C 362.48 202.28 351.91 204.74 340.92 206.31
  Z"
/>
<path fill="#ffffff" d="
  M 580.50 117.82
  Q 580.51 118.66 581.09 118.06
  Q 591.32 107.49 604.58 103.90
  C 609.68 102.53 616.58 102.39 621.45 104.36
  Q 629.66 107.68 632.30 116.74
  Q 634.77 125.23 634.75 134.55
  Q 634.70 154.29 634.80 170.69
  Q 634.83 174.48 635.10 178.90
  Q 635.12 179.33 635.55 179.42
  L 646.91 181.68
  Q 647.50 181.80 647.50 182.40
  L 647.49 187.75
  Q 647.49 188.25 647.00 188.25
  L 607.50 188.25
  Q 607.00 188.25 607.00 187.75
  L 607.00 182.40
  Q 607.00 181.80 607.59 181.69
  L 619.74 179.48
  Q 620.20 179.40 620.21 178.93
  Q 620.66 157.51 620.47 134.38
  C 620.41 126.50 618.93 116.95 609.58 115.61
  C 598.69 114.04 589.52 119.12 581.46 126.26
  A 1.29 1.27 69.5 0 0 581.03 127.22
  Q 580.93 149.11 581.06 171.31
  Q 581.08 174.91 581.33 178.93
  Q 581.36 179.37 581.79 179.45
  L 592.91 181.69
  Q 593.50 181.80 593.50 182.41
  L 593.49 187.75
  Q 593.49 188.25 593.00 188.25
  L 553.25 188.25
  Q 553.00 188.25 553.00 188.00
  L 553.01 182.03
  Q 553.01 181.82 553.22 181.78
  L 566.04 179.45
  Q 566.66 179.34 566.66 178.71
  L 566.79 75.36
  Q 566.79 74.67 566.11 74.59
  L 552.81 72.96
  Q 552.25 72.89 552.25 72.32
  L 552.26 67.05
  A 0.61 0.61 0.0 0 1 552.69 66.47
  L 577.74 58.96
  A 2.58 2.58 0.0 0 1 581.06 61.49
  Q 580.91 67.73 580.71 74.29
  C 580.26 88.90 580.49 103.93 580.50 117.82
  Z"
/>
<path fill="#ffffff" d="
  M 965.77 177.70
  Q 975.26 182.73 987.70 181.60
  C 1000.75 180.42 1011.87 173.19 1010.70 158.50
  C 1009.92 148.70 1001.72 143.67 993.34 140.23
  C 976.25 133.23 955.22 126.81 952.48 105.58
  C 950.02 86.56 961.92 73.27 979.86 69.50
  C 993.74 66.58 1007.91 68.87 1019.45 77.24
  Q 1019.91 77.58 1019.89 78.15
  L 1018.91 99.93
  Q 1018.89 100.50 1018.32 100.50
  L 1008.71 100.50
  Q 1008.17 100.50 1008.07 99.97
  L 1004.63 81.34
  A 1.36 1.34 7.8 0 0 1003.87 80.35
  Q 992.02 74.72 979.12 79.15
  C 972.55 81.40 967.59 86.99 966.69 94.11
  C 964.40 112.31 981.82 117.62 995.05 122.67
  C 1009.25 128.09 1023.03 136.64 1024.86 152.55
  C 1027.25 173.37 1013.70 186.65 994.35 189.84
  Q 971.93 193.55 950.43 181.93
  A 1.01 1.00 15.6 0 1 949.90 181.00
  L 950.86 157.55
  Q 950.89 156.75 951.70 156.75
  L 961.04 156.75
  Q 961.59 156.75 961.68 157.29
  L 964.94 176.55
  Q 965.07 177.33 965.77 177.70
  Z"
/>
<path fill="#ffffff" d="
  M 486.74 80.00
  L 460.94 80.00
  Q 460.35 80.00 460.25 80.57
  L 456.43 101.93
  A 0.40 0.39 5.2 0 1 456.04 102.25
  L 446.69 102.25
  Q 446.37 102.25 446.39 101.94
  L 447.75 71.49
  Q 447.77 71.00 448.26 71.00
  L 542.66 71.00
  Q 543.31 71.00 543.34 71.66
  L 544.69 101.77
  Q 544.71 102.25 544.23 102.25
  L 535.02 102.25
  Q 534.69 102.25 534.64 101.93
  L 530.82 80.46
  A 0.56 0.56 0.0 0 0 530.27 80.00
  L 504.28 80.00
  Q 503.77 80.00 503.76 80.51
  Q 503.15 129.18 503.77 178.47
  Q 503.78 178.98 504.28 179.03
  L 521.57 180.87
  Q 521.75 180.89 521.75 181.08
  L 521.75 188.00
  Q 521.75 188.25 521.50 188.25
  L 469.50 188.25
  Q 469.25 188.25 469.25 188.00
  L 469.26 181.13
  Q 469.26 180.90 469.49 180.88
  L 486.71 179.04
  Q 487.39 178.97 487.32 178.29
  C 487.06 175.58 487.44 172.89 487.44 170.18
  Q 487.54 130.30 487.49 92.27
  C 487.49 88.36 487.12 84.47 487.29 80.57
  A 0.55 0.54 1.5 0 0 486.74 80.00
  Z"
/>
<path fill="#71c8ee" d="
  M 116.49 95.80
  Q 126.97 106.84 137.30 118.55
  Q 142.60 124.55 146.78 128.36
  C 151.22 132.42 155.84 136.79 160.39 140.54
  Q 199.56 172.87 248.29 193.26
  Q 257.43 197.09 267.20 199.68
  Q 281.93 203.58 294.82 205.18
  Q 297.33 205.50 299.98 205.91
  C 303.49 206.44 306.99 206.14 310.51 206.64
  Q 313.28 207.04 315.97 207.11
  Q 324.61 207.34 327.75 207.05
  Q 334.41 206.42 340.92 206.31
  L 372.27 236.53
  Q 372.63 236.87 372.23 237.17
  Q 363.10 243.75 351.64 247.46
  Q 336.28 252.82 321.25 255.04
  Q 291.68 259.41 261.10 254.95
  Q 249.92 253.31 236.31 249.43
  Q 208.77 241.59 185.19 231.16
  Q 151.58 216.29 122.99 193.24
  Q 105.71 179.31 88.94 165.82
  Q 75.76 154.86 67.18 145.55
  Q 49.23 126.09 36.41 113.63
  Q 35.93 113.18 36.51 112.85
  Q 42.23 109.68 48.23 107.38
  Q 68.55 99.60 90.26 97.31
  Q 102.84 95.99 116.49 95.80
  Z"
/>
<path fill="#ffffff" d="
  M 687.37 123.49
  Q 687.52 125.05 688.15 123.62
  Q 692.10 114.62 698.80 108.71
  C 705.97 102.39 715.86 100.46 723.46 106.74
  C 724.43 107.54 725.40 108.70 725.25 110.04
  C 724.82 114.22 724.19 118.34 720.43 120.49
  C 714.70 123.76 707.38 120.77 702.92 116.24
  Q 702.32 115.64 701.66 116.17
  C 695.81 120.88 691.76 127.28 688.82 134.91
  Q 687.75 137.69 687.74 140.64
  Q 687.67 157.16 687.90 178.11
  Q 687.91 179.15 688.94 179.34
  L 701.90 181.69
  Q 702.50 181.80 702.50 182.40
  L 702.49 187.75
  Q 702.49 188.25 702.00 188.25
  L 660.75 188.25
  Q 660.50 188.25 660.50 188.00
  L 660.51 182.01
  A 0.29 0.28 83.7 0 1 660.73 181.73
  L 672.71 179.55
  Q 673.18 179.46 673.19 178.99
  C 673.61 159.14 673.80 140.52 672.99 121.75
  Q 672.97 121.25 672.47 121.19
  L 659.59 119.75
  Q 659.00 119.68 659.00 119.09
  L 659.00 114.00
  Q 659.00 113.36 659.58 113.10
  L 681.57 103.42
  A 2.95 2.95 0.0 0 1 685.70 105.84
  L 687.37 123.49
  Z"
/>
<path fill="#ffffff" d="
  M 747.01 146.81
  C 747.26 162.58 754.27 176.68 771.11 178.87
  C 782.75 180.39 792.06 176.04 799.49 167.14
  Q 799.88 166.66 800.36 167.04
  L 803.54 169.52
  Q 804.15 170.00 803.78 170.69
  Q 794.51 187.92 775.74 190.10
  Q 769.34 190.84 763.08 189.77
  C 743.78 186.50 733.67 171.65 732.14 152.97
  Q 731.11 140.26 734.96 129.56
  C 739.78 116.20 750.83 106.04 764.93 103.52
  C 785.40 99.86 802.55 111.89 804.13 133.11
  Q 804.62 139.60 803.19 145.66
  A 0.77 0.77 0.0 0 1 802.44 146.25
  L 747.56 146.25
  Q 747.00 146.25 747.01 146.81
  Z
  M 780.28 138.69
  C 795.03 138.59 791.04 122.60 784.11 116.26
  C 771.99 105.19 755.64 112.54 750.16 126.65
  Q 748.03 132.13 747.36 138.08
  Q 747.29 138.74 747.95 138.74
  Q 764.84 138.79 780.28 138.69
  Z"
/>
<path fill="#ffffff" d="
  M 836.00 146.94
  C 836.25 164.98 845.67 179.55 865.28 179.15
  C 874.54 178.96 882.43 174.57 888.47 167.16
  Q 888.88 166.66 889.38 167.06
  L 892.76 169.68
  A 0.69 0.69 0.0 0 1 892.93 170.56
  Q 880.58 192.70 854.63 190.12
  C 837.08 188.38 825.51 176.51 822.10 159.66
  C 816.93 134.17 828.83 106.52 856.37 103.17
  C 875.60 100.84 891.00 112.45 893.03 131.97
  Q 893.74 138.80 892.24 145.44
  Q 892.06 146.25 891.23 146.25
  L 836.69 146.25
  Q 835.99 146.25 836.00 146.94
  Z
  M 879.07 127.95
  C 877.14 112.66 859.19 105.55 846.90 115.75
  Q 838.22 122.96 836.36 138.02
  Q 836.27 138.74 837.00 138.75
  Q 853.44 138.79 869.05 138.71
  Q 880.41 138.65 879.07 127.95
  Z"
/>
<path fill="#ffffff" d="
  M 1055.04 146.77
  C 1055.12 160.93 1061.25 175.01 1075.86 178.26
  C 1088.93 181.16 1099.10 177.00 1107.49 167.13
  Q 1107.88 166.67 1108.37 167.04
  L 1111.79 169.71
  A 0.54 0.53 33.5 0 1 1111.93 170.38
  C 1103.74 185.94 1088.96 192.38 1071.92 189.90
  C 1052.23 187.04 1041.68 171.94 1040.14 153.01
  C 1038.70 135.26 1044.78 116.87 1061.00 107.80
  Q 1070.51 102.48 1081.42 102.94
  C 1104.77 103.92 1115.69 124.05 1111.28 145.37
  Q 1111.10 146.25 1110.21 146.25
  L 1055.55 146.25
  Q 1055.04 146.25 1055.04 146.77
  Z
  M 1098.13 128.29
  C 1097.09 116.82 1086.00 109.08 1074.73 111.43
  C 1062.58 113.97 1056.52 126.59 1055.36 138.06
  Q 1055.29 138.74 1055.97 138.74
  Q 1071.86 138.80 1088.46 138.68
  Q 1099.06 138.60 1098.13 128.29
  Z"
/>
<path fill="#ffffff" d="
  M 1175.66 176.95
  C 1166.42 186.10 1158.18 192.55 1144.17 189.75
  C 1132.53 187.43 1126.18 178.43 1127.03 166.39
  C 1127.69 157.02 1135.44 151.16 1143.38 147.33
  Q 1157.88 140.33 1174.87 136.57
  Q 1175.46 136.44 1175.48 135.83
  C 1175.72 127.65 1176.37 113.90 1165.59 111.60
  Q 1158.62 110.11 1150.14 112.03
  Q 1149.70 112.13 1149.55 112.56
  Q 1148.06 117.17 1146.58 122.45
  C 1144.75 129.03 1141.06 133.22 1133.72 130.98
  C 1130.09 129.87 1128.41 125.63 1129.82 122.06
  C 1135.98 106.35 1152.71 101.57 1168.48 103.18
  Q 1185.19 104.89 1188.64 121.03
  C 1189.29 124.06 1189.73 127.31 1189.73 130.45
  Q 1189.75 150.90 1189.76 170.46
  C 1189.77 175.74 1191.55 182.83 1198.72 180.18
  Q 1201.03 179.33 1202.82 176.99
  Q 1202.97 176.79 1203.14 176.98
  L 1206.43 180.66
  A 0.35 0.34 40.5 0 1 1206.47 181.08
  C 1202.60 187.27 1197.37 190.39 1189.99 189.75
  Q 1179.09 188.81 1176.05 177.06
  A 0.23 0.23 0.0 0 0 1175.66 176.95
  Z
  M 1158.79 178.58
  C 1164.54 177.69 1170.37 173.08 1175.12 169.71
  A 0.94 0.91 -18.7 0 0 1175.50 168.97
  L 1175.50 143.69
  Q 1175.50 143.09 1174.92 143.24
  Q 1166.78 145.44 1158.92 148.49
  C 1150.00 151.95 1140.41 157.66 1142.17 168.71
  C 1143.49 177.08 1151.43 179.73 1158.79 178.58
  Z"
/>
<path fill="#ffffff" d="
  M 1259.72 114.54
  Q 1259.59 113.90 1259.00 113.64
  Q 1247.98 108.78 1238.17 112.63
  Q 1231.93 115.09 1231.27 121.67
  C 1230.47 129.50 1235.39 133.12 1241.70 135.71
  C 1249.66 138.98 1258.60 141.46 1265.85 146.44
  Q 1280.01 156.17 1275.74 171.81
  C 1272.58 183.41 1260.15 188.99 1248.60 190.12
  Q 1232.01 191.74 1217.53 183.97
  Q 1216.97 183.66 1216.94 183.03
  L 1216.26 165.13
  A 0.61 0.61 0.0 0 1 1216.87 164.50
  L 1225.24 164.51
  A 0.64 0.63 -6.2 0 1 1225.86 165.00
  L 1228.98 178.78
  Q 1229.18 179.66 1230.02 179.96
  Q 1241.21 184.00 1252.52 181.15
  C 1258.37 179.67 1262.78 175.57 1262.84 169.08
  C 1262.91 160.86 1255.61 157.04 1248.87 154.57
  C 1234.91 149.46 1215.48 143.98 1217.64 124.87
  C 1219.08 112.22 1229.65 104.81 1241.85 103.27
  Q 1257.71 101.26 1271.51 109.80
  Q 1272.03 110.12 1272.00 110.73
  L 1271.32 127.23
  Q 1271.29 128.00 1270.52 128.00
  L 1263.08 128.00
  Q 1262.39 128.00 1262.26 127.32
  L 1259.72 114.54
  Z"
/>
<path fill="#ffffff" d="
  M 1291.10 151.57
  C 1290.20 138.98 1292.85 125.93 1301.05 116.48
  C 1312.61 103.15 1331.42 99.12 1347.41 106.53
  C 1364.98 114.67 1372.05 133.17 1370.56 151.83
  C 1366.46 203.17 1294.83 203.32 1291.10 151.57
  Z
  M 1337.57 181.32
  C 1355.30 176.41 1355.96 150.51 1354.08 136.33
  C 1352.55 124.78 1346.68 112.51 1333.73 111.15
  C 1316.67 109.35 1309.27 122.38 1307.50 137.00
  C 1305.91 150.08 1306.37 172.08 1319.43 179.40
  Q 1327.73 184.05 1337.57 181.32
  Z"
/>
<path fill="#ffffff" d="
  M 1413.58 117.93
  C 1422.33 108.85 1434.96 101.82 1447.60 103.02
  Q 1459.60 104.17 1463.74 115.09
  Q 1466.81 123.20 1466.75 134.33
  Q 1466.62 157.03 1467.00 178.76
  Q 1467.01 179.31 1467.54 179.42
  L 1479.03 181.71
  Q 1479.50 181.80 1479.50 182.28
  L 1479.49 187.75
  Q 1479.49 188.25 1479.00 188.25
  L 1439.25 188.25
  Q 1439.00 188.25 1439.00 188.00
  L 1439.01 182.02
  Q 1439.01 181.80 1439.22 181.76
  L 1451.73 179.48
  Q 1452.28 179.38 1452.29 178.82
  Q 1452.61 160.17 1452.50 134.63
  C 1452.46 127.10 1451.19 117.54 1442.54 115.78
  C 1432.24 113.69 1422.02 118.75 1414.13 125.89
  Q 1413.76 126.23 1413.76 126.73
  Q 1413.71 149.92 1413.79 171.45
  Q 1413.80 174.89 1414.10 178.79
  Q 1414.14 179.33 1414.67 179.44
  L 1425.91 181.68
  Q 1426.50 181.80 1426.50 182.40
  L 1426.49 187.63
  Q 1426.49 188.25 1425.87 188.25
  L 1386.50 188.25
  Q 1386.00 188.25 1386.00 187.75
  L 1386.00 182.40
  Q 1386.00 181.80 1386.59 181.69
  L 1398.73 179.49
  Q 1399.20 179.40 1399.21 178.92
  Q 1399.63 158.29 1399.47 137.47
  Q 1399.41 129.84 1398.98 121.73
  A 0.58 0.57 -88.9 0 0 1398.47 121.19
  L 1385.59 119.75
  Q 1385.00 119.68 1385.00 119.09
  L 1385.00 114.00
  Q 1385.00 113.36 1385.58 113.10
  L 1407.44 103.47
  A 3.05 3.05 0.0 0 1 1411.70 105.94
  L 1412.95 117.71
  Q 1413.03 118.50 1413.58 117.93
  Z"
/>
<path fill="#ffffff" d="
  M 1536.30 113.97
  Q 1535.59 113.39 1534.65 113.03
  Q 1526.09 109.72 1518.07 111.68
  Q 1507.10 114.35 1508.32 125.07
  Q 1508.95 130.62 1514.59 133.64
  C 1523.09 138.19 1533.03 140.39 1541.43 145.50
  C 1550.55 151.05 1555.36 159.41 1553.21 170.07
  C 1550.68 182.70 1538.16 188.81 1525.76 190.09
  Q 1509.15 191.82 1494.51 183.94
  Q 1493.96 183.65 1493.94 183.03
  L 1493.26 165.13
  Q 1493.24 164.50 1493.87 164.50
  L 1502.24 164.51
  A 0.64 0.63 -6.2 0 1 1502.86 165.00
  L 1506.02 178.94
  A 1.34 1.34 0.0 0 0 1506.87 179.91
  Q 1518.71 184.23 1530.37 180.90
  C 1535.76 179.36 1539.71 175.23 1539.83 169.30
  C 1540.00 160.97 1532.69 157.01 1525.89 154.58
  Q 1518.04 151.77 1511.05 148.86
  Q 1506.31 146.88 1502.11 143.40
  C 1490.17 133.48 1492.85 115.72 1505.56 107.83
  Q 1512.05 103.80 1520.60 103.06
  Q 1535.52 101.77 1548.51 109.80
  Q 1549.03 110.12 1549.00 110.73
  L 1548.32 127.23
  Q 1548.29 128.00 1547.52 128.00
  L 1539.95 128.00
  Q 1539.39 128.00 1539.28 127.44
  L 1536.76 114.74
  Q 1536.66 114.27 1536.30 113.97
  Z"
/>
<path fill="#00a8e7" d="
  M 88.94 165.82
  Q 105.71 179.31 122.99 193.24
  Q 151.58 216.29 185.19 231.16
  Q 208.77 241.59 236.31 249.43
  Q 249.92 253.31 261.10 254.95
  Q 291.68 259.41 321.25 255.04
  Q 336.28 252.82 351.64 247.46
  L 372.72 262.03
  A 0.39 0.39 0.0 0 1 372.77 262.63
  Q 368.44 266.79 363.36 270.36
  C 336.57 289.22 301.56 297.78 268.19 299.14
  Q 258.99 299.52 248.47 298.63
  C 202.81 294.76 156.94 283.27 117.28 260.86
  Q 100.28 251.26 84.77 242.36
  C 68.27 232.90 53.86 222.29 38.74 210.49
  Q 28.83 202.75 18.30 195.91
  Q 17.43 195.35 18.25 194.73
  C 38.43 179.43 63.97 170.36 88.94 165.82
  Z"
/>
<path fill="#ffffff" d="
  M 942.74 236.01
  L 942.73 280.75
  Q 942.73 280.99 942.50 280.99
  L 938.25 281.00
  Q 938.00 281.00 938.00 280.75
  L 938.00 235.75
  Q 938.00 235.24 937.50 235.24
  L 929.50 235.25
  Q 929.00 235.26 929.00 234.75
  L 929.00 231.75
  A 0.50 0.49 -0.0 0 1 929.50 231.26
  L 937.49 231.28
  Q 938.18 231.28 938.12 230.59
  C 937.47 222.66 937.80 213.48 946.49 210.63
  C 951.11 209.12 957.08 209.54 961.18 212.57
  A 0.84 0.84 0.0 0 1 961.42 213.64
  L 960.10 216.07
  Q 959.76 216.72 959.24 216.20
  C 957.21 214.16 954.30 213.94 951.44 213.96
  C 941.64 214.04 942.53 223.69 942.75 230.76
  Q 942.77 231.27 943.27 231.27
  L 958.25 231.27
  Q 958.73 231.27 958.73 231.75
  L 958.73 234.76
  A 0.49 0.49 0.0 0 1 958.24 235.25
  L 943.49 235.25
  Q 942.74 235.25 942.74 236.01
  Z"
/>
<path fill="#ffffff" d="
  M 974.74 235.76
  L 974.73 280.75
  Q 974.73 280.98 974.50 280.99
  L 970.25 281.00
  A 0.25 0.25 0.0 0 1 970.00 280.75
  L 970.00 235.75
  Q 970.00 235.24 969.50 235.24
  L 961.50 235.25
  Q 961.00 235.25 961.00 234.75
  L 961.01 231.75
  A 0.49 0.49 0.0 0 1 961.50 231.26
  L 969.49 231.28
  Q 970.16 231.28 970.11 230.61
  C 969.48 222.69 969.79 213.49 978.47 210.63
  C 983.11 209.11 989.07 209.54 993.19 212.58
  A 0.74 0.74 0.0 0 1 993.45 213.44
  Q 992.89 214.92 991.97 216.20
  Q 991.67 216.62 991.26 216.22
  C 989.20 214.18 986.23 213.92 983.40 213.92
  C 973.68 213.91 974.53 223.92 974.76 230.76
  Q 974.77 231.27 975.28 231.27
  L 990.25 231.27
  Q 990.74 231.27 990.74 231.75
  L 990.73 234.76
  Q 990.73 235.25 990.24 235.25
  L 975.24 235.25
  Q 974.74 235.25 974.74 235.76
  Z"
/>
<rect fill="#ffffff" x="532.00" y="210.24" width="4.98" height="70.74" rx="0.75"/>
<path fill="#ffffff" d="
  M 620.73 270.29
  L 620.74 280.50
  Q 620.74 281.00 620.25 281.00
  L 616.50 281.00
  Q 616.00 281.00 616.00 280.50
  L 616.00 210.51
  Q 616.00 210.27 616.24 210.27
  L 620.76 210.29
  Q 620.99 210.29 620.99 210.51
  L 621.00 241.00
  Q 621.01 242.34 621.71 241.20
  C 629.42 228.60 647.39 227.73 657.71 236.87
  C 665.19 243.50 667.49 254.90 664.65 264.00
  Q 659.83 279.43 643.68 281.22
  C 634.54 282.24 625.89 278.23 621.22 270.15
  Q 620.73 269.30 620.73 270.29
  Z
  M 640.8530 277.3000
  A 21.22 20.34 90.1 0 0 661.2300 256.1155
  A 21.22 20.34 90.1 0 0 640.9270 234.8600
  A 21.22 20.34 90.1 0 0 620.5500 256.0445
  A 21.22 20.34 90.1 0 0 640.8530 277.3000
  Z"
/>
<rect fill="#ffffff" x="736.01" y="210.25" width="4.96" height="70.74" rx="0.74"/>
<rect fill="#ffffff" x="1296.01" y="210.25" width="4.98" height="70.74" rx="0.76"/>
<circle fill="#ffffff" cx="1002.65" cy="215.18" r="3.88"/>
<circle fill="#ffffff" cx="1425.40" cy="215.17" r="3.88"/>
<path fill="#ffffff" d="
  M 507.26 270.25
  L 507.27 248.12
  Q 507.27 247.75 507.63 247.75
  L 511.50 247.75
  Q 512.00 247.75 512.00 248.25
  L 512.00 272.29
  Q 512.00 272.93 511.52 273.36
  Q 507.35 277.09 502.28 278.93
  C 476.24 288.37 448.92 270.38 453.84 241.24
  C 456.26 226.90 467.51 216.53 481.81 214.24
  C 492.28 212.56 504.13 214.74 511.79 222.40
  Q 512.25 222.86 511.82 223.34
  L 509.81 225.61
  Q 509.34 226.13 508.84 225.65
  Q 503.37 220.48 496.21 219.01
  C 482.89 216.27 469.39 220.45 462.29 232.18
  Q 456.29 242.07 458.80 254.13
  C 461.64 267.85 473.41 276.64 487.43 277.01
  C 494.37 277.18 501.20 275.53 506.63 271.51
  Q 507.26 271.04 507.26 270.25
  Z"
/>
<path fill="#ffffff" d="
  M 824.47 223.49
  C 817.22 218.49 807.93 216.96 799.35 218.66
  C 792.60 220.00 787.37 224.57 787.48 231.85
  C 787.59 239.15 794.67 242.64 800.96 244.17
  Q 807.84 245.83 814.50 247.69
  C 819.99 249.22 826.07 252.27 828.13 257.75
  C 831.98 267.97 825.75 277.35 815.56 280.17
  C 804.24 283.29 789.57 280.98 781.00 272.63
  Q 780.90 272.53 780.97 272.41
  L 782.92 269.00
  Q 783.04 268.79 783.21 268.96
  C 790.73 276.06 802.06 278.54 812.23 276.58
  C 818.92 275.29 824.54 271.03 824.44 263.73
  C 824.32 255.80 816.31 252.40 809.66 250.94
  Q 800.84 249.02 793.55 246.42
  C 787.54 244.27 783.07 239.59 782.74 232.95
  C 782.23 222.57 789.13 216.16 798.75 214.41
  Q 813.59 211.70 826.22 219.46
  Q 826.42 219.58 826.33 219.79
  L 824.84 223.38
  Q 824.72 223.66 824.47 223.49
  Z"
/>
<path fill="#ffffff" d="
  M 1217.54 223.47
  C 1210.11 218.66 1201.65 217.00 1192.79 218.57
  C 1186.00 219.77 1180.58 224.18 1180.48 231.50
  C 1180.38 238.57 1186.71 242.22 1192.80 243.81
  Q 1199.77 245.62 1206.52 247.38
  C 1214.33 249.42 1221.87 253.67 1222.24 262.80
  C 1222.57 270.90 1217.47 277.26 1209.85 279.76
  C 1198.34 283.53 1183.29 281.27 1174.11 272.77
  Q 1173.88 272.56 1174.03 272.29
  L 1175.87 269.08
  Q 1176.04 268.78 1176.29 269.02
  Q 1182.71 275.13 1192.74 276.76
  C 1201.75 278.23 1217.00 276.68 1217.44 264.26
  C 1217.75 255.67 1208.95 252.35 1202.18 250.83
  Q 1193.87 248.97 1187.19 246.67
  C 1180.87 244.49 1176.11 239.95 1175.74 232.94
  C 1175.17 222.00 1182.80 215.75 1192.98 214.19
  Q 1207.09 212.02 1219.22 219.47
  Q 1219.41 219.59 1219.33 219.79
  L 1217.86 223.37
  Q 1217.76 223.62 1217.54 223.47
  Z"
/>
<path fill="#ffffff" d="
  M 849.71 235.83
  Q 849.81 249.83 849.68 265.72
  Q 849.65 269.76 850.82 272.49
  C 853.33 278.41 861.83 278.50 866.23 275.01
  Q 866.88 274.50 867.28 275.23
  L 868.45 277.36
  Q 868.86 278.11 868.13 278.56
  Q 860.79 283.05 853.20 280.52
  Q 845.12 277.82 845.05 267.53
  Q 844.94 251.36 845.02 235.78
  Q 845.02 235.24 844.48 235.24
  L 836.50 235.25
  Q 836.00 235.26 836.00 234.75
  L 836.00 231.76
  Q 836.00 231.27 836.49 231.27
  L 844.49 231.27
  Q 845.00 231.27 845.00 230.76
  L 845.00 220.76
  A 0.49 0.49 0.0 0 1 845.49 220.27
  L 849.25 220.28
  Q 849.73 220.28 849.73 220.75
  L 849.74 230.75
  Q 849.74 231.26 850.25 231.26
  L 865.38 231.27
  Q 865.74 231.27 865.74 231.63
  L 865.73 234.76
  Q 865.73 235.25 865.24 235.25
  L 850.28 235.25
  Q 849.70 235.25 849.71 235.83
  Z"
/>
<path fill="#ffffff" d="
  M 1390.72 235.82
  Q 1390.76 249.77 1390.72 266.43
  C 1390.71 271.54 1392.38 276.23 1398.09 277.14
  Q 1403.42 277.99 1407.37 274.93
  Q 1407.88 274.53 1408.20 275.10
  L 1409.52 277.47
  Q 1409.83 278.03 1409.31 278.39
  C 1402.62 283.03 1391.06 282.87 1387.31 274.21
  Q 1385.89 270.94 1385.94 264.23
  Q 1386.05 249.59 1385.99 235.73
  Q 1385.99 235.24 1385.50 235.24
  L 1377.50 235.25
  A 0.50 0.49 89.4 0 1 1377.00 234.75
  L 1377.00 231.75
  Q 1377.00 231.26 1377.50 231.26
  L 1385.49 231.28
  Q 1386.00 231.28 1386.00 230.76
  L 1386.01 220.50
  Q 1386.01 220.26 1386.25 220.27
  L 1390.26 220.29
  Q 1390.74 220.29 1390.74 220.76
  L 1390.74 230.75
  Q 1390.74 231.27 1391.25 231.27
  L 1406.25 231.27
  Q 1406.74 231.27 1406.74 231.75
  L 1406.73 234.76
  Q 1406.73 235.25 1406.24 235.25
  L 1391.29 235.25
  Q 1390.72 235.25 1390.72 235.82
  Z"
/>
<path fill="#ffffff" d="
  M 577.0545 281.5461
  A 25.47 25.09 89.0 0 1 551.5238 256.5179
  A 25.47 25.09 89.0 0 1 576.1655 230.6139
  A 25.47 25.09 89.0 0 1 601.6962 255.6421
  A 25.47 25.09 89.0 0 1 577.0545 281.5461
  Z
  M 576.7212 277.3097
  A 21.23 20.31 89.7 0 0 596.9197 255.9737
  A 21.23 20.31 89.7 0 0 576.4988 234.8503
  A 21.23 20.31 89.7 0 0 556.3003 256.1863
  A 21.23 20.31 89.7 0 0 576.7212 277.3097
  Z"
/>
<path fill="#ffffff" d="
  M 712.03 272.97
  Q 707.50 279.77 699.03 281.05
  C 688.90 282.58 675.74 278.89 676.74 265.93
  C 677.44 256.94 685.35 253.41 693.37 253.31
  Q 702.49 253.20 711.62 253.30
  Q 712.19 253.30 712.23 252.73
  C 712.70 244.71 711.40 237.47 702.46 235.54
  Q 691.14 233.09 680.86 240.78
  Q 680.29 241.21 679.89 240.62
  L 678.33 238.27
  Q 677.93 237.67 678.52 237.24
  Q 690.07 228.95 703.31 231.32
  Q 712.37 232.94 715.64 240.68
  Q 717.22 244.43 717.09 253.41
  Q 716.86 268.58 717.05 280.43
  A 0.56 0.56 0.0 0 1 716.49 281.00
  L 713.00 280.99
  Q 712.51 280.99 712.51 280.50
  L 712.57 273.14
  Q 712.58 272.16 712.03 272.97
  Z
  M 692.51 257.06
  C 686.49 257.13 681.15 260.75 681.40 267.16
  C 681.80 277.91 694.87 278.98 702.63 276.24
  C 706.98 274.71 712.60 269.69 712.32 264.40
  Q 712.14 261.00 712.33 257.67
  Q 712.37 257.03 711.73 257.02
  Q 702.38 256.93 692.51 257.06
  Z"
/>
<path fill="#ffffff" d="
  M 913.08 272.86
  Q 909.51 278.34 903.70 280.13
  Q 894.63 282.92 886.26 279.68
  C 879.99 277.24 876.82 271.34 877.89 264.64
  C 879.25 256.19 887.39 253.32 895.09 253.28
  Q 904.08 253.24 912.65 253.28
  Q 913.21 253.28 913.25 252.72
  C 913.77 244.40 912.16 237.10 902.86 235.40
  Q 891.64 233.35 881.87 240.79
  Q 881.30 241.22 880.91 240.63
  L 879.37 238.34
  Q 878.92 237.68 879.57 237.21
  Q 891.06 228.95 904.33 231.32
  Q 913.35 232.94 916.64 240.67
  Q 918.21 244.36 918.09 252.77
  Q 917.87 267.75 918.04 280.21
  A 0.78 0.78 0.0 0 1 917.26 281.00
  L 913.99 280.99
  Q 913.50 280.99 913.50 280.49
  L 913.58 273.01
  Q 913.59 272.09 913.08 272.86
  Z
  M 893.31 257.08
  C 887.36 257.17 882.18 260.85 882.39 267.13
  C 882.76 277.95 895.96 278.97 903.76 276.20
  C 908.23 274.61 913.60 269.57 913.32 264.15
  Q 913.14 260.77 913.33 257.68
  Q 913.37 257.03 912.72 257.02
  Q 903.01 256.92 893.31 257.08
  Z"
/>
<path fill="#ffffff" d="
  M 1029.72 240.77
  Q 1029.72 241.66 1030.19 240.90
  Q 1034.53 233.74 1042.34 231.71
  Q 1050.43 229.60 1057.68 232.15
  C 1066.63 235.28 1069.76 243.47 1069.75 252.33
  Q 1069.72 266.10 1069.73 280.68
  Q 1069.73 280.98 1069.43 280.98
  L 1065.28 281.00
  Q 1064.96 281.00 1064.96 280.68
  Q 1065.11 264.30 1064.91 251.45
  C 1064.73 239.83 1057.28 234.13 1046.40 235.14
  C 1039.63 235.77 1033.98 239.29 1031.37 245.73
  Q 1029.83 249.55 1029.92 256.36
  Q 1030.10 268.49 1029.82 280.02
  Q 1029.80 281.00 1028.82 281.00
  L 1026.00 281.00
  A 1.00 1.00 0.0 0 1 1025.00 280.00
  L 1025.00 231.76
  Q 1025.00 231.26 1025.49 231.26
  L 1029.26 231.28
  Q 1029.74 231.28 1029.74 231.76
  L 1029.72 240.77
  Z"
/>
<path fill="#ffffff" d="
  M 1129.54 241.48
  L 1129.53 231.49
  Q 1129.53 231.26 1129.76 231.26
  L 1133.73 231.28
  A 0.25 0.24 0.0 0 1 1133.98 231.52
  Q 1134.05 253.84 1133.96 276.87
  C 1133.92 288.41 1128.87 297.17 1116.66 299.32
  C 1106.73 301.06 1094.93 299.00 1087.25 292.20
  A 0.32 0.32 0.0 0 1 1087.20 291.77
  L 1089.31 288.73
  Q 1089.54 288.41 1089.85 288.66
  Q 1099.78 297.02 1114.37 295.31
  C 1129.63 293.53 1129.54 280.89 1129.27 268.73
  Q 1129.25 267.82 1128.76 268.58
  C 1121.35 280.07 1104.83 282.54 1093.75 274.72
  C 1076.77 262.71 1082.12 235.58 1102.55 231.48
  Q 1119.52 228.07 1129.07 241.63
  Q 1129.54 242.30 1129.54 241.48
  Z
  M 1129.5600 254.9240
  A 20.64 20.15 -0.1 0 0 1108.8848 234.8100
  A 20.64 20.15 -0.1 0 0 1088.2800 254.9960
  A 20.64 20.15 -0.1 0 0 1108.9552 275.1100
  A 20.64 20.15 -0.1 0 0 1129.5600 254.9240
  Z"
/>
<path fill="#ffffff" d="
  M 1257.0545 281.5461
  A 25.47 25.09 89.0 0 1 1231.5238 256.5179
  A 25.47 25.09 89.0 0 1 1256.1655 230.6139
  A 25.47 25.09 89.0 0 1 1281.6962 255.6421
  A 25.47 25.09 89.0 0 1 1257.0545 281.5461
  Z
  M 1256.6841 277.3099
  A 21.23 20.31 89.8 0 0 1276.9199 256.0091
  A 21.23 20.31 89.8 0 0 1256.5359 234.8501
  A 21.23 20.31 89.8 0 0 1236.3001 256.1509
  A 21.23 20.31 89.8 0 0 1256.6841 277.3099
  Z"
/>
<path fill="#ffffff" d="
  M 1468.0101 281.5469
  A 25.47 25.09 89.1 0 1 1442.5231 256.4741
  A 25.47 25.09 89.1 0 1 1467.2099 230.6131
  A 25.47 25.09 89.1 0 1 1492.6969 255.6859
  A 25.47 25.09 89.1 0 1 1468.0101 281.5469
  Z
  M 1467.6841 277.3099
  A 21.23 20.31 89.8 0 0 1487.9199 256.0091
  A 21.23 20.31 89.8 0 0 1467.5359 234.8501
  A 21.23 20.31 89.8 0 0 1447.3001 256.1509
  A 21.23 20.31 89.8 0 0 1467.6841 277.3099
  Z"
/>
<path fill="#ffffff" d="
  M 1511.73 240.74
  Q 1511.72 241.76 1512.24 240.88
  Q 1516.58 233.58 1524.59 231.63
  C 1535.05 229.08 1546.87 232.04 1550.39 243.21
  Q 1551.79 247.67 1551.76 253.14
  Q 1551.70 265.78 1551.74 280.68
  Q 1551.74 280.98 1551.44 280.98
  L 1547.30 281.00
  Q 1547.01 281.00 1547.01 280.72
  Q 1546.97 266.52 1547.03 253.31
  C 1547.07 244.67 1544.26 237.42 1535.02 235.48
  Q 1532.08 234.86 1528.78 235.12
  C 1521.96 235.64 1516.34 238.97 1513.48 245.40
  Q 1511.85 249.07 1511.93 256.10
  Q 1512.07 268.41 1511.90 280.10
  Q 1511.89 281.00 1510.98 281.01
  L 1508.03 281.02
  A 0.99 0.99 0.0 0 1 1507.04 280.03
  L 1506.98 231.76
  Q 1506.98 231.26 1507.48 231.26
  L 1511.26 231.28
  Q 1511.74 231.28 1511.74 231.76
  L 1511.73 240.74
  Z"
/>
<rect fill="#ffffff" x="1000.27" y="231.26" width="4.98" height="49.74" rx="0.38"/>
<path fill="#ffffff" d="
  M 1359.83 271.14
  Q 1353.10 282.43 1338.57 281.21
  Q 1326.24 280.18 1322.17 269.88
  Q 1320.28 265.09 1320.45 255.73
  Q 1320.67 243.96 1320.49 231.55
  Q 1320.48 231.26 1320.77 231.26
  L 1325.00 231.27
  Q 1325.19 231.27 1325.19 231.46
  Q 1325.40 242.61 1325.18 254.47
  Q 1325.00 264.37 1326.71 268.27
  Q 1331.03 278.14 1344.05 276.94
  C 1355.24 275.91 1360.06 267.47 1360.03 256.75
  Q 1359.99 243.89 1360.01 231.52
  Q 1360.01 231.26 1360.27 231.26
  L 1364.51 231.29
  Q 1364.74 231.29 1364.74 231.51
  L 1364.74 280.51
  Q 1364.74 281.00 1364.24 281.00
  L 1360.75 280.99
  A 0.49 0.49 0.0 0 1 1360.26 280.50
  L 1360.28 271.27
  Q 1360.28 270.39 1359.83 271.14
  Z"
/>
<rect fill="#ffffff" x="1423.01" y="231.25" width="4.98" height="49.72" rx="0.69"/>
</svg>
