<?xml version="1.0" encoding="UTF-8" standalone="no"?>
<!DOCTYPE svg PUBLIC "-//W3C//DTD SVG 1.1//EN" "http://www.w3.org/Graphics/SVG/1.1/DTD/svg11.dtd">
<svg xmlns="http://www.w3.org/2000/svg" version="1.1" viewBox="0.00 0.00 1571.00 303.00">
<path fill="#b2ddf2" d="
  M 337.83 200.13
  Q 324.90 201.24 311.60 201.12
  C 310.12 201.11 308.73 200.63 307.22 200.58
  Q 298.13 200.28 289.68 198.97
  C 272.85 196.37 257.20 192.49 241.76 185.81
  Q 215.36 174.39 190.47 158.64
  Q 166.75 143.63 146.10 124.53
  Q 140.41 119.26 132.23 110.15
  Q 122.87 99.74 113.49 89.79
  Q 96.23 71.31 87.32 58.18
  Q 76.59 42.38 67.71 29.53
  Q 63.40 23.27 58.83 17.64
  A 0.34 0.33 60.3 0 1 58.97 17.11
  Q 66.58 14.37 74.47 12.86
  C 127.46 2.74 181.35 19.47 227.24 45.62
  Q 235.36 50.25 243.39 56.40
  Q 263.75 72.01 283.73 89.75
  C 301.43 105.47 316.90 121.32 330.65 139.32
  Q 350.04 164.69 369.64 190.70
  A 0.79 0.79 0.0 0 1 369.32 191.91
  Q 354.38 198.40 337.83 200.13
  Z"
/>
<path fill="#231f20" d="
  M 578.08 112.07
  C 587.28 102.38 601.55 94.89 614.94 97.36
  C 628.46 99.85 631.43 113.83 631.61 125.56
  Q 631.90 144.71 631.72 163.83
  C 631.69 166.80 632.18 169.72 631.97 172.69
  A 0.66 0.66 0.0 0 0 632.50 173.38
  L 644.02 175.69
  Q 644.50 175.78 644.50 176.27
  L 644.50 181.75
  Q 644.50 182.25 644.00 182.25
  L 604.50 182.25
  Q 604.00 182.25 604.00 181.75
  L 604.00 176.27
  Q 604.00 175.78 604.48 175.69
  L 616.74 173.46
  Q 617.22 173.38 617.22 172.90
  Q 617.64 149.93 617.50 129.47
  C 617.44 121.10 616.27 110.50 605.76 109.48
  C 595.10 108.45 585.93 113.39 578.40 120.41
  Q 578.03 120.75 578.02 121.26
  Q 577.92 140.88 578.05 164.97
  Q 578.07 168.66 578.34 172.92
  Q 578.37 173.35 578.79 173.43
  L 590.02 175.69
  A 0.59 0.59 0.0 0 1 590.50 176.27
  L 590.50 181.75
  Q 590.50 182.25 590.00 182.25
  L 550.25 182.25
  Q 550.00 182.25 550.00 182.00
  L 550.00 176.15
  Q 550.00 175.80 550.34 175.74
  L 562.98 173.44
  Q 563.50 173.35 563.49 172.81
  C 563.38 167.20 563.75 160.92 563.75 156.08
  Q 563.76 112.53 563.75 69.21
  Q 563.75 68.68 563.22 68.62
  L 549.82 66.98
  Q 549.24 66.91 549.24 66.33
  L 549.25 61.24
  A 0.91 0.90 -8.8 0 1 549.89 60.38
  L 574.77 52.93
  A 2.54 2.54 0.0 0 1 578.04 55.45
  Q 577.72 64.64 577.59 74.98
  Q 577.38 92.11 577.53 111.86
  Q 577.53 112.65 578.08 112.07
  Z"
/>
<path fill="#231f20" d="
  M 962.71 171.67
  Q 975.01 177.90 989.79 174.76
  C 1000.88 172.40 1008.40 164.83 1007.72 153.05
  C 1007.17 143.44 999.75 138.24 991.66 134.86
  C 974.72 127.79 952.04 121.24 949.48 99.59
  C 946.21 72.01 971.13 59.77 994.87 62.71
  Q 1006.99 64.21 1016.57 71.31
  Q 1016.93 71.58 1016.91 72.04
  L 1015.91 93.93
  Q 1015.89 94.49 1015.32 94.49
  L 1005.74 94.50
  Q 1005.18 94.50 1005.07 93.94
  Q 1003.35 84.94 1001.73 75.82
  C 1001.54 74.73 1000.71 74.13 999.74 73.74
  C 986.89 68.51 967.02 71.02 963.84 87.29
  Q 962.85 92.38 964.53 97.50
  C 968.08 108.30 981.06 112.52 990.57 116.04
  C 1004.64 121.26 1020.00 129.84 1021.87 146.49
  C 1024.25 167.60 1010.44 181.00 990.83 183.95
  Q 968.06 187.37 947.33 175.85
  Q 946.86 175.59 946.88 175.06
  L 947.86 151.38
  Q 947.89 150.75 948.52 150.75
  L 958.05 150.76
  Q 958.61 150.76 958.70 151.31
  L 961.99 170.70
  Q 962.10 171.37 962.71 171.67
  Z"
/>
<path fill="#231f20" d="
  M 483.55 74.00
  L 457.95 74.00
  Q 457.39 74.00 457.29 74.56
  L 453.43 96.05
  Q 453.39 96.24 453.20 96.24
  L 443.68 96.25
  A 0.31 0.30 -89.1 0 1 443.38 95.93
  L 444.74 65.50
  Q 444.76 65.00 445.25 65.00
  L 539.66 65.00
  Q 540.32 65.00 540.35 65.66
  L 541.71 96.01
  A 0.22 0.22 0.0 0 1 541.49 96.24
  L 532.00 96.25
  Q 531.68 96.25 531.62 95.93
  L 527.79 74.48
  A 0.58 0.57 -4.7 0 0 527.22 74.00
  L 501.30 74.00
  Q 500.77 74.00 500.76 74.53
  Q 500.16 124.94 500.77 172.45
  Q 500.78 172.96 501.29 173.02
  L 518.44 174.85
  Q 518.75 174.89 518.75 175.20
  L 518.75 182.00
  Q 518.75 182.25 518.50 182.25
  L 466.50 182.25
  Q 466.25 182.25 466.25 182.00
  L 466.25 175.23
  Q 466.25 174.89 466.58 174.86
  L 483.70 173.03
  Q 484.26 172.97 484.24 172.40
  C 484.12 169.58 484.44 166.69 484.45 163.85
  Q 484.74 121.60 484.30 84.00
  Q 484.25 79.30 484.19 74.63
  Q 484.18 74.00 483.55 74.00
  Z"
/>
<path fill="#71c8ee" d="
  M 113.49 89.79
  Q 122.87 99.74 132.23 110.15
  Q 140.41 119.26 146.10 124.53
  Q 166.75 143.63 190.47 158.64
  Q 215.36 174.39 241.76 185.81
  C 257.20 192.49 272.85 196.37 289.68 198.97
  Q 298.13 200.28 307.22 200.58
  C 308.73 200.63 310.12 201.11 311.60 201.12
  Q 324.90 201.24 337.83 200.13
  L 369.20 230.23
  Q 369.87 230.88 369.10 231.41
  Q 359.90 237.71 348.65 241.54
  C 344.01 242.76 339.51 244.41 334.82 245.61
  Q 308.14 252.44 278.67 250.90
  C 267.02 250.30 255.64 249.07 244.41 246.32
  Q 214.75 239.05 186.57 226.94
  Q 153.39 212.68 128.37 193.86
  Q 120.98 188.29 112.28 181.17
  Q 99.01 170.30 85.91 159.82
  Q 72.68 148.76 64.06 139.43
  Q 45.44 119.24 33.42 107.65
  Q 32.92 107.17 33.52 106.84
  Q 39.23 103.65 45.56 101.25
  Q 66.67 93.27 89.01 91.13
  Q 100.71 90.00 113.49 89.79
  Z"
/>
<path fill="#231f20" d="
  M 684.93 118.05
  C 690.53 105.24 703.62 91.03 718.51 99.27
  Q 720.38 100.31 721.88 102.30
  Q 722.26 102.80 722.24 103.43
  C 722.11 109.37 720.21 115.36 713.20 115.76
  C 707.17 116.11 703.96 113.72 699.57 110.09
  A 0.58 0.57 -44.5 0 0 698.84 110.09
  C 692.68 114.97 688.72 121.49 685.84 128.90
  Q 684.66 131.95 684.68 135.59
  Q 684.75 150.08 684.79 165.96
  Q 684.80 169.17 685.08 172.72
  Q 685.11 173.17 685.55 173.25
  L 699.01 175.68
  Q 699.50 175.77 699.50 176.26
  L 699.50 181.75
  Q 699.50 182.25 699.00 182.25
  L 658.00 182.25
  Q 657.51 182.25 657.51 181.75
  L 657.50 176.26
  A 0.61 0.60 84.9 0 1 657.99 175.66
  L 669.72 173.53
  Q 670.17 173.45 670.18 173.00
  Q 670.66 151.92 670.46 131.21
  Q 670.38 123.09 669.97 115.76
  Q 669.94 115.27 669.46 115.22
  L 656.60 113.77
  Q 656.00 113.70 656.00 113.10
  L 656.00 107.96
  A 0.96 0.95 78.3 0 1 656.57 107.08
  L 678.43 97.46
  A 3.07 3.06 -14.6 0 1 682.72 99.97
  L 684.44 117.97
  Q 684.53 118.97 684.93 118.05
  Z"
/>
<path fill="#231f20" d="
  M 744.00 140.96
  C 744.43 155.99 750.77 169.65 766.06 172.52
  C 778.54 174.85 788.45 170.63 796.47 161.13
  Q 796.87 160.65 797.38 161.04
  L 800.57 163.48
  Q 801.20 163.96 800.83 164.65
  C 792.43 180.31 777.59 186.43 760.35 183.84
  C 739.69 180.74 729.56 163.54 728.95 143.98
  C 728.40 126.70 734.92 109.92 750.77 101.38
  Q 759.37 96.74 769.35 96.87
  C 785.73 97.09 798.08 107.21 800.72 123.56
  Q 802.01 131.54 800.29 139.43
  A 1.04 1.04 0.0 0 1 799.27 140.25
  L 744.70 140.25
  Q 743.98 140.25 744.00 140.96
  Z
  M 759.81 106.78
  C 750.10 110.98 745.45 121.85 744.39 132.18
  Q 744.33 132.73 744.89 132.74
  Q 761.13 132.81 776.22 132.70
  C 780.97 132.66 785.50 131.96 786.89 126.69
  Q 787.61 123.97 786.99 120.98
  C 784.36 108.29 771.71 101.64 759.81 106.78
  Z"
/>
<path fill="#231f20" d="
  M 832.98 140.99
  C 833.53 156.04 839.69 169.58 854.95 172.49
  C 867.58 174.90 877.34 170.64 885.48 161.13
  Q 885.89 160.65 886.38 161.04
  L 889.48 163.42
  A 1.17 1.17 0.0 0 1 889.78 164.93
  Q 877.18 186.71 851.77 184.13
  C 826.00 181.51 816.19 159.16 818.19 136.08
  C 820.05 114.55 835.78 96.61 858.39 96.87
  C 882.07 97.15 893.81 117.43 889.32 139.33
  Q 889.13 140.25 888.20 140.25
  L 833.70 140.25
  Q 832.95 140.25 832.98 140.99
  Z
  M 869.54 109.75
  C 859.21 101.20 845.76 104.74 838.80 115.62
  Q 834.44 122.43 833.39 132.16
  Q 833.33 132.72 833.90 132.73
  Q 852.46 132.85 866.92 132.65
  Q 873.80 132.55 875.61 127.57
  C 877.77 121.64 874.27 113.66 869.54 109.75
  Z"
/>
<path fill="#231f20" d="
  M 1051.99 140.98
  C 1052.47 155.72 1058.54 169.45 1073.70 172.43
  Q 1090.76 175.77 1102.29 163.50
  Q 1103.40 162.32 1104.51 161.12
  Q 1104.91 160.68 1105.38 161.04
  L 1108.58 163.49
  A 0.91 0.90 33.0 0 1 1108.83 164.63
  C 1100.39 180.43 1085.38 186.51 1068.03 183.78
  C 1047.86 180.60 1037.84 163.96 1036.99 144.74
  C 1036.32 129.75 1040.66 115.95 1051.96 105.95
  C 1062.10 96.99 1078.23 94.21 1090.81 99.64
  C 1106.45 106.39 1111.57 123.20 1108.31 139.36
  A 1.11 1.10 -84.2 0 1 1107.23 140.25
  L 1052.70 140.25
  Q 1051.97 140.25 1051.99 140.98
  Z
  M 1095.20 123.45
  C 1095.01 114.08 1086.99 105.72 1077.72 105.08
  C 1062.10 104.02 1054.02 117.92 1052.39 132.14
  Q 1052.32 132.73 1052.91 132.73
  Q 1069.34 132.83 1085.62 132.65
  Q 1095.39 132.55 1095.20 123.45
  Z"
/>
<path fill="#231f20" d="
  M 1172.41 171.18
  C 1163.78 179.67 1156.26 185.86 1143.26 184.13
  C 1133.18 182.78 1125.68 176.69 1124.17 166.30
  Q 1122.26 153.12 1133.15 145.64
  C 1144.34 137.96 1158.71 133.52 1171.88 130.50
  Q 1172.52 130.35 1172.52 129.69
  C 1172.51 123.06 1173.22 113.08 1167.65 108.13
  C 1162.78 103.79 1153.04 104.64 1147.15 106.02
  Q 1146.64 106.14 1146.49 106.65
  Q 1145.17 111.21 1143.78 115.85
  C 1141.89 122.12 1139.47 126.49 1132.31 125.43
  C 1128.18 124.81 1125.13 120.84 1126.60 116.69
  C 1132.45 100.19 1150.19 95.44 1165.91 97.21
  C 1181.49 98.97 1186.68 110.61 1186.72 124.69
  Q 1186.78 145.26 1186.74 164.75
  Q 1186.74 165.90 1187.43 169.45
  C 1188.79 176.39 1195.63 175.94 1199.49 171.29
  A 0.64 0.64 0.0 0 1 1200.47 171.27
  L 1203.21 174.40
  Q 1203.62 174.86 1203.29 175.38
  Q 1197.51 184.53 1187.47 183.81
  C 1179.87 183.26 1174.80 178.74 1173.20 171.42
  Q 1173.02 170.58 1172.41 171.18
  Z
  M 1160.15 171.24
  Q 1165.50 168.64 1172.08 163.63
  Q 1172.50 163.31 1172.50 162.78
  L 1172.50 137.69
  A 0.46 0.46 0.0 0 0 1171.92 137.25
  Q 1162.71 139.80 1154.93 142.92
  C 1146.48 146.31 1137.69 151.92 1139.14 162.35
  C 1139.89 167.75 1143.27 171.29 1148.58 172.34
  Q 1155.19 173.65 1160.15 171.24
  Z"
/>
<path fill="#231f20" d="
  M 1256.73 108.73
  Q 1256.58 107.97 1255.88 107.64
  C 1248.92 104.39 1238.01 103.37 1231.74 108.72
  C 1226.51 113.17 1227.19 122.21 1232.38 126.13
  Q 1235.44 128.43 1238.88 129.77
  C 1254.25 135.78 1277.60 141.97 1273.23 164.02
  C 1270.69 176.82 1257.98 182.94 1245.47 184.13
  Q 1228.70 185.73 1214.48 177.94
  Q 1213.96 177.65 1213.93 177.05
  L 1213.26 159.26
  Q 1213.23 158.50 1213.99 158.50
  L 1222.00 158.50
  Q 1222.76 158.50 1222.93 159.25
  L 1226.06 172.98
  A 1.15 1.14 4.4 0 0 1226.78 173.81
  Q 1237.89 178.07 1249.57 175.11
  C 1254.83 173.77 1259.32 170.03 1259.76 164.28
  C 1260.35 156.69 1255.21 152.35 1248.92 149.88
  Q 1241.13 146.81 1232.70 143.57
  Q 1224.40 140.37 1219.46 134.83
  C 1211.97 126.42 1213.19 113.49 1220.91 105.58
  Q 1227.62 98.70 1238.51 97.29
  Q 1254.92 95.17 1268.54 103.82
  Q 1269.04 104.13 1269.01 104.72
  L 1268.33 121.23
  Q 1268.30 122.00 1267.52 122.00
  L 1259.94 122.00
  Q 1259.36 122.00 1259.25 121.43
  L 1256.73 108.73
  Z"
/>
<path fill="#231f20" d="
  M 1290.48 124.02
  C 1295.81 107.86 1310.20 97.00 1327.18 96.92
  C 1348.28 96.83 1363.76 111.33 1367.03 131.86
  C 1370.94 156.41 1359.44 180.51 1332.90 184.07
  C 1328.11 184.72 1323.06 184.43 1318.43 183.32
  C 1299.79 178.88 1289.32 163.93 1288.07 145.30
  Q 1287.29 133.68 1290.48 124.02
  Z
  M 1324.70 105.17
  C 1310.18 107.16 1305.16 120.97 1304.13 133.96
  C 1302.98 148.57 1304.48 172.03 1322.67 175.75
  Q 1330.74 177.40 1337.52 174.20
  C 1353.51 166.67 1353.24 139.73 1350.20 125.74
  C 1347.46 113.15 1338.64 103.25 1324.70 105.17
  Z"
/>
<path fill="#231f20" d="
  M 1410.87 111.65
  C 1419.38 102.85 1431.81 95.88 1444.24 96.98
  Q 1457.75 98.18 1461.50 111.01
  Q 1463.77 118.79 1463.74 127.22
  Q 1463.64 151.48 1464.00 172.74
  Q 1464.01 173.28 1464.53 173.38
  L 1476.02 175.69
  A 0.59 0.59 0.0 0 1 1476.50 176.27
  L 1476.50 181.75
  Q 1476.50 182.25 1476.00 182.25
  L 1436.25 182.25
  Q 1436.00 182.25 1436.00 182.00
  L 1436.00 176.01
  Q 1436.00 175.78 1436.23 175.74
  L 1448.73 173.46
  Q 1449.28 173.36 1449.29 172.81
  Q 1449.73 144.77 1449.39 126.06
  C 1449.26 118.86 1446.96 110.81 1438.51 109.60
  C 1428.19 108.11 1418.94 113.13 1411.19 119.81
  Q 1410.79 120.15 1410.79 120.67
  Q 1410.65 144.80 1410.86 166.45
  Q 1410.89 169.42 1411.04 172.80
  Q 1411.06 173.29 1411.54 173.39
  L 1423.02 175.69
  Q 1423.50 175.78 1423.50 176.27
  L 1423.50 181.75
  Q 1423.50 182.25 1423.00 182.25
  L 1383.50 182.25
  A 0.50 0.50 0.0 0 1 1383.00 181.75
  L 1383.00 176.27
  Q 1383.00 175.77 1383.48 175.69
  L 1395.73 173.46
  Q 1396.17 173.39 1396.18 172.94
  Q 1396.64 152.40 1396.48 131.30
  Q 1396.42 123.81 1395.96 115.75
  Q 1395.94 115.27 1395.46 115.22
  L 1382.60 113.77
  Q 1382.00 113.70 1382.00 113.10
  L 1382.00 107.96
  A 0.96 0.95 78.3 0 1 1382.57 107.08
  L 1404.42 97.46
  A 3.08 3.08 0.0 0 1 1408.73 99.97
  L 1409.91 111.32
  Q 1410.03 112.51 1410.87 111.65
  Z"
/>
<path fill="#231f20" d="
  M 1533.73 108.74
  Q 1533.58 107.97 1532.87 107.64
  Q 1522.92 103.08 1513.21 106.25
  Q 1506.37 108.49 1505.38 114.91
  C 1504.12 123.08 1509.26 127.21 1515.92 129.79
  C 1531.41 135.81 1554.82 142.09 1550.16 164.35
  C 1547.55 176.78 1535.07 182.83 1522.81 184.12
  Q 1506.45 185.83 1491.58 178.06
  Q 1490.96 177.73 1490.93 177.04
  L 1490.26 159.26
  Q 1490.24 158.50 1490.99 158.50
  L 1499.00 158.50
  Q 1499.76 158.50 1499.93 159.25
  L 1503.05 172.94
  A 1.38 1.37 -86.9 0 0 1503.93 173.93
  Q 1515.77 178.11 1526.89 175.01
  C 1533.92 173.04 1538.01 167.58 1536.52 160.23
  C 1535.22 153.77 1527.85 150.33 1522.08 148.28
  C 1509.93 143.94 1492.92 139.02 1491.57 123.45
  C 1490.53 111.41 1498.54 101.72 1509.90 98.53
  Q 1528.03 93.44 1545.42 103.62
  Q 1546.05 103.99 1546.02 104.71
  L 1545.33 121.23
  Q 1545.30 122.00 1544.52 122.00
  L 1536.94 122.00
  Q 1536.36 122.00 1536.25 121.43
  L 1533.73 108.74
  Z"
/>
<path fill="#00a8e7" d="
  M 85.91 159.82
  Q 99.01 170.30 112.28 181.17
  Q 120.98 188.29 128.37 193.86
  Q 153.39 212.68 186.57 226.94
  Q 214.75 239.05 244.41 246.32
  C 255.64 249.07 267.02 250.30 278.67 250.90
  Q 308.14 252.44 334.82 245.61
  C 339.51 244.41 344.01 242.76 348.65 241.54
  L 369.62 255.94
  A 0.55 0.54 -48.6 0 1 369.67 256.79
  C 352.84 272.02 331.16 281.51 308.87 286.97
  C 288.35 292.00 266.70 294.42 245.58 292.63
  C 202.91 289.01 160.04 278.83 122.62 259.36
  C 113.62 254.68 100.14 246.85 88.85 240.50
  C 73.32 231.77 58.39 222.10 44.32 211.08
  Q 33.86 202.88 23.53 195.42
  Q 19.32 192.38 15.30 189.94
  Q 14.37 189.38 15.24 188.73
  C 35.63 173.42 60.84 164.37 85.91 159.82
  Z"
/>
<path fill="#231f20" d="
  M 935.03 224.52
  C 934.78 216.10 934.63 207.03 944.18 204.40
  Q 951.75 202.31 958.58 206.76
  Q 958.79 206.89 958.68 207.12
  L 957.06 210.21
  Q 956.86 210.59 956.51 210.34
  Q 951.39 206.50 945.07 208.62
  C 938.65 210.77 939.54 219.18 939.78 224.78
  Q 939.80 225.26 940.27 225.26
  L 955.25 225.26
  Q 955.74 225.26 955.74 225.75
  L 955.74 228.75
  A 0.50 0.50 0.0 0 1 955.24 229.25
  L 940.24 229.26
  Q 939.74 229.26 939.74 229.76
  L 939.74 274.75
  Q 939.74 274.98 939.50 274.98
  L 935.25 275.00
  Q 935.00 275.00 935.00 274.75
  L 935.00 229.75
  Q 935.00 229.25 934.50 229.25
  L 926.50 229.26
  Q 925.99 229.26 926.00 228.75
  L 926.01 225.75
  Q 926.01 225.26 926.50 225.26
  L 934.32 225.26
  Q 935.05 225.26 935.03 224.52
  Z"
/>
<path fill="#231f20" d="
  M 967.04 224.66
  C 966.84 217.97 966.38 210.33 972.26 206.17
  C 977.09 202.76 985.30 203.00 990.15 206.52
  Q 990.83 207.01 990.41 207.75
  L 989.01 210.22
  Q 988.67 210.81 988.25 210.28
  C 986.58 208.15 982.20 207.75 979.74 208.00
  C 970.60 208.94 971.47 217.80 971.76 224.74
  Q 971.78 225.26 972.30 225.26
  L 987.25 225.26
  Q 987.74 225.26 987.74 225.75
  L 987.74 228.75
  Q 987.75 229.25 987.25 229.25
  L 972.24 229.26
  Q 971.74 229.26 971.74 229.76
  L 971.74 274.74
  Q 971.74 274.98 971.51 274.98
  L 967.25 275.01
  Q 967.00 275.01 967.00 274.75
  L 967.00 229.75
  Q 967.00 229.25 966.50 229.25
  L 958.50 229.26
  Q 957.99 229.26 957.99 228.75
  L 958.01 225.75
  Q 958.02 225.26 958.50 225.26
  L 966.46 225.26
  Q 967.05 225.26 967.04 224.66
  Z"
/>
<rect fill="#231f20" x="529.00" y="204.24" width="5.00" height="70.74" rx="0.68"/>
<path fill="#231f20" d="
  M 617.74 264.20
  L 617.75 274.50
  Q 617.75 275.00 617.25 275.00
  L 613.37 275.00
  Q 613.00 275.00 613.00 274.62
  L 613.00 204.51
  Q 613.00 204.27 613.24 204.27
  L 617.75 204.25
  Q 618.00 204.25 618.00 204.50
  L 618.00 234.54
  Q 618.01 236.29 618.95 234.82
  C 624.90 225.56 636.90 222.54 646.92 226.28
  Q 660.93 231.51 662.64 247.30
  C 663.38 254.13 661.36 262.45 656.60 267.44
  Q 647.80 276.65 635.22 275.19
  Q 623.97 273.89 618.13 264.09
  Q 617.74 263.43 617.74 264.20
  Z
  M 637.8530 271.2800
  A 21.20 20.32 90.1 0 0 658.2100 250.1155
  A 21.20 20.32 90.1 0 0 637.9270 228.8800
  A 21.20 20.32 90.1 0 0 617.5700 250.0445
  A 21.20 20.32 90.1 0 0 637.8530 271.2800
  Z"
/>
<rect fill="#231f20" x="733.01" y="204.23" width="4.98" height="70.76" rx="0.72"/>
<rect fill="#231f20" x="1293.01" y="204.23" width="4.98" height="70.74" rx="0.68"/>
<circle fill="#231f20" cx="999.65" cy="209.18" r="3.91"/>
<circle fill="#231f20" cx="1422.40" cy="209.18" r="3.91"/>
<path fill="#231f20" d="
  M 481.52 212.41
  C 465.57 214.04 454.37 227.05 455.14 243.23
  C 456.31 267.83 484.15 278.24 503.28 265.80
  A 2.16 2.14 -16.7 0 0 504.26 264.00
  L 504.26 242.00
  A 0.25 0.24 -90.0 0 1 504.50 241.75
  L 508.75 241.75
  Q 509.00 241.75 509.00 242.00
  L 509.02 266.43
  Q 509.02 266.99 508.60 267.36
  Q 502.28 272.88 493.53 274.64
  C 469.25 279.51 447.81 262.89 450.50 237.38
  C 452.03 222.92 462.51 211.75 476.50 208.66
  C 487.37 206.26 500.70 208.11 508.82 216.43
  Q 509.27 216.89 508.83 217.37
  L 506.75 219.69
  Q 506.31 220.17 505.84 219.71
  C 499.56 213.46 490.39 211.51 481.52 212.41
  Z"
/>
<path fill="#231f20" d="
  M 812.97 269.39
  Q 823.04 265.32 821.02 255.01
  C 820.01 249.83 813.53 246.79 808.73 245.57
  Q 801.14 243.63 794.09 241.70
  C 786.96 239.75 780.22 235.41 779.75 227.22
  C 779.18 217.51 785.14 210.77 794.12 208.74
  Q 809.71 205.21 823.23 213.42
  Q 823.47 213.56 823.36 213.81
  L 821.85 217.39
  Q 821.74 217.65 821.50 217.50
  Q 810.16 210.14 796.61 212.63
  C 792.52 213.38 788.05 215.68 786.05 219.47
  C 781.26 228.53 787.57 235.30 796.01 237.54
  Q 803.42 239.51 811.37 241.62
  Q 816.72 243.05 820.86 246.12
  C 827.19 250.82 827.69 260.03 823.84 266.18
  Q 820.11 272.13 812.83 274.10
  C 801.52 277.17 786.86 275.35 778.03 266.63
  Q 777.87 266.48 777.98 266.29
  L 779.92 262.97
  Q 780.06 262.72 780.26 262.93
  C 788.28 270.84 803.06 273.39 812.97 269.39
  Z"
/>
<path fill="#231f20" d="
  M 1206.05 269.35
  Q 1215.99 265.29 1214.06 255.03
  C 1213.11 249.97 1206.72 246.92 1202.08 245.67
  Q 1195.74 243.96 1189.36 242.38
  C 1184.15 241.09 1178.44 238.83 1175.17 234.33
  C 1171.76 229.63 1172.05 221.99 1174.77 217.39
  Q 1178.66 210.80 1186.90 208.81
  Q 1202.40 205.07 1216.24 213.43
  Q 1216.46 213.57 1216.36 213.81
  L 1214.85 217.39
  Q 1214.74 217.66 1214.49 217.50
  Q 1203.09 210.14 1189.57 212.63
  C 1182.85 213.86 1177.46 218.42 1177.51 225.74
  C 1177.55 233.02 1184.48 236.54 1190.70 238.05
  Q 1197.93 239.80 1205.22 241.89
  C 1210.32 243.35 1216.20 246.50 1218.15 251.72
  C 1221.94 261.85 1215.90 271.26 1205.80 274.12
  C 1194.41 277.35 1179.97 275.07 1171.09 266.80
  Q 1170.83 266.56 1171.01 266.26
  L 1172.85 263.07
  Q 1173.05 262.72 1173.34 263.00
  C 1181.49 270.86 1196.07 273.42 1206.05 269.35
  Z"
/>
<path fill="#231f20" d="
  M 842.00 224.63
  L 842.00 214.75
  Q 842.00 214.26 842.50 214.26
  L 846.25 214.27
  Q 846.74 214.27 846.74 214.75
  L 846.74 224.75
  Q 846.74 225.26 847.25 225.26
  L 862.25 225.26
  Q 862.74 225.26 862.74 225.75
  L 862.74 229.01
  Q 862.74 229.25 862.49 229.25
  L 847.29 229.26
  Q 846.74 229.26 846.74 229.80
  Q 846.72 245.18 846.76 260.79
  Q 846.79 269.90 854.18 271.13
  Q 859.33 272.00 863.38 268.89
  Q 863.88 268.51 864.19 269.05
  L 865.56 271.46
  Q 865.84 271.95 865.39 272.29
  Q 861.13 275.59 854.93 275.37
  C 845.24 275.03 841.90 268.63 841.96 260.11
  Q 842.05 244.10 841.98 229.77
  Q 841.98 229.24 841.46 229.25
  L 833.50 229.26
  Q 832.99 229.26 833.00 228.75
  L 833.01 225.75
  Q 833.01 225.26 833.50 225.26
  L 841.37 225.26
  Q 842.00 225.26 842.00 224.63
  Z"
/>
<path fill="#231f20" d="
  M 1383.00 224.63
  L 1383.00 214.75
  Q 1383.00 214.26 1383.50 214.26
  L 1387.25 214.27
  Q 1387.74 214.27 1387.74 214.75
  L 1387.74 224.75
  Q 1387.74 225.26 1388.25 225.26
  L 1403.25 225.26
  Q 1403.74 225.26 1403.74 225.75
  L 1403.74 228.75
  Q 1403.74 229.25 1403.24 229.25
  L 1388.29 229.26
  Q 1387.69 229.26 1387.69 229.86
  Q 1387.84 244.61 1387.69 258.81
  C 1387.63 264.74 1388.74 270.34 1395.59 271.19
  Q 1400.60 271.81 1404.22 268.99
  Q 1404.88 268.47 1405.29 269.21
  L 1406.47 271.34
  Q 1406.91 272.14 1406.13 272.61
  C 1396.17 278.57 1383.14 275.33 1383.04 261.73
  Q 1382.93 246.19 1383.01 229.79
  A 0.54 0.53 0.5 0 0 1382.47 229.25
  L 1374.50 229.26
  Q 1373.99 229.26 1374.00 228.75
  L 1374.01 225.75
  Q 1374.01 225.26 1374.50 225.26
  L 1382.37 225.26
  Q 1383.00 225.26 1383.00 224.63
  Z"
/>
<path fill="#231f20" d="
  M 574.0104 275.5669
  A 25.49 25.11 89.1 0 1 548.5031 250.4744
  A 25.49 25.11 89.1 0 1 573.2096 224.5931
  A 25.49 25.11 89.1 0 1 598.7169 249.6856
  A 25.49 25.11 89.1 0 1 574.0104 275.5669
  Z
  M 573.7211 271.2897
  A 21.21 20.28 89.7 0 0 593.8897 249.9738
  A 21.21 20.28 89.7 0 0 573.4989 228.8703
  A 21.21 20.28 89.7 0 0 553.3303 250.1862
  A 21.21 20.28 89.7 0 0 573.7211 271.2897
  Z"
/>
<path fill="#231f20" d="
  M 709.08 266.90
  Q 704.51 273.85 695.93 275.09
  C 686.51 276.44 673.98 273.45 673.69 261.67
  C 673.44 251.36 681.78 247.33 690.85 247.28
  Q 699.79 247.23 708.57 247.28
  Q 709.17 247.29 709.21 246.69
  C 709.72 238.74 708.29 231.36 699.33 229.51
  Q 687.88 227.16 677.71 234.94
  Q 677.32 235.24 677.04 234.84
  L 675.28 232.29
  Q 674.88 231.72 675.44 231.31
  Q 686.70 222.98 700.23 225.29
  Q 709.05 226.79 712.45 234.20
  Q 714.17 237.95 714.08 245.46
  Q 713.89 260.42 714.04 274.42
  Q 714.04 274.99 713.47 274.99
  L 710.01 275.00
  Q 709.52 275.00 709.52 274.51
  L 709.52 267.03
  Q 709.52 266.23 709.08 266.90
  Z
  M 686.72 270.84
  C 695.01 272.87 703.38 270.64 708.07 263.11
  C 710.07 259.90 709.14 255.43 709.32 251.69
  Q 709.35 251.05 708.71 251.04
  Q 694.08 250.81 688.72 251.10
  C 676.15 251.78 674.46 267.85 686.72 270.84
  Z"
/>
<path fill="#231f20" d="
  M 910.06 266.90
  Q 905.75 273.60 897.45 274.99
  C 887.16 276.72 873.69 273.08 874.74 259.82
  C 875.46 250.67 883.71 247.30 891.88 247.27
  Q 901.18 247.24 909.64 247.28
  Q 910.18 247.28 910.22 246.74
  C 910.83 238.82 909.24 231.38 900.33 229.52
  Q 889.05 227.16 878.88 234.81
  Q 878.30 235.24 877.89 234.64
  L 876.30 232.30
  A 0.77 0.76 -35.4 0 1 876.48 231.25
  Q 887.78 223.02 901.16 225.28
  Q 910.07 226.78 913.45 234.19
  Q 915.14 237.90 915.07 245.10
  Q 914.91 260.35 915.02 274.73
  Q 915.02 275.00 914.74 275.00
  L 910.75 274.99
  Q 910.52 274.99 910.52 274.75
  L 910.52 267.04
  Q 910.52 266.18 910.06 266.90
  Z
  M 888.14 270.95
  C 896.42 272.76 904.67 270.48 909.15 262.93
  C 911.07 259.70 910.09 255.32 910.33 251.71
  Q 910.37 251.05 909.71 251.04
  Q 895.08 250.81 889.72 251.10
  C 876.89 251.80 875.54 268.20 888.14 270.95
  Z"
/>
<path fill="#231f20" d="
  M 1026.74 234.70
  Q 1026.74 235.71 1027.25 234.84
  C 1031.48 227.62 1038.77 224.67 1046.89 224.76
  C 1058.27 224.88 1066.23 232.00 1066.64 243.66
  Q 1066.91 251.47 1066.71 274.75
  Q 1066.70 274.98 1066.47 274.98
  L 1062.28 275.01
  A 0.28 0.28 0.0 0 1 1062.00 274.73
  Q 1062.00 260.89 1061.99 246.49
  C 1061.99 234.97 1055.57 228.29 1043.83 229.13
  C 1036.95 229.62 1031.35 233.02 1028.44 239.52
  Q 1026.82 243.17 1026.93 250.69
  Q 1027.10 262.56 1026.84 274.24
  Q 1026.82 275.02 1026.04 275.01
  L 1022.74 274.98
  Q 1022.00 274.98 1022.00 274.24
  L 1022.00 225.75
  Q 1022.00 225.26 1022.50 225.26
  L 1026.25 225.26
  Q 1026.74 225.27 1026.74 225.75
  L 1026.74 234.70
  Z"
/>
<path fill="#231f20" d="
  M 1126.53 235.48
  L 1126.51 225.50
  Q 1126.51 225.26 1126.75 225.26
  L 1130.74 225.25
  A 0.25 0.24 0.0 0 1 1130.99 225.49
  Q 1131.05 249.18 1130.96 270.95
  C 1130.91 282.57 1125.78 291.40 1113.25 293.38
  C 1103.60 294.91 1091.84 293.09 1084.41 286.35
  Q 1084.01 285.98 1084.32 285.54
  L 1086.26 282.75
  Q 1086.54 282.35 1086.91 282.66
  C 1093.84 288.56 1102.67 290.39 1111.63 289.30
  C 1126.54 287.49 1126.54 274.66 1126.30 262.68
  Q 1126.29 261.90 1125.84 262.55
  Q 1117.67 274.39 1102.93 273.03
  C 1086.92 271.56 1077.60 257.37 1081.66 241.88
  C 1084.29 231.85 1093.72 225.16 1104.05 224.80
  Q 1118.68 224.29 1125.98 235.64
  Q 1126.53 236.49 1126.53 235.48
  Z
  M 1126.5499 249.0320
  A 20.62 20.13 0.2 0 0 1106.0003 228.8301
  A 20.62 20.13 0.2 0 0 1085.3101 248.8880
  A 20.62 20.13 0.2 0 0 1105.8597 269.0899
  A 20.62 20.13 0.2 0 0 1126.5499 249.0320
  Z"
/>
<path fill="#231f20" d="
  M 1254.0549 275.5661
  A 25.49 25.11 89.0 0 1 1228.5038 250.5182
  A 25.49 25.11 89.0 0 1 1253.1651 224.5939
  A 25.49 25.11 89.0 0 1 1278.7162 249.6418
  A 25.49 25.11 89.0 0 1 1254.0549 275.5661
  Z
  M 1253.7211 271.2897
  A 21.21 20.28 89.7 0 0 1273.8897 249.9738
  A 21.21 20.28 89.7 0 0 1253.4989 228.8703
  A 21.21 20.28 89.7 0 0 1233.3303 250.1862
  A 21.21 20.28 89.7 0 0 1253.7211 271.2897
  Z"
/>
<path fill="#231f20" d="
  M 1465.0104 275.5669
  A 25.49 25.11 89.1 0 1 1439.5031 250.4744
  A 25.49 25.11 89.1 0 1 1464.2096 224.5931
  A 25.49 25.11 89.1 0 1 1489.7169 249.6856
  A 25.49 25.11 89.1 0 1 1465.0104 275.5669
  Z
  M 1464.7211 271.2897
  A 21.21 20.28 89.7 0 0 1484.8897 249.9738
  A 21.21 20.28 89.7 0 0 1464.4989 228.8703
  A 21.21 20.28 89.7 0 0 1444.3303 250.1862
  A 21.21 20.28 89.7 0 0 1464.7211 271.2897
  Z"
/>
<path fill="#231f20" d="
  M 1508.74 234.74
  Q 1508.74 235.68 1509.23 234.88
  Q 1513.82 227.20 1522.55 225.39
  C 1536.83 222.43 1548.55 229.50 1548.68 245.09
  Q 1548.81 260.19 1548.73 274.73
  Q 1548.73 274.98 1548.47 274.98
  L 1544.28 275.01
  Q 1543.99 275.01 1543.99 274.72
  Q 1544.00 261.32 1544.01 246.58
  C 1544.02 238.11 1540.64 231.45 1532.45 229.59
  Q 1529.09 228.82 1525.59 229.14
  C 1518.85 229.74 1513.40 233.01 1510.52 239.36
  Q 1508.82 243.10 1508.92 250.68
  Q 1509.08 262.49 1508.89 274.14
  Q 1508.88 275.02 1507.99 275.01
  L 1504.99 274.99
  Q 1504.00 274.98 1504.00 273.99
  L 1504.00 225.75
  Q 1504.00 225.26 1504.50 225.26
  L 1508.25 225.26
  Q 1508.74 225.27 1508.74 225.75
  L 1508.74 234.74
  Z"
/>
<rect fill="#231f20" x="997.26" y="225.26" width="5.00" height="49.74" rx="0.38"/>
<path fill="#231f20" d="
  M 1356.74 265.17
  C 1354.05 270.68 1348.16 274.22 1342.23 275.07
  C 1332.48 276.47 1322.61 273.37 1318.99 263.47
  Q 1317.62 259.73 1317.58 256.03
  Q 1317.44 240.75 1317.54 225.48
  Q 1317.54 225.26 1317.76 225.26
  L 1322.01 225.26
  Q 1322.29 225.26 1322.29 225.55
  Q 1322.14 242.07 1322.37 255.55
  C 1322.55 265.83 1329.64 271.57 1339.81 271.03
  Q 1352.02 270.38 1355.78 259.52
  Q 1357.24 255.29 1357.07 247.30
  Q 1356.84 235.79 1357.08 225.47
  Q 1357.08 225.26 1357.29 225.26
  L 1361.50 225.27
  Q 1361.74 225.27 1361.74 225.50
  L 1361.74 274.50
  Q 1361.74 274.99 1361.25 275.00
  L 1357.76 275.00
  Q 1357.26 275.00 1357.26 274.50
  L 1357.26 265.29
  Q 1357.26 264.12 1356.74 265.17
  Z"
/>
<rect fill="#231f20" x="1420.00" y="225.25" width="5.00" height="49.74" rx="0.49"/>
</svg>
