<?xml version="1.0" encoding="UTF-8" standalone="no"?>
<!DOCTYPE svg PUBLIC "-//W3C//DTD SVG 1.1//EN" "http://www.w3.org/Graphics/SVG/1.1/DTD/svg11.dtd">
<svg xmlns="http://www.w3.org/2000/svg" version="1.1" viewBox="0.00 0.00 450.00 311.00">
<path fill="#ffffff" d="
  M 0.00 0.00
  L 450.00 0.00
  L 450.00 311.00
  L 0.00 311.00
  L 0.00 0.00
  Z
  M 221.25 50.80
  L 221.23 111.30
  Q 221.23 113.19 222.36 111.67
  Q 224.51 108.78 227.15 105.65
  Q 228.38 104.20 228.39 102.75
  Q 228.54 66.80 228.36 31.66
  Q 228.36 29.95 227.30 31.29
  Q 225.19 33.96 222.99 36.39
  Q 221.20 38.36 219.59 40.70
  Q 217.94 43.10 215.93 45.42
  Q 215.52 45.90 214.89 46.04
  Q 214.47 46.13 214.21 46.47
  L 205.49 57.83
  Q 203.51 60.41 201.28 62.77
  Q 197.22 67.07 194.55 71.52
  Q 194.31 71.92 194.31 72.38
  L 194.50 144.48
  Q 194.50 145.52 195.16 144.71
  L 201.19 137.31
  A 2.52 2.51 -25.8 0 0 201.74 135.74
  L 201.76 75.27
  A 3.32 3.30 64.3 0 1 202.47 73.22
  C 204.28 70.94 206.45 69.30 208.13 66.94
  C 209.25 65.36 210.71 64.18 211.83 62.58
  Q 216.14 56.41 220.53 50.56
  Q 221.25 49.60 221.25 50.80
  Z
  M 260.00 68.97
  A 0.36 0.36 0.0 0 1 260.12 69.24
  L 260.09 85.92
  A 0.36 0.36 0.0 0 0 260.18 86.15
  L 266.63 93.62
  A 0.36 0.36 0.0 0 0 267.26 93.38
  L 267.26 66.12
  A 0.36 0.36 0.0 0 0 267.14 65.85
  L 235.40 37.79
  A 0.36 0.36 0.0 0 0 234.80 38.06
  L 234.79 46.55
  A 0.36 0.36 0.0 0 0 234.91 46.82
  L 260.00 68.97
  Z
  M 253.81 101.12
  A 0.18 0.18 0.0 0 1 254.12 101.02
  Q 263.27 111.00 272.45 120.50
  C 273.53 121.62 273.77 123.00 273.77 124.51
  Q 273.74 175.15 273.76 225.47
  Q 273.76 226.00 274.29 226.00
  L 315.51 226.00
  A 0.57 0.57 0.0 0 0 315.94 225.05
  L 287.91 192.87
  Q 287.01 191.84 287.01 193.21
  L 287.00 201.41
  A 4.19 4.17 24.2 0 0 288.06 204.19
  L 301.13 218.81
  A 0.30 0.30 0.0 0 1 300.90 219.31
  L 281.18 219.25
  Q 280.79 219.25 280.79 218.86
  Q 280.95 175.84 280.75 133.24
  Q 280.72 126.89 280.65 120.75
  Q 280.63 118.95 279.41 117.65
  Q 262.63 99.79 247.03 83.27
  A 0.31 0.31 0.0 0 0 246.50 83.48
  L 246.51 218.96
  A 0.35 0.35 0.0 0 1 246.16 219.31
  L 148.31 219.26
  A 0.35 0.34 -71.1 0 1 148.04 218.70
  Q 155.92 208.64 164.67 197.59
  Q 166.01 195.89 166.01 193.75
  Q 165.96 180.54 165.98 168.73
  A 0.48 0.48 0.0 0 1 166.46 168.25
  L 178.53 168.28
  Q 179.28 168.29 179.28 169.04
  L 179.28 184.52
  Q 179.28 185.78 180.08 184.81
  L 224.45 131.71
  A 0.55 0.55 0.0 0 1 225.28 131.70
  L 239.96 148.68
  Q 240.59 149.40 240.60 148.44
  L 240.71 139.58
  Q 240.73 138.46 239.98 137.62
  L 225.03 120.68
  A 0.39 0.39 0.0 0 0 224.44 120.69
  L 187.20 165.25
  Q 186.38 166.22 186.43 164.95
  L 186.53 162.28
  Q 186.56 161.25 185.53 161.25
  L 159.29 161.27
  A 0.40 0.39 -0.0 0 0 158.89 161.66
  Q 158.85 176.42 158.93 191.51
  C 158.94 193.61 158.17 194.37 156.92 195.96
  Q 145.60 210.36 133.72 225.36
  A 0.40 0.39 19.2 0 0 134.03 226.00
  L 253.25 226.00
  A 0.36 0.36 0.0 0 0 253.61 225.64
  Q 253.55 165.85 253.61 106.53
  Q 253.61 103.84 253.81 101.12
  Z
  M 236.9077 170.6870
  A 0.48 0.48 0.0 0 0 236.4269 170.2078
  L 210.9669 170.2522
  A 0.48 0.48 0.0 0 0 210.4878 170.7331
  L 210.5323 196.2330
  A 0.48 0.48 0.0 0 0 211.0131 196.7122
  L 236.4731 196.6678
  A 0.48 0.48 0.0 0 0 236.9522 196.1869
  L 236.9077 170.6870
  Z
  M 38.36 254.89
  C 43.20 251.12 50.90 250.78 55.68 255.34
  Q 56.17 255.81 56.62 255.30
  L 57.76 253.99
  Q 58.19 253.51 57.72 253.06
  Q 56.11 251.50 54.14 250.61
  C 44.13 246.04 31.48 251.47 30.45 263.28
  C 29.11 278.46 46.41 286.49 57.59 277.09
  Q 58.27 276.52 57.68 275.85
  L 56.82 274.87
  Q 56.23 274.21 55.55 274.78
  C 46.47 282.52 32.10 275.67 33.74 263.15
  Q 34.42 257.96 38.36 254.89
  Z
  M 95.3400 264.9711
  A 16.55 16.09 -0.1 0 0 78.7619 248.9100
  A 16.55 16.09 -0.1 0 0 62.2400 265.0289
  A 16.55 16.09 -0.1 0 0 78.8181 281.0900
  A 16.55 16.09 -0.1 0 0 95.3400 264.9711
  Z
  M 106.27 256.44
  Q 106.27 255.49 106.74 256.31
  L 118.33 276.45
  A 1.22 1.22 0.0 0 0 120.44 276.45
  L 132.08 256.12
  A 0.22 0.22 0.0 0 1 132.50 256.23
  L 132.50 280.50
  Q 132.50 281.01 133.00 281.00
  L 135.35 280.98
  Q 135.70 280.98 135.70 280.63
  L 135.70 249.73
  Q 135.70 249.00 134.98 249.00
  L 133.67 249.00
  A 1.28 1.28 0.0 0 0 132.57 249.63
  L 119.67 272.33
  A 0.26 0.26 0.0 0 1 119.22 272.33
  L 106.11 249.46
  Q 105.84 249.00 105.31 249.00
  L 103.67 249.00
  Q 103.09 249.01 103.09 249.58
  L 103.09 280.79
  Q 103.09 280.98 103.29 280.98
  L 106.00 281.00
  Q 106.26 281.01 106.26 280.75
  L 106.27 256.44
  Z
  M 150.18 270.96
  C 156.75 271.13 167.17 272.18 169.96 264.04
  C 172.64 256.24 167.63 249.45 159.57 249.13
  Q 153.32 248.88 146.77 249.03
  Q 146.10 249.05 146.10 249.71
  L 146.09 280.54
  Q 146.08 281.00 146.54 281.00
  L 149.09 281.00
  Q 149.44 281.00 149.44 280.65
  L 149.45 271.68
  Q 149.45 270.95 150.18 270.96
  Z
  M 180.93 272.73
  L 197.23 272.73
  Q 197.78 272.73 198.00 273.23
  L 201.29 280.52
  Q 201.51 281.00 202.03 281.00
  L 204.50 281.00
  Q 205.03 281.00 204.81 280.51
  L 191.25 250.27
  A 2.41 2.41 0.0 0 0 186.85 250.27
  L 173.34 280.45
  A 0.38 0.38 0.0 0 0 173.69 280.99
  L 176.00 281.00
  Q 176.55 281.00 176.77 280.50
  L 180.01 273.33
  Q 180.27 272.73 180.93 272.73
  Z
  M 213.45 255.75
  A 0.23 0.23 0.0 0 1 213.87 255.61
  Q 223.34 267.81 233.06 280.35
  C 233.74 281.22 234.74 281.01 235.71 281.03
  Q 236.29 281.05 236.29 280.47
  L 236.29 249.27
  A 0.27 0.26 89.0 0 0 236.02 249.00
  L 233.25 249.02
  A 0.22 0.22 0.0 0 0 233.03 249.24
  L 233.03 274.00
  Q 233.03 274.97 232.43 274.20
  Q 223.19 262.30 213.38 249.67
  C 212.72 248.81 211.68 248.89 210.72 249.02
  Q 210.10 249.10 210.09 249.72
  L 210.09 280.79
  Q 210.09 280.99 210.29 280.99
  L 213.23 280.99
  Q 213.44 280.99 213.44 280.77
  L 213.45 255.75
  Z
  M 255.63 266.46
  A 0.36 0.35 -44.7 0 1 255.02 266.46
  L 244.88 249.52
  A 1.07 1.06 74.4 0 0 243.97 249.00
  L 241.74 249.00
  Q 241.05 249.00 241.40 249.60
  Q 246.64 258.37 252.83 268.61
  Q 253.64 269.96 253.62 271.52
  Q 253.53 276.36 253.57 280.56
  A 0.44 0.44 0.0 0 0 254.01 281.00
  L 256.43 281.00
  Q 256.86 281.00 256.86 280.57
  L 256.84 270.47
  Q 256.84 269.96 257.10 269.53
  L 269.07 249.58
  Q 269.40 249.02 268.75 249.01
  L 267.06 248.99
  A 1.67 1.66 15.6 0 0 265.61 249.80
  L 255.63 266.46
  Z
  M 289.45 255.75
  A 0.22 0.22 0.0 0 1 289.85 255.61
  Q 299.00 267.34 309.01 280.31
  C 309.71 281.22 310.71 281.01 311.72 281.03
  Q 312.29 281.05 312.29 280.47
  L 312.29 249.27
  A 0.27 0.27 0.0 0 0 312.02 249.00
  L 309.26 249.01
  A 0.23 0.23 0.0 0 0 309.03 249.24
  L 309.03 274.00
  Q 309.03 274.99 308.43 274.20
  Q 299.18 262.25 289.36 249.68
  C 288.71 248.83 287.49 248.82 286.57 249.12
  Q 286.10 249.27 286.10 249.77
  L 286.09 280.36
  A 0.63 0.63 0.0 0 0 286.72 280.99
  L 288.97 281.00
  A 0.47 0.47 0.0 0 0 289.44 280.53
  L 289.45 255.75
  Z
  M 324.93 272.73
  L 341.23 272.73
  Q 341.78 272.73 342.00 273.23
  L 345.29 280.52
  Q 345.51 281.00 346.03 281.00
  L 348.50 281.00
  Q 349.03 281.00 348.81 280.51
  L 335.25 250.26
  A 2.41 2.41 0.0 0 0 330.85 250.27
  L 317.33 280.46
  Q 317.09 280.99 317.68 281.00
  L 320.00 281.00
  Q 320.55 281.00 320.77 280.50
  L 324.01 273.33
  Q 324.27 272.73 324.93 272.73
  Z
  M 383.50 256.43
  L 383.50 280.74
  Q 383.50 280.98 383.74 280.99
  L 386.34 281.00
  Q 386.70 281.01 386.70 280.65
  L 386.70 249.73
  Q 386.70 249.00 385.98 249.00
  L 384.55 249.00
  Q 383.94 249.00 383.63 249.53
  L 370.67 272.33
  A 0.26 0.26 0.0 0 1 370.22 272.33
  L 357.11 249.46
  Q 356.84 248.99 356.30 249.00
  L 354.79 249.00
  Q 354.09 249.01 354.09 249.71
  L 354.09 280.79
  Q 354.09 280.99 354.29 280.99
  L 357.10 280.98
  Q 357.26 280.98 357.26 280.82
  L 357.27 256.67
  Q 357.27 255.50 357.85 256.52
  L 369.33 276.45
  A 1.22 1.22 0.0 0 0 371.44 276.45
  L 382.98 256.30
  Q 383.50 255.38 383.50 256.43
  Z
  M 400.45 266.46
  A 0.46 0.46 0.0 0 1 400.91 266.00
  L 416.25 266.00
  A 0.46 0.46 0.0 0 0 416.71 265.52
  L 416.62 263.65
  A 0.46 0.46 0.0 0 0 416.16 263.21
  L 400.91 263.18
  A 0.46 0.46 0.0 0 1 400.45 262.72
  L 400.45 252.34
  A 0.46 0.46 0.0 0 1 400.91 251.88
  L 418.15 251.75
  A 0.46 0.46 0.0 0 0 418.61 251.30
  L 418.64 249.55
  A 0.46 0.46 0.0 0 0 418.18 249.08
  L 397.56 248.97
  A 0.46 0.46 0.0 0 0 397.10 249.43
  L 397.09 280.53
  A 0.46 0.46 0.0 0 0 397.55 280.99
  L 418.82 280.99
  A 0.46 0.46 0.0 0 0 419.28 280.53
  L 419.26 278.57
  A 0.46 0.46 0.0 0 0 418.80 278.11
  L 400.90 278.10
  A 0.46 0.46 0.0 0 1 400.44 277.64
  L 400.45 266.46
  Z"
/>
<path fill="#ff3f00" d="
  M 221.25 50.80
  Q 221.25 49.60 220.53 50.56
  Q 216.14 56.41 211.83 62.58
  C 210.71 64.18 209.25 65.36 208.13 66.94
  C 206.45 69.30 204.28 70.94 202.47 73.22
  A 3.32 3.30 64.3 0 0 201.76 75.27
  L 201.74 135.74
  A 2.52 2.51 -25.8 0 1 201.19 137.31
  L 195.16 144.71
  Q 194.50 145.52 194.50 144.48
  L 194.31 72.38
  Q 194.31 71.92 194.55 71.52
  Q 197.22 67.07 201.28 62.77
  Q 203.51 60.41 205.49 57.83
  L 214.21 46.47
  Q 214.47 46.13 214.89 46.04
  Q 215.52 45.90 215.93 45.42
  Q 217.94 43.10 219.59 40.70
  Q 221.20 38.36 222.99 36.39
  Q 225.19 33.96 227.30 31.29
  Q 228.36 29.95 228.36 31.66
  Q 228.54 66.80 228.39 102.75
  Q 228.38 104.20 227.15 105.65
  Q 224.51 108.78 222.36 111.67
  Q 221.23 113.19 221.23 111.30
  L 221.25 50.80
  Z"
/>
<path fill="#cb0000" d="
  M 260.00 68.97
  L 234.91 46.82
  A 0.36 0.36 0.0 0 1 234.79 46.55
  L 234.80 38.06
  A 0.36 0.36 0.0 0 1 235.40 37.79
  L 267.14 65.85
  A 0.36 0.36 0.0 0 1 267.26 66.12
  L 267.26 93.38
  A 0.36 0.36 0.0 0 1 266.63 93.62
  L 260.18 86.15
  A 0.36 0.36 0.0 0 1 260.09 85.92
  L 260.12 69.24
  A 0.36 0.36 0.0 0 0 260.00 68.97
  Z"
/>
<path fill="#19235e" d="
  M 253.81 101.12
  Q 253.61 103.84 253.61 106.53
  Q 253.55 165.85 253.61 225.64
  A 0.36 0.36 0.0 0 1 253.25 226.00
  L 134.03 226.00
  A 0.40 0.39 19.2 0 1 133.72 225.36
  Q 145.60 210.36 156.92 195.96
  C 158.17 194.37 158.94 193.61 158.93 191.51
  Q 158.85 176.42 158.89 161.66
  A 0.40 0.39 -0.0 0 1 159.29 161.27
  L 185.53 161.25
  Q 186.56 161.25 186.53 162.28
  L 186.43 164.95
  Q 186.38 166.22 187.20 165.25
  L 224.44 120.69
  A 0.39 0.39 0.0 0 1 225.03 120.68
  L 239.98 137.62
  Q 240.73 138.46 240.71 139.58
  L 240.60 148.44
  Q 240.59 149.40 239.96 148.68
  L 225.28 131.70
  A 0.55 0.55 0.0 0 0 224.45 131.71
  L 180.08 184.81
  Q 179.28 185.78 179.28 184.52
  L 179.28 169.04
  Q 179.28 168.29 178.53 168.28
  L 166.46 168.25
  A 0.48 0.48 0.0 0 0 165.98 168.73
  Q 165.96 180.54 166.01 193.75
  Q 166.01 195.89 164.67 197.59
  Q 155.92 208.64 148.04 218.70
  A 0.35 0.34 -71.1 0 0 148.31 219.26
  L 246.16 219.31
  A 0.35 0.35 0.0 0 0 246.51 218.96
  L 246.50 83.48
  A 0.31 0.31 0.0 0 1 247.03 83.27
  Q 262.63 99.79 279.41 117.65
  Q 280.63 118.95 280.65 120.75
  Q 280.72 126.89 280.75 133.24
  Q 280.95 175.84 280.79 218.86
  Q 280.79 219.25 281.18 219.25
  L 300.90 219.31
  A 0.30 0.30 0.0 0 0 301.13 218.81
  L 288.06 204.19
  A 4.19 4.17 24.2 0 1 287.00 201.41
  L 287.01 193.21
  Q 287.01 191.84 287.91 192.87
  L 315.94 225.05
  A 0.57 0.57 0.0 0 1 315.51 226.00
  L 274.29 226.00
  Q 273.76 226.00 273.76 225.47
  Q 273.74 175.15 273.77 124.51
  C 273.77 123.00 273.53 121.62 272.45 120.50
  Q 263.27 111.00 254.12 101.02
  A 0.18 0.18 0.0 0 0 253.81 101.12
  Z"
/>
<path fill="#cb0000" d="
  M 236.9522 196.1869
  A 0.48 0.48 0.0 0 1 236.4731 196.6678
  L 211.0131 196.7122
  A 0.48 0.48 0.0 0 1 210.5323 196.2330
  L 210.4878 170.7331
  A 0.48 0.48 0.0 0 1 210.9669 170.2522
  L 236.4269 170.2078
  A 0.48 0.48 0.0 0 1 236.9077 170.6870
  L 236.9522 196.1869
  Z
  M 229.8301 177.7793
  A 0.38 0.38 0.0 0 0 229.4494 177.4000
  L 217.9694 177.4200
  A 0.38 0.38 0.0 0 0 217.5901 177.8007
  L 217.6099 189.1407
  A 0.38 0.38 0.0 0 0 217.9906 189.5200
  L 229.4706 189.5000
  A 0.38 0.38 0.0 0 0 229.8499 189.1193
  L 229.8301 177.7793
  Z"
/>
<rect fill="#ffffff" x="-6.12" y="-6.05" transform="translate(223.72,183.46) rotate(-0.1)" width="12.24" height="12.10" rx="0.38"/>
<path fill="#19235e" d="
  M 55.68 255.34
  C 50.90 250.78 43.20 251.12 38.36 254.89
  Q 34.42 257.96 33.74 263.15
  C 32.10 275.67 46.47 282.52 55.55 274.78
  Q 56.23 274.21 56.82 274.87
  L 57.68 275.85
  Q 58.27 276.52 57.59 277.09
  C 46.41 286.49 29.11 278.46 30.45 263.28
  C 31.48 251.47 44.13 246.04 54.14 250.61
  Q 56.11 251.50 57.72 253.06
  Q 58.19 253.51 57.76 253.99
  L 56.62 255.30
  Q 56.17 255.81 55.68 255.34
  Z"
/>
<path fill="#19235e" d="
  M 95.3400 264.9711
  A 16.55 16.09 -0.1 0 1 78.8181 281.0900
  A 16.55 16.09 -0.1 0 1 62.2400 265.0289
  A 16.55 16.09 -0.1 0 1 78.7619 248.9100
  A 16.55 16.09 -0.1 0 1 95.3400 264.9711
  Z
  M 91.94 265.01
  A 13.17 13.17 0.0 0 0 78.77 251.84
  A 13.17 13.17 0.0 0 0 65.60 265.01
  A 13.17 13.17 0.0 0 0 78.77 278.18
  A 13.17 13.17 0.0 0 0 91.94 265.01
  Z"
/>
<path fill="#19235e" d="
  M 106.27 256.44
  L 106.26 280.75
  Q 106.26 281.01 106.00 281.00
  L 103.29 280.98
  Q 103.09 280.98 103.09 280.79
  L 103.09 249.58
  Q 103.09 249.01 103.67 249.00
  L 105.31 249.00
  Q 105.84 249.00 106.11 249.46
  L 119.22 272.33
  A 0.26 0.26 0.0 0 0 119.67 272.33
  L 132.57 249.63
  A 1.28 1.28 0.0 0 1 133.67 249.00
  L 134.98 249.00
  Q 135.70 249.00 135.70 249.73
  L 135.70 280.63
  Q 135.70 280.98 135.35 280.98
  L 133.00 281.00
  Q 132.50 281.01 132.50 280.50
  L 132.50 256.23
  A 0.22 0.22 0.0 0 0 132.08 256.12
  L 120.44 276.45
  A 1.22 1.22 0.0 0 1 118.33 276.45
  L 106.74 256.31
  Q 106.27 255.49 106.27 256.44
  Z"
/>
<path fill="#19235e" d="
  M 149.45 271.68
  L 149.44 280.65
  Q 149.44 281.00 149.09 281.00
  L 146.54 281.00
  Q 146.08 281.00 146.09 280.54
  L 146.10 249.71
  Q 146.10 249.05 146.77 249.03
  Q 153.32 248.88 159.57 249.13
  C 167.63 249.45 172.64 256.24 169.96 264.04
  C 167.17 272.18 156.75 271.13 150.18 270.96
  Q 149.45 270.95 149.45 271.68
  Z
  M 149.47 252.18
  L 149.41 267.72
  A 0.27 0.27 0.0 0 0 149.68 267.99
  L 159.11 268.02
  A 8.14 7.36 0.2 0 0 167.28 260.69
  L 167.28 259.33
  A 8.14 7.36 0.2 0 0 159.17 251.94
  L 149.74 251.91
  A 0.27 0.27 0.0 0 0 149.47 252.18
  Z"
/>
<path fill="#19235e" d="
  M 180.01 273.33
  L 176.77 280.50
  Q 176.55 281.00 176.00 281.00
  L 173.69 280.99
  A 0.38 0.38 0.0 0 1 173.34 280.45
  L 186.85 250.27
  A 2.41 2.41 0.0 0 1 191.25 250.27
  L 204.81 280.51
  Q 205.03 281.00 204.50 281.00
  L 202.03 281.00
  Q 201.51 281.00 201.29 280.52
  L 198.00 273.23
  Q 197.78 272.73 197.23 272.73
  L 180.93 272.73
  Q 180.27 272.73 180.01 273.33
  Z
  M 181.72 269.51
  A 0.35 0.35 0.0 0 0 182.04 270.00
  L 196.02 270.00
  A 0.35 0.35 0.0 0 0 196.34 269.51
  L 189.35 253.31
  A 0.35 0.35 0.0 0 0 188.71 253.31
  L 181.72 269.51
  Z"
/>
<path fill="#19235e" d="
  M 213.45 255.75
  L 213.44 280.77
  Q 213.44 280.99 213.23 280.99
  L 210.29 280.99
  Q 210.09 280.99 210.09 280.79
  L 210.09 249.72
  Q 210.10 249.10 210.72 249.02
  C 211.68 248.89 212.72 248.81 213.38 249.67
  Q 223.19 262.30 232.43 274.20
  Q 233.03 274.97 233.03 274.00
  L 233.03 249.24
  A 0.22 0.22 0.0 0 1 233.25 249.02
  L 236.02 249.00
  A 0.27 0.26 89.0 0 1 236.29 249.27
  L 236.29 280.47
  Q 236.29 281.05 235.71 281.03
  C 234.74 281.01 233.74 281.22 233.06 280.35
  Q 223.34 267.81 213.87 255.61
  A 0.23 0.23 0.0 0 0 213.45 255.75
  Z"
/>
<path fill="#19235e" d="
  M 255.63 266.46
  L 265.61 249.80
  A 1.67 1.66 15.6 0 1 267.06 248.99
  L 268.75 249.01
  Q 269.40 249.02 269.07 249.58
  L 257.10 269.53
  Q 256.84 269.96 256.84 270.47
  L 256.86 280.57
  Q 256.86 281.00 256.43 281.00
  L 254.01 281.00
  A 0.44 0.44 0.0 0 1 253.57 280.56
  Q 253.53 276.36 253.62 271.52
  Q 253.64 269.96 252.83 268.61
  Q 246.64 258.37 241.40 249.60
  Q 241.05 249.00 241.74 249.00
  L 243.97 249.00
  A 1.07 1.06 74.4 0 1 244.88 249.52
  L 255.02 266.46
  A 0.36 0.35 -44.7 0 0 255.63 266.46
  Z"
/>
<path fill="#19235e" d="
  M 289.45 255.75
  L 289.44 280.53
  A 0.47 0.47 0.0 0 1 288.97 281.00
  L 286.72 280.99
  A 0.63 0.63 0.0 0 1 286.09 280.36
  L 286.10 249.77
  Q 286.10 249.27 286.57 249.12
  C 287.49 248.82 288.71 248.83 289.36 249.68
  Q 299.18 262.25 308.43 274.20
  Q 309.03 274.99 309.03 274.00
  L 309.03 249.24
  A 0.23 0.23 0.0 0 1 309.26 249.01
  L 312.02 249.00
  A 0.27 0.27 0.0 0 1 312.29 249.27
  L 312.29 280.47
  Q 312.29 281.05 311.72 281.03
  C 310.71 281.01 309.71 281.22 309.01 280.31
  Q 299.00 267.34 289.85 255.61
  A 0.22 0.22 0.0 0 0 289.45 255.75
  Z"
/>
<path fill="#19235e" d="
  M 324.01 273.33
  L 320.77 280.50
  Q 320.55 281.00 320.00 281.00
  L 317.68 281.00
  Q 317.09 280.99 317.33 280.46
  L 330.85 250.27
  A 2.41 2.41 0.0 0 1 335.25 250.26
  L 348.81 280.51
  Q 349.03 281.00 348.50 281.00
  L 346.03 281.00
  Q 345.51 281.00 345.29 280.52
  L 342.00 273.23
  Q 341.78 272.73 341.23 272.73
  L 324.93 272.73
  Q 324.27 272.73 324.01 273.33
  Z
  M 325.71 269.53
  A 0.34 0.34 0.0 0 0 326.02 270.00
  L 340.04 270.00
  A 0.34 0.34 0.0 0 0 340.35 269.53
  L 333.34 253.29
  A 0.34 0.34 0.0 0 0 332.72 253.29
  L 325.71 269.53
  Z"
/>
<path fill="#19235e" d="
  M 383.50 256.43
  Q 383.50 255.38 382.98 256.30
  L 371.44 276.45
  A 1.22 1.22 0.0 0 1 369.33 276.45
  L 357.85 256.52
  Q 357.27 255.50 357.27 256.67
  L 357.26 280.82
  Q 357.26 280.98 357.10 280.98
  L 354.29 280.99
  Q 354.09 280.99 354.09 280.79
  L 354.09 249.71
  Q 354.09 249.01 354.79 249.00
  L 356.30 249.00
  Q 356.84 248.99 357.11 249.46
  L 370.22 272.33
  A 0.26 0.26 0.0 0 0 370.67 272.33
  L 383.63 249.53
  Q 383.94 249.00 384.55 249.00
  L 385.98 249.00
  Q 386.70 249.00 386.70 249.73
  L 386.70 280.65
  Q 386.70 281.01 386.34 281.00
  L 383.74 280.99
  Q 383.50 280.98 383.50 280.74
  L 383.50 256.43
  Z"
/>
<path fill="#19235e" d="
  M 400.45 266.46
  L 400.44 277.64
  A 0.46 0.46 0.0 0 0 400.90 278.10
  L 418.80 278.11
  A 0.46 0.46 0.0 0 1 419.26 278.57
  L 419.28 280.53
  A 0.46 0.46 0.0 0 1 418.82 280.99
  L 397.55 280.99
  A 0.46 0.46 0.0 0 1 397.09 280.53
  L 397.10 249.43
  A 0.46 0.46 0.0 0 1 397.56 248.97
  L 418.18 249.08
  A 0.46 0.46 0.0 0 1 418.64 249.55
  L 418.61 251.30
  A 0.46 0.46 0.0 0 1 418.15 251.75
  L 400.91 251.88
  A 0.46 0.46 0.0 0 0 400.45 252.34
  L 400.45 262.72
  A 0.46 0.46 0.0 0 0 400.91 263.18
  L 416.16 263.21
  A 0.46 0.46 0.0 0 1 416.62 263.65
  L 416.71 265.52
  A 0.46 0.46 0.0 0 1 416.25 266.00
  L 400.91 266.00
  A 0.46 0.46 0.0 0 0 400.45 266.46
  Z"
/>
<path fill="#ffffff" d="
  M 149.47 252.18
  A 0.27 0.27 0.0 0 1 149.74 251.91
  L 159.17 251.94
  A 8.14 7.36 0.2 0 1 167.28 259.33
  L 167.28 260.69
  A 8.14 7.36 0.2 0 1 159.11 268.02
  L 149.68 267.99
  A 0.27 0.27 0.0 0 1 149.41 267.72
  L 149.47 252.18
  Z"
/>
<circle fill="#ffffff" cx="78.77" cy="265.01" r="13.17"/>
<path fill="#ffffff" d="
  M 181.72 269.51
  L 188.71 253.31
  A 0.35 0.35 0.0 0 1 189.35 253.31
  L 196.34 269.51
  A 0.35 0.35 0.0 0 1 196.02 270.00
  L 182.04 270.00
  A 0.35 0.35 0.0 0 1 181.72 269.51
  Z"
/>
<path fill="#ffffff" d="
  M 325.71 269.53
  L 332.72 253.29
  A 0.34 0.34 0.0 0 1 333.34 253.29
  L 340.35 269.53
  A 0.34 0.34 0.0 0 1 340.04 270.00
  L 326.02 270.00
  A 0.34 0.34 0.0 0 1 325.71 269.53
  Z"
/>
</svg>
